<?xml version="1.0" encoding="UTF-8"?>
<!DOCTYPE svg PUBLIC "-//W3C//DTD SVG 1.1//EN" "http://www.w3.org/Graphics/SVG/1.1/DTD/svg11.dtd">
<!-- Creator: CorelDRAW 2017 -->
<svg xmlns="http://www.w3.org/2000/svg" xml:space="preserve" width="50.7998mm" height="33.8666mm" version="1.1" style="shape-rendering:geometricPrecision; text-rendering:geometricPrecision; image-rendering:optimizeQuality; fill-rule:evenodd; clip-rule:evenodd"
viewBox="0 0 5079.98 3386.66"
 xmlns:xlink="http://www.w3.org/1999/xlink">
 <defs>
  <style type="text/css">
   <![CDATA[
    .fil0 {fill:#373435}
   ]]>
  </style>
 </defs>
 <g id="Capa_x0020_1">
  <metadata id="CorelCorpID_0Corel-Layer"/>
  <g id="_1895842035088">
   <path class="fil0" d="M576.33 1295.97l0 0c138.31,0 254.8,47.19 349.4,141.79 94.88,94.6 142.29,211.08 142.29,349.44l0 123.11c0,85.51 -20.42,165.13 -61.44,238.8 -41.02,73.73 -98.02,133.2 -171.02,178.14 71.99,37.65 128.77,90.23 170.29,158.29 41.52,67.78 62.17,142.23 62.17,222.86l0 0c0,121.37 -41.3,223.6 -124.11,306.42 -82.82,82.81 -185,124.05 -306.42,124.05l-122.37 0c-120.41,0 -222.36,-41.01 -305.68,-123.1 -83.27,-82.03 -124.79,-183.31 -124.79,-303.66l0 -3.71c0,-34.67 11.78,-63.62 35.63,-86.97 23.84,-23.62 52.8,-35.4 87.47,-35.4l0 0c34.62,0 63.63,11.78 87.48,35.4 23.84,23.35 35.63,52.3 35.63,86.97l0 0 0 62.17c0,69.3 23.56,127.54 70.97,174.95 47.19,47.41 105.43,70.98 174.5,70.98l0 0c69.02,0 127.26,-23.57 174.45,-70.98 47.41,-47.41 71.03,-105.65 71.03,-174.95l0 -123.61c0,-69.52 -23.62,-128.04 -70.53,-174.94 -47.18,-46.97 -105.43,-70.31 -174.95,-70.31l-0.73 0 0 0 0.73 0c-139.09,0 -256.02,-47.13 -350.17,-141.51 -94.32,-94.09 -141.51,-211.08 -141.51,-350.17l0 -123.11c0,-138.59 47.19,-255.29 141.79,-349.39 94.6,-94.37 211.3,-141.56 349.89,-141.56zm0 122.37c-69.57,0 -127.76,23.62 -174.94,71.04 -46.97,47.18 -70.53,105.65 -70.53,175.45l0 368.81c0,69.79 23.56,128.04 70.53,175.22 47.18,46.91 105.37,70.53 174.94,70.53l0 0c69.02,0 127.26,-23.62 174.45,-71.03 47.41,-47.19 71.03,-105.43 71.03,-174.72l0 -368.81c0,-69.29 -23.62,-127.54 -71.03,-175.23 -47.19,-47.41 -105.43,-71.26 -174.45,-71.26zm1286.14 368.58l0 -122.09c0,-69.07 -23.62,-127.31 -71.03,-174.72 -47.19,-47.42 -105.43,-71.04 -174.45,-71.04l0 0c-69.57,0 -127.76,23.62 -174.95,70.81 -46.96,47.19 -70.53,105.37 -70.53,174.95l0 122.09 490.96 0zm-7.86 308.15l-1.01 0 0 0 1.01 0c8.59,-40.79 27.5,-61.15 56.73,-61.15l100.04 0c25.53,0 39.56,0.22 41.75,0.73 15.49,3.42 23.12,12.73 23.12,27.99 6.62,0 3.42,10.55 -10.1,31.71 -62.4,97.06 -124.06,169.56 -185,216.97 -77.2,60.2 -165.41,90.39 -264.16,90.39l0 0c-139.09,0 -256.02,-47.13 -350.18,-141.73 -94.32,-94.38 -141.5,-211.36 -141.5,-350.68l0 -122.38c0,-138.59 47.18,-255.29 141.78,-349.39 94.61,-94.37 211.31,-141.56 349.9,-141.56l0 0c136.35,0 252.1,47.47 347.71,142.29 95.56,94.83 143.25,210.58 143.25,347.2l-0.73 0.73 0 0.73 0.73 0c0,0.51 0.22,0.73 0.73,0.73 0,34.17 -11.56,62.96 -34.9,86.52 -23.34,23.34 -52.35,35.13 -86.75,35.13l0 0 -615.52 0 0 123.61c0,69.8 23.57,128.49 70.53,175.67 47.19,47.19 105.38,70.81 174.95,70.81l0 0c56.5,0 106.89,-17 150.37,-51.11 43.71,-34.17 72.72,-78.39 87.25,-133.21zm1365.82 -61.43c0,69.79 23.56,128.04 70.52,175.22 47.19,46.91 105.38,70.53 174.95,70.53l0 0c69.02,0 127.26,-23.62 174.45,-71.03 47.41,-47.19 71.03,-105.43 71.03,-174.72l0 -615.3c0,-34.39 11.78,-63.63 35.63,-86.97 23.85,-23.56 52.8,-35.4 87.47,-35.4l0 0c34.62,0 63.63,11.84 87.48,35.63 23.85,23.84 35.63,52.85 35.63,87.02l0 492.19 0 0 0 0 0 0c0,138.54 -47.19,255.02 -141.79,349.39 -94.6,94.38 -211.31,141.51 -349.9,141.51l0 0c-137.35,0 -253.61,-47.13 -348.66,-141.51 -95.39,-94.09 -143.02,-209.84 -143.02,-346.47l0 -495.39c0,-34.62 11.78,-63.63 35.63,-86.97 23.84,-23.56 52.8,-35.4 87.47,-35.4l0 0c34.62,0 63.63,11.84 87.48,35.63 23.84,23.84 35.63,52.85 35.63,86.74l0 615.3zm1283.94 245.75l61.16 0c52.35,0 96.12,-17.73 131.02,-52.85 35.12,-35.41 52.57,-79.12 52.57,-131.47l0 0c0,-52.35 -17.73,-96.33 -53.36,-131.96 -35.35,-35.86 -79.11,-53.81 -130.96,-53.81l-245.48 0c-86.74,0 -159.68,-29.24 -218.93,-87.7 -58.97,-58.47 -88.43,-130.96 -88.43,-217.48l0 0c0,-86.46 29.46,-159.69 88.2,-218.94 58.75,-59.47 131.47,-89.21 217.71,-89.21l0 0 185.77 0c99.26,0 187.46,30.02 264.17,90.22 60.43,47.13 122.09,119.63 184.99,217.71 13.52,21.37 16.72,31.92 10.1,31.92 0,18.18 -11.06,28 -33.16,29.51l0 0 0 0 0 0 -131.75 0c-29.23,0 -48.14,-20.42 -56.72,-61.21l-1.01 0 0 -0.73 1.01 0c-14.54,-54.54 -43.54,-99.26 -87.48,-133.43 -43.99,-34.39 -93.87,-51.62 -150.15,-51.62l0 0 -0.73 0 0 0 0 0 -60.48 0c-52.3,0 -96.06,17.73 -131.47,53.36 -35.12,35.63 -52.79,79.62 -52.79,132.42l0 0c0,52.13 17.67,95.61 52.79,130.51 35.41,34.84 79.17,52.29 131.47,52.29l245.48 0c86.24,0 159.23,29.74 218.49,89.22 59.19,59.19 88.93,132.41 88.93,218.93l0 0c0,86.24 -29.74,158.74 -88.93,217.93 -59.26,59.25 -132.25,88.71 -218.49,88.71l-184.27 0c-98.8,0 -187.01,-30.19 -264.16,-90.39 -58.97,-46.23 -120.63,-118.45 -185.05,-216.97 -13.97,-21.16 -17.17,-31.71 -10.04,-31.71 0,-18.18 11.05,-27.77 33.16,-28.72l0 0 0 0 0 0 131.69 0c28.78,0 47.69,20.36 56.78,61.15l-0.73 0 0 0 0.73 0c13.52,55.78 42.25,100.27 86.02,133.94 43.99,33.66 94.6,50.38 151.6,50.38l0 0 0 0 0.73 0z"/>
   <path class="fil0" d="M2705.14 1799.81l4.56 8.31 -7.16 -5.08c-12.42,-6.47 -30.73,-20.13 -42.59,-29.2 -137,-104.81 -114.98,-97.71 -167.52,-62.16l-124.71 83.52 32.17 -100.95c13.24,-42.62 30.08,-76.86 12.08,-97.3 -8.2,-9.3 -27.7,-18.81 -39.14,-26.53l-75.05 -56.05c-15.9,-12.68 -29.35,-20.66 -34.65,-31.59 44.88,1.7 163.8,8.52 201.75,1.09 8.39,-10.07 26.3,-83.21 33.01,-104.1 11.33,-35.29 27.5,-66.9 39.01,-98.51 10,13.38 26.14,65.71 33.65,85.22 11.02,28.67 22.44,57.63 33.6,85.2 14.23,35.16 2.22,28.61 89.02,28.61 38.25,0 77.71,-0.94 115.81,0.3 -11.68,14.27 -24.35,21.77 -36.36,33.48 -38.86,37.89 -71.15,60.78 -115.68,90.32 -20.52,13.61 -14.1,24.82 -4.14,45.35 7.36,15.18 14.07,31.28 20.73,48.06 8.11,20.4 30.79,82.31 31.61,102.01zm-521.25 -345.5l0 14.49 43.73 40.58c27.5,24.23 121.26,99.15 150.96,111.03 -8.67,48.79 -73.37,207.83 -69.39,236.12 25.75,22.1 38.69,2.56 59.98,-11.81l163.58 -112.96c18.03,7.38 177.28,134.98 202.89,141.7 48.75,12.8 7.19,-94.61 0.69,-116.51l-46.29 -126.2c27.35,-11.46 136.6,-109.45 171.71,-140.16l25.12 -21.84 0 -11.42c-12.85,-16.88 -19.97,-17.66 -49.98,-17.48l-193.29 0.03c-16.22,-32.49 -57.7,-147.66 -71.79,-186.98 -7.4,-20.67 -8.37,-52.07 -34.22,-48.94 -15.38,1.86 -14.84,10.14 -20.29,23.52l-38.88 89.17c-14.21,35.34 -35.16,89.83 -40.6,128.9 -44.66,0.84 -90.51,-1.87 -135.35,-2.25 -21.64,-0.18 -43.47,-1.02 -65.47,-1.25 -28.96,-0.3 -40.38,-5.38 -53.11,12.26z"/>
   <polygon class="fil0" points="2702.54,1803.04 2709.7,1808.12 2705.14,1799.81 "/>
   <path class="fil0" d="M430.39 1041.51c98.64,0 163.67,-43.71 163.67,-74 0,-16.84 -13.41,-35.86 -33.6,-35.86 -22.45,0 -40.35,42.59 -126.7,42.59 -98.64,0 -147.96,-54.93 -147.96,-145.72l0 -119.96c0,-89.72 49.32,-144.65 146.84,-144.65 81.86,0 100.88,41.52 122.2,41.52 17.96,0 32.49,-20.2 32.49,-35.91 0,-30.24 -62.73,-72.83 -158.06,-72.83 -149.08,0 -216.36,93.03 -216.36,211.87l0 119.96c0,122.15 68.4,212.99 217.48,212.99zm453.37 -544.82c-116.6,0 -211.87,97.52 -211.87,209.63l0 122.2c0,112.11 98.64,212.99 211.87,212.99 114.35,0 214.17,-102 214.17,-212.99l0 -122.2c0,-115.47 -99.82,-209.63 -214.17,-209.63zm141.28 331.83c0,75.08 -62.79,145.72 -141.28,145.72 -77.32,0 -138.99,-70.64 -138.99,-145.72l0 -122.2c0,-71.77 60.55,-142.41 138.99,-142.41 78.49,0 141.28,70.64 141.28,142.41l0 122.2zm339.01 151.33c-100.88,0 -123.33,-52.69 -147.96,-52.69 -14.59,0 -25.81,19.08 -25.81,33.61 0,33.67 70.64,80.74 176.02,80.74 114.35,0 180.5,-56.05 180.5,-144.65 0,-204.01 -278.02,-123.27 -278.02,-251.08 0,-36.98 29.12,-87.48 112.1,-87.48 66.16,0 100.89,31.42 118.84,31.42 17.96,0 30.25,-25.81 30.25,-38.1 0,-26.93 -76.2,-54.93 -150.21,-54.93 -127.81,0 -177.13,80.69 -177.13,152.45 0,186.12 276.89,102.01 276.89,251.09 0,42.64 -30.24,79.62 -115.47,79.62zm630.5 25.75c0,20.2 19.02,28.06 35.85,28.06 17.96,0 37.04,-7.86 37.04,-28.06l0 -303.77c0,-84.11 66.09,-137.92 131.12,-137.92 61.67,0 127.82,48.26 127.82,142.41l0 298.22c0,14.53 16.83,29.12 35.85,29.12 21.33,0 37.04,-14.59 37.04,-29.12l0 -298.22c0,-133.43 -91.97,-209.63 -188.36,-209.63 -65.03,0 -131.19,35.86 -170.41,112.11 -26.93,-66.15 -85.17,-112.11 -159.18,-112.11 -74.01,0 -124.45,41.47 -149.14,85.18l0 -51.57c0,-15.71 -15.65,-26.93 -34.73,-26.93 -20.2,0 -35.85,11.22 -35.85,26.93l0 474.24c0,14.53 15.65,29.12 35.85,29.12 20.2,0 36.98,-14.59 36.98,-29.12l0 -298.22c0,-90.84 67.27,-142.41 132.3,-142.41 69.52,0 127.82,58.3 127.82,139.04l0 302.65zm815.44 -701.75c8.97,-4.49 13.46,-14.59 13.46,-24.69 0,-14.53 -10.1,-31.37 -26.93,-31.37 -2.24,0 -6.73,1.13 -8.98,3.37l-125.51 68.4c-8.98,4.49 -12.35,12.34 -12.35,20.14 0,15.71 13.47,31.42 29.12,31.42 3.37,0 7.86,-1.12 11.22,-3.36l119.97 -63.91zm-74.01 192.84c-117.72,0 -214.11,94.16 -214.11,206.26l0 125.57c0,127.76 99.76,212.99 241.04,212.99 104.25,0 168.16,-47.07 168.16,-74 0,-13.47 -13.47,-34.74 -31.42,-34.74 -24.63,0 -45.95,44.84 -134.49,44.84 -98.64,0 -170.41,-56.06 -170.41,-145.72l0 -41.52 253.33 0c49.32,0 97.58,-3.37 97.58,-89.66 0,-118.84 -98.7,-204.02 -209.68,-204.02zm-141.23 239.87l0 -42.59c0,-75.13 62.79,-136.79 140.11,-136.79 82.98,0 140.16,69.52 140.16,141.28 0,31.37 -11.22,38.1 -56.06,38.1l-224.21 0zm537.42 -172.65l144.65 0c14.58,0 25.75,-14.53 25.75,-30.24 0,-15.71 -11.17,-30.3 -25.75,-30.3l-144.65 0 0 -225.33c0,-15.66 -19.03,-26.88 -36.98,-26.88 -16.83,0 -35.85,11.22 -35.85,26.88l0 590.83c0,115.47 61.66,164.79 177.13,164.79l31.37 0c20.2,0 33.61,-15.71 33.61,-33.61 0,-16.83 -13.41,-32.54 -33.61,-32.54l-31.37 0c-77.37,0 -104.3,-25.76 -104.3,-98.64l0 -304.96zm304.28 -60.54c-20.2,0 -35.86,11.22 -35.86,26.93l0 474.24c0,14.53 15.66,29.12 35.86,29.12 20.2,0 36.97,-14.59 36.97,-29.12l0 -474.24c0,-15.71 -16.77,-26.93 -36.97,-26.93zm0 -249.97c-28,0 -50.45,21.33 -50.45,45.96 0,24.69 22.45,47.07 50.45,47.07 26.93,0 48.19,-22.38 48.19,-47.07 0,-24.63 -21.26,-45.96 -48.19,-45.96l0 0zm382.72 788.11c98.64,0 163.67,-43.71 163.67,-74 0,-16.84 -13.41,-35.86 -33.61,-35.86 -22.45,0 -40.34,42.59 -126.7,42.59 -98.64,0 -147.96,-54.93 -147.96,-145.72l0 -119.96c0,-89.72 49.32,-144.65 146.84,-144.65 81.86,0 100.89,41.52 122.21,41.52 17.95,0 32.48,-20.2 32.48,-35.91 0,-30.24 -62.73,-72.83 -158.06,-72.83 -149.08,0 -216.35,93.03 -216.35,211.87l0 119.96c0,122.15 68.39,212.99 217.48,212.99zm453.36 -544.82c-116.6,0 -211.87,97.52 -211.87,209.63l0 122.2c0,112.11 98.64,212.99 211.87,212.99 114.35,0 214.17,-102 214.17,-212.99l0 -122.2c0,-115.47 -99.82,-209.63 -214.17,-209.63zm141.28 331.83c0,75.08 -62.78,145.72 -141.28,145.72 -77.32,0 -138.98,-70.64 -138.98,-145.72l0 -122.2c0,-71.77 60.54,-142.41 138.98,-142.41 78.5,0 141.28,70.64 141.28,142.41l0 122.2zm339.01 151.33c-100.88,0 -123.32,-52.69 -147.96,-52.69 -14.58,0 -25.81,19.08 -25.81,33.61 0,33.67 70.65,80.74 176.02,80.74 114.35,0 180.5,-56.05 180.5,-144.65 0,-204.01 -278.02,-123.27 -278.02,-251.08 0,-36.98 29.12,-87.48 112.11,-87.48 66.15,0 100.88,31.42 118.84,31.42 17.95,0 30.24,-25.81 30.24,-38.1 0,-26.93 -76.2,-54.93 -150.2,-54.93 -127.82,0 -177.14,80.69 -177.14,152.45 0,186.12 276.9,102.01 276.9,251.09 0,42.64 -30.25,79.62 -115.48,79.62z"/>
   <path class="fil0" d="M1384.59 2475.1c21.82,0 40,5.11 55.04,15.43 14.93,10.27 22.39,22.78 22.39,37.54l0 135.28c46.51,-19.3 97.91,-28.95 154.35,-28.95l0 0c86.92,0 160.14,20.36 219.67,61.27 59.59,40.84 89.44,91.12 89.44,150.87l0 53.2c0,59.92 -29.74,110.36 -89.16,151.21 -59.47,40.9 -132.86,61.27 -219.95,61.27l0 0c-87.41,0 -160.97,-20.37 -220.17,-61.16 -59.36,-40.68 -88.99,-91.23 -88.99,-151.32l0 -371.73c0,-14.98 7.47,-27.55 22.39,-37.59 15.04,-10.21 33.22,-15.32 54.99,-15.32zm231.78 212.15c-43.76,0 -80.34,10.21 -110.03,30.69 -29.51,20.43 -44.32,45.67 -44.32,75.81l0 159.4c0,30.19 14.81,55.33 44.32,75.69 29.69,20.31 66.27,30.53 110.03,30.53l0 0c43.43,0 79.96,-10.22 109.59,-30.7 29.9,-20.42 44.66,-45.56 44.66,-75.52l0 -159.4c0,-29.91 -14.76,-55.1 -44.66,-75.7 -29.63,-20.48 -66.16,-30.8 -109.59,-30.8zm1714.82 -212.15c21.82,0 40,5.11 55.04,15.43 14.92,10.27 22.33,22.78 22.33,37.54l0 135.28c46.57,-19.3 97.97,-28.95 154.36,-28.95l0 0c86.97,0 160.19,20.36 219.66,61.27 59.59,40.84 89.5,91.12 89.5,150.87l0 53.2c0,59.92 -29.74,110.36 -89.16,151.21 -59.48,40.9 -132.87,61.27 -220,61.27l0 0c-87.42,0 -160.98,-20.37 -220.12,-61.16 -59.36,-40.68 -88.99,-91.23 -88.99,-151.32l0 -371.73c0,-14.98 7.41,-27.55 22.39,-37.59 14.98,-10.21 33.21,-15.32 54.99,-15.32zm231.73 212.15c-43.71,0 -80.3,10.21 -110.03,30.69 -29.46,20.43 -44.33,45.67 -44.33,75.81l0 159.4c0,30.19 14.87,55.33 44.33,75.69 29.73,20.31 66.32,30.53 110.03,30.53l0 0c43.42,0 80.01,-10.22 109.63,-30.7 29.91,-20.42 44.67,-45.56 44.67,-75.52l0 -159.4c0,-29.91 -14.76,-55.1 -44.67,-75.7 -29.62,-20.48 -66.21,-30.8 -109.63,-30.8zm-1132.34 45.22c70.08,0 129.05,16.5 176.96,49.44 48.03,32.93 71.99,73.5 71.99,121.58l0 171.31c0,11.84 -6,21.82 -18.12,30.13 -12.23,8.3 -26.82,12.51 -44.16,12.51l0 0c-26.99,0 -45.95,-8.42 -56.89,-25.08 -39.56,16.66 -82.93,25.08 -129.78,25.08l0 0c-70.42,0 -129.67,-16.44 -177.37,-49.26 -47.74,-32.77 -71.65,-73.51 -71.65,-121.93l0 -42.87c0,-48.25 23.91,-88.87 71.82,-121.64 47.92,-32.83 107,-49.27 177.2,-49.27zm124.33 256.82l0 -128.44c0,-24.12 -12,-44.38 -36.02,-60.99 -23.9,-16.49 -53.36,-24.8 -88.31,-24.8l0 0c-35.24,0 -64.7,8.19 -88.66,24.75 -23.73,16.38 -35.74,36.75 -35.74,61.04l0 128.44c0,24.29 12.01,44.55 35.74,60.99 23.96,16.32 53.42,24.52 88.66,24.52l0 0c34.95,0 64.41,-8.2 88.31,-24.69 24.02,-16.44 36.02,-36.7 36.02,-60.82zm401.69 -256.82l0 0c17.56,0 32.26,4.1 44.33,12.4 12.06,8.31 18.06,18.3 18.06,30.19l0 299.51c0,11.9 -6.17,22 -18.23,30.36 -12.18,8.3 -26.88,12.51 -44.16,12.51l0 0c-17.28,0 -31.98,-4.21 -44.16,-12.51 -12.06,-8.36 -18.18,-18.46 -18.18,-30.36l0 -299.51c0,-12.06 5.95,-22.16 18.01,-30.3 12.07,-8.19 26.77,-12.29 44.33,-12.29zm0 -128.32c17.56,0 32.26,4.1 44.33,12.4 12.06,8.31 18.06,18.41 18.06,30.3 0,11.95 -6.17,22.05 -18.23,30.41 -12.18,8.42 -26.88,12.57 -44.16,12.57 -17.28,0 -31.98,-4.15 -44.16,-12.57 -12.06,-8.36 -18.18,-18.46 -18.18,-30.41 0,-12.06 5.95,-22.16 18.01,-30.41 12.07,-8.19 26.77,-12.29 44.33,-12.29zm1413.34 128.32c70.02,0 129.05,16.5 176.96,49.44 47.98,32.93 71.99,73.5 71.99,121.58l0 171.31c0,11.84 -6.06,21.82 -18.12,30.13 -12.23,8.3 -26.88,12.51 -44.16,12.51l0 0c-27.04,0 -45.95,-8.42 -56.89,-25.08 -39.62,16.66 -82.93,25.08 -129.78,25.08l0 0c-70.48,0 -129.73,-16.44 -177.42,-49.26 -47.75,-32.77 -71.65,-73.51 -71.65,-121.93l0 -42.87c0,-48.25 23.9,-88.87 71.82,-121.64 47.91,-32.83 107,-49.27 177.25,-49.27zm124.28 256.82l0 -128.44c0,-24.12 -12.01,-44.38 -35.97,-60.99 -23.96,-16.49 -53.41,-24.8 -88.31,-24.8l0 0c-35.3,0 -64.75,8.19 -88.66,24.75 -23.79,16.38 -35.8,36.75 -35.8,61.04l0 128.44c0,24.29 12.01,44.55 35.8,60.99 23.91,16.32 53.36,24.52 88.66,24.52l0 0c34.9,0 64.35,-8.2 88.31,-24.69 23.96,-16.44 35.97,-36.7 35.97,-60.82zm401.68 -256.82l0 0c17.57,0 32.27,4.1 44.33,12.4 12.12,8.31 18.07,18.3 18.07,30.19l0 299.51c0,11.9 -6.12,22 -18.24,30.36 -12.12,8.3 -26.82,12.51 -44.16,12.51l0 0c-17.28,0 -31.98,-4.21 -44.15,-12.51 -12.07,-8.36 -18.18,-18.46 -18.18,-30.36l0 -299.51c0,-12.06 5.94,-22.16 18.01,-30.3 12.12,-8.19 26.82,-12.29 44.32,-12.29zm0 -128.32c17.57,0 32.27,4.1 44.33,12.4 12.12,8.31 18.07,18.41 18.07,30.3 0,11.95 -6.12,22.05 -18.24,30.41 -12.12,8.42 -26.82,12.57 -44.16,12.57 -17.28,0 -31.98,-4.15 -44.15,-12.57 -12.07,-8.36 -18.18,-18.46 -18.18,-30.41 0,-12.06 5.94,-22.16 18.01,-30.41 12.12,-8.19 26.82,-12.29 44.32,-12.29z"/>
  </g>
 </g>
</svg>
