<?xml version="1.0" encoding="UTF-8"?>
<!DOCTYPE svg PUBLIC "-//W3C//DTD SVG 1.1//EN" "http://www.w3.org/Graphics/SVG/1.1/DTD/svg11.dtd">
<!-- Creator: CorelDRAW 2017 -->
<svg xmlns="http://www.w3.org/2000/svg" xml:space="preserve" width="50.7998mm" height="33.8666mm" version="1.1" style="shape-rendering:geometricPrecision; text-rendering:geometricPrecision; image-rendering:optimizeQuality; fill-rule:evenodd; clip-rule:evenodd"
viewBox="0 0 5079.98 3386.66"
 xmlns:xlink="http://www.w3.org/1999/xlink">
 <defs>
  <style type="text/css">
   <![CDATA[
    .str0 {stroke:#373435;stroke-width:7.62;stroke-miterlimit:22.9256}
    .fil1 {fill:none}
    .fil0 {fill:#373435}
   ]]>
  </style>
 </defs>
 <g id="Capa_x0020_1">
  <metadata id="CorelCorpID_0Corel-Layer"/>
  <g>
   <path class="fil0" d="M2129.58 1929.43l2.41 2.6c37.52,-21.09 48.61,-56.32 80.55,-71.72 7.65,-15.31 -8.29,-8.83 10.1,-12.56 9.62,-26.44 23.4,-36.74 55.73,-42.04 21.39,-3.48 41.11,-6.67 56.12,-3.63 12.31,-1.87 9.47,1.27 16.48,-13l3.88 -12.46c18.25,-11.82 60.05,-18.4 64.9,-18.15 1.82,0.1 8.1,2.25 9.47,2.65l10.99 7.35c-10.35,29.73 -0.59,6.58 -13.25,15.07 -4.41,19.32 -2.4,17.36 -13.19,30.12 -0.25,26 1.52,10.45 -7.12,15.65l-29.28 73.53 -27.08 68.19 -9.22 13.78 -13.3 40.13c29.58,-16.14 23.01,-39.39 56.51,-50.53 10.94,-26.49 29.88,-45.08 50.92,-65.29l20.17 -16.73c10.5,-22.56 25.21,-37.04 43.12,-54.11 18.35,-17.51 36.55,-35.12 52.49,-47.68 11.77,-16.63 35.22,-37.23 51.61,-44.94 7.65,-11.38 -6.04,-4.02 14.86,-15.01 14.96,-22.71 65.59,-52.98 104.29,-46.8 7.85,19.97 12.71,17.42 2.8,37.53 -1.03,22.17 0.64,12.02 -8.44,20.31 -3.82,23.84 -0.88,11.33 -9.46,15.99 -0.89,19.72 3.33,8.34 -7.41,32.33 -2.99,6.72 -3.58,7.85 -7.41,13.54 -5.54,8.39 -5.49,7.46 -10.5,12.66 -0.93,54.74 -113.47,228.55 -120.33,304.05 37.57,-4.56 106.99,-63.28 134.56,-85.11l110.47 -86.49c0.35,6.18 0.1,23.89 0.69,28.4 4.51,34.05 -2.06,12.95 9.37,24.58 16.24,-30.76 16.14,-31.98 11.43,-81.53 -21.49,-4.12 -17.51,-0.44 -32.52,13 -17.17,15.35 -10.4,14.47 -32.18,19.67 -14.48,27.08 -131.08,111.51 -164.15,131.33l-16.09 9.9 7.07 -18.69c17.51,-48.37 42.58,-98.4 64.36,-148.74 17.9,-41.3 43.22,-123.81 73.04,-150.21 0.84,-48.22 33.21,-50.92 18.89,-117.68 -47.54,-22.08 -78.44,4.31 -111.8,33.4 -35.57,31.06 -53.23,45.43 -91.88,82.42l-123.48 131.72c-14.18,18.2 -18.1,30.12 -43.27,46.06 15.55,-49.99 124.75,-249.89 93.51,-290.42 -42.1,-51.36 -157.33,71.28 -187.74,100.18 -12.27,11.62 -144.72,143.59 -151.69,167.38zm752.63 60.78c-20.21,-13 -23.11,4.12 -2.5,-20.65 9.86,-11.82 28.3,0.34 26.29,-86.88 -0.78,-35.27 8.05,-15.36 -4.51,-31.84l-19.28 139.37zm106.6 -304.35c-18.49,40.03 -35.91,46.12 -42.88,84.38l4.66 18.3c8,-27.87 -8.48,-21.44 11.53,-26.79 19.97,-26.98 7.21,-10.79 31.69,-32.72 27.47,-24.67 10.75,-18.15 45.63,-23.3 -7.07,-25.12 9.66,-21.83 -7.8,-22.22 13.19,-18.99 -5.89,-13.59 31.93,-28.06l42.09 -15.55c6.28,22.32 5.06,11.62 9.23,18.44 7.89,12.95 2.45,-4.61 21.19,33.16 18.98,-16.43 28.45,-26.49 39.29,-44.73 -31.3,7.21 24.33,18.05 -28.35,5.83 -29.44,-6.77 -13.84,14.52 -27.08,-18.69 -0.79,-2.01 -1.33,-5.74 -1.42,-7.8 -2.02,-30.66 3.92,-15.84 15.3,-22.12 0.98,-0.54 4.86,-0.44 5.69,-0.69 43.02,-14.13 8.78,-0.05 10.74,2.8 -30.16,-6.82 -12.5,-6.43 -25.21,-20.8l116.85 -67.16c47.39,-22.42 0.79,-0.34 14.72,-6.48 17.95,-7.85 104.05,-50.18 114.94,-12.31 -10.89,-37.87 -96.99,4.46 -114.94,12.31 -13.93,6.14 32.67,-15.94 -14.72,6.48l-116.85 67.16c12.71,14.37 -4.95,13.98 25.21,20.8 -1.96,-2.85 32.28,-16.93 -10.74,-2.8 -0.83,0.25 -4.71,0.15 -5.69,0.69 -11.38,6.28 -17.32,-8.54 -15.3,22.12 0.09,2.06 0.63,5.79 1.42,7.8 13.24,33.21 -2.36,11.92 27.08,18.69 52.68,12.22 -2.95,1.38 28.35,-5.83 33.36,-12.81 55.14,-33.02 89.24,-50.44 5.1,-2.6 10.74,-5.2 16.68,-7.8 -114.36,120.64 32.67,27.92 146.23,-47.73l2.9 -0.59c-97.63,73.1 -218.89,191.18 8.39,27.82 120.92,-86.98 180.82,31.98 162.23,164.49 -8.44,60.09 -36.6,95.66 -48.77,142.11 22.33,24.63 -4.61,18.15 19.14,2.26 0.19,-0.1 15.4,-23.45 15.94,-24.33 26.25,-58.82 56.46,-137.8 50.63,-226.79l-7.02 -22.67 1.13 -15.06c-4.27,-13.68 -9.22,-25.9 -14.86,-36.69 5.64,10.79 10.59,23.01 14.86,36.69l55.34 -10.69 -55.34 10.69 -1.13 15.06c31.69,12.37 -14.86,9.37 44.99,4.76 14.91,-1.12 31.49,-4.76 49.69,-6.23l-13.44 -27.66 13.44 27.66 -0.15 25.71 5.74 4.12c3,-24.77 2.31,-45.97 -2.4,-65.05l1.32 -0.54 3 -104.54c-40.38,-15.99 -75.65,-28.5 -108.32,-37.43l-13.74 -15.89 -80.45 0.29c-10.45,-0.44 -20.8,-0.39 -31.3,0.1l-9.27 0.05 -1.23 0.64c-55.28,4.31 -113.95,21.78 -191.02,53.71 -66.08,27.43 -122.15,63.33 -171.06,99.1 -80.31,58.72 -84.18,80.65 -117.4,110.67 -15.11,13.64 -7.55,9.32 -20.55,13.29zm-7.26 434.3c-5.64,-10.79 -10.65,-23.01 -14.91,-36.69l-55.34 10.69 55.34 -10.69 1.12 -15.06c-31.69,-12.37 14.92,-9.37 -44.98,-4.76 -14.91,1.13 -31.45,4.76 -49.65,6.23l13.45 27.67 -13.45 -27.67 0.1 -25.71 -5.74 -4.12c-2.99,24.78 -2.3,45.97 2.41,65l-1.33 0.59 -2.99 104.54c40.37,15.99 75.6,28.5 108.32,37.43l13.73 15.9 80.45 -0.3c10.45,0.44 20.85,0.39 31.35,-0.1l9.22 -0.05 1.23 -0.63c55.34,-4.32 114.01,-21.78 191.03,-53.72 66.08,-27.42 122.15,-63.33 171.06,-99.1 80.3,-58.77 84.18,-80.64 117.44,-110.67 15.06,-13.63 7.55,-9.32 20.55,-13.29 18.45,-40.03 35.87,-46.16 42.83,-84.38l-4.66 -18.3c-7.95,27.87 8.54,21.44 -11.48,26.79 -20.01,26.98 -7.21,10.79 -31.69,32.72 -27.47,24.67 -10.79,18.15 -45.67,23.3 7.06,25.12 -9.66,21.83 7.8,22.22 -13.2,18.99 5.94,13.59 -31.94,28.06l-42.09 15.55c-6.28,-22.32 -5.05,-11.62 -9.22,-18.44 -7.9,-12.95 -2.45,4.56 -21.14,-33.16 -18.99,16.43 -28.51,26.49 -39.35,44.74 31.3,-7.21 -24.33,-18.06 28.36,-5.89 29.43,6.82 13.83,-14.47 27.08,18.74 0.78,2.01 1.32,5.74 1.47,7.8 2.01,30.66 -3.97,15.84 -15.36,22.08 -0.98,0.53 -4.85,0.44 -5.69,0.73 -42.97,14.13 -8.78,0.05 -10.74,-2.8 30.17,6.77 12.51,6.38 25.22,20.8l-116.81 67.16c-47.39,22.42 -0.83,0.35 -14.72,6.48 -17.95,7.85 -104.09,50.23 -114.98,12.31 10.89,37.92 97.03,-4.46 114.98,-12.31 13.89,-6.13 -32.67,15.94 14.72,-6.48l116.81 -67.16c-12.71,-14.42 4.95,-14.03 -25.22,-20.8 1.96,2.85 -32.23,16.93 10.74,2.8 0.84,-0.29 4.71,-0.2 5.69,-0.73 11.39,-6.24 17.37,8.58 15.36,-22.08 -0.15,-2.06 -0.69,-5.79 -1.47,-7.8 -13.25,-33.21 2.35,-11.92 -27.08,-18.74 -52.69,-12.17 2.94,-1.32 -28.36,5.89 -33.36,12.8 -55.14,33.01 -89.23,50.38 -5.1,2.6 -10.7,5.1 -16.58,7.75 114.25,-120.48 -32.77,-27.82 -146.34,47.83l-2.89 0.59c97.62,-73.1 218.89,-191.18 -8.39,-27.82 -120.93,86.98 -180.82,-31.98 -162.23,-164.48 8.44,-60.1 36.64,-95.66 48.76,-142.12 -22.32,-24.63 4.66,-18.15 -19.13,-2.26 -0.2,0.1 -15.4,23.45 -15.94,24.33 -26.25,58.82 -56.47,137.8 -50.58,226.79l6.96 22.67 -1.12 15.06c4.26,13.68 9.27,25.9 14.91,36.69zm-80.06 -269.32c12.56,16.48 3.73,-3.43 4.51,31.84 2.55,110.52 -60.93,83.59 -23.79,107.53 0.15,-4.02 -4.71,-20.31 -14.72,49.84l5.74 4.12 87.57 1.57c-5.89,-88.99 24.33,-167.97 50.58,-226.79 -17.62,-8.78 6.18,-0.68 -7.12,-46.11l-53.67 15.7 -4.66 -18.3c-26.05,21.05 -13.98,6.53 -29.14,38.66 -8.63,18.25 -10.3,27.96 -15.3,41.94zm137.95 -145.11c-2.8,22.27 -2.02,14.42 9.46,29.14 33.51,42.63 -7.11,-31.84 22.67,28.85 20.31,-23.75 43.95,-46.9 64.51,-72.22 -18.74,-37.77 -13.3,-20.21 -21.19,-33.16 -4.17,-6.82 -2.95,3.88 -9.23,-18.44l-42.09 15.55c-37.82,14.47 -18.74,9.07 -31.93,28.06 17.46,0.39 0.73,-2.9 7.8,22.22zm-88.85 82.81l53.67 -15.7c13.3,45.43 -10.5,37.33 7.12,46.11 0.54,-0.88 15.74,-24.23 15.94,-24.33 23.79,-15.89 -3.19,-22.37 19.13,2.26l25.12 -33.16c-29.78,-60.69 10.84,13.78 -22.67,-28.85 -11.48,-14.72 -12.26,-6.87 -9.46,-29.14 -34.88,5.15 -18.16,-1.37 -45.63,23.3 -24.48,21.93 -11.72,5.74 -31.69,32.72 -20.01,5.35 -3.53,-1.08 -11.53,26.79zm-77.46 281.34c18.2,-1.47 34.74,-5.1 49.65,-6.23 59.9,-4.61 13.29,-7.61 44.98,4.76l-6.96 -22.67 -87.57 -1.57 -0.1 25.71zm843.44 -388.58c20.21,13 23.05,-4.12 2.45,20.65 -9.86,11.83 -28.31,-0.34 -26.3,86.88 0.84,35.28 -8.04,15.36 4.52,31.84l19.33 -139.37zm-19.33 139.37c-12.56,-16.48 -3.68,3.44 -4.52,-31.84 -2.55,-110.52 60.93,-83.59 23.85,-107.53 -0.15,4.02 4.7,20.31 14.66,-49.84l-5.74 -4.12 -87.51 -1.57c5.83,88.99 -24.38,167.97 -50.63,226.79 17.61,8.78 -6.13,0.68 7.16,46.11l53.62 -15.7 4.66 18.3c26.1,-21.04 14.03,-6.52 29.19,-38.66 8.58,-18.24 10.25,-27.96 15.26,-41.94zm-137.95 145.11c2.8,-22.27 2.06,-14.42 -9.47,-29.14 -33.5,-42.63 7.16,31.84 -22.61,-28.84 -20.36,23.74 -43.96,46.89 -64.51,72.21 18.69,37.72 13.24,20.21 21.14,33.16 4.17,6.82 2.94,-3.88 9.22,18.44l42.09 -15.55c37.88,-14.47 18.74,-9.07 31.94,-28.06 -17.46,-0.39 -0.74,2.9 -7.8,-22.22zm88.84 -82.81l-53.62 15.7c-13.29,-45.43 10.45,-37.33 -7.16,-46.11 -0.54,0.88 -15.75,24.23 -15.94,24.33 -23.75,15.89 3.19,22.37 -19.14,-2.26l-25.06 33.17c29.77,60.68 -10.89,-13.79 22.61,28.84 11.53,14.72 12.27,6.87 9.47,29.14 34.88,-5.15 18.2,1.37 45.67,-23.3 24.48,-21.93 11.68,-5.74 31.69,-32.72 20.02,-5.35 3.53,1.08 11.48,-26.79zm77.51 -281.34c-18.2,1.47 -34.78,5.11 -49.69,6.23 -59.85,4.61 -13.3,7.61 -44.99,-4.76l7.02 22.67 87.51 1.57 0.15 -25.71zm195.74 373.52l15.3 -9.32 -15.3 9.32 -16.63 2.85c14.32,-49.06 2.89,-16.39 -0.2,-21.44l-18.74 42.78 23.35 -0.35 6.43 -10.94 5.79 -12.9zm300.22 108.66c22.42,-5.59 65.3,-40.03 71.77,-57.05 -9.51,5.3 -28.16,15.79 -38.36,23.2l-33.41 33.85zm123.92 -219.82l-3.24 -4.22c9.08,10.79 0.2,6.08 18.94,18.1 3.43,2.16 18.79,9.32 22.96,11.53l-2.95 6.72c-22.02,3.39 0.05,1.52 -28.69,-2.99 -11.68,-1.87 -7.56,-2.16 -15.7,0.24l-2.6 -19.03 -0.15 -1.18 -0.1 -1.08 -0.1 -1.08 -0.09 -0.98 -0.1 -0.93 -0.05 -0.88 -0.1 -0.79 -0.05 -0.78 -0.05 -0.74 0 -0.29 0 -0.4 -0.05 -0.58 0 -0.59 0 -0.54 0 -0.49 0 -0.1 0 -0.34 0 -0.4 0.05 -0.29 0 -0.3 0.05 -0.14 0.05 -0.3 0.05 -0.24 0.05 -0.2 0.24 -0.54c0.2,-0.24 0.35,-0.39 0.64,-0.39 9.67,-31.79 31.05,-58.23 50.73,-82.71 12.6,-15.75 20.4,-25.76 35.71,-38.26 18.2,-14.87 22.86,-11.39 33.7,-35.08 24.24,-4.42 62.16,-34.54 99.29,-47.44 34.05,-11.82 70.99,-18.2 111.66,-22.47 1.22,-1.52 2.84,-3.48 3.63,-4.66l48.95 -127.35c6.58,-19.72 7.61,-26.63 23.75,-37.13l52.59 -136.72c4.66,-11.39 4.8,-12.56 10.35,-22.28l9.17 -13.88c0.59,-2.94 2.5,-3.29 3.73,-4.9 18.98,-27.23 10.4,-36.65 36.3,-57.11 39.39,-115.92 217.27,-221.98 104,166.06l-82.22 251.02c-16.14,18.2 -17.76,30.81 -28.35,54.85l-84.18 171.06c-51.42,94.63 -123.58,152.42 -77.27,236.89 42.68,-6.08 154.24,-96.34 191.86,-128.77 16.29,-14.03 47,-34.05 58.23,-53.13 18.55,-6.67 9.67,-12.7 33.85,-7.21 7.12,45.52 8,62.5 -19.82,84.03 -7.75,11.48 0.15,3.19 -13.49,14.97 -5.25,4.56 -7.31,5.2 -15.3,11.77 -14.62,12.02 -11.48,10.65 -28.36,18.74 -13.05,24.53 -21.83,23.4 -46.11,34.68 -3.73,11.68 -7.16,11.38 -27.18,26.05l-32.96 18.89c-6.63,7.55 -5.89,8.73 -18.99,15.94l-41.5 25.32c-23.4,17.21 -75.84,45.81 -102.82,19.42 -10.16,-4.56 -1.67,4.81 -13.59,-10.4 -3.58,-4.56 -6.97,-12.46 -8.59,-17.66 -5.84,-18.69 -5.88,-37.92 -5.93,-56.9l-2.46 0.68c-19.52,13.44 -44.2,40.96 -69.71,48.08 -9.37,13.19 -3.48,10.2 -32.32,24.09 -89.29,42.87 -51.37,16.38 -111.36,22.51 -14.92,-2.01 -17.96,7.02 -46.41,-32.77 -21.49,-30.07 -27.77,-71.08 -31.2,-106.4 -3.53,-36.3 4.76,-20.31 -8.54,-34.83l52.15 -162.77zm-123.92 219.82c-6.18,12.66 2.46,1.47 -11.72,15.01 -39.2,37.48 -154.48,113.27 -201.58,104.79 -33.16,-58.82 33.81,-195.15 68,-252.01 19.96,-38.26 62.45,-131.52 74.07,-171.89l-2.4 0.69c-20.6,12.31 -24.19,17.21 -41.4,33.65 -6.48,6.18 -13.05,11.13 -22.52,17.61 -19.58,13.25 -0.3,5.69 -23.3,11.04 0.39,25.51 -16.68,27.67 -61.37,65.39 -58.97,49.69 -29.14,52.69 -62.7,57.74l284.92 117.98zm-312.44 -84.82c-18.1,10.79 -40.57,38.27 -53.86,60.15l-5.55 0.29c-16.92,22.42 -30.31,35.37 -45.86,56.32 -8.54,11.48 -16,19.47 -23.94,29.73 -9.96,12.9 -11.97,15.99 -16.68,28.2l-15.75 4.22c-13.54,12.27 -35.27,27.82 -53.86,23.6 -27.08,-6.13 -6.77,-1.87 -15.85,-11.24 -25.8,-31.93 42.58,-181.75 67.75,-192.79l-6.87 -12.41c-14.08,14.52 -4.22,7.26 -19.72,8.63 -14.67,-30.02 17.02,17.22 6.13,-38.36 -20.21,13.39 -13.1,2.31 -30.22,16.39 3.34,-36.6 -0.68,-7.9 -9.91,-16.73l6.87 -19.18 17.02 -24.24c34.98,-8.19 84.72,-78.83 116.46,-105.32 8.59,-24.24 17.96,-43.12 30.42,-67.95 5.54,-11.03 9.07,-20.35 14.86,-31.78l17.96 -25.46 3.58 -22.42 77.7 -2.21c-4.21,55.34 -108.51,238.37 -131.71,310.53 29.68,-20.16 76.87,-75.7 104.34,-102.29 24.63,-23.89 93.8,-77.21 107.78,-104.88 32.92,-16.38 130.49,-121.27 185.38,-114.89 39.89,4.61 28.55,48.62 29.54,77.76 -19.38,22.91 -153.94,328.87 -163.17,367.72 39.64,-21.83 59.17,-39.63 94.78,-65.39 29.53,-21.44 65.1,-47.88 91.79,-74.07 15.89,-17.22 15.74,-10.55 21.04,-39.64 1.28,-7.11 3.63,-20.9 6.23,-26.79 11.97,-27.42 8.05,-13.73 17.47,-20.5l0.09 -0.35 -424.24 135.35zm991.58 -706.12c-11.52,25.51 -5.74,94.24 0.89,102.68 4.76,6.03 8.78,9.17 12.31,11.48 -14.86,46.11 -184.31,414.43 -199.42,428.55 8.25,-102.67 42.14,-198.87 75.21,-292.47 16.68,-47.1 29.87,-83.64 50.23,-130.98 14.87,-34.54 52.4,-102.33 56.37,-130.49 1.37,1.62 2.65,2.35 2.99,5.54l1.42 5.69zm-293.55 708.87c21.58,19.47 2.45,1.86 9.81,5.79l31.79 25.16 -4.91 29.98 -26.19 -24.83c-20.12,-22.95 -18.6,-7.21 -21.49,-17.21 -0.49,-1.87 -2.6,-1.57 -3.83,-2.46 9.47,-28.16 0,-8.53 14.82,-16.43zm5.79 -29.93c-9.52,3.29 -6.77,-0.93 -14.77,12.27 -21.29,34.04 -39.1,40.72 -64.07,69.32 -22.22,25.41 -46.26,47.29 -83.44,58.18 -68.58,15.35 -79.33,-84.77 -72.12,-140.5 9.62,-74.42 45.73,-100.86 65.15,-148.1l3.78 -15.26c8.98,6.77 7.41,9.47 7.41,-1.67 14.13,0 1.71,1.18 1.22,-7.06 0.84,-0.35 16.14,-6.53 18.74,-7.7 7.26,-26 -12.07,-5.79 21.34,-25.17 9.81,-5.69 14.77,-7.06 19.77,-6.57l21 -7.31 11.97 -4.27c22.96,-12.61 14.96,-14.47 38.41,-22.71l62.01 -9.77c-2.95,27.28 -7.51,38.32 -6.38,60.74 -1.03,18.49 -11.97,41.15 -17.32,66.57l3.39 12.21c-13.93,14.33 -2.6,-16.34 -14.38,24.68 -2.35,8.29 -2.94,20.99 -3.38,29.58 -1.03,21.09 -0.54,41.89 1.67,62.54zm-816.06 37.43l-4.07 -0.49 -28.6 -15.45c-0.54,-1.72 -2.8,-1.13 -4.27,-1.62 7.46,-20.36 1.57,-10.5 11.09,-20.11l16.87 -12.51 8.64 34.54 0.34 15.64zm8.44 83.3l-10.01 13.1c-26.98,12.71 -8.63,3.93 -14.32,-8.53l7.21 -11.34 17.12 6.77zm529.71 -232.67l0.2 0.1 0.34 0.14 0.1 0.05 0.1 0.05 0.19 0.05 0.2 0.1 0.15 0.1 0.05 0 0.19 0.09 0.2 0.1 0.24 0.1 0 0.05 0.2 0.05 0.25 0.1 0.09 0 0.15 0.05 0.1 0.04 0.05 0 0.1 0.05 0.19 0.05 0.25 0.05 0.19 0.05 0.1 0 0.25 0 0.24 0 0.25 0 0.05 0 0.24 -0.05 0.25 -0.05 0.1 -0.05 0.44 -0.14 0.29 -0.1 0.3 -0.15 0.19 -0.15 0.1 -0.04 0.88 -0.74 -7.21 0.1zm-1.76 4.12l0.09 0.64 -0.09 -0.64zm-423.41 80.75l-4.27 -9.91c6.97,-23.4 34.78,-48.03 56.32,-65.59l0.73 8.43c-22.86,16.34 -16.63,14.18 -28.7,39.1 -14.71,30.27 -12.26,23.7 -24.08,27.97zm129.41 -138.98l0.29 -0.05 -0.29 0 0.05 0.05 -0.05 0zm-235.33 52.68c7.12,-20.89 14.23,-28.5 28.85,-51.16 1.72,-1.42 4.46,-5.54 5.25,-4.17 0.73,1.42 5.44,-4.07 8.39,-8.05 2.45,-3.38 3.14,-5.88 5.34,-11.92 6.33,32.09 -7.7,56.27 -19.96,83.74 -22.57,-6.87 -14.13,-16.28 -30.76,1.72l2.89 -10.16zm1000.76 -506.46l8.58 -25.46c15.36,2.9 0.79,-11.52 23.01,9.13 15.6,14.57 2.01,-2.85 10.5,18.88 -1.91,7.02 0.54,4.08 -4.56,13.79 -4.81,9.08 -5.94,7.65 -10.45,12.46l-1.72 -19.03c-2.11,-0.84 -8.68,-1.67 -10.01,-1.87l-13.34 -5.49c-0.15,-1.18 -1.18,-1.77 -2.01,-2.41zm-106.26 523.24c0.05,0.3 0.2,0.2 0.54,-0.05 -0.29,0.25 -0.49,0.35 -0.54,0.05zm47.39 -1.08c41.95,-70.59 122.05,-264.36 167.29,-387.45 -15.85,50.88 -39.4,108.57 -54.16,146.24 -26.69,68.19 -58.38,128.92 -84.48,192.99l-28.65 48.22zm-94.43 277.91c39.1,9.56 30.02,-9.08 40.96,31.93 -18,5.55 -32.38,7.95 -55.38,2.46 3.92,-17.61 6.52,-21.29 14.42,-34.39zm-488.8 -359.24l18.93 11.53c13.1,4.17 6.77,0.83 12.46,-3.29 10.01,9.42 3.19,-3.24 5.99,12.61l-10.65 42.09c-22.61,-24.14 3.19,-3.14 -26.44,-14.03 -14.42,-5.35 -6.96,0.73 -20.16,-9.57l19.87 -39.34zm67.06 -38.81c-1.52,-1.13 -3.58,-2.7 -4.47,-3.53l-12.36 -17.22c-0.83,-3.63 1.18,-14.81 1.57,-30.07 -30.02,-15.94 -13.1,1.13 -30.76,-16.97 20.9,-13.1 22.72,-14.77 50.73,-10.6 9.91,25.61 7.36,49.06 -4.71,78.39zm-52.1 -61.51l9.08 10.64c1.22,1.23 3.04,2.94 4.26,4.07 1.03,0.98 3.09,2.36 3.93,3.09l7.26 4.42c-15.41,41.45 10.99,37.67 -33.56,46.99 -1.62,-1.56 -4.61,-4.31 -5.69,-5.34 -0.64,-0.64 -2.3,-2.21 -3.04,-2.95 -0.78,-0.73 -2.4,-2.25 -3.19,-3.04l-10.64 -11.77c-0.69,-0.83 -1.97,-2.5 -2.6,-3.24l-11.09 -12.56c7.06,-8.93 1.91,-4.36 11.04,-12.26 1.52,-1.33 6.23,-4.81 7.99,-5.99 10.21,-6.67 13.99,-7.35 26.25,-12.06zm-140.69 426.45c28.3,3.04 32.72,7.75 57.1,19.27l24.38 11.14c-11.38,10.01 19.52,9.81 -24.33,13.2 -16.49,1.27 -31.45,-12.46 -41.41,-23.01 -12.31,-13.1 -7.41,-7.21 -15.74,-20.6zm929.28 -874.34c-14.28,7.55 -11.73,-8.49 -11.97,7.36l-2.02 -17.12 -58.28 0.68c-2.79,-14.17 0.79,-10.05 -7.89,-14.81l-9.08 -4.71 14.57 -27.82c19.67,-20.4 27.28,-37.97 64.31,-36.2l12.51 42.43 -2.15 50.19zm-90.02 -27.18c4.46,3.97 13.39,10.79 -1.62,3.14l1.62 -3.14zm-4611.62 -13.1c10.94,21.49 -0.2,12.02 17.56,3.78 8.29,-3.83 6.52,-8.68 24.82,-16.63 20.02,-8.73 44.25,-8.63 66.62,-6.72l30.91 5.3 21.87 1.81c31.7,10.89 34.98,17.22 58.82,27.38 30.81,13.09 40.77,5.79 59.17,32.08 19.91,9.71 97.52,70.59 110.91,88.35 1.47,1.08 14.18,9.71 15.26,10.79 14.47,14.82 4.76,4.27 12.75,18.15 11.58,8.34 22.18,17.12 33.71,29.39 5.88,6.18 10.89,13.29 16.14,17.71 11.13,9.32 5.64,7.99 21.88,11.72 13.19,-23.99 13.58,-29.28 33.7,-48.96l10.84 -23.89c33.31,9.52 8.83,-2.6 43.22,31.06 -11.48,25.51 -25.9,51.65 -42.58,78 -7.12,43.61 2.45,32.91 28.74,58.03 11.29,10.74 28.65,34.24 38.22,48.62 25.85,38.75 43.95,56.85 66.42,105.52 0.93,0.88 2.6,0.88 2.9,2.55 0.24,1.67 2.35,2.25 2.69,2.79 4.42,6.28 2.85,3.44 6.48,11.14l31.79 79.28 10.59 28.15c10.99,45.68 9.82,64.91 1.53,103.07 -32.38,17.66 -21.39,-15.06 -38.42,20.16 -0.09,-30.9 0,-46.8 -12.26,-70l1.28 96.15c12.8,28.9 15.6,3.83 52.09,34.29l-8.14 26.35 -9.12 12.11c-1.03,14.72 -4.32,22.67 -11.09,34.54 -1.23,2.11 -9.57,14.52 -11.04,16.19 -12.17,13.88 -1.86,4.8 -16.48,14.57l5.1 5.93 0.69 5.1c7.8,-7.8 -1.28,-0.58 8.24,-8.63 11.18,-9.37 4.56,-5.2 13.19,-9.07 19.92,-46.31 56.32,-65.99 62.85,-177.44 5.2,-88.99 -23.26,-133.54 -42.44,-206.04 -9.12,-9.22 -60.53,-110.13 -104,-166.4 -81.68,-105.87 -58.57,-51.85 -3.87,-165.13 -13.69,-16.14 -35.42,-33.55 -58.97,-38.8l-54.06 67.6c-13.79,-6.87 -2.36,0.2 -13.05,-8.54 -63.43,-51.55 -170.72,-198.77 -337.36,-226.54 -103.02,-17.17 -111.41,17.12 -148.1,45.13zm495.22 347.28c1.92,21.19 3.68,9.81 -6.52,13.93 0.34,31.79 -22.67,72.5 -36.06,103.07 -13.83,31.64 -24.77,61.86 -39.78,94.09 -11.92,34.92 -53.48,134.71 -68.49,155.7l-8.68 18.01c-5.3,13.24 -8.29,22.71 -14.86,37.48 -3.49,7.89 -2.85,7.3 -6.77,13.19 -6.77,10.11 -3.78,5.35 -11.24,11.73l-7.75 11.18c-8.73,26.05 -31.84,56.07 -49.1,77.22 -17.66,21.58 -13.64,13.63 -19.82,14.71l-20.07 25.07c3.44,13.93 -13.24,7.46 16.78,10.3 110.13,2.5 185.14,13.1 288.89,-12.46l19.28 -9.37 19.92 -6.96c31.59,-20.8 54.26,-30.61 72.16,-56.42 10.55,-17.46 14.82,-19.38 20.31,-36.74l-4.22 -1.62c-24.43,25.66 -55.53,69.17 -110.86,73.63 -35.47,36.5 -232.88,29.93 -289.54,21.29 46.85,-64.36 57.15,-57.83 107.88,-156.39 21.49,-41.84 69.71,-165.27 86.54,-185.29l15.45 -42.82c11.77,-50.87 57,-121.71 60.44,-163.61l-3.93 -8.39 -9.96 -0.53zm-96.15 -130.64c12.71,23.01 11.33,15.65 31.5,32.87 12.65,10.84 18.44,16.48 26.63,31.93 6.38,4.17 15.75,-4.95 -1.71,37.04 -6.18,14.77 -11.29,25.36 -16.34,38.12 -7.31,18.34 -25.17,64.06 -26.24,81.14l-55.88 214.03c-8.73,18.79 -28.75,43.32 -12.66,62.3 15.01,-20.99 56.57,-120.78 68.49,-155.7 -29.24,-14.92 -1.67,-43.81 3.82,-62.01 6.58,-21.93 7.31,-37.24 17.86,-61.27l56.66 -107.54 -2.5 33.66c10.2,-4.12 8.44,7.26 6.52,-13.93l12.02 -133.24c-5.2,4.9 -10.99,4.12 -16.82,9.07 -16.24,-3.73 -10.75,-2.4 -21.88,-11.72 -5.25,-4.42 -10.26,-11.53 -16.14,-17.71 -11.53,-12.27 -22.13,-21.05 -33.71,-29.39 -17.12,29.24 -5.2,5.74 -5.59,21.2 -0.05,1.81 0.74,12.31 -0.24,15.2 -9.03,26.84 25.36,0.74 -13.79,15.95zm-176.21 716.32l22.12 5.89 28.07 2.35c13.78,5.2 37.96,14.62 48.02,21.83l-70.1 18.4 -6.87 2.45 22.62 12.86c73.58,-2.06 225.56,10.25 278.83,-28.8 -7.55,-12.36 -13.39,-9.47 -25.46,-21.14 -9.76,-9.42 -3.04,1.03 -7.16,-10.35 -4.76,-13.05 -3.28,0.88 -1.18,-15.95 -103.75,25.56 -178.76,14.96 -288.89,12.46zm-353.94 44.84l23.15 2.7 -15.8 -74.37 42.14 -2.45c2.21,0.34 13.64,2.3 15.26,2.84 25.36,8.78 6.28,1.57 16.48,7.41 28.06,-3.19 84.53,2.75 104.45,13.78l63.33 -1.91 11.23 -0.64c18.01,-19.87 34.73,-37.82 53.87,-58.67 23.1,-25.21 32.52,-40.42 53.08,-70.44l15.2 -24.83 -7.21 -0.88c-44.15,42.58 -65.98,125.68 -134.61,126.76 -84.62,1.38 -200,-36.25 -252.79,-14.37 -51.61,21.39 -49.5,94.43 12.22,95.07zm375.18 -207.46l7.21 0.88c14.77,-6.96 8.1,7.17 13,-9.91l17.52 -17.31c19.28,16.04 18.54,25.16 20.99,50.48 7.46,-6.38 4.47,-1.62 11.24,-11.73 3.92,-5.89 3.28,-5.3 6.77,-13.19 6.57,-14.77 9.56,-24.24 14.86,-37.48l-10.94 -0.05c-3.38,-39.44 -15.21,-39.89 -0.39,-75.7l88.55 -218.59c1.07,-17.08 18.93,-62.8 26.24,-81.14 5.05,-12.76 10.16,-23.35 16.34,-38.12 17.46,-41.99 8.09,-32.87 1.71,-37.04 -27.86,78.98 -66.57,165.96 -101.35,248.08 -17.61,41.6 -34.34,82.71 -52.64,122 -16.92,36.5 -50.08,87.03 -59.11,118.82zm322.01 -359.14c10.99,24.77 35.91,69.02 56.27,85.11l3.73 -6.62c8.48,22.27 1.57,1.52 11.33,11.62l2.11 -26.83 29.43 -2.99c-22.47,-48.67 -40.57,-66.77 -66.42,-105.52 -9.57,-14.38 -26.93,-37.88 -38.22,-48.62 -26.29,-25.12 -35.86,-14.42 -28.74,-58.03l-8.29 4.85c4.9,27.38 3.04,55.29 15.6,80.8 8.73,17.76 8.88,6.92 18.05,34.19 5.69,16.88 3.48,12.51 5.15,32.04zm-528.54 -348.85l-3.28 33.85c19.28,23.75 4.22,28.31 31.98,67.8 0.98,1.42 2.31,3.14 3.24,4.41l6.52 9.37c1.08,0.69 2.85,0.59 3.19,2.21l26.3 24.63c18.44,14.47 18.39,9.56 32.18,34.93 8.68,3.19 20.99,12.51 28.5,18.1 9.96,7.41 8.09,6.96 15.5,12.51 16.14,12.12 3.34,6.67 18.69,9.81 18.59,-1.86 -2.65,-9.91 25.51,2.89l2.9 -15.89c-40.33,-45.03 -123.58,-78.15 -135.69,-135.94 -23.36,-12.9 -44.65,-52.78 -33.02,-84.67l0.83 -14.08c-12.41,10.21 -16.72,12.61 -23.35,30.07zm204.47 17.91c30.37,30.76 82.81,51.17 99,85.31 10.99,2.4 4.61,-1.18 14.03,3.24 10.64,-15.9 5.44,3.92 2.21,-13.84 0,-0.09 -4.71,-12.56 -5.79,-20.01 21.88,-5.25 13.73,-6.82 39.19,0.39 -13.39,-17.76 -91,-78.64 -110.91,-88.35 -29.29,-4.86 -41.26,-27.96 -54.75,2.06 -7.7,17.12 20.65,21.49 17.02,31.2zm-112.88 844.9l-11.23 0.64 -33.41 10.6c25.12,7.5 28.26,20.26 22.81,46.7l110.13 6.03c12.37,-15.94 21.15,-26.78 27.52,-50.28l-22.12 -5.89c-30.02,-2.84 -13.34,3.63 -16.78,-10.3 -18.3,-3.43 -8.88,3.04 -18.2,-7.16 -15.11,10.4 -17.76,3.48 -42.33,5.05l10.4 9.13c-12.61,1.66 -6.04,1.81 -18.35,0.29 -1.08,-0.15 -3.73,-0.29 -4.51,-2.06 -0.74,-1.77 -2.6,-1.86 -3.93,-2.75zm421.79 -20.99c4.71,19.47 3.93,11.57 12.66,24.77 11.67,17.51 10.5,11.72 13.83,36.79 25.51,-8.29 13.35,-11.53 43.47,-21.09 11.28,-3.58 16.87,-3.19 25.21,-9.37 22.71,-16.83 8.29,-6.38 16.68,-23.16 -20.26,-1.47 -6.77,7.02 -15.7,-4.07l29.78 -19.28 -5.1 -5.93c-8.49,-23.8 4.36,0.14 -7.61,-8.78l-10.3 -6.09c-33.85,-20.11 -19.62,2.5 -25.85,-16.53 -0.83,-2.65 -3.39,-2.31 -4.91,-3.68 -17.9,25.81 -40.57,35.62 -72.16,56.42zm-550.95 -904.17c-0.2,0.1 -13.99,3.04 -18.01,6.72l20.36 140.94 -0.29 -26.83c20.21,-18.79 19.62,-38.31 35.51,-58.48 6.63,-17.46 10.94,-19.86 23.35,-30.07l0.99 -18.93c29.48,-3.24 20.75,-10.84 52.04,-15.31l-4.95 -17.61c-22.37,-1.91 -46.6,-2.01 -66.62,6.72 -18.3,7.95 -16.53,12.8 -24.82,16.63 -17.76,8.24 -6.62,17.71 -17.56,-3.78zm662.11 584.81l12.17 63.82c12.26,23.2 12.17,39.1 12.26,70 17.03,-35.22 6.04,-2.5 38.42,-20.16 8.29,-38.16 9.46,-57.39 -1.53,-103.07l-10.59 -28.15c-10.25,16.48 8.09,19.32 -15.99,12.85 -8,-2.11 -4.37,-9.76 -4.42,-12.02 -12.95,18.44 -8.44,8.39 -16.83,26.54 -0.19,-11.58 -3.04,-15.6 -7.84,-28.8l-5.65 18.99zm-410.8 186.41l-15.2 24.83c16.28,9.02 20.5,-27.57 9.66,21.68 -0.69,3.14 -5.99,8.04 -7.11,9.56l-30.42 32.38c1.96,17.32 3.53,29.44 17.91,37.92 6.18,-1.08 2.16,6.87 19.82,-14.71 17.26,-21.15 40.37,-51.17 49.1,-77.22 -5.1,-14.37 -2.16,-5.79 -6.08,-12.61 -0.2,-0.34 -7.51,-11.77 -7.8,-12.16 -5.64,-8.29 -11.33,-14.33 -16.88,-19.58 -4.9,17.08 1.77,2.95 -13,9.91zm-280.16 209.38l124.65 -1.97 11.53 4.47c5.45,-26.44 2.31,-39.2 -22.81,-46.7l33.41 -10.6 -63.33 1.91 -33.22 4.76 -13.19 2.5c-7.61,13.74 -2.36,13.64 -11.97,26.99 -14.08,19.62 -9.22,7.06 -25.07,18.64zm441.71 -422.23c15.01,-32.23 25.95,-62.45 39.78,-94.09 13.39,-30.57 36.4,-71.28 36.06,-103.07l2.5 -33.66 -56.66 107.54c-10.55,24.03 -11.28,39.34 -17.86,61.27 -5.49,18.2 -33.06,47.09 -3.82,62.01zm-77.17 173.71l8.68 -18.01c-16.09,-18.98 3.93,-43.51 12.66,-62.3l55.88 -214.03 -88.55 218.59c-14.82,35.81 -2.99,36.26 0.39,75.7l10.94 0.05zm-135.3 -452.11c7.61,8.98 4.61,5.49 11.29,13.05 0.88,1.03 3.33,5.64 4.02,4.46 0.68,-1.27 2.75,2.95 4.12,4.42l79.23 67.79 14.81 -11.52c3.83,-19.19 -0.93,-0.1 3.97,-15.11 3.29,-10.16 -0.09,1.81 5.2,-13.98 -15.79,-16.19 -71.03,-51.17 -94.23,-62.11l-2.9 15.89c-28.16,-12.8 -6.92,-4.75 -25.51,-2.89zm443.03 531.04c-5.49,17.36 -9.76,19.28 -20.31,36.74 1.52,1.37 4.08,1.03 4.91,3.68 6.23,19.03 -8,-3.58 25.85,16.53l10.3 6.09c11.97,8.92 -0.88,-15.02 7.61,8.78 14.62,-9.77 4.31,-0.69 16.48,-14.57 1.47,-1.67 9.81,-14.08 11.04,-16.19 6.77,-11.87 10.06,-19.82 11.09,-34.54l1.76 -14.62c-12.07,-2.06 -19.47,-4.75 -29.68,-7.11 -18.2,-4.22 9.32,-4.17 -22.27,-2.31l-16.78 17.52zm-515.58 -782.5l0.54 7.89c45.62,1.33 75.54,31.74 113.66,43.86 3.63,-9.71 -24.72,-14.08 -17.02,-31.2 13.49,-30.02 25.46,-6.92 54.75,-2.06 -18.4,-26.29 -28.36,-18.99 -59.17,-32.08 -23.84,-10.16 -27.12,-16.49 -58.82,-27.38l-0.39 23.5 -33.55 17.47zm1.32 896.65c1.33,0.89 3.19,0.98 3.93,2.75 0.78,1.77 3.43,1.91 4.51,2.06 12.31,1.52 5.74,1.37 18.35,-0.29l-10.4 -9.13c24.57,-1.57 27.22,5.35 42.33,-5.05 9.32,10.2 -0.1,3.73 18.2,7.16l20.07 -25.07c-14.38,-8.48 -15.95,-20.6 -17.91,-37.92l30.42 -32.38c1.12,-1.52 6.42,-6.42 7.11,-9.56 10.84,-49.25 6.62,-12.66 -9.66,-21.68 -20.56,30.02 -29.98,45.23 -53.08,70.44 -19.14,20.85 -35.86,38.8 -53.87,58.67zm-0.88 -642.3l28.45 25.12c12.02,9.08 20.75,14.62 35.27,21 -0.39,-37.48 2.7,-3.78 -7.21,-32.23 22.32,10.35 -3.63,8.93 35.03,5.15 -1.37,-1.47 -3.44,-5.69 -4.12,-4.42 -0.69,1.18 -3.14,-3.43 -4.02,-4.46 -6.68,-7.56 -3.68,-4.07 -11.29,-13.05 -15.35,-3.14 -2.55,2.31 -18.69,-9.81 -7.41,-5.55 -5.54,-5.1 -15.5,-12.51 -7.51,-5.59 -19.82,-14.91 -28.5,-18.1 -29.24,-12.17 -1.47,-8.69 -29.53,-5.5 -1.38,15.11 -4.52,5.15 0.14,20.9 6.48,21.83 -4.17,-4.71 15.41,18.94 17.26,20.85 -3.24,-22.18 4.56,8.97zm-203.59 717.02c55.93,-2.21 137.26,-3.39 166.55,-18.15 1.18,-0.59 3.09,-1.97 4.56,-3.1l-124.65 1.97 -32.43 6.72 2.51 -54.85 19.96 -4.22c-2.11,4.57 -13,3.98 -7.41,-10.84l67.6 15.06 33.22 -4.76c-19.92,-11.03 -76.39,-16.97 -104.45,-13.78l-23.74 2.75c4.17,24.52 -1.47,51.21 10.4,66.86 -5.89,6.57 0.1,10.3 -12.12,16.34zm707.55 -464.96c6.96,7.75 6.57,9.37 12.95,22.61 3.58,7.46 2.94,7.7 6.97,14.33 6.18,10.1 3.33,6.23 9.95,12.95l5.65 -18.99c4.8,13.2 7.65,17.22 7.84,28.8 8.39,-18.15 3.88,-8.1 16.83,-26.54 0.05,2.26 -3.58,9.91 4.42,12.02 24.08,6.47 5.74,3.63 15.99,-12.85l-31.79 -79.28 12.56 45.23c-26.84,-8.09 -29.44,-0.2 -42.44,-13.44l-13.73 -18.45c-9.76,-10.1 -2.85,10.65 -11.33,-11.62l-3.73 6.62 9.86 38.61zm-440.24 -205.94c10.35,13.73 94.14,72.94 102.53,44.2 0.69,-2.36 2.99,-2.31 4.52,-3.49l-79.23 -67.79c-38.66,3.78 -12.71,5.2 -35.03,-5.15 9.91,28.45 6.82,-5.25 7.21,32.23zm163.07 -160.17c14.96,20.36 33.85,26.88 44,47.83 39.15,-15.21 4.76,10.89 13.79,-15.95 0.98,-2.89 0.19,-13.39 0.24,-15.2 0.39,-15.46 -11.53,8.04 5.59,-21.2 -7.99,-13.88 1.72,-3.33 -12.75,-18.15 -1.08,-1.08 -13.79,-9.71 -15.26,-10.79 -25.46,-7.21 -17.31,-5.64 -39.19,-0.39 1.08,7.45 5.79,19.92 5.79,20.01 3.23,17.76 8.43,-2.06 -2.21,13.84zm-383.92 811.79c15.85,-11.58 10.99,0.98 25.07,-18.64 9.61,-13.35 4.36,-13.25 11.97,-26.99l13.19 -2.5 -67.6 -15.06c-5.59,14.82 5.3,15.41 7.41,10.84l-19.96 4.22 -2.51 54.85 32.43 -6.72zm69.07 -781.77c23.84,28.7 57.69,63.82 88.06,84.03 -7.8,-31.15 12.7,11.88 -4.56,-8.97 -19.58,-23.65 -8.93,2.89 -15.41,-18.94 -4.66,-15.75 -1.52,-5.79 -0.14,-20.9 28.06,-3.19 0.29,-6.67 29.53,5.5 -13.79,-25.37 -13.74,-20.46 -32.18,-34.93l-26.3 -24.63c-0.34,-1.62 -2.11,-1.52 -3.19,-2.21 -21.19,16.78 2.6,26.15 -35.81,21.05zm450.2 24.28c5.83,-4.95 11.62,-4.17 16.82,-9.07l-12.02 133.24 9.96 0.53c13.05,-26 8.49,-12.36 7.7,-45.91 -0.54,-23.55 -6.62,-32.09 14.43,-37.73 -1.43,-21.04 0.93,-33.26 2.06,-52.29 1.37,-24.04 14.66,-41.75 -5.25,-37.73 -20.12,19.68 -20.51,24.97 -33.7,48.96zm33.7 -48.96c19.91,-4.02 6.62,13.69 5.25,37.73 -1.13,19.03 -3.49,31.25 -2.06,52.29l8.29 -4.85c16.68,-26.35 31.1,-52.49 42.58,-78 -34.39,-33.66 -9.91,-21.54 -43.22,-31.06l-10.84 23.89zm-507.94 -12.65c1.97,3.78 5.99,11.18 6.28,12.07 5.5,15.4 0.3,-5.45 3.49,13.68 9.02,5.94 3.68,-2.5 14.27,11.58 38.41,5.1 14.62,-4.27 35.81,-21.05l-6.52 -9.37c-0.93,-1.27 -2.26,-2.99 -3.24,-4.41 -27.76,-39.49 -12.7,-44.05 -31.98,-67.8 -1.38,17.86 -2.55,21.98 -9.28,35.57 -10.54,21.39 -10.1,-6.97 -8.83,29.73zm489 186.31l3.93 8.39c25.16,-1.32 23.4,19.28 45.77,44.25l11.23 10.75c-1.67,-19.53 0.54,-15.16 -5.15,-32.04 -9.17,-27.27 -9.32,-16.43 -18.05,-34.19 -12.56,-25.51 -10.7,-53.42 -15.6,-80.8 -21.05,5.64 -14.97,14.18 -14.43,37.73 0.79,33.55 5.35,19.91 -7.7,45.91zm-636.26 629.99c7.55,6.87 0.19,0.98 11.62,9.03 20.07,14.08 -3.33,-3.98 12.07,7.99l27.42 -3.33 -7.5 -80.46c0.73,-0.98 4.22,-5.88 5.88,-7.35l-42.14 2.45 15.8 74.37 -23.15 -2.7zm768.52 -476.49l13.73 18.45c13,13.24 15.6,5.35 42.44,13.44l-12.56 -45.23c-3.63,-7.7 -2.06,-4.86 -6.48,-11.14 -0.34,-0.54 -2.45,-1.12 -2.69,-2.79 -0.3,-1.67 -1.97,-1.67 -2.9,-2.55l-29.43 2.99 -2.11 26.83zm-576.52 -469.03l-0.83 14.08c13.15,-17.71 5.3,21.49 15.31,-18.79 27.57,5.3 26.29,11.24 52.98,8.83l-0.54 -7.89c-34.54,-2.7 -11.87,1.47 -19.97,-10.11l37.63 -22.13c-12.02,1.48 -0.2,1.92 -5.59,-10.54l-30.91 -5.3 4.95 17.61c-31.29,4.47 -22.56,12.07 -52.04,15.31l-0.99 18.93zm578.28 777.11l4.22 1.62 16.78 -17.52 4.07 -17.31 52.79 12.16 2.45 17.08 8.14 -26.35c-36.49,-30.46 -39.29,-5.39 -52.09,-34.29 -5.3,5.45 -4.81,3.44 -10.45,12.36 -3.09,4.91 -6.33,12.22 -9.18,18.01 -4.51,9.17 -11.08,23.3 -16.73,34.24zm-746.59 185.43l32.08 5.06c12.22,-6.04 6.23,-9.77 12.12,-16.34 -11.87,-15.65 -6.23,-42.34 -10.4,-66.86l23.74 -2.75c-10.2,-5.84 8.88,1.37 -16.48,-7.41 -1.62,-0.54 -13.05,-2.5 -15.26,-2.84 -1.66,1.47 -5.15,6.37 -5.88,7.35l7.5 80.46 -27.42 3.33zm324.85 -5.69l49.26 7.61 -22.62 -12.86 6.87 -2.45 22.08 -40.23 -28.07 -2.35c-6.37,23.5 -15.15,34.34 -27.52,50.28zm-215.11 -841.47c0.59,0.59 1.62,0.64 1.82,1.62l12.01 12.22c-1.27,-36.7 -1.71,-8.34 8.83,-29.73 6.73,-13.59 7.9,-17.71 9.28,-35.57l3.28 -33.85c-15.89,20.17 -15.3,39.69 -35.51,58.48l0.29 26.83zm509.4 772.84c-2.1,16.83 -3.58,2.9 1.18,15.95 4.12,11.38 -2.6,0.93 7.16,10.35 12.07,11.67 17.91,8.78 25.46,21.14l18.55 -3.58c-8.68,-27.77 4.81,-0.25 -17.32,-24.77 -24.23,-26.84 -9.07,-1.38 -15.75,-28.46l-19.28 9.37zm-260.78 60.93l70.1 -18.4c-10.06,-7.21 -34.24,-16.63 -48.02,-21.83l-22.08 40.23zm280.06 -70.3c6.68,27.08 -8.48,1.62 15.75,28.46 22.13,24.52 8.64,-3 17.32,24.77l13.34 1.37c-3.33,-25.07 -2.16,-19.28 -13.83,-36.79 -8.73,-13.2 -7.95,-5.3 -12.66,-24.77l-19.92 6.96zm-403.19 -882.62l33.55 -17.47 0.39 -23.5 -21.87 -1.81c5.39,12.46 -6.43,12.02 5.59,10.54l-37.63 22.13c8.1,11.58 -14.57,7.41 19.97,10.11zm136.47 732.8c5.55,5.25 11.24,11.29 16.88,19.58 0.29,0.39 7.6,11.82 7.8,12.16 3.92,6.82 0.98,-1.76 6.08,12.61l7.75 -11.18c-2.45,-25.32 -1.71,-34.44 -20.99,-50.48l-17.52 17.31zm395.89 32.18c31.59,-1.86 4.07,-1.91 22.27,2.31 10.21,2.36 17.61,5.05 29.68,7.11l-1.76 14.62 9.12 -12.11 -2.45 -17.08 -52.79 -12.16 -4.07 17.31zm2.6 118.62l14.77 -18.25 -0.69 -5.1 -29.78 19.28c8.93,11.09 -4.56,2.6 15.7,4.07zm1709.97 -298.9l-107.53 232.38c-38.42,87.62 -33.8,70.99 -40.92,57.3l-4.31 11.53c-0.79,2.7 -2.51,8.93 -3.09,12.36 -3.34,18.99 -3.49,51.17 7.7,62.79 28.25,29.44 138.58,-33.75 171.84,-57.88 44.99,-32.63 35.96,-23.06 36.35,-38.51 -0.05,-23.55 -16.38,-20.02 2.16,-20.12 -7.36,-12.75 -4.85,-3.33 -5.39,-18.1 -0.35,-8.78 0.73,-12.46 1.42,-24.13 -27.57,21.83 -96.99,80.55 -134.56,85.11 6.86,-75.5 119.4,-249.31 120.33,-304.05l-1.76 -15.6c-4.57,10.45 -22.32,32.96 -42.24,16.92zm-1386.29 -104.49l-22.86 39.34c-0.54,-1.08 -2.31,2.9 -3.63,4.17 -2.21,27.92 -24.04,66.72 -53.48,81.73 -12.51,23.21 -42.58,49.65 -66.96,69.61 -46.99,38.51 -35.61,32.28 -38.8,103.95 25.65,-5 26.64,-7.4 37.33,-20.5 -13.25,-15.5 4.22,-5.89 -24.58,-12.36 9.57,-40.82 15.26,-46.56 50.92,-66.08 18.64,-10.16 17.12,-6.48 31.6,-20.8 14.37,-14.18 1.66,0.24 12.75,-15.9l11.14 -18.44c37.52,2.21 36.64,13.98 50.52,1.47 3.63,37.97 -25.21,80.99 -36.54,114.01 -11.38,49.59 -30.76,34.83 -39.1,84.72 -1.23,7.16 -1.47,14.91 -2.06,17.02 -6.87,23.3 -1.03,8.78 -10.84,18.99l-4.12 25.31c34.14,-4.47 65.68,-21.73 99.93,-4.51l22.22 -15.8 -7.66 -15.75c-5.78,-13.49 6.68,-3.14 -7.45,-9.56l-10.89 -2.95c4.81,-4.76 10.15,-10.1 14.76,-14.57l10.16 -9.66c36.79,-36.84 103.31,-80.9 107.82,-90.95l-2.5 68.19c-13.05,-8.44 -14.91,2.65 -1.57,-13.35 6.38,-7.7 18.3,0.2 17.03,-56.22 -0.54,-22.81 5.2,-9.95 -2.95,-20.6 -26.54,7.9 -155.02,129.31 -214.82,156.25 4.96,-33.22 74.52,-173.27 92.82,-214.87 19.03,-43.22 87.12,-176.41 91.15,-216.64 -107.68,-0.88 -67.41,-0.78 -73.59,11.24 4.47,22.86 -11.63,16.53 16.48,19.57 9.52,0.98 13.99,-3.38 29.05,-2.45 -8.3,25.21 -16,27.76 -23.11,48.17 -35.12,-22.86 -12.41,-6.38 -33.55,-14.47 -0.89,-0.34 -3.49,-1.67 -4.32,-2.01l-10.3 -5.3zm503.27 287.42l-1.96 -14.03 -87.03 22.23c-16.04,5.34 -2.16,5.44 -26.44,9.95 -1.62,10.94 -1.08,7.27 -8.34,18.45 20.55,-1.52 17.07,-0.93 29.78,-5.69 26.49,-9.96 8.04,-1.03 9.22,-7.65l3.14 12.02c9.42,10.35 8.24,-0.89 5.88,16.82 -0.04,0.35 -7.94,18.3 -8.19,18.74 -11.43,22.76 -1.22,10.55 -23.5,26.84 -20.11,24.52 -12.6,36.35 -29.38,54.6 10.5,18.78 23.64,42.72 45.92,45.72 49.35,6.72 114.89,-36.4 150.75,-62.99 16.92,-12.51 16.24,-13 19.96,-27.57 15.65,-31.15 46.51,-44.2 77.42,-70.94 21.92,-18.93 -7.22,-6.28 26.53,-19.92l-1.76 -51.75c-46.07,22.52 -159.39,144.23 -222.03,156.29 3.29,-55.28 30.85,-74.56 40.03,-121.12zm-316.61 -173.66c-11.92,25.91 -23.21,29.88 -27.72,54.6l3.04 11.83c5.15,-18.01 -5.54,-13.84 7.41,-17.32 12.95,-17.47 4.66,-6.97 20.5,-21.19 17.81,-15.95 6.97,-11.73 29.54,-15.06 -4.57,-16.24 6.28,-14.13 -5.01,-14.38 8.49,-12.31 -3.87,-8.78 20.66,-18.15l27.22 -10.06c4.02,14.43 3.24,7.51 5.94,11.93 5.1,8.38 1.62,-2.95 13.73,21.43 12.27,-10.59 18.4,-17.12 25.42,-28.89 -20.27,4.66 15.74,11.67 -18.35,3.78 -19.04,-4.42 -8.93,9.37 -17.52,-12.12 -0.49,-1.28 -0.83,-3.73 -0.93,-5.05 -1.32,-19.82 2.55,-10.26 9.91,-14.28 0.64,-0.34 3.14,-0.29 3.68,-0.49 27.82,-9.12 5.69,0 6.97,1.82 -19.53,-4.42 -8.1,-4.13 -16.34,-13.45l75.6 -43.46c30.66,-14.52 0.54,-0.25 9.51,-4.17 13.3,-5.84 84.19,-40.86 74.13,5.98 -4.76,22.28 22.61,10.94 -19.92,14.92l9.18 3.58c40.12,0.44 73.24,-17.02 123.18,-11.82 43.17,4.56 73.19,30.66 101.79,30.76 1.96,-1.13 14.08,-6.77 18.05,-8.34l1.92 -67.65c-112.25,-44.45 -163.95,-47.88 -281.64,0.93 -42.78,17.76 -79.03,41.01 -110.67,64.12 -51.95,38.01 -54.45,52.19 -75.99,71.62 -9.71,8.78 -4.86,5.98 -13.29,8.58zm774.85 33.51c-31.94,15.4 -43.03,50.63 -80.55,71.72 -10.31,23.55 -23.06,39.39 -41.06,55.88 -15.85,14.47 -10.5,9.37 -22.62,24.57 -14.72,18.5 -1.37,8.15 -25.02,19.58l55.63 -126.62c-8.98,-8.73 12.95,-12.61 -23.84,-6.18 -5.35,0.93 -10.55,6.18 -12.31,7.55l-16.73 22.82c-0.3,12.01 3.14,6.57 -20.26,0.04 17.27,51.56 3.43,34.69 -0.25,40.23 -12.41,13.93 -61.66,107.09 -72.65,135.69 3.38,4.61 -11.58,23.65 15.7,-3.73 4.02,-4.02 7.45,-14.57 16.82,-24.52 42.98,1.91 52.5,7.01 58.63,-4.86 0.44,-0.88 0.88,-4.37 1.86,-6.43 45.77,44.79 -15.06,-11.28 37.97,5.99 20.26,-6.53 77.9,-85.12 96.69,-108.52l66.23 -67.06 27.47 -34.88c-11.58,-18.39 14.91,-13.04 -26.49,-6.37 -13.93,2.25 -20.51,3.82 -35.22,5.1zm-487.23 26.69c23.3,23.3 6.52,5.34 10.79,7.75l6.23 1.32c-16.09,41.6 1.81,43.71 38.21,32.57 6.43,31.74 9.28,23.7 -12.26,43.71 -4.86,22.57 0.78,14.92 -13.98,28.11 -9.18,46.56 -36.74,65.84 -40.03,121.12 62.64,-12.06 175.96,-133.77 222.03,-156.29l1.76 51.75 11.34 -0.29 2.55 -7.95 0.05 -72.4c-0.98,0.83 -8.78,6.37 -9.81,6.91 -27.33,10.99 -74.28,53.72 -101.75,76.24 -22.37,18.29 -73.78,59.55 -103.41,70.49l128.58 -288.06 4.95 -33.9 -68.73 -6.52c-14.42,30.61 -72.06,101.89 -76.52,125.44zm615.76 97.81c-13.5,-30.07 1.52,1.53 -46.71,-5.88 -5.2,22.81 -24.57,57.05 -36.74,80.45l-28.94 67.01c-16.34,17.86 -5.15,11.53 -21.1,-1.91 -9.96,22.96 -9.02,53.23 12.9,74.12 21.93,3.34 34.1,5.55 53.72,-0.34 7.65,-12.66 2.7,0.2 2.5,-20.41 9.96,-27.52 108.12,-135.69 133.09,-164.09l-25.51 -39.35c-33.5,11.14 -26.93,34.39 -56.51,50.53l13.3 -40.13zm-710.54 52.25l-11.63 -1.57c-5.3,26.1 -59.95,76.87 -85.21,93.89 -48.76,32.82 -90.95,16.78 -110.33,-45.32l-51.41 9.95 -9.07 -18.73 0.09 -16.64 -3.72 -2.64c-4.17,34.58 2.79,58.42 22.86,80.89l54.84 63.63 78.3 -0.25c29.43,-15.6 14.22,-4.95 42.63,-11.62l22.02 -13c10.99,-16.44 0.89,10.3 5.3,-16.29 4.12,-20.07 -4.61,0.39 4.46,-14.28 0.89,-1.42 10.55,-11.87 12.61,-13.78 11.58,-11.04 17.47,-15.16 28.55,-21.73 6.67,-34.25 34.49,-38.86 41.85,-73.83l-3.14 -12.02c-1.18,6.62 17.27,-2.31 -9.22,7.65 -12.71,4.76 -9.23,4.17 -29.78,5.69zm311.66 -93.75c1.03,-0.54 8.83,-6.08 9.81,-6.91l11.23 6.67 31.64 -22.08c6.09,-21.63 7.61,-18.3 23.11,-21.78 7.5,-13.59 -4.96,-6.62 10.79,-15.45l18.1 -21.64c20.12,-17.71 39.05,-21.38 72.9,-19.67l14.96 25.07c18.4,-41.6 84.23,-168.95 88.65,-208.93 -119.01,-3.39 -51.76,-9.18 -143.88,143.54 -33.12,54.94 -126.62,117.49 -137.31,141.18zm-560.97 -9.76c8.15,10.65 2.41,-2.21 2.95,20.6 1.27,56.42 -10.65,48.52 -17.03,56.22 -13.34,16 -11.48,4.91 1.57,13.35l2.5 -68.19c-4.51,10.05 -71.03,54.11 -107.82,90.95l-10.16 9.66c-4.61,4.47 -9.95,9.81 -14.76,14.57l10.89 2.95c14.13,6.42 1.67,-3.93 7.45,9.56l7.66 15.75 49.89 -34.39c17.22,-13.64 29.14,-26.34 48.47,-33.95l-3.58 25.37 3.72 2.64 56.61 1.04c-3.77,-57.6 15.75,-108.71 32.73,-146.73 -11.39,-5.69 3.97,-0.49 -4.62,-29.88l-34.68 10.16 -3.04 -11.83c-16.88,13.59 -9.03,4.22 -18.84,25.02 -5.59,11.82 -6.67,18.05 -9.91,27.13zm1221.37 -187.89c-16.39,7.71 -39.84,28.31 -51.61,44.94 23.45,-9.13 33.11,-5.89 59.41,-5.69l-21.98 39.24c26.49,-8.38 19.67,-14.08 41.55,-29.18 -24.72,42.38 -47.88,107.72 -72.26,157.17 -25.41,51.41 -47.68,104 -68.83,155.07 7.12,13.69 2.5,30.32 40.92,-57.3l107.53 -232.38 3.82 -16.14c3.59,-28.06 5.79,-32.28 19.68,-54.25 10.84,-3.39 24.82,-4.47 27.47,-5.2 23.74,-6.82 15.01,2.15 25.26,-16.78 -46.36,2.5 -71.13,18.2 -110.96,20.5zm-1499.96 245.68l14.08 -4.86c-15.01,-21.93 24.38,-15.3 -13.69,-16.53 24.19,-18 12.22,20.6 15.99,-29.73 1.72,1.42 6.58,4.61 7.8,5.3l71.63 27.72c11.33,-33.02 40.17,-76.04 36.54,-114.01 -13.88,12.51 -13,0.74 -50.52,-1.47l-11.14 18.44c-11.09,16.14 1.62,1.72 -12.75,15.9 -14.48,14.32 -12.96,10.64 -31.6,20.8 -35.66,19.52 -41.35,25.26 -50.92,66.08 28.8,6.47 11.33,-3.14 24.58,12.36zm850.25 114.25l-5.59 18.05 31.39 0.84c-18.79,55.19 -15.55,14.42 -53.57,47l8.83 24.92 47.39 -2.7c16.04,-5.3 8.1,-2.9 13.25,-7.26 6.38,-15.21 -6.77,-1.82 15.11,-19.18 13.24,-23.35 22.86,-35.91 50.72,-50.34l23.45 -44.88c-53.03,-17.27 7.8,38.8 -37.97,-5.99 -0.98,2.06 -1.42,5.55 -1.86,6.43 -6.13,11.87 -15.65,6.77 -58.63,4.86 -9.37,9.95 -12.8,20.5 -16.82,24.52 -27.28,27.38 -12.32,8.34 -15.7,3.73zm-500.57 -192.64c-16.98,38.02 -36.5,89.13 -32.73,146.73l4.52 14.61 -0.74 9.77c19.38,62.1 61.57,78.14 110.33,45.32 25.26,-17.02 79.91,-67.79 85.21,-93.89l-3.38 1.57c-19.04,2.06 -21.29,27.03 -67.11,59.95 -78.2,56.27 -117,-20.7 -104.93,-106.41 5.44,-38.9 23.69,-61.91 31.54,-91.98 -14.47,-15.94 2.99,-11.72 -12.41,-1.47 -0.1,0.1 -9.96,15.21 -10.3,15.8zm106.11 -111.41c21.58,-8.29 35.66,-21.39 57.73,-32.62 17.67,-9.03 45.04,-17.66 58.19,-30.32l-9.18 -3.58c42.53,-3.98 15.16,7.36 19.92,-14.92 10.06,-46.84 -60.83,-11.82 -74.13,-5.98 -8.97,3.92 21.15,-10.35 -9.51,4.17l-75.6 43.46c8.24,9.32 -3.19,9.03 16.34,13.45 -1.28,-1.82 20.85,-10.94 -6.97,-1.82 -0.54,0.2 -3.04,0.15 -3.68,0.49 -7.36,4.02 -11.23,-5.54 -9.91,14.28 0.1,1.32 0.44,3.77 0.93,5.05 8.59,21.49 -1.52,7.7 17.52,12.12 34.09,7.89 -1.92,0.88 18.35,-3.78zm1137.13 233.61c-0.69,11.67 -1.77,15.35 -1.42,24.13 0.54,14.77 -1.97,5.35 5.39,18.1 -18.54,0.1 -2.21,-3.43 -2.16,20.12 27.13,-10.5 28.7,-13.79 47,-28.01l36.2 -28.9c9.08,-6.57 10.85,-7.5 18.11,-15.35l17.41 -23.6c-11.43,-11.63 -4.86,9.47 -9.37,-24.58 -0.59,-4.51 -0.34,-22.22 -0.69,-28.4l-110.47 86.49zm-240.18 -142.76c12.41,4.86 22.76,19.48 44.39,2.06 9.57,-7.65 6.87,-3.04 12.71,-16.43 17.51,-7.31 1.27,-2.6 9.47,5.84 18.1,-11.34 17.56,-14.03 31.64,-31.11 5.69,-6.86 9.22,-11.97 15.79,-17.9 15.8,-14.38 6.33,-7.21 19.04,-10.7l21.98 -39.24c-26.3,-0.2 -35.96,-3.44 -59.41,5.69 -15.94,12.56 -34.14,30.17 -52.49,47.68 -17.91,17.07 -32.62,31.55 -43.12,54.11zm-1338.66 94.09l14.08 -11.53 -29.29 76.19 45.97 17.86 -1.03 24.97c9.81,-10.21 3.97,4.31 10.84,-18.99 0.59,-2.11 0.83,-9.86 2.06,-17.02 8.34,-49.89 27.72,-35.13 39.1,-84.72l-71.63 -27.72c-1.22,-0.69 -6.08,-3.88 -7.8,-5.3 -3.77,50.33 8.2,11.73 -15.99,29.73 38.07,1.23 -1.32,-5.4 13.69,16.53zm498.81 50.58l3.38 -1.57 11.63 1.57c7.26,-11.18 6.72,-7.51 8.34,-18.45l4.32 -21.83c35.32,-5.74 17.21,-14.17 59.89,-18.64 24.48,-2.55 49.26,-1.57 63.14,-18.79l2.06 13c21.54,-20.01 18.69,-11.97 12.26,-43.71 -36.4,11.14 -54.3,9.03 -38.21,-32.57l-6.23 -1.32c-4.27,-2.41 12.51,15.55 -10.79,-7.75 -11.14,9.71 1.71,-3.44 -12.02,11.67l-97.77 138.39zm839.85 -144.67l-20.17 16.73c-21.04,20.21 -39.98,38.8 -50.92,65.29l25.51 39.35 57.45 -65.74c12.85,-16.38 11.58,-18.05 28.16,-32.28 15.25,-13.05 18.79,-15.65 26.54,-31.88 -8.2,-8.44 8.04,-13.15 -9.47,-5.84 -5.84,13.39 -3.14,8.78 -12.71,16.43 -21.63,17.42 -31.98,2.8 -44.39,-2.06zm-426.6 -8.63c48.91,-7.95 32.53,-25.32 91.39,-26.3l-10.54 15.31c0.49,20.06 2.69,20.06 -10.7,32.67l-55.63 126.62c23.65,-11.43 10.3,-1.08 25.02,-19.58 12.12,-15.2 6.77,-10.1 22.62,-24.57 18,-16.49 30.75,-32.33 41.06,-55.88l-2.41 -2.6 -29.82 22.22 34.97 -84.13 -14.96 -25.07c-33.85,-1.71 -52.78,1.96 -72.9,19.67l-18.1 21.64zm178.81 240.72c15.95,13.44 4.76,19.77 21.1,1.91l28.94 -67.01c12.17,-23.4 31.54,-57.64 36.74,-80.45 48.23,7.41 33.21,-24.19 46.71,5.88l9.22 -13.78 -20.9 -21.44c-18.4,-10.59 -25.41,10.11 -7.46,-33.99l2.55 -22.86c-23.64,14.71 -0.39,-21.59 -23.45,25.36 -16.04,32.72 -73.63,184.7 -93.45,206.38zm314.36 -240.62c-7.75,16.23 -11.29,18.83 -26.54,31.88 -16.58,14.23 -15.31,15.9 -28.16,32.28l-57.45 65.74c-24.97,28.4 -123.13,136.57 -133.09,164.09 19.28,-14.22 27.92,-20.94 43.76,-40.71l267.95 -312.99c-12.71,3.49 -3.24,-3.68 -19.04,10.7 -6.57,5.93 -10.1,11.04 -15.79,17.9 -14.08,17.08 -13.54,19.77 -31.64,31.11zm-197.46 8.88l-2.55 22.86 18.55 15.45c1.12,-17.66 -2.16,-19.72 9.42,-32.72 13.73,-15.36 1.47,-0.93 11.62,-8.34l10.4 9.71c0.98,0.69 3.73,1.96 5.45,3.14l29.28 -73.53c-11.08,-11.04 0.15,-5.5 -18.25,-6.77 -4.51,-0.35 -20.26,2.01 -26.58,2.4 -17.96,14.32 -30.57,55.09 -37.34,67.8zm-1003.99 -406.34l-3.09 18.59c19.43,-13.39 52.44,-47.09 73.83,-18.64 6.38,23.84 11.82,43.46 -7.11,58.23 -3.39,9.57 2.7,7.7 -4.37,17.37l15.85 -5.01 18.39 -18.49c0.79,-0.84 2.41,-2.75 3.78,-3.93 -1.77,-37.13 10.65,-77.21 -25.07,-87.95 -44.74,-13.54 -51.7,26.88 -72.21,39.83zm-3.09 18.59c-4.46,12.17 -15.26,45.92 -6.43,65.15 6.77,14.76 36.16,25.21 49.84,8.83 6.77,-19.13 4.17,-10.7 2.31,-18.79l-33.55 4.22c-2.41,-25.17 1.17,-33.8 11.72,-51.41 5.89,-9.81 -11.18,-11.58 28.26,-13.93 17.46,17.75 6.13,12.6 14.57,45.52 18.93,-14.77 13.49,-34.39 7.11,-58.23 -21.39,-28.45 -54.4,5.25 -73.83,18.64zm634.55 503.81c15.99,-8.09 24.53,-13.34 40.03,-20.5 -17.76,50.08 -52.84,84.77 -59.9,136.38l15.21 -1.04 5.59 -18.05c10.99,-28.6 60.24,-121.76 72.65,-135.69 0.2,-26.78 6.87,-20.06 -19.91,-20.06 -4.81,27.17 -20.95,33.85 -44.65,44.84l2.26 -51.61 -11.23 -6.67 -0.05 72.4zm-882.43 93.9l-0.98 24.77c2.89,-12.02 18.24,-34.93 28.1,-43.36l6.87 -12.86c48.37,19.92 17.47,17.66 40.62,54.16l11.82 -0.1 81.93 2.85 4.37 -13.39c-34.25,-17.22 -65.79,0.04 -99.93,4.51l4.12 -25.31 1.03 -24.97 -45.97 -17.86c-6.03,5.44 -5.35,3.14 -11.18,11.72 -2.7,3.88 -5.2,9.08 -7.31,13.3 -4.22,8.34 -12.17,24.72 -13.49,26.54zm0 0c-8.34,7.21 -13.98,-23.89 -16.39,28.21 -1.67,35.02 8.64,23.98 13.98,28.84l43.12 -11.82c15.9,-36.01 6.97,-11.43 18.3,-25.07l-31.89 -38.75c-9.86,8.43 -25.21,31.34 -28.1,43.36l0.98 -24.77zm-2.41 57.05c-17.12,27.23 -11.87,32.57 10.5,43.46 -2.3,-22.76 -4.22,-2.3 2.8,-25.06 33.5,-23.4 66.71,-11.97 63.72,-52.74 -23.15,-36.5 7.75,-34.24 -40.62,-54.16l-6.87 12.86 31.89 38.75c-11.33,13.64 -2.4,-10.94 -18.3,25.07l-43.12 11.82zm45.92 38.31c35.71,-8.29 98.46,-50.33 124.85,-69.9l-81.93 -2.85c7.36,50.53 -20.16,35.81 -55.87,66.28 5.59,7.5 -1.67,2.55 12.95,6.47zm247.78 -619.09c28.95,-8.98 17.08,-1.42 34.79,-22.03l-15.85 5.01c7.07,-9.67 0.98,-7.8 4.37,-17.37 -8.44,-32.92 2.89,-27.77 -14.57,-45.52 -39.44,2.35 -22.37,4.12 -28.26,13.93 -10.55,17.61 -14.13,26.24 -11.72,51.41l33.55 -4.22c1.86,8.09 4.46,-0.34 -2.31,18.79zm109.65 260.69c-1.82,14.42 -1.33,9.37 6.13,18.83 21.68,27.62 -4.61,-20.6 14.67,18.69 13.14,-15.35 28.4,-30.36 41.74,-46.75 -12.11,-24.38 -8.63,-13.05 -13.73,-21.43 -2.7,-4.42 -1.92,2.5 -5.94,-11.93l-27.22 10.06c-24.53,9.37 -12.17,5.84 -20.66,18.15 11.29,0.25 0.44,-1.86 5.01,14.38zm613.4 232.38l-23.45 44.88c18.3,-3.97 2.01,11.88 22.37,-15.89 8.83,-12.02 6.38,-11.82 17.42,-23.25 40.37,-41.6 17.51,-36.11 40.13,-40.72 11.43,-20.75 12.16,-23.2 27.27,-39.29 14.13,-15.02 14.67,-19.48 27.03,-33.76 17.42,-20.01 44.25,-44.34 52.15,-67.55l-66.23 67.06c-18.79,23.4 -76.43,101.99 -96.69,108.52zm-670.85 -178.81l34.68 -10.16c8.59,29.39 -6.77,24.19 4.62,29.88 0.34,-0.59 10.2,-15.7 10.3,-15.8 15.4,-10.25 -2.06,-14.47 12.41,1.47l16.24 -21.44c-19.28,-39.29 7.01,8.93 -14.67,-18.69 -7.46,-9.46 -7.95,-4.41 -6.13,-18.83 -22.57,3.33 -11.73,-0.89 -29.54,15.06 -15.84,14.22 -7.55,3.72 -20.5,21.19 -12.95,3.48 -2.26,-0.69 -7.41,17.32zm809.63 -45.48c95.47,-47.09 34.78,-14.72 82.52,-30.91l-16.59 32.48c-1.22,1.42 -2.84,2.89 -4.07,4.17l-10.25 8.09 -27.47 34.88c12.36,-3.92 7.45,3.24 24.43,-16.87l63.28 -77.51c-15.01,-3.04 -34.73,0.15 -56.12,3.63 -32.33,5.3 -46.11,15.6 -55.73,42.04zm-583.77 170.86c24.28,-4.51 10.4,-4.61 26.44,-9.95l87.03 -22.23 1.96 14.03c14.76,-13.19 9.12,-5.54 13.98,-28.11l-2.06 -13c-13.88,17.22 -38.66,16.24 -63.14,18.79 -42.68,4.47 -24.57,12.9 -59.89,18.64l-4.32 21.83zm683.06 -103.01c-17.95,44.1 -10.94,23.4 7.46,33.99l20.9 21.44 27.08 -68.19c-1.72,-1.18 -4.47,-2.45 -5.45,-3.14l-10.4 -9.71c-10.15,7.41 2.11,-7.02 -11.62,8.34 -11.58,13 -8.3,15.06 -9.42,32.72l-18.55 -15.45zm-1070.9 -202.56l10.3 5.3c0.83,0.34 3.43,1.67 4.32,2.01 21.14,8.09 -1.57,-8.39 33.55,14.47 7.11,-20.41 14.81,-22.96 23.11,-48.17 -15.06,-0.93 -19.53,3.43 -29.05,2.45 -28.11,-3.04 -12.01,3.29 -16.48,-19.57 -17.17,13.49 -18.3,20.9 -25.75,43.51zm1366.42 17.61c25.85,-6.96 82.37,-20.99 104.2,-30.36l2.89 21.09c9.91,-20.11 5.05,-17.56 -2.8,-37.53 -38.7,-6.18 -89.33,24.09 -104.29,46.8zm-599.47 168.56c-15.5,3.48 -17.02,0.15 -23.11,21.78l67.9 -14.18c1.76,-1.37 6.96,-6.62 12.31,-7.55 36.79,-6.43 14.86,-2.55 23.84,6.18 13.39,-12.61 11.19,-12.61 10.7,-32.67 -11.88,-1.82 -64.42,22.71 -91.64,26.44zm623.16 -97.82l-3.82 16.14c19.92,16.04 37.67,-6.47 42.24,-16.92l1.76 15.6c5.01,-5.2 4.96,-4.27 10.5,-12.66 3.83,-5.69 4.42,-6.82 7.41,-13.54 10.74,-23.99 6.52,-12.61 7.41,-32.33 -6.82,-14.42 -1.23,-6.87 -11.39,-4.12 -5.54,1.52 -15.89,5.94 -22.37,8.19 14.43,18.11 10.4,0.59 6.53,26.84l-11.92 6.62c-9.22,1.23 -6.97,-0.15 -15.6,-7.95 -2.5,20.9 2.01,7.17 -10.75,14.13zm-1563.53 401.82c20.9,8.25 21.93,5.5 35.42,-5.15 -14.62,-3.92 -7.36,1.03 -12.95,-6.47 35.71,-30.47 63.23,-15.75 55.87,-66.28l-11.82 0.1c2.99,40.77 -30.22,29.34 -63.72,52.74 -7.02,22.76 -5.1,2.3 -2.8,25.06zm1246.87 -310.47c6.77,-12.71 19.38,-53.48 37.34,-67.8 8.83,-16.48 0.05,-9.67 20.6,-15.7l31.35 4.42c10.79,-12.76 8.78,-10.8 13.19,-30.12 -14.22,0.78 -44.74,11.38 -59.01,16.87 13,-46.65 7.99,-11.77 -13.1,-23.79l-3.88 12.46c11.24,5.59 14.72,-12.76 5.55,20.85 -0.25,0.88 -11.33,25.02 -12.56,27.71 -7.6,16.73 -20.36,34.34 -19.48,55.1zm316.66 -91.35c12.76,-6.96 8.25,6.77 10.75,-14.13 8.63,7.8 6.38,9.18 15.6,7.95l11.92 -6.62c3.87,-26.25 7.9,-8.73 -6.53,-26.84 6.48,-2.25 16.83,-6.67 22.37,-8.19 10.16,-2.75 4.57,-10.3 11.39,4.12 8.58,-4.66 5.64,7.85 9.46,-15.99l-1.12 -17.95 -1.43 1.42c-10.25,18.93 -1.52,9.96 -25.26,16.78 -2.65,0.73 -16.63,1.81 -27.47,5.2 -13.89,21.97 -16.09,26.19 -19.68,54.25zm-646.27 119.6l-31.64 22.08c29.68,4.12 28.26,2.06 56.86,-6.67l-14.47 13.44c26.78,0 20.11,-6.72 19.91,20.06 3.68,-5.54 17.52,11.33 0.25,-40.23 23.4,6.53 19.96,11.97 20.26,-0.04l16.73 -22.82 -67.9 14.18zm622.58 -190.34c-20.9,10.99 -7.21,3.63 -14.86,15.01 39.83,-2.3 64.6,-18 110.96,-20.5l1.43 -1.42 1.12 17.95c9.08,-8.29 7.41,1.86 8.44,-20.31l-2.89 -21.09c-21.83,9.37 -78.35,23.4 -104.2,30.36zm-262.6 45.97c21.09,12.02 26.1,-22.86 13.1,23.79 14.27,-5.49 44.79,-16.09 59.01,-16.87 12.66,-8.49 2.9,14.66 13.25,-15.07l-10.99 -7.35c-1.37,-0.4 -7.65,-2.55 -9.47,-2.65 -4.85,-0.25 -46.65,6.33 -64.9,18.15zm-132.21 71.13c-18.39,3.73 -2.45,-2.75 -10.1,12.56 14.71,-1.28 21.29,-2.85 35.22,-5.1 41.4,-6.67 14.91,-12.02 26.49,6.37l10.25 -8.09c1.23,-1.28 2.85,-2.75 4.07,-4.17l16.59 -32.48c-47.74,16.19 12.95,-16.18 -82.52,30.91zm-297.53 323.73c38.02,-32.58 34.78,8.19 53.57,-47l-31.39 -0.84 -15.21 1.04 -12.31 12.7 5.34 34.1zm80.51 -221.64l14.47 -13.44c-28.6,8.73 -27.18,10.79 -56.86,6.67l-2.26 51.61c23.7,-10.99 39.84,-17.67 44.65,-44.84zm23.15 -66.08c-15.75,8.83 -3.29,1.86 -10.79,15.45 27.22,-3.73 79.76,-28.26 91.64,-26.44l10.54 -15.31c-58.86,0.98 -42.48,18.35 -91.39,26.3zm-194.66 224.14l103.42 -78.35c1.32,-1.12 2.89,-2.69 4.07,-3.82l7.8 -8.98 -11.34 0.29c-33.75,13.64 -4.61,0.99 -26.53,19.92 -30.91,26.74 -61.77,39.79 -77.42,70.94zm-203.29 1.67c10.99,-3.24 8.15,2.4 16.04,-11.43 22.28,-16.29 12.07,-4.08 23.5,-26.84 0.25,-0.44 8.15,-18.39 8.19,-18.74 2.36,-17.71 3.54,-6.47 -5.88,-16.82 -7.36,34.97 -35.18,39.58 -41.85,73.83zm-207.46 -25.51l0.74 -9.77c-20.51,-7.99 9.61,-6.03 -29.09,-3.09 -9.67,0.79 -20.36,3.09 -32.13,4.08l9.07 18.73 51.41 -9.95zm-60.48 -8.78c11.77,-0.99 22.46,-3.29 32.13,-4.08 38.7,-2.94 8.58,-4.9 29.09,3.09l-4.52 -14.61 -56.61 -1.04 -0.09 16.64zm998.94 -250.34c6.32,-0.39 22.07,-2.75 26.58,-2.4 18.4,1.27 7.17,-4.27 18.25,6.77 8.64,-5.2 6.87,10.35 7.12,-15.65l-31.35 -4.42c-20.55,6.03 -11.77,-0.78 -20.6,15.7zm-352.13 342.32l0.93 0.83c19.62,-10.2 39,-27.67 49.79,-51.17 -27.86,14.43 -37.48,26.99 -50.72,50.34zm-424.49 -7.9c22.57,-18.15 34.14,-22.81 45.62,-49.79 -11.08,6.57 -16.97,10.69 -28.55,21.73 -2.06,1.91 -11.72,12.36 -12.61,13.78 -9.07,14.67 -0.34,-5.79 -4.46,14.28zm1013.46 -75.25c-11.09,0.19 -7.75,2.79 -9.02,-8.79l-7.07 18.69 16.09 -9.9zm-604.08 102.33l16.04 -18.35 -0.93 -0.83c-21.88,17.36 -8.73,3.97 -15.11,19.18z"/>
   <path id="1" class="fil1 str0" d="M2129.58 1929.43l2.41 2.6c37.52,-21.09 48.61,-56.32 80.55,-71.72 7.65,-15.31 -8.29,-8.83 10.1,-12.56 9.62,-26.44 23.4,-36.74 55.73,-42.04 21.39,-3.48 41.11,-6.67 56.12,-3.63 12.31,-1.87 9.47,1.27 16.48,-13l3.88 -12.46c18.25,-11.82 60.05,-18.4 64.9,-18.15 1.82,0.1 8.1,2.25 9.47,2.65l10.99 7.35c-10.35,29.73 -0.59,6.58 -13.25,15.07 -4.41,19.32 -2.4,17.36 -13.19,30.12 -0.25,26 1.52,10.45 -7.12,15.65l-29.28 73.53 -27.08 68.19 -9.22 13.78 -13.3 40.13c29.58,-16.14 23.01,-39.39 56.51,-50.53 10.94,-26.49 29.88,-45.08 50.92,-65.29l20.17 -16.73c10.5,-22.56 25.21,-37.04 43.12,-54.11 18.35,-17.51 36.55,-35.12 52.49,-47.68 11.77,-16.63 35.22,-37.23 51.61,-44.94 7.65,-11.38 -6.04,-4.02 14.86,-15.01 14.96,-22.71 65.59,-52.98 104.29,-46.8 7.85,19.97 12.71,17.42 2.8,37.53 -1.03,22.17 0.64,12.02 -8.44,20.31 -3.82,23.84 -0.88,11.33 -9.46,15.99 -0.89,19.72 3.33,8.34 -7.41,32.33 -2.99,6.72 -3.58,7.85 -7.41,13.54 -5.54,8.39 -5.49,7.46 -10.5,12.66 -0.93,54.74 -113.47,228.55 -120.33,304.05 37.57,-4.56 106.99,-63.28 134.56,-85.11l110.47 -86.49c0.35,6.18 0.1,23.89 0.69,28.4 4.51,34.05 -2.06,12.95 9.37,24.58 16.24,-30.76 16.14,-31.98 11.43,-81.53 -21.49,-4.12 -17.51,-0.44 -32.52,13 -17.17,15.35 -10.4,14.47 -32.18,19.67 -14.48,27.08 -131.08,111.51 -164.15,131.33l-16.09 9.9 7.07 -18.69c17.51,-48.37 42.58,-98.4 64.36,-148.74 17.9,-41.3 43.22,-123.81 73.04,-150.21 0.84,-48.22 33.21,-50.92 18.89,-117.68 -47.54,-22.08 -78.44,4.31 -111.8,33.4 -35.57,31.06 -53.23,45.43 -91.88,82.42l-123.48 131.72c-14.18,18.2 -18.1,30.12 -43.27,46.06 15.55,-49.99 124.75,-249.89 93.51,-290.42 -42.1,-51.36 -157.33,71.28 -187.74,100.18 -12.27,11.62 -144.72,143.59 -151.69,167.38zm752.63 60.78c-20.21,-13 -23.11,4.12 -2.5,-20.65 9.86,-11.82 28.3,0.34 26.29,-86.88 -0.78,-35.27 8.05,-15.36 -4.51,-31.84l-19.28 139.37zm106.6 -304.35c-18.49,40.03 -35.91,46.12 -42.88,84.38l4.66 18.3c8,-27.87 -8.48,-21.44 11.53,-26.79 19.97,-26.98 7.21,-10.79 31.69,-32.72 27.47,-24.67 10.75,-18.15 45.63,-23.3 -7.07,-25.12 9.66,-21.83 -7.8,-22.22 13.19,-18.99 -5.89,-13.59 31.93,-28.06l42.09 -15.55c6.28,22.32 5.06,11.62 9.23,18.44 7.89,12.95 2.45,-4.61 21.19,33.16 18.98,-16.43 28.45,-26.49 39.29,-44.73 -31.3,7.21 24.33,18.05 -28.35,5.83 -29.44,-6.77 -13.84,14.52 -27.08,-18.69 -0.79,-2.01 -1.33,-5.74 -1.42,-7.8 -2.02,-30.66 3.92,-15.84 15.3,-22.12 0.98,-0.54 4.86,-0.44 5.69,-0.69 43.02,-14.13 8.78,-0.05 10.74,2.8 -30.16,-6.82 -12.5,-6.43 -25.21,-20.8l116.85 -67.16c47.39,-22.42 0.79,-0.34 14.72,-6.48 17.95,-7.85 104.05,-50.18 114.94,-12.31 -10.89,-37.87 -96.99,4.46 -114.94,12.31 -13.93,6.14 32.67,-15.94 -14.72,6.48l-116.85 67.16c12.71,14.37 -4.95,13.98 25.21,20.8 -1.96,-2.85 32.28,-16.93 -10.74,-2.8 -0.83,0.25 -4.71,0.15 -5.69,0.69 -11.38,6.28 -17.32,-8.54 -15.3,22.12 0.09,2.06 0.63,5.79 1.42,7.8 13.24,33.21 -2.36,11.92 27.08,18.69 52.68,12.22 -2.95,1.38 28.35,-5.83 33.36,-12.81 55.14,-33.02 89.24,-50.44 5.1,-2.6 10.74,-5.2 16.68,-7.8 -114.36,120.64 32.67,27.92 146.23,-47.73l2.9 -0.59c-97.63,73.1 -218.89,191.18 8.39,27.82 120.92,-86.98 180.82,31.98 162.23,164.49 -8.44,60.09 -36.6,95.66 -48.77,142.11 22.33,24.63 -4.61,18.15 19.14,2.26 0.19,-0.1 15.4,-23.45 15.94,-24.33 26.25,-58.82 56.46,-137.8 50.63,-226.79l-7.02 -22.67 1.13 -15.06c-4.27,-13.68 -9.22,-25.9 -14.86,-36.69 5.64,10.79 10.59,23.01 14.86,36.69l55.34 -10.69 -55.34 10.69 -1.13 15.06c31.69,12.37 -14.86,9.37 44.99,4.76 14.91,-1.12 31.49,-4.76 49.69,-6.23l-13.44 -27.66 13.44 27.66 -0.15 25.71 5.74 4.12c3,-24.77 2.31,-45.97 -2.4,-65.05l1.32 -0.54 3 -104.54c-40.38,-15.99 -75.65,-28.5 -108.32,-37.43l-13.74 -15.89 -80.45 0.29c-10.45,-0.44 -20.8,-0.39 -31.3,0.1l-9.27 0.05 -1.23 0.64c-55.28,4.31 -113.95,21.78 -191.02,53.71 -66.08,27.43 -122.15,63.33 -171.06,99.1 -80.31,58.72 -84.18,80.65 -117.4,110.67 -15.11,13.64 -7.55,9.32 -20.55,13.29zm-7.26 434.3c-5.64,-10.79 -10.65,-23.01 -14.91,-36.69l-55.34 10.69 55.34 -10.69 1.12 -15.06c-31.69,-12.37 14.92,-9.37 -44.98,-4.76 -14.91,1.13 -31.45,4.76 -49.65,6.23l13.45 27.67 -13.45 -27.67 0.1 -25.71 -5.74 -4.12c-2.99,24.78 -2.3,45.97 2.41,65l-1.33 0.59 -2.99 104.54c40.37,15.99 75.6,28.5 108.32,37.43l13.73 15.9 80.45 -0.3c10.45,0.44 20.85,0.39 31.35,-0.1l9.22 -0.05 1.23 -0.63c55.34,-4.32 114.01,-21.78 191.03,-53.72 66.08,-27.42 122.15,-63.33 171.06,-99.1 80.3,-58.77 84.18,-80.64 117.44,-110.67 15.06,-13.63 7.55,-9.32 20.55,-13.29 18.45,-40.03 35.87,-46.16 42.83,-84.38l-4.66 -18.3c-7.95,27.87 8.54,21.44 -11.48,26.79 -20.01,26.98 -7.21,10.79 -31.69,32.72 -27.47,24.67 -10.79,18.15 -45.67,23.3 7.06,25.12 -9.66,21.83 7.8,22.22 -13.2,18.99 5.94,13.59 -31.94,28.06l-42.09 15.55c-6.28,-22.32 -5.05,-11.62 -9.22,-18.44 -7.9,-12.95 -2.45,4.56 -21.14,-33.16 -18.99,16.43 -28.51,26.49 -39.35,44.74 31.3,-7.21 -24.33,-18.06 28.36,-5.89 29.43,6.82 13.83,-14.47 27.08,18.74 0.78,2.01 1.32,5.74 1.47,7.8 2.01,30.66 -3.97,15.84 -15.36,22.08 -0.98,0.53 -4.85,0.44 -5.69,0.73 -42.97,14.13 -8.78,0.05 -10.74,-2.8 30.17,6.77 12.51,6.38 25.22,20.8l-116.81 67.16c-47.39,22.42 -0.83,0.35 -14.72,6.48 -17.95,7.85 -104.09,50.23 -114.98,12.31 10.89,37.92 97.03,-4.46 114.98,-12.31 13.89,-6.13 -32.67,15.94 14.72,-6.48l116.81 -67.16c-12.71,-14.42 4.95,-14.03 -25.22,-20.8 1.96,2.85 -32.23,16.93 10.74,2.8 0.84,-0.29 4.71,-0.2 5.69,-0.73 11.39,-6.24 17.37,8.58 15.36,-22.08 -0.15,-2.06 -0.69,-5.79 -1.47,-7.8 -13.25,-33.21 2.35,-11.92 -27.08,-18.74 -52.69,-12.17 2.94,-1.32 -28.36,5.89 -33.36,12.8 -55.14,33.01 -89.23,50.38 -5.1,2.6 -10.7,5.1 -16.58,7.75 114.25,-120.48 -32.77,-27.82 -146.34,47.83l-2.89 0.59c97.62,-73.1 218.89,-191.18 -8.39,-27.82 -120.93,86.98 -180.82,-31.98 -162.23,-164.48 8.44,-60.1 36.64,-95.66 48.76,-142.12 -22.32,-24.63 4.66,-18.15 -19.13,-2.26 -0.2,0.1 -15.4,23.45 -15.94,24.33 -26.25,58.82 -56.47,137.8 -50.58,226.79l6.96 22.67 -1.12 15.06c4.26,13.68 9.27,25.9 14.91,36.69zm-80.06 -269.32c12.56,16.48 3.73,-3.43 4.51,31.84 2.55,110.52 -60.93,83.59 -23.79,107.53 0.15,-4.02 -4.71,-20.31 -14.72,49.84l5.74 4.12 87.57 1.57c-5.89,-88.99 24.33,-167.97 50.58,-226.79 -17.62,-8.78 6.18,-0.68 -7.12,-46.11l-53.67 15.7 -4.66 -18.3c-26.05,21.05 -13.98,6.53 -29.14,38.66 -8.63,18.25 -10.3,27.96 -15.3,41.94zm137.95 -145.11c-2.8,22.27 -2.02,14.42 9.46,29.14 33.51,42.63 -7.11,-31.84 22.67,28.85 20.31,-23.75 43.95,-46.9 64.51,-72.22 -18.74,-37.77 -13.3,-20.21 -21.19,-33.16 -4.17,-6.82 -2.95,3.88 -9.23,-18.44l-42.09 15.55c-37.82,14.47 -18.74,9.07 -31.93,28.06 17.46,0.39 0.73,-2.9 7.8,22.22zm-88.85 82.81l53.67 -15.7c13.3,45.43 -10.5,37.33 7.12,46.11 0.54,-0.88 15.74,-24.23 15.94,-24.33 23.79,-15.89 -3.19,-22.37 19.13,2.26l25.12 -33.16c-29.78,-60.69 10.84,13.78 -22.67,-28.85 -11.48,-14.72 -12.26,-6.87 -9.46,-29.14 -34.88,5.15 -18.16,-1.37 -45.63,23.3 -24.48,21.93 -11.72,5.74 -31.69,32.72 -20.01,5.35 -3.53,-1.08 -11.53,26.79zm-77.46 281.34c18.2,-1.47 34.74,-5.1 49.65,-6.23 59.9,-4.61 13.29,-7.61 44.98,4.76l-6.96 -22.67 -87.57 -1.57 -0.1 25.71zm843.44 -388.58c20.21,13 23.05,-4.12 2.45,20.65 -9.86,11.83 -28.31,-0.34 -26.3,86.88 0.84,35.28 -8.04,15.36 4.52,31.84l19.33 -139.37zm-19.33 139.37c-12.56,-16.48 -3.68,3.44 -4.52,-31.84 -2.55,-110.52 60.93,-83.59 23.85,-107.53 -0.15,4.02 4.7,20.31 14.66,-49.84l-5.74 -4.12 -87.51 -1.57c5.83,88.99 -24.38,167.97 -50.63,226.79 17.61,8.78 -6.13,0.68 7.16,46.11l53.62 -15.7 4.66 18.3c26.1,-21.04 14.03,-6.52 29.19,-38.66 8.58,-18.24 10.25,-27.96 15.26,-41.94zm-137.95 145.11c2.8,-22.27 2.06,-14.42 -9.47,-29.14 -33.5,-42.63 7.16,31.84 -22.61,-28.84 -20.36,23.74 -43.96,46.89 -64.51,72.21 18.69,37.72 13.24,20.21 21.14,33.16 4.17,6.82 2.94,-3.88 9.22,18.44l42.09 -15.55c37.88,-14.47 18.74,-9.07 31.94,-28.06 -17.46,-0.39 -0.74,2.9 -7.8,-22.22zm88.84 -82.81l-53.62 15.7c-13.29,-45.43 10.45,-37.33 -7.16,-46.11 -0.54,0.88 -15.75,24.23 -15.94,24.33 -23.75,15.89 3.19,22.37 -19.14,-2.26l-25.06 33.17c29.77,60.68 -10.89,-13.79 22.61,28.84 11.53,14.72 12.27,6.87 9.47,29.14 34.88,-5.15 18.2,1.37 45.67,-23.3 24.48,-21.93 11.68,-5.74 31.69,-32.72 20.02,-5.35 3.53,1.08 11.48,-26.79zm77.51 -281.34c-18.2,1.47 -34.78,5.11 -49.69,6.23 -59.85,4.61 -13.3,7.61 -44.99,-4.76l7.02 22.67 87.51 1.57 0.15 -25.71zm195.74 373.52l15.3 -9.32 -15.3 9.32 -16.63 2.85c14.32,-49.06 2.89,-16.39 -0.2,-21.44l-18.74 42.78 23.35 -0.35 6.43 -10.94 5.79 -12.9zm300.22 108.66c22.42,-5.59 65.3,-40.03 71.77,-57.05 -9.51,5.3 -28.16,15.79 -38.36,23.2l-33.41 33.85zm123.92 -219.82l-3.24 -4.22c9.08,10.79 0.2,6.08 18.94,18.1 3.43,2.16 18.79,9.32 22.96,11.53l-2.95 6.72c-22.02,3.39 0.05,1.52 -28.69,-2.99 -11.68,-1.87 -7.56,-2.16 -15.7,0.24l-2.6 -19.03 -0.15 -1.18 -0.1 -1.08 -0.1 -1.08 -0.09 -0.98 -0.1 -0.93 -0.05 -0.88 -0.1 -0.79 -0.05 -0.78 -0.05 -0.74 0 -0.29 0 -0.4 -0.05 -0.58 0 -0.59 0 -0.54 0 -0.49 0 -0.1 0 -0.34 0 -0.4 0.05 -0.29 0 -0.3 0.05 -0.14 0.05 -0.3 0.05 -0.24 0.05 -0.2 0.24 -0.54c0.2,-0.24 0.35,-0.39 0.64,-0.39 9.67,-31.79 31.05,-58.23 50.73,-82.71 12.6,-15.75 20.4,-25.76 35.71,-38.26 18.2,-14.87 22.86,-11.39 33.7,-35.08 24.24,-4.42 62.16,-34.54 99.29,-47.44 34.05,-11.82 70.99,-18.2 111.66,-22.47 1.22,-1.52 2.84,-3.48 3.63,-4.66l48.95 -127.35c6.58,-19.72 7.61,-26.63 23.75,-37.13l52.59 -136.72c4.66,-11.39 4.8,-12.56 10.35,-22.28l9.17 -13.88c0.59,-2.94 2.5,-3.29 3.73,-4.9 18.98,-27.23 10.4,-36.65 36.3,-57.11 39.39,-115.92 217.27,-221.98 104,166.06l-82.22 251.02c-16.14,18.2 -17.76,30.81 -28.35,54.85l-84.18 171.06c-51.42,94.63 -123.58,152.42 -77.27,236.89 42.68,-6.08 154.24,-96.34 191.86,-128.77 16.29,-14.03 47,-34.05 58.23,-53.13 18.55,-6.67 9.67,-12.7 33.85,-7.21 7.12,45.52 8,62.5 -19.82,84.03 -7.75,11.48 0.15,3.19 -13.49,14.97 -5.25,4.56 -7.31,5.2 -15.3,11.77 -14.62,12.02 -11.48,10.65 -28.36,18.74 -13.05,24.53 -21.83,23.4 -46.11,34.68 -3.73,11.68 -7.16,11.38 -27.18,26.05l-32.96 18.89c-6.63,7.55 -5.89,8.73 -18.99,15.94l-41.5 25.32c-23.4,17.21 -75.84,45.81 -102.82,19.42 -10.16,-4.56 -1.67,4.81 -13.59,-10.4 -3.58,-4.56 -6.97,-12.46 -8.59,-17.66 -5.84,-18.69 -5.88,-37.92 -5.93,-56.9l-2.46 0.68c-19.52,13.44 -44.2,40.96 -69.71,48.08 -9.37,13.19 -3.48,10.2 -32.32,24.09 -89.29,42.87 -51.37,16.38 -111.36,22.51 -14.92,-2.01 -17.96,7.02 -46.41,-32.77 -21.49,-30.07 -27.77,-71.08 -31.2,-106.4 -3.53,-36.3 4.76,-20.31 -8.54,-34.83m-71.77 57.05c-6.18,12.66 2.46,1.47 -11.72,15.01 -39.2,37.48 -154.48,113.27 -201.58,104.79 -33.16,-58.82 33.81,-195.15 68,-252.01 19.96,-38.26 62.45,-131.52 74.07,-171.89l-2.4 0.69c-20.6,12.31 -24.19,17.21 -41.4,33.65 -6.48,6.18 -13.05,11.13 -22.52,17.61 -19.58,13.25 -0.3,5.69 -23.3,11.04 0.39,25.51 -16.68,27.67 -61.37,65.39 -58.97,49.69 -29.14,52.69 -62.7,57.74m-27.52 33.16c-18.1,10.79 -40.57,38.27 -53.86,60.15l-5.55 0.29c-16.92,22.42 -30.31,35.37 -45.86,56.32 -8.54,11.48 -16,19.47 -23.94,29.73 -9.96,12.9 -11.97,15.99 -16.68,28.2l-15.75 4.22c-13.54,12.27 -35.27,27.82 -53.86,23.6 -27.08,-6.13 -6.77,-1.87 -15.85,-11.24 -25.8,-31.93 42.58,-181.75 67.75,-192.79l-6.87 -12.41c-14.08,14.52 -4.22,7.26 -19.72,8.63 -14.67,-30.02 17.02,17.22 6.13,-38.36 -20.21,13.39 -13.1,2.31 -30.22,16.39 3.34,-36.6 -0.68,-7.9 -9.91,-16.73l6.87 -19.18 17.02 -24.24c34.98,-8.19 84.72,-78.83 116.46,-105.32 8.59,-24.24 17.96,-43.12 30.42,-67.95 5.54,-11.03 9.07,-20.35 14.86,-31.78l17.96 -25.46 3.58 -22.42 77.7 -2.21c-4.21,55.34 -108.51,238.37 -131.71,310.53 29.68,-20.16 76.87,-75.7 104.34,-102.29 24.63,-23.89 93.8,-77.21 107.78,-104.88 32.92,-16.38 130.49,-121.27 185.38,-114.89 39.89,4.61 28.55,48.62 29.54,77.76 -19.38,22.91 -153.94,328.87 -163.17,367.72 39.64,-21.83 59.17,-39.63 94.78,-65.39 29.53,-21.44 65.1,-47.88 91.79,-74.07 15.89,-17.22 15.74,-10.55 21.04,-39.64 1.28,-7.11 3.63,-20.9 6.23,-26.79 11.97,-27.42 8.05,-13.73 17.47,-20.5l0.09 -0.35m567.34 -570.77c-11.52,25.51 -5.74,94.24 0.89,102.68 4.76,6.03 8.78,9.17 12.31,11.48 -14.86,46.11 -184.31,414.43 -199.42,428.55 8.25,-102.67 42.14,-198.87 75.21,-292.47 16.68,-47.1 29.87,-83.64 50.23,-130.98 14.87,-34.54 52.4,-102.33 56.37,-130.49 1.37,1.62 2.65,2.35 2.99,5.54l1.42 5.69zm-293.55 708.87c21.58,19.47 2.45,1.86 9.81,5.79l31.79 25.16 -4.91 29.98 -26.19 -24.83c-20.12,-22.95 -18.6,-7.21 -21.49,-17.21 -0.49,-1.87 -2.6,-1.57 -3.83,-2.46 9.47,-28.16 0,-8.53 14.82,-16.43zm5.79 -29.93c-9.52,3.29 -6.77,-0.93 -14.77,12.27 -21.29,34.04 -39.1,40.72 -64.07,69.32 -22.22,25.41 -46.26,47.29 -83.44,58.18 -68.58,15.35 -79.33,-84.77 -72.12,-140.5 9.62,-74.42 45.73,-100.86 65.15,-148.1l3.78 -15.26c8.98,6.77 7.41,9.47 7.41,-1.67 14.13,0 1.71,1.18 1.22,-7.06 0.84,-0.35 16.14,-6.53 18.74,-7.7 7.26,-26 -12.07,-5.79 21.34,-25.17 9.81,-5.69 14.77,-7.06 19.77,-6.57l21 -7.31 11.97 -4.27c22.96,-12.61 14.96,-14.47 38.41,-22.71l62.01 -9.77c-2.95,27.28 -7.51,38.32 -6.38,60.74 -1.03,18.49 -11.97,41.15 -17.32,66.57l3.39 12.21c-13.93,14.33 -2.6,-16.34 -14.38,24.68 -2.35,8.29 -2.94,20.99 -3.38,29.58 -1.03,21.09 -0.54,41.89 1.67,62.54zm-816.06 37.43l-4.07 -0.49 -28.6 -15.45c-0.54,-1.72 -2.8,-1.13 -4.27,-1.62 7.46,-20.36 1.57,-10.5 11.09,-20.11l16.87 -12.51 8.64 34.54 0.34 15.64zm8.44 83.3l-10.01 13.1c-26.98,12.71 -8.63,3.93 -14.32,-8.53l7.21 -11.34 17.12 6.77zm529.71 -232.67l0.2 0.1 0.34 0.14 0.1 0.05 0.1 0.05 0.19 0.05 0.2 0.1 0.15 0.1 0.05 0 0.19 0.09 0.2 0.1 0.24 0.1 0 0.05 0.2 0.05 0.25 0.1 0.09 0 0.15 0.05 0.1 0.04 0.05 0 0.1 0.05 0.19 0.05 0.25 0.05 0.19 0.05 0.1 0 0.25 0 0.24 0 0.25 0 0.05 0 0.24 -0.05 0.25 -0.05 0.1 -0.05 0.44 -0.14 0.29 -0.1 0.3 -0.15 0.19 -0.15 0.1 -0.04 0.88 -0.74m-8.97 4.22l0.09 0.64m-423.5 80.11l-4.27 -9.91c6.97,-23.4 34.78,-48.03 56.32,-65.59l0.73 8.43c-22.86,16.34 -16.63,14.18 -28.7,39.1 -14.71,30.27 -12.26,23.7 -24.08,27.97zm129.41 -138.98l0.29 -0.05 -0.29 0 0.05 0.05 -0.05 0zm-235.33 52.68c7.12,-20.89 14.23,-28.5 28.85,-51.16 1.72,-1.42 4.46,-5.54 5.25,-4.17 0.73,1.42 5.44,-4.07 8.39,-8.05 2.45,-3.38 3.14,-5.88 5.34,-11.92 6.33,32.09 -7.7,56.27 -19.96,83.74 -22.57,-6.87 -14.13,-16.28 -30.76,1.72l2.89 -10.16zm1000.76 -506.46l8.58 -25.46c15.36,2.9 0.79,-11.52 23.01,9.13 15.6,14.57 2.01,-2.85 10.5,18.88 -1.91,7.02 0.54,4.08 -4.56,13.79 -4.81,9.08 -5.94,7.65 -10.45,12.46l-1.72 -19.03c-2.11,-0.84 -8.68,-1.67 -10.01,-1.87l-13.34 -5.49c-0.15,-1.18 -1.18,-1.77 -2.01,-2.41zm-106.26 523.24c0.05,0.3 0.2,0.2 0.54,-0.05 -0.29,0.25 -0.49,0.35 -0.54,0.05zm47.39 -1.08c41.95,-70.59 122.05,-264.36 167.29,-387.45 -15.85,50.88 -39.4,108.57 -54.16,146.24 -26.69,68.19 -58.38,128.92 -84.48,192.99l-28.65 48.22zm-94.43 277.91c39.1,9.56 30.02,-9.08 40.96,31.93 -18,5.55 -32.38,7.95 -55.38,2.46 3.92,-17.61 6.52,-21.29 14.42,-34.39zm-488.8 -359.24l18.93 11.53c13.1,4.17 6.77,0.83 12.46,-3.29 10.01,9.42 3.19,-3.24 5.99,12.61l-10.65 42.09c-22.61,-24.14 3.19,-3.14 -26.44,-14.03 -14.42,-5.35 -6.96,0.73 -20.16,-9.57l19.87 -39.34zm67.06 -38.81c-1.52,-1.13 -3.58,-2.7 -4.47,-3.53l-12.36 -17.22c-0.83,-3.63 1.18,-14.81 1.57,-30.07 -30.02,-15.94 -13.1,1.13 -30.76,-16.97 20.9,-13.1 22.72,-14.77 50.73,-10.6 9.91,25.61 7.36,49.06 -4.71,78.39zm-52.1 -61.51l9.08 10.64c1.22,1.23 3.04,2.94 4.26,4.07 1.03,0.98 3.09,2.36 3.93,3.09l7.26 4.42c-15.41,41.45 10.99,37.67 -33.56,46.99 -1.62,-1.56 -4.61,-4.31 -5.69,-5.34 -0.64,-0.64 -2.3,-2.21 -3.04,-2.95 -0.78,-0.73 -2.4,-2.25 -3.19,-3.04l-10.64 -11.77c-0.69,-0.83 -1.97,-2.5 -2.6,-3.24l-11.09 -12.56c7.06,-8.93 1.91,-4.36 11.04,-12.26 1.52,-1.33 6.23,-4.81 7.99,-5.99 10.21,-6.67 13.99,-7.35 26.25,-12.06zm-140.69 426.45c28.3,3.04 32.72,7.75 57.1,19.27l24.38 11.14c-11.38,10.01 19.52,9.81 -24.33,13.2 -16.49,1.27 -31.45,-12.46 -41.41,-23.01 -12.31,-13.1 -7.41,-7.21 -15.74,-20.6zm929.28 -874.34c-14.28,7.55 -11.73,-8.49 -11.97,7.36l-2.02 -17.12 -58.28 0.68c-2.79,-14.17 0.79,-10.05 -7.89,-14.81l-9.08 -4.71 14.57 -27.82c19.67,-20.4 27.28,-37.97 64.31,-36.2l12.51 42.43 -2.15 50.19zm-90.02 -27.18c4.46,3.97 13.39,10.79 -1.62,3.14l1.62 -3.14zm-4611.62 -13.1c10.94,21.49 -0.2,12.02 17.56,3.78 8.29,-3.83 6.52,-8.68 24.82,-16.63 20.02,-8.73 44.25,-8.63 66.62,-6.72l30.91 5.3 21.87 1.81c31.7,10.89 34.98,17.22 58.82,27.38 30.81,13.09 40.77,5.79 59.17,32.08 19.91,9.71 97.52,70.59 110.91,88.35 1.47,1.08 14.18,9.71 15.26,10.79 14.47,14.82 4.76,4.27 12.75,18.15 11.58,8.34 22.18,17.12 33.71,29.39 5.88,6.18 10.89,13.29 16.14,17.71 11.13,9.32 5.64,7.99 21.88,11.72 13.19,-23.99 13.58,-29.28 33.7,-48.96l10.84 -23.89c33.31,9.52 8.83,-2.6 43.22,31.06 -11.48,25.51 -25.9,51.65 -42.58,78 -7.12,43.61 2.45,32.91 28.74,58.03 11.29,10.74 28.65,34.24 38.22,48.62 25.85,38.75 43.95,56.85 66.42,105.52 0.93,0.88 2.6,0.88 2.9,2.55 0.24,1.67 2.35,2.25 2.69,2.79 4.42,6.28 2.85,3.44 6.48,11.14l31.79 79.28 10.59 28.15c10.99,45.68 9.82,64.91 1.53,103.07 -32.38,17.66 -21.39,-15.06 -38.42,20.16 -0.09,-30.9 0,-46.8 -12.26,-70l1.28 96.15c12.8,28.9 15.6,3.83 52.09,34.29l-8.14 26.35 -9.12 12.11c-1.03,14.72 -4.32,22.67 -11.09,34.54 -1.23,2.11 -9.57,14.52 -11.04,16.19 -12.17,13.88 -1.86,4.8 -16.48,14.57l5.1 5.93 0.69 5.1c7.8,-7.8 -1.28,-0.58 8.24,-8.63 11.18,-9.37 4.56,-5.2 13.19,-9.07 19.92,-46.31 56.32,-65.99 62.85,-177.44 5.2,-88.99 -23.26,-133.54 -42.44,-206.04 -9.12,-9.22 -60.53,-110.13 -104,-166.4 -81.68,-105.87 -58.57,-51.85 -3.87,-165.13 -13.69,-16.14 -35.42,-33.55 -58.97,-38.8l-54.06 67.6c-13.79,-6.87 -2.36,0.2 -13.05,-8.54 -63.43,-51.55 -170.72,-198.77 -337.36,-226.54 -103.02,-17.17 -111.41,17.12 -148.1,45.13zm495.22 347.28c1.92,21.19 3.68,9.81 -6.52,13.93 0.34,31.79 -22.67,72.5 -36.06,103.07 -13.83,31.64 -24.77,61.86 -39.78,94.09 -11.92,34.92 -53.48,134.71 -68.49,155.7l-8.68 18.01c-5.3,13.24 -8.29,22.71 -14.86,37.48 -3.49,7.89 -2.85,7.3 -6.77,13.19 -6.77,10.11 -3.78,5.35 -11.24,11.73l-7.75 11.18c-8.73,26.05 -31.84,56.07 -49.1,77.22 -17.66,21.58 -13.64,13.63 -19.82,14.71l-20.07 25.07c3.44,13.93 -13.24,7.46 16.78,10.3 110.13,2.5 185.14,13.1 288.89,-12.46l19.28 -9.37 19.92 -6.96c31.59,-20.8 54.26,-30.61 72.16,-56.42 10.55,-17.46 14.82,-19.38 20.31,-36.74l-4.22 -1.62c-24.43,25.66 -55.53,69.17 -110.86,73.63 -35.47,36.5 -232.88,29.93 -289.54,21.29 46.85,-64.36 57.15,-57.83 107.88,-156.39 21.49,-41.84 69.71,-165.27 86.54,-185.29l15.45 -42.82c11.77,-50.87 57,-121.71 60.44,-163.61l-3.93 -8.39 -9.96 -0.53zm-96.15 -130.64c12.71,23.01 11.33,15.65 31.5,32.87 12.65,10.84 18.44,16.48 26.63,31.93 6.38,4.17 15.75,-4.95 -1.71,37.04 -6.18,14.77 -11.29,25.36 -16.34,38.12 -7.31,18.34 -25.17,64.06 -26.24,81.14l-55.88 214.03c-8.73,18.79 -28.75,43.32 -12.66,62.3 15.01,-20.99 56.57,-120.78 68.49,-155.7 -29.24,-14.92 -1.67,-43.81 3.82,-62.01 6.58,-21.93 7.31,-37.24 17.86,-61.27l56.66 -107.54 -2.5 33.66c10.2,-4.12 8.44,7.26 6.52,-13.93l12.02 -133.24c-5.2,4.9 -10.99,4.12 -16.82,9.07 -16.24,-3.73 -10.75,-2.4 -21.88,-11.72 -5.25,-4.42 -10.26,-11.53 -16.14,-17.71 -11.53,-12.27 -22.13,-21.05 -33.71,-29.39 -17.12,29.24 -5.2,5.74 -5.59,21.2 -0.05,1.81 0.74,12.31 -0.24,15.2 -9.03,26.84 25.36,0.74 -13.79,15.95zm-176.21 716.32l22.12 5.89 28.07 2.35c13.78,5.2 37.96,14.62 48.02,21.83l-70.1 18.4 -6.87 2.45 22.62 12.86c73.58,-2.06 225.56,10.25 278.83,-28.8 -7.55,-12.36 -13.39,-9.47 -25.46,-21.14 -9.76,-9.42 -3.04,1.03 -7.16,-10.35 -4.76,-13.05 -3.28,0.88 -1.18,-15.95 -103.75,25.56 -178.76,14.96 -288.89,12.46zm-353.94 44.84l23.15 2.7 -15.8 -74.37 42.14 -2.45c2.21,0.34 13.64,2.3 15.26,2.84 25.36,8.78 6.28,1.57 16.48,7.41 28.06,-3.19 84.53,2.75 104.45,13.78l63.33 -1.91 11.23 -0.64c18.01,-19.87 34.73,-37.82 53.87,-58.67 23.1,-25.21 32.52,-40.42 53.08,-70.44l15.2 -24.83 -7.21 -0.88c-44.15,42.58 -65.98,125.68 -134.61,126.76 -84.62,1.38 -200,-36.25 -252.79,-14.37 -51.61,21.39 -49.5,94.43 12.22,95.07zm375.18 -207.46l7.21 0.88c14.77,-6.96 8.1,7.17 13,-9.91l17.52 -17.31c19.28,16.04 18.54,25.16 20.99,50.48 7.46,-6.38 4.47,-1.62 11.24,-11.73 3.92,-5.89 3.28,-5.3 6.77,-13.19 6.57,-14.77 9.56,-24.24 14.86,-37.48l-10.94 -0.05c-3.38,-39.44 -15.21,-39.89 -0.39,-75.7l88.55 -218.59c1.07,-17.08 18.93,-62.8 26.24,-81.14 5.05,-12.76 10.16,-23.35 16.34,-38.12 17.46,-41.99 8.09,-32.87 1.71,-37.04 -27.86,78.98 -66.57,165.96 -101.35,248.08 -17.61,41.6 -34.34,82.71 -52.64,122 -16.92,36.5 -50.08,87.03 -59.11,118.82zm322.01 -359.14c10.99,24.77 35.91,69.02 56.27,85.11l3.73 -6.62c8.48,22.27 1.57,1.52 11.33,11.62l2.11 -26.83 29.43 -2.99c-22.47,-48.67 -40.57,-66.77 -66.42,-105.52 -9.57,-14.38 -26.93,-37.88 -38.22,-48.62 -26.29,-25.12 -35.86,-14.42 -28.74,-58.03l-8.29 4.85c4.9,27.38 3.04,55.29 15.6,80.8 8.73,17.76 8.88,6.92 18.05,34.19 5.69,16.88 3.48,12.51 5.15,32.04zm-528.54 -348.85l-3.28 33.85c19.28,23.75 4.22,28.31 31.98,67.8 0.98,1.42 2.31,3.14 3.24,4.41l6.52 9.37c1.08,0.69 2.85,0.59 3.19,2.21l26.3 24.63c18.44,14.47 18.39,9.56 32.18,34.93 8.68,3.19 20.99,12.51 28.5,18.1 9.96,7.41 8.09,6.96 15.5,12.51 16.14,12.12 3.34,6.67 18.69,9.81 18.59,-1.86 -2.65,-9.91 25.51,2.89l2.9 -15.89c-40.33,-45.03 -123.58,-78.15 -135.69,-135.94 -23.36,-12.9 -44.65,-52.78 -33.02,-84.67l0.83 -14.08c-12.41,10.21 -16.72,12.61 -23.35,30.07zm204.47 17.91c30.37,30.76 82.81,51.17 99,85.31 10.99,2.4 4.61,-1.18 14.03,3.24 10.64,-15.9 5.44,3.92 2.21,-13.84 0,-0.09 -4.71,-12.56 -5.79,-20.01 21.88,-5.25 13.73,-6.82 39.19,0.39 -13.39,-17.76 -91,-78.64 -110.91,-88.35 -29.29,-4.86 -41.26,-27.96 -54.75,2.06 -7.7,17.12 20.65,21.49 17.02,31.2zm-112.88 844.9l-11.23 0.64 -33.41 10.6c25.12,7.5 28.26,20.26 22.81,46.7l110.13 6.03c12.37,-15.94 21.15,-26.78 27.52,-50.28l-22.12 -5.89c-30.02,-2.84 -13.34,3.63 -16.78,-10.3 -18.3,-3.43 -8.88,3.04 -18.2,-7.16 -15.11,10.4 -17.76,3.48 -42.33,5.05l10.4 9.13c-12.61,1.66 -6.04,1.81 -18.35,0.29 -1.08,-0.15 -3.73,-0.29 -4.51,-2.06 -0.74,-1.77 -2.6,-1.86 -3.93,-2.75zm421.79 -20.99c4.71,19.47 3.93,11.57 12.66,24.77 11.67,17.51 10.5,11.72 13.83,36.79 25.51,-8.29 13.35,-11.53 43.47,-21.09 11.28,-3.58 16.87,-3.19 25.21,-9.37 22.71,-16.83 8.29,-6.38 16.68,-23.16 -20.26,-1.47 -6.77,7.02 -15.7,-4.07l29.78 -19.28 -5.1 -5.93c-8.49,-23.8 4.36,0.14 -7.61,-8.78l-10.3 -6.09c-33.85,-20.11 -19.62,2.5 -25.85,-16.53 -0.83,-2.65 -3.39,-2.31 -4.91,-3.68 -17.9,25.81 -40.57,35.62 -72.16,56.42zm-550.95 -904.17c-0.2,0.1 -13.99,3.04 -18.01,6.72l20.36 140.94 -0.29 -26.83c20.21,-18.79 19.62,-38.31 35.51,-58.48 6.63,-17.46 10.94,-19.86 23.35,-30.07l0.99 -18.93c29.48,-3.24 20.75,-10.84 52.04,-15.31l-4.95 -17.61c-22.37,-1.91 -46.6,-2.01 -66.62,6.72 -18.3,7.95 -16.53,12.8 -24.82,16.63 -17.76,8.24 -6.62,17.71 -17.56,-3.78zm662.11 584.81l12.17 63.82c12.26,23.2 12.17,39.1 12.26,70 17.03,-35.22 6.04,-2.5 38.42,-20.16 8.29,-38.16 9.46,-57.39 -1.53,-103.07l-10.59 -28.15c-10.25,16.48 8.09,19.32 -15.99,12.85 -8,-2.11 -4.37,-9.76 -4.42,-12.02 -12.95,18.44 -8.44,8.39 -16.83,26.54 -0.19,-11.58 -3.04,-15.6 -7.84,-28.8l-5.65 18.99zm-410.8 186.41l-15.2 24.83c16.28,9.02 20.5,-27.57 9.66,21.68 -0.69,3.14 -5.99,8.04 -7.11,9.56l-30.42 32.38c1.96,17.32 3.53,29.44 17.91,37.92 6.18,-1.08 2.16,6.87 19.82,-14.71 17.26,-21.15 40.37,-51.17 49.1,-77.22 -5.1,-14.37 -2.16,-5.79 -6.08,-12.61 -0.2,-0.34 -7.51,-11.77 -7.8,-12.16 -5.64,-8.29 -11.33,-14.33 -16.88,-19.58 -4.9,17.08 1.77,2.95 -13,9.91zm-280.16 209.38l124.65 -1.97 11.53 4.47c5.45,-26.44 2.31,-39.2 -22.81,-46.7l33.41 -10.6 -63.33 1.91 -33.22 4.76 -13.19 2.5c-7.61,13.74 -2.36,13.64 -11.97,26.99 -14.08,19.62 -9.22,7.06 -25.07,18.64zm441.71 -422.23c15.01,-32.23 25.95,-62.45 39.78,-94.09 13.39,-30.57 36.4,-71.28 36.06,-103.07l2.5 -33.66 -56.66 107.54c-10.55,24.03 -11.28,39.34 -17.86,61.27 -5.49,18.2 -33.06,47.09 -3.82,62.01zm-77.17 173.71l8.68 -18.01c-16.09,-18.98 3.93,-43.51 12.66,-62.3l55.88 -214.03 -88.55 218.59c-14.82,35.81 -2.99,36.26 0.39,75.7l10.94 0.05zm-135.3 -452.11c7.61,8.98 4.61,5.49 11.29,13.05 0.88,1.03 3.33,5.64 4.02,4.46 0.68,-1.27 2.75,2.95 4.12,4.42l79.23 67.79 14.81 -11.52c3.83,-19.19 -0.93,-0.1 3.97,-15.11 3.29,-10.16 -0.09,1.81 5.2,-13.98 -15.79,-16.19 -71.03,-51.17 -94.23,-62.11l-2.9 15.89c-28.16,-12.8 -6.92,-4.75 -25.51,-2.89zm443.03 531.04c-5.49,17.36 -9.76,19.28 -20.31,36.74 1.52,1.37 4.08,1.03 4.91,3.68 6.23,19.03 -8,-3.58 25.85,16.53l10.3 6.09c11.97,8.92 -0.88,-15.02 7.61,8.78 14.62,-9.77 4.31,-0.69 16.48,-14.57 1.47,-1.67 9.81,-14.08 11.04,-16.19 6.77,-11.87 10.06,-19.82 11.09,-34.54l1.76 -14.62c-12.07,-2.06 -19.47,-4.75 -29.68,-7.11 -18.2,-4.22 9.32,-4.17 -22.27,-2.31l-16.78 17.52zm-515.58 -782.5l0.54 7.89c45.62,1.33 75.54,31.74 113.66,43.86 3.63,-9.71 -24.72,-14.08 -17.02,-31.2 13.49,-30.02 25.46,-6.92 54.75,-2.06 -18.4,-26.29 -28.36,-18.99 -59.17,-32.08 -23.84,-10.16 -27.12,-16.49 -58.82,-27.38l-0.39 23.5 -33.55 17.47zm1.32 896.65c1.33,0.89 3.19,0.98 3.93,2.75 0.78,1.77 3.43,1.91 4.51,2.06 12.31,1.52 5.74,1.37 18.35,-0.29l-10.4 -9.13c24.57,-1.57 27.22,5.35 42.33,-5.05 9.32,10.2 -0.1,3.73 18.2,7.16l20.07 -25.07c-14.38,-8.48 -15.95,-20.6 -17.91,-37.92l30.42 -32.38c1.12,-1.52 6.42,-6.42 7.11,-9.56 10.84,-49.25 6.62,-12.66 -9.66,-21.68 -20.56,30.02 -29.98,45.23 -53.08,70.44 -19.14,20.85 -35.86,38.8 -53.87,58.67zm-0.88 -642.3l28.45 25.12c12.02,9.08 20.75,14.62 35.27,21 -0.39,-37.48 2.7,-3.78 -7.21,-32.23 22.32,10.35 -3.63,8.93 35.03,5.15 -1.37,-1.47 -3.44,-5.69 -4.12,-4.42 -0.69,1.18 -3.14,-3.43 -4.02,-4.46 -6.68,-7.56 -3.68,-4.07 -11.29,-13.05 -15.35,-3.14 -2.55,2.31 -18.69,-9.81 -7.41,-5.55 -5.54,-5.1 -15.5,-12.51 -7.51,-5.59 -19.82,-14.91 -28.5,-18.1 -29.24,-12.17 -1.47,-8.69 -29.53,-5.5 -1.38,15.11 -4.52,5.15 0.14,20.9 6.48,21.83 -4.17,-4.71 15.41,18.94 17.26,20.85 -3.24,-22.18 4.56,8.97zm-203.59 717.02c55.93,-2.21 137.26,-3.39 166.55,-18.15 1.18,-0.59 3.09,-1.97 4.56,-3.1l-124.65 1.97 -32.43 6.72 2.51 -54.85 19.96 -4.22c-2.11,4.57 -13,3.98 -7.41,-10.84l67.6 15.06 33.22 -4.76c-19.92,-11.03 -76.39,-16.97 -104.45,-13.78l-23.74 2.75c4.17,24.52 -1.47,51.21 10.4,66.86 -5.89,6.57 0.1,10.3 -12.12,16.34zm707.55 -464.96c6.96,7.75 6.57,9.37 12.95,22.61 3.58,7.46 2.94,7.7 6.97,14.33 6.18,10.1 3.33,6.23 9.95,12.95l5.65 -18.99c4.8,13.2 7.65,17.22 7.84,28.8 8.39,-18.15 3.88,-8.1 16.83,-26.54 0.05,2.26 -3.58,9.91 4.42,12.02 24.08,6.47 5.74,3.63 15.99,-12.85l-31.79 -79.28 12.56 45.23c-26.84,-8.09 -29.44,-0.2 -42.44,-13.44l-13.73 -18.45c-9.76,-10.1 -2.85,10.65 -11.33,-11.62l-3.73 6.62 9.86 38.61zm-440.24 -205.94c10.35,13.73 94.14,72.94 102.53,44.2 0.69,-2.36 2.99,-2.31 4.52,-3.49l-79.23 -67.79c-38.66,3.78 -12.71,5.2 -35.03,-5.15 9.91,28.45 6.82,-5.25 7.21,32.23zm163.07 -160.17c14.96,20.36 33.85,26.88 44,47.83 39.15,-15.21 4.76,10.89 13.79,-15.95 0.98,-2.89 0.19,-13.39 0.24,-15.2 0.39,-15.46 -11.53,8.04 5.59,-21.2 -7.99,-13.88 1.72,-3.33 -12.75,-18.15 -1.08,-1.08 -13.79,-9.71 -15.26,-10.79 -25.46,-7.21 -17.31,-5.64 -39.19,-0.39 1.08,7.45 5.79,19.92 5.79,20.01 3.23,17.76 8.43,-2.06 -2.21,13.84zm-383.92 811.79c15.85,-11.58 10.99,0.98 25.07,-18.64 9.61,-13.35 4.36,-13.25 11.97,-26.99l13.19 -2.5 -67.6 -15.06c-5.59,14.82 5.3,15.41 7.41,10.84l-19.96 4.22 -2.51 54.85 32.43 -6.72zm69.07 -781.77c23.84,28.7 57.69,63.82 88.06,84.03 -7.8,-31.15 12.7,11.88 -4.56,-8.97 -19.58,-23.65 -8.93,2.89 -15.41,-18.94 -4.66,-15.75 -1.52,-5.79 -0.14,-20.9 28.06,-3.19 0.29,-6.67 29.53,5.5 -13.79,-25.37 -13.74,-20.46 -32.18,-34.93l-26.3 -24.63c-0.34,-1.62 -2.11,-1.52 -3.19,-2.21 -21.19,16.78 2.6,26.15 -35.81,21.05zm450.2 24.28c5.83,-4.95 11.62,-4.17 16.82,-9.07l-12.02 133.24 9.96 0.53c13.05,-26 8.49,-12.36 7.7,-45.91 -0.54,-23.55 -6.62,-32.09 14.43,-37.73 -1.43,-21.04 0.93,-33.26 2.06,-52.29 1.37,-24.04 14.66,-41.75 -5.25,-37.73 -20.12,19.68 -20.51,24.97 -33.7,48.96zm33.7 -48.96c19.91,-4.02 6.62,13.69 5.25,37.73 -1.13,19.03 -3.49,31.25 -2.06,52.29l8.29 -4.85c16.68,-26.35 31.1,-52.49 42.58,-78 -34.39,-33.66 -9.91,-21.54 -43.22,-31.06l-10.84 23.89zm-507.94 -12.65c1.97,3.78 5.99,11.18 6.28,12.07 5.5,15.4 0.3,-5.45 3.49,13.68 9.02,5.94 3.68,-2.5 14.27,11.58 38.41,5.1 14.62,-4.27 35.81,-21.05l-6.52 -9.37c-0.93,-1.27 -2.26,-2.99 -3.24,-4.41 -27.76,-39.49 -12.7,-44.05 -31.98,-67.8 -1.38,17.86 -2.55,21.98 -9.28,35.57 -10.54,21.39 -10.1,-6.97 -8.83,29.73zm489 186.31l3.93 8.39c25.16,-1.32 23.4,19.28 45.77,44.25l11.23 10.75c-1.67,-19.53 0.54,-15.16 -5.15,-32.04 -9.17,-27.27 -9.32,-16.43 -18.05,-34.19 -12.56,-25.51 -10.7,-53.42 -15.6,-80.8 -21.05,5.64 -14.97,14.18 -14.43,37.73 0.79,33.55 5.35,19.91 -7.7,45.91zm-636.26 629.99c7.55,6.87 0.19,0.98 11.62,9.03 20.07,14.08 -3.33,-3.98 12.07,7.99l27.42 -3.33 -7.5 -80.46c0.73,-0.98 4.22,-5.88 5.88,-7.35l-42.14 2.45 15.8 74.37 -23.15 -2.7zm768.52 -476.49l13.73 18.45c13,13.24 15.6,5.35 42.44,13.44l-12.56 -45.23c-3.63,-7.7 -2.06,-4.86 -6.48,-11.14 -0.34,-0.54 -2.45,-1.12 -2.69,-2.79 -0.3,-1.67 -1.97,-1.67 -2.9,-2.55l-29.43 2.99 -2.11 26.83zm-576.52 -469.03l-0.83 14.08c13.15,-17.71 5.3,21.49 15.31,-18.79 27.57,5.3 26.29,11.24 52.98,8.83l-0.54 -7.89c-34.54,-2.7 -11.87,1.47 -19.97,-10.11l37.63 -22.13c-12.02,1.48 -0.2,1.92 -5.59,-10.54l-30.91 -5.3 4.95 17.61c-31.29,4.47 -22.56,12.07 -52.04,15.31l-0.99 18.93zm578.28 777.11l4.22 1.62 16.78 -17.52 4.07 -17.31 52.79 12.16 2.45 17.08 8.14 -26.35c-36.49,-30.46 -39.29,-5.39 -52.09,-34.29 -5.3,5.45 -4.81,3.44 -10.45,12.36 -3.09,4.91 -6.33,12.22 -9.18,18.01 -4.51,9.17 -11.08,23.3 -16.73,34.24zm-746.59 185.43l32.08 5.06c12.22,-6.04 6.23,-9.77 12.12,-16.34 -11.87,-15.65 -6.23,-42.34 -10.4,-66.86l23.74 -2.75c-10.2,-5.84 8.88,1.37 -16.48,-7.41 -1.62,-0.54 -13.05,-2.5 -15.26,-2.84 -1.66,1.47 -5.15,6.37 -5.88,7.35l7.5 80.46 -27.42 3.33zm324.85 -5.69l49.26 7.61 -22.62 -12.86 6.87 -2.45 22.08 -40.23 -28.07 -2.35c-6.37,23.5 -15.15,34.34 -27.52,50.28zm-215.11 -841.47c0.59,0.59 1.62,0.64 1.82,1.62l12.01 12.22c-1.27,-36.7 -1.71,-8.34 8.83,-29.73 6.73,-13.59 7.9,-17.71 9.28,-35.57l3.28 -33.85c-15.89,20.17 -15.3,39.69 -35.51,58.48l0.29 26.83zm509.4 772.84c-2.1,16.83 -3.58,2.9 1.18,15.95 4.12,11.38 -2.6,0.93 7.16,10.35 12.07,11.67 17.91,8.78 25.46,21.14l18.55 -3.58c-8.68,-27.77 4.81,-0.25 -17.32,-24.77 -24.23,-26.84 -9.07,-1.38 -15.75,-28.46l-19.28 9.37zm-260.78 60.93l70.1 -18.4c-10.06,-7.21 -34.24,-16.63 -48.02,-21.83l-22.08 40.23zm280.06 -70.3c6.68,27.08 -8.48,1.62 15.75,28.46 22.13,24.52 8.64,-3 17.32,24.77l13.34 1.37c-3.33,-25.07 -2.16,-19.28 -13.83,-36.79 -8.73,-13.2 -7.95,-5.3 -12.66,-24.77l-19.92 6.96zm-403.19 -882.62l33.55 -17.47 0.39 -23.5 -21.87 -1.81c5.39,12.46 -6.43,12.02 5.59,10.54l-37.63 22.13c8.1,11.58 -14.57,7.41 19.97,10.11zm136.47 732.8c5.55,5.25 11.24,11.29 16.88,19.58 0.29,0.39 7.6,11.82 7.8,12.16 3.92,6.82 0.98,-1.76 6.08,12.61l7.75 -11.18c-2.45,-25.32 -1.71,-34.44 -20.99,-50.48l-17.52 17.31zm395.89 32.18c31.59,-1.86 4.07,-1.91 22.27,2.31 10.21,2.36 17.61,5.05 29.68,7.11l-1.76 14.62 9.12 -12.11 -2.45 -17.08 -52.79 -12.16 -4.07 17.31zm2.6 118.62l14.77 -18.25 -0.69 -5.1 -29.78 19.28c8.93,11.09 -4.56,2.6 15.7,4.07zm1709.97 -298.9l-107.53 232.38c-38.42,87.62 -33.8,70.99 -40.92,57.3l-4.31 11.53c-0.79,2.7 -2.51,8.93 -3.09,12.36 -3.34,18.99 -3.49,51.17 7.7,62.79 28.25,29.44 138.58,-33.75 171.84,-57.88 44.99,-32.63 35.96,-23.06 36.35,-38.51 -0.05,-23.55 -16.38,-20.02 2.16,-20.12 -7.36,-12.75 -4.85,-3.33 -5.39,-18.1 -0.35,-8.78 0.73,-12.46 1.42,-24.13 -27.57,21.83 -96.99,80.55 -134.56,85.11 6.86,-75.5 119.4,-249.31 120.33,-304.05l-1.76 -15.6c-4.57,10.45 -22.32,32.96 -42.24,16.92zm-1386.29 -104.49l-22.86 39.34c-0.54,-1.08 -2.31,2.9 -3.63,4.17 -2.21,27.92 -24.04,66.72 -53.48,81.73 -12.51,23.21 -42.58,49.65 -66.96,69.61 -46.99,38.51 -35.61,32.28 -38.8,103.95 25.65,-5 26.64,-7.4 37.33,-20.5 -13.25,-15.5 4.22,-5.89 -24.58,-12.36 9.57,-40.82 15.26,-46.56 50.92,-66.08 18.64,-10.16 17.12,-6.48 31.6,-20.8 14.37,-14.18 1.66,0.24 12.75,-15.9l11.14 -18.44c37.52,2.21 36.64,13.98 50.52,1.47 3.63,37.97 -25.21,80.99 -36.54,114.01 -11.38,49.59 -30.76,34.83 -39.1,84.72 -1.23,7.16 -1.47,14.91 -2.06,17.02 -6.87,23.3 -1.03,8.78 -10.84,18.99l-4.12 25.31c34.14,-4.47 65.68,-21.73 99.93,-4.51l22.22 -15.8 -7.66 -15.75c-5.78,-13.49 6.68,-3.14 -7.45,-9.56l-10.89 -2.95c4.81,-4.76 10.15,-10.1 14.76,-14.57l10.16 -9.66c36.79,-36.84 103.31,-80.9 107.82,-90.95l-2.5 68.19c-13.05,-8.44 -14.91,2.65 -1.57,-13.35 6.38,-7.7 18.3,0.2 17.03,-56.22 -0.54,-22.81 5.2,-9.95 -2.95,-20.6 -26.54,7.9 -155.02,129.31 -214.82,156.25 4.96,-33.22 74.52,-173.27 92.82,-214.87 19.03,-43.22 87.12,-176.41 91.15,-216.64 -107.68,-0.88 -67.41,-0.78 -73.59,11.24 4.47,22.86 -11.63,16.53 16.48,19.57 9.52,0.98 13.99,-3.38 29.05,-2.45 -8.3,25.21 -16,27.76 -23.11,48.17 -35.12,-22.86 -12.41,-6.38 -33.55,-14.47 -0.89,-0.34 -3.49,-1.67 -4.32,-2.01l-10.3 -5.3zm503.27 287.42l-1.96 -14.03 -87.03 22.23c-16.04,5.34 -2.16,5.44 -26.44,9.95 -1.62,10.94 -1.08,7.27 -8.34,18.45 20.55,-1.52 17.07,-0.93 29.78,-5.69 26.49,-9.96 8.04,-1.03 9.22,-7.65l3.14 12.02c9.42,10.35 8.24,-0.89 5.88,16.82 -0.04,0.35 -7.94,18.3 -8.19,18.74 -11.43,22.76 -1.22,10.55 -23.5,26.84 -20.11,24.52 -12.6,36.35 -29.38,54.6 10.5,18.78 23.64,42.72 45.92,45.72 49.35,6.72 114.89,-36.4 150.75,-62.99 16.92,-12.51 16.24,-13 19.96,-27.57 15.65,-31.15 46.51,-44.2 77.42,-70.94 21.92,-18.93 -7.22,-6.28 26.53,-19.92l-1.76 -51.75c-46.07,22.52 -159.39,144.23 -222.03,156.29 3.29,-55.28 30.85,-74.56 40.03,-121.12zm-316.61 -173.66c-11.92,25.91 -23.21,29.88 -27.72,54.6l3.04 11.83c5.15,-18.01 -5.54,-13.84 7.41,-17.32 12.95,-17.47 4.66,-6.97 20.5,-21.19 17.81,-15.95 6.97,-11.73 29.54,-15.06 -4.57,-16.24 6.28,-14.13 -5.01,-14.38 8.49,-12.31 -3.87,-8.78 20.66,-18.15l27.22 -10.06c4.02,14.43 3.24,7.51 5.94,11.93 5.1,8.38 1.62,-2.95 13.73,21.43 12.27,-10.59 18.4,-17.12 25.42,-28.89 -20.27,4.66 15.74,11.67 -18.35,3.78 -19.04,-4.42 -8.93,9.37 -17.52,-12.12 -0.49,-1.28 -0.83,-3.73 -0.93,-5.05 -1.32,-19.82 2.55,-10.26 9.91,-14.28 0.64,-0.34 3.14,-0.29 3.68,-0.49 27.82,-9.12 5.69,0 6.97,1.82 -19.53,-4.42 -8.1,-4.13 -16.34,-13.45l75.6 -43.46c30.66,-14.52 0.54,-0.25 9.51,-4.17 13.3,-5.84 84.19,-40.86 74.13,5.98 -4.76,22.28 22.61,10.94 -19.92,14.92l9.18 3.58c40.12,0.44 73.24,-17.02 123.18,-11.82 43.17,4.56 73.19,30.66 101.79,30.76 1.96,-1.13 14.08,-6.77 18.05,-8.34l1.92 -67.65c-112.25,-44.45 -163.95,-47.88 -281.64,0.93 -42.78,17.76 -79.03,41.01 -110.67,64.12 -51.95,38.01 -54.45,52.19 -75.99,71.62 -9.71,8.78 -4.86,5.98 -13.29,8.58zm774.85 33.51c-31.94,15.4 -43.03,50.63 -80.55,71.72 -10.31,23.55 -23.06,39.39 -41.06,55.88 -15.85,14.47 -10.5,9.37 -22.62,24.57 -14.72,18.5 -1.37,8.15 -25.02,19.58l55.63 -126.62c-8.98,-8.73 12.95,-12.61 -23.84,-6.18 -5.35,0.93 -10.55,6.18 -12.31,7.55l-16.73 22.82c-0.3,12.01 3.14,6.57 -20.26,0.04 17.27,51.56 3.43,34.69 -0.25,40.23 -12.41,13.93 -61.66,107.09 -72.65,135.69 3.38,4.61 -11.58,23.65 15.7,-3.73 4.02,-4.02 7.45,-14.57 16.82,-24.52 42.98,1.91 52.5,7.01 58.63,-4.86 0.44,-0.88 0.88,-4.37 1.86,-6.43 45.77,44.79 -15.06,-11.28 37.97,5.99 20.26,-6.53 77.9,-85.12 96.69,-108.52l66.23 -67.06 27.47 -34.88c-11.58,-18.39 14.91,-13.04 -26.49,-6.37 -13.93,2.25 -20.51,3.82 -35.22,5.1zm-487.23 26.69c23.3,23.3 6.52,5.34 10.79,7.75l6.23 1.32c-16.09,41.6 1.81,43.71 38.21,32.57 6.43,31.74 9.28,23.7 -12.26,43.71 -4.86,22.57 0.78,14.92 -13.98,28.11 -9.18,46.56 -36.74,65.84 -40.03,121.12 62.64,-12.06 175.96,-133.77 222.03,-156.29l1.76 51.75 11.34 -0.29 2.55 -7.95 0.05 -72.4c-0.98,0.83 -8.78,6.37 -9.81,6.91 -27.33,10.99 -74.28,53.72 -101.75,76.24 -22.37,18.29 -73.78,59.55 -103.41,70.49l128.58 -288.06 4.95 -33.9 -68.73 -6.52c-14.42,30.61 -72.06,101.89 -76.52,125.44zm615.76 97.81c-13.5,-30.07 1.52,1.53 -46.71,-5.88 -5.2,22.81 -24.57,57.05 -36.74,80.45l-28.94 67.01c-16.34,17.86 -5.15,11.53 -21.1,-1.91 -9.96,22.96 -9.02,53.23 12.9,74.12 21.93,3.34 34.1,5.55 53.72,-0.34 7.65,-12.66 2.7,0.2 2.5,-20.41 9.96,-27.52 108.12,-135.69 133.09,-164.09l-25.51 -39.35c-33.5,11.14 -26.93,34.39 -56.51,50.53l13.3 -40.13zm-710.54 52.25l-11.63 -1.57c-5.3,26.1 -59.95,76.87 -85.21,93.89 -48.76,32.82 -90.95,16.78 -110.33,-45.32l-51.41 9.95 -9.07 -18.73 0.09 -16.64 -3.72 -2.64c-4.17,34.58 2.79,58.42 22.86,80.89l54.84 63.63 78.3 -0.25c29.43,-15.6 14.22,-4.95 42.63,-11.62l22.02 -13c10.99,-16.44 0.89,10.3 5.3,-16.29 4.12,-20.07 -4.61,0.39 4.46,-14.28 0.89,-1.42 10.55,-11.87 12.61,-13.78 11.58,-11.04 17.47,-15.16 28.55,-21.73 6.67,-34.25 34.49,-38.86 41.85,-73.83l-3.14 -12.02c-1.18,6.62 17.27,-2.31 -9.22,7.65 -12.71,4.76 -9.23,4.17 -29.78,5.69zm311.66 -93.75c1.03,-0.54 8.83,-6.08 9.81,-6.91l11.23 6.67 31.64 -22.08c6.09,-21.63 7.61,-18.3 23.11,-21.78 7.5,-13.59 -4.96,-6.62 10.79,-15.45l18.1 -21.64c20.12,-17.71 39.05,-21.38 72.9,-19.67l14.96 25.07c18.4,-41.6 84.23,-168.95 88.65,-208.93 -119.01,-3.39 -51.76,-9.18 -143.88,143.54 -33.12,54.94 -126.62,117.49 -137.31,141.18zm-560.97 -9.76c8.15,10.65 2.41,-2.21 2.95,20.6 1.27,56.42 -10.65,48.52 -17.03,56.22 -13.34,16 -11.48,4.91 1.57,13.35l2.5 -68.19c-4.51,10.05 -71.03,54.11 -107.82,90.95l-10.16 9.66c-4.61,4.47 -9.95,9.81 -14.76,14.57l10.89 2.95c14.13,6.42 1.67,-3.93 7.45,9.56l7.66 15.75 49.89 -34.39c17.22,-13.64 29.14,-26.34 48.47,-33.95l-3.58 25.37 3.72 2.64 56.61 1.04c-3.77,-57.6 15.75,-108.71 32.73,-146.73 -11.39,-5.69 3.97,-0.49 -4.62,-29.88l-34.68 10.16 -3.04 -11.83c-16.88,13.59 -9.03,4.22 -18.84,25.02 -5.59,11.82 -6.67,18.05 -9.91,27.13zm1221.37 -187.89c-16.39,7.71 -39.84,28.31 -51.61,44.94 23.45,-9.13 33.11,-5.89 59.41,-5.69l-21.98 39.24c26.49,-8.38 19.67,-14.08 41.55,-29.18 -24.72,42.38 -47.88,107.72 -72.26,157.17 -25.41,51.41 -47.68,104 -68.83,155.07 7.12,13.69 2.5,30.32 40.92,-57.3l107.53 -232.38 3.82 -16.14c3.59,-28.06 5.79,-32.28 19.68,-54.25 10.84,-3.39 24.82,-4.47 27.47,-5.2 23.74,-6.82 15.01,2.15 25.26,-16.78 -46.36,2.5 -71.13,18.2 -110.96,20.5zm-1499.96 245.68l14.08 -4.86c-15.01,-21.93 24.38,-15.3 -13.69,-16.53 24.19,-18 12.22,20.6 15.99,-29.73 1.72,1.42 6.58,4.61 7.8,5.3l71.63 27.72c11.33,-33.02 40.17,-76.04 36.54,-114.01 -13.88,12.51 -13,0.74 -50.52,-1.47l-11.14 18.44c-11.09,16.14 1.62,1.72 -12.75,15.9 -14.48,14.32 -12.96,10.64 -31.6,20.8 -35.66,19.52 -41.35,25.26 -50.92,66.08 28.8,6.47 11.33,-3.14 24.58,12.36zm850.25 114.25l-5.59 18.05 31.39 0.84c-18.79,55.19 -15.55,14.42 -53.57,47l8.83 24.92 47.39 -2.7c16.04,-5.3 8.1,-2.9 13.25,-7.26 6.38,-15.21 -6.77,-1.82 15.11,-19.18 13.24,-23.35 22.86,-35.91 50.72,-50.34l23.45 -44.88c-53.03,-17.27 7.8,38.8 -37.97,-5.99 -0.98,2.06 -1.42,5.55 -1.86,6.43 -6.13,11.87 -15.65,6.77 -58.63,4.86 -9.37,9.95 -12.8,20.5 -16.82,24.52 -27.28,27.38 -12.32,8.34 -15.7,3.73zm-500.57 -192.64c-16.98,38.02 -36.5,89.13 -32.73,146.73l4.52 14.61 -0.74 9.77c19.38,62.1 61.57,78.14 110.33,45.32 25.26,-17.02 79.91,-67.79 85.21,-93.89l-3.38 1.57c-19.04,2.06 -21.29,27.03 -67.11,59.95 -78.2,56.27 -117,-20.7 -104.93,-106.41 5.44,-38.9 23.69,-61.91 31.54,-91.98 -14.47,-15.94 2.99,-11.72 -12.41,-1.47 -0.1,0.1 -9.96,15.21 -10.3,15.8zm106.11 -111.41c21.58,-8.29 35.66,-21.39 57.73,-32.62 17.67,-9.03 45.04,-17.66 58.19,-30.32l-9.18 -3.58c42.53,-3.98 15.16,7.36 19.92,-14.92 10.06,-46.84 -60.83,-11.82 -74.13,-5.98 -8.97,3.92 21.15,-10.35 -9.51,4.17l-75.6 43.46c8.24,9.32 -3.19,9.03 16.34,13.45 -1.28,-1.82 20.85,-10.94 -6.97,-1.82 -0.54,0.2 -3.04,0.15 -3.68,0.49 -7.36,4.02 -11.23,-5.54 -9.91,14.28 0.1,1.32 0.44,3.77 0.93,5.05 8.59,21.49 -1.52,7.7 17.52,12.12 34.09,7.89 -1.92,0.88 18.35,-3.78zm1137.13 233.61c-0.69,11.67 -1.77,15.35 -1.42,24.13 0.54,14.77 -1.97,5.35 5.39,18.1 -18.54,0.1 -2.21,-3.43 -2.16,20.12 27.13,-10.5 28.7,-13.79 47,-28.01l36.2 -28.9c9.08,-6.57 10.85,-7.5 18.11,-15.35l17.41 -23.6c-11.43,-11.63 -4.86,9.47 -9.37,-24.58 -0.59,-4.51 -0.34,-22.22 -0.69,-28.4l-110.47 86.49zm-240.18 -142.76c12.41,4.86 22.76,19.48 44.39,2.06 9.57,-7.65 6.87,-3.04 12.71,-16.43 17.51,-7.31 1.27,-2.6 9.47,5.84 18.1,-11.34 17.56,-14.03 31.64,-31.11 5.69,-6.86 9.22,-11.97 15.79,-17.9 15.8,-14.38 6.33,-7.21 19.04,-10.7l21.98 -39.24c-26.3,-0.2 -35.96,-3.44 -59.41,5.69 -15.94,12.56 -34.14,30.17 -52.49,47.68 -17.91,17.07 -32.62,31.55 -43.12,54.11zm-1338.66 94.09l14.08 -11.53 -29.29 76.19 45.97 17.86 -1.03 24.97c9.81,-10.21 3.97,4.31 10.84,-18.99 0.59,-2.11 0.83,-9.86 2.06,-17.02 8.34,-49.89 27.72,-35.13 39.1,-84.72l-71.63 -27.72c-1.22,-0.69 -6.08,-3.88 -7.8,-5.3 -3.77,50.33 8.2,11.73 -15.99,29.73 38.07,1.23 -1.32,-5.4 13.69,16.53zm498.81 50.58l3.38 -1.57 11.63 1.57c7.26,-11.18 6.72,-7.51 8.34,-18.45l4.32 -21.83c35.32,-5.74 17.21,-14.17 59.89,-18.64 24.48,-2.55 49.26,-1.57 63.14,-18.79l2.06 13c21.54,-20.01 18.69,-11.97 12.26,-43.71 -36.4,11.14 -54.3,9.03 -38.21,-32.57l-6.23 -1.32c-4.27,-2.41 12.51,15.55 -10.79,-7.75 -11.14,9.71 1.71,-3.44 -12.02,11.67l-97.77 138.39zm839.85 -144.67l-20.17 16.73c-21.04,20.21 -39.98,38.8 -50.92,65.29l25.51 39.35 57.45 -65.74c12.85,-16.38 11.58,-18.05 28.16,-32.28 15.25,-13.05 18.79,-15.65 26.54,-31.88 -8.2,-8.44 8.04,-13.15 -9.47,-5.84 -5.84,13.39 -3.14,8.78 -12.71,16.43 -21.63,17.42 -31.98,2.8 -44.39,-2.06zm-426.6 -8.63c48.91,-7.95 32.53,-25.32 91.39,-26.3l-10.54 15.31c0.49,20.06 2.69,20.06 -10.7,32.67l-55.63 126.62c23.65,-11.43 10.3,-1.08 25.02,-19.58 12.12,-15.2 6.77,-10.1 22.62,-24.57 18,-16.49 30.75,-32.33 41.06,-55.88l-2.41 -2.6 -29.82 22.22 34.97 -84.13 -14.96 -25.07c-33.85,-1.71 -52.78,1.96 -72.9,19.67l-18.1 21.64zm178.81 240.72c15.95,13.44 4.76,19.77 21.1,1.91l28.94 -67.01c12.17,-23.4 31.54,-57.64 36.74,-80.45 48.23,7.41 33.21,-24.19 46.71,5.88l9.22 -13.78 -20.9 -21.44c-18.4,-10.59 -25.41,10.11 -7.46,-33.99l2.55 -22.86c-23.64,14.71 -0.39,-21.59 -23.45,25.36 -16.04,32.72 -73.63,184.7 -93.45,206.38zm314.36 -240.62c-7.75,16.23 -11.29,18.83 -26.54,31.88 -16.58,14.23 -15.31,15.9 -28.16,32.28l-57.45 65.74c-24.97,28.4 -123.13,136.57 -133.09,164.09 19.28,-14.22 27.92,-20.94 43.76,-40.71l267.95 -312.99c-12.71,3.49 -3.24,-3.68 -19.04,10.7 -6.57,5.93 -10.1,11.04 -15.79,17.9 -14.08,17.08 -13.54,19.77 -31.64,31.11zm-197.46 8.88l-2.55 22.86 18.55 15.45c1.12,-17.66 -2.16,-19.72 9.42,-32.72 13.73,-15.36 1.47,-0.93 11.62,-8.34l10.4 9.71c0.98,0.69 3.73,1.96 5.45,3.14l29.28 -73.53c-11.08,-11.04 0.15,-5.5 -18.25,-6.77 -4.51,-0.35 -20.26,2.01 -26.58,2.4 -17.96,14.32 -30.57,55.09 -37.34,67.8zm-1003.99 -406.34l-3.09 18.59c19.43,-13.39 52.44,-47.09 73.83,-18.64 6.38,23.84 11.82,43.46 -7.11,58.23 -3.39,9.57 2.7,7.7 -4.37,17.37l15.85 -5.01 18.39 -18.49c0.79,-0.84 2.41,-2.75 3.78,-3.93 -1.77,-37.13 10.65,-77.21 -25.07,-87.95 -44.74,-13.54 -51.7,26.88 -72.21,39.83zm-3.09 18.59c-4.46,12.17 -15.26,45.92 -6.43,65.15 6.77,14.76 36.16,25.21 49.84,8.83 6.77,-19.13 4.17,-10.7 2.31,-18.79l-33.55 4.22c-2.41,-25.17 1.17,-33.8 11.72,-51.41 5.89,-9.81 -11.18,-11.58 28.26,-13.93 17.46,17.75 6.13,12.6 14.57,45.52 18.93,-14.77 13.49,-34.39 7.11,-58.23 -21.39,-28.45 -54.4,5.25 -73.83,18.64zm634.55 503.81c15.99,-8.09 24.53,-13.34 40.03,-20.5 -17.76,50.08 -52.84,84.77 -59.9,136.38l15.21 -1.04 5.59 -18.05c10.99,-28.6 60.24,-121.76 72.65,-135.69 0.2,-26.78 6.87,-20.06 -19.91,-20.06 -4.81,27.17 -20.95,33.85 -44.65,44.84l2.26 -51.61 -11.23 -6.67 -0.05 72.4zm-882.43 93.9l-0.98 24.77c2.89,-12.02 18.24,-34.93 28.1,-43.36l6.87 -12.86c48.37,19.92 17.47,17.66 40.62,54.16l11.82 -0.1 81.93 2.85 4.37 -13.39c-34.25,-17.22 -65.79,0.04 -99.93,4.51l4.12 -25.31 1.03 -24.97 -45.97 -17.86c-6.03,5.44 -5.35,3.14 -11.18,11.72 -2.7,3.88 -5.2,9.08 -7.31,13.3 -4.22,8.34 -12.17,24.72 -13.49,26.54zm0 0c-8.34,7.21 -13.98,-23.89 -16.39,28.21 -1.67,35.02 8.64,23.98 13.98,28.84l43.12 -11.82c15.9,-36.01 6.97,-11.43 18.3,-25.07l-31.89 -38.75c-9.86,8.43 -25.21,31.34 -28.1,43.36l0.98 -24.77zm-2.41 57.05c-17.12,27.23 -11.87,32.57 10.5,43.46 -2.3,-22.76 -4.22,-2.3 2.8,-25.06 33.5,-23.4 66.71,-11.97 63.72,-52.74 -23.15,-36.5 7.75,-34.24 -40.62,-54.16l-6.87 12.86 31.89 38.75c-11.33,13.64 -2.4,-10.94 -18.3,25.07l-43.12 11.82zm45.92 38.31c35.71,-8.29 98.46,-50.33 124.85,-69.9l-81.93 -2.85c7.36,50.53 -20.16,35.81 -55.87,66.28 5.59,7.5 -1.67,2.55 12.95,6.47zm247.78 -619.09c28.95,-8.98 17.08,-1.42 34.79,-22.03l-15.85 5.01c7.07,-9.67 0.98,-7.8 4.37,-17.37 -8.44,-32.92 2.89,-27.77 -14.57,-45.52 -39.44,2.35 -22.37,4.12 -28.26,13.93 -10.55,17.61 -14.13,26.24 -11.72,51.41l33.55 -4.22c1.86,8.09 4.46,-0.34 -2.31,18.79zm109.65 260.69c-1.82,14.42 -1.33,9.37 6.13,18.83 21.68,27.62 -4.61,-20.6 14.67,18.69 13.14,-15.35 28.4,-30.36 41.74,-46.75 -12.11,-24.38 -8.63,-13.05 -13.73,-21.43 -2.7,-4.42 -1.92,2.5 -5.94,-11.93l-27.22 10.06c-24.53,9.37 -12.17,5.84 -20.66,18.15 11.29,0.25 0.44,-1.86 5.01,14.38zm613.4 232.38l-23.45 44.88c18.3,-3.97 2.01,11.88 22.37,-15.89 8.83,-12.02 6.38,-11.82 17.42,-23.25 40.37,-41.6 17.51,-36.11 40.13,-40.72 11.43,-20.75 12.16,-23.2 27.27,-39.29 14.13,-15.02 14.67,-19.48 27.03,-33.76 17.42,-20.01 44.25,-44.34 52.15,-67.55l-66.23 67.06c-18.79,23.4 -76.43,101.99 -96.69,108.52zm-670.85 -178.81l34.68 -10.16c8.59,29.39 -6.77,24.19 4.62,29.88 0.34,-0.59 10.2,-15.7 10.3,-15.8 15.4,-10.25 -2.06,-14.47 12.41,1.47l16.24 -21.44c-19.28,-39.29 7.01,8.93 -14.67,-18.69 -7.46,-9.46 -7.95,-4.41 -6.13,-18.83 -22.57,3.33 -11.73,-0.89 -29.54,15.06 -15.84,14.22 -7.55,3.72 -20.5,21.19 -12.95,3.48 -2.26,-0.69 -7.41,17.32zm809.63 -45.48c95.47,-47.09 34.78,-14.72 82.52,-30.91l-16.59 32.48c-1.22,1.42 -2.84,2.89 -4.07,4.17l-10.25 8.09 -27.47 34.88c12.36,-3.92 7.45,3.24 24.43,-16.87l63.28 -77.51c-15.01,-3.04 -34.73,0.15 -56.12,3.63 -32.33,5.3 -46.11,15.6 -55.73,42.04zm-583.77 170.86c24.28,-4.51 10.4,-4.61 26.44,-9.95l87.03 -22.23 1.96 14.03c14.76,-13.19 9.12,-5.54 13.98,-28.11l-2.06 -13c-13.88,17.22 -38.66,16.24 -63.14,18.79 -42.68,4.47 -24.57,12.9 -59.89,18.64l-4.32 21.83zm683.06 -103.01c-17.95,44.1 -10.94,23.4 7.46,33.99l20.9 21.44 27.08 -68.19c-1.72,-1.18 -4.47,-2.45 -5.45,-3.14l-10.4 -9.71c-10.15,7.41 2.11,-7.02 -11.62,8.34 -11.58,13 -8.3,15.06 -9.42,32.72l-18.55 -15.45zm-1070.9 -202.56l10.3 5.3c0.83,0.34 3.43,1.67 4.32,2.01 21.14,8.09 -1.57,-8.39 33.55,14.47 7.11,-20.41 14.81,-22.96 23.11,-48.17 -15.06,-0.93 -19.53,3.43 -29.05,2.45 -28.11,-3.04 -12.01,3.29 -16.48,-19.57 -17.17,13.49 -18.3,20.9 -25.75,43.51zm1366.42 17.61c25.85,-6.96 82.37,-20.99 104.2,-30.36l2.89 21.09c9.91,-20.11 5.05,-17.56 -2.8,-37.53 -38.7,-6.18 -89.33,24.09 -104.29,46.8zm-599.47 168.56c-15.5,3.48 -17.02,0.15 -23.11,21.78l67.9 -14.18c1.76,-1.37 6.96,-6.62 12.31,-7.55 36.79,-6.43 14.86,-2.55 23.84,6.18 13.39,-12.61 11.19,-12.61 10.7,-32.67 -11.88,-1.82 -64.42,22.71 -91.64,26.44zm623.16 -97.82l-3.82 16.14c19.92,16.04 37.67,-6.47 42.24,-16.92l1.76 15.6c5.01,-5.2 4.96,-4.27 10.5,-12.66 3.83,-5.69 4.42,-6.82 7.41,-13.54 10.74,-23.99 6.52,-12.61 7.41,-32.33 -6.82,-14.42 -1.23,-6.87 -11.39,-4.12 -5.54,1.52 -15.89,5.94 -22.37,8.19 14.43,18.11 10.4,0.59 6.53,26.84l-11.92 6.62c-9.22,1.23 -6.97,-0.15 -15.6,-7.95 -2.5,20.9 2.01,7.17 -10.75,14.13zm-1563.53 401.82c20.9,8.25 21.93,5.5 35.42,-5.15 -14.62,-3.92 -7.36,1.03 -12.95,-6.47 35.71,-30.47 63.23,-15.75 55.87,-66.28l-11.82 0.1c2.99,40.77 -30.22,29.34 -63.72,52.74 -7.02,22.76 -5.1,2.3 -2.8,25.06zm1246.87 -310.47c6.77,-12.71 19.38,-53.48 37.34,-67.8 8.83,-16.48 0.05,-9.67 20.6,-15.7l31.35 4.42c10.79,-12.76 8.78,-10.8 13.19,-30.12 -14.22,0.78 -44.74,11.38 -59.01,16.87 13,-46.65 7.99,-11.77 -13.1,-23.79l-3.88 12.46c11.24,5.59 14.72,-12.76 5.55,20.85 -0.25,0.88 -11.33,25.02 -12.56,27.71 -7.6,16.73 -20.36,34.34 -19.48,55.1zm316.66 -91.35c12.76,-6.96 8.25,6.77 10.75,-14.13 8.63,7.8 6.38,9.18 15.6,7.95l11.92 -6.62c3.87,-26.25 7.9,-8.73 -6.53,-26.84 6.48,-2.25 16.83,-6.67 22.37,-8.19 10.16,-2.75 4.57,-10.3 11.39,4.12 8.58,-4.66 5.64,7.85 9.46,-15.99l-1.12 -17.95 -1.43 1.42c-10.25,18.93 -1.52,9.96 -25.26,16.78 -2.65,0.73 -16.63,1.81 -27.47,5.2 -13.89,21.97 -16.09,26.19 -19.68,54.25zm-646.27 119.6l-31.64 22.08c29.68,4.12 28.26,2.06 56.86,-6.67l-14.47 13.44c26.78,0 20.11,-6.72 19.91,20.06 3.68,-5.54 17.52,11.33 0.25,-40.23 23.4,6.53 19.96,11.97 20.26,-0.04l16.73 -22.82 -67.9 14.18zm622.58 -190.34c-20.9,10.99 -7.21,3.63 -14.86,15.01 39.83,-2.3 64.6,-18 110.96,-20.5l1.43 -1.42 1.12 17.95c9.08,-8.29 7.41,1.86 8.44,-20.31l-2.89 -21.09c-21.83,9.37 -78.35,23.4 -104.2,30.36zm-262.6 45.97c21.09,12.02 26.1,-22.86 13.1,23.79 14.27,-5.49 44.79,-16.09 59.01,-16.87 12.66,-8.49 2.9,14.66 13.25,-15.07l-10.99 -7.35c-1.37,-0.4 -7.65,-2.55 -9.47,-2.65 -4.85,-0.25 -46.65,6.33 -64.9,18.15zm-132.21 71.13c-18.39,3.73 -2.45,-2.75 -10.1,12.56 14.71,-1.28 21.29,-2.85 35.22,-5.1 41.4,-6.67 14.91,-12.02 26.49,6.37l10.25 -8.09c1.23,-1.28 2.85,-2.75 4.07,-4.17l16.59 -32.48c-47.74,16.19 12.95,-16.18 -82.52,30.91zm-297.53 323.73c38.02,-32.58 34.78,8.19 53.57,-47l-31.39 -0.84 -15.21 1.04 -12.31 12.7 5.34 34.1zm80.51 -221.64l14.47 -13.44c-28.6,8.73 -27.18,10.79 -56.86,6.67l-2.26 51.61c23.7,-10.99 39.84,-17.67 44.65,-44.84zm23.15 -66.08c-15.75,8.83 -3.29,1.86 -10.79,15.45 27.22,-3.73 79.76,-28.26 91.64,-26.44l10.54 -15.31c-58.86,0.98 -42.48,18.35 -91.39,26.3zm-194.66 224.14l103.42 -78.35c1.32,-1.12 2.89,-2.69 4.07,-3.82l7.8 -8.98 -11.34 0.29c-33.75,13.64 -4.61,0.99 -26.53,19.92 -30.91,26.74 -61.77,39.79 -77.42,70.94zm-203.29 1.67c10.99,-3.24 8.15,2.4 16.04,-11.43 22.28,-16.29 12.07,-4.08 23.5,-26.84 0.25,-0.44 8.15,-18.39 8.19,-18.74 2.36,-17.71 3.54,-6.47 -5.88,-16.82 -7.36,34.97 -35.18,39.58 -41.85,73.83zm-207.46 -25.51l0.74 -9.77c-20.51,-7.99 9.61,-6.03 -29.09,-3.09 -9.67,0.79 -20.36,3.09 -32.13,4.08l9.07 18.73 51.41 -9.95zm-60.48 -8.78c11.77,-0.99 22.46,-3.29 32.13,-4.08 38.7,-2.94 8.58,-4.9 29.09,3.09l-4.52 -14.61 -56.61 -1.04 -0.09 16.64zm998.94 -250.34c6.32,-0.39 22.07,-2.75 26.58,-2.4 18.4,1.27 7.17,-4.27 18.25,6.77 8.64,-5.2 6.87,10.35 7.12,-15.65l-31.35 -4.42c-20.55,6.03 -11.77,-0.78 -20.6,15.7zm-352.13 342.32l0.93 0.83c19.62,-10.2 39,-27.67 49.79,-51.17 -27.86,14.43 -37.48,26.99 -50.72,50.34zm-424.49 -7.9c22.57,-18.15 34.14,-22.81 45.62,-49.79 -11.08,6.57 -16.97,10.69 -28.55,21.73 -2.06,1.91 -11.72,12.36 -12.61,13.78 -9.07,14.67 -0.34,-5.79 -4.46,14.28zm1013.46 -75.25c-11.09,0.19 -7.75,2.79 -9.02,-8.79l-7.07 18.69 16.09 -9.9zm-604.08 102.33l16.04 -18.35 -0.93 -0.83c-21.88,17.36 -8.73,3.97 -15.11,19.18z"/>
  </g>
 </g>
</svg>
