<?xml version="1.0" encoding="UTF-8"?>
<!DOCTYPE svg PUBLIC "-//W3C//DTD SVG 1.1//EN" "http://www.w3.org/Graphics/SVG/1.1/DTD/svg11.dtd">
<!-- Creator: CorelDRAW 2017 -->
<svg xmlns="http://www.w3.org/2000/svg" xml:space="preserve" width="50.7998mm" height="33.8666mm" version="1.1" style="shape-rendering:geometricPrecision; text-rendering:geometricPrecision; image-rendering:optimizeQuality; fill-rule:evenodd; clip-rule:evenodd"
viewBox="0 0 5079.98 3386.66"
 xmlns:xlink="http://www.w3.org/1999/xlink">
 <defs>
  <style type="text/css">
   <![CDATA[
    .fil0 {fill:#373435}
   ]]>
  </style>
 </defs>
 <g id="Capa_x0020_1">
  <metadata id="CorelCorpID_0Corel-Layer"/>
  <path class="fil0" d="M3073.79 1301.41l69.41 466.62 -123.95 0 -6.6 -83.76 -43.76 0 -6.6 83.76 -125.53 0 61.56 -466.62 175.47 0zm-64.39 300.26c-5.81,-52.87 -11.89,-118.37 -18.4,-196.52 -11.98,89.67 -19.56,155.13 -22.81,196.52l41.21 0zm266.15 -215.89l-1.81 36.38c9.06,-14.45 19.79,-25.37 32.29,-32.57 12.36,-7.25 26.62,-10.92 42.55,-10.92 31.08,0 55.48,14.45 73.36,43.49 9.71,-14.45 20.72,-25.37 33.03,-32.57 12.27,-7.25 25.83,-10.92 40.89,-10.92 19.69,0 36.09,4.84 48.96,14.45 13.01,9.57 21.23,21.37 24.9,35.31 3.63,13.89 5.48,36.47 5.48,67.83l0 271.77 -112.65 0 0 -249.24c0,-32.66 -1.07,-52.78 -3.35,-60.58 -2.18,-7.76 -7.29,-11.66 -15.42,-11.66 -8.27,0 -13.57,3.81 -15.94,11.47 -2.46,7.67 -3.67,27.92 -3.67,60.77l0 249.24 -112.66 0 0 -242.83c0,-37.49 -0.88,-59.98 -2.74,-67.46 -1.76,-7.48 -6.88,-11.19 -15.14,-11.19 -5.21,0 -9.53,1.95 -13.29,5.9 -3.62,3.9 -5.58,8.73 -5.99,14.45 -0.38,5.57 -0.61,17.7 -0.61,36.05l0 265.08 -112.66 0 0 -382.25 114.47 0zm455.98 -84.37l0 110.62c9.62,-11.24 20.35,-19.56 32.25,-25.09 11.8,-5.48 24.66,-8.27 38.56,-8.27 15.93,0 29.77,2.47 41.57,7.48 11.71,5.02 20.63,11.99 26.86,21.05 6.18,9.06 9.8,17.88 11.1,26.53 1.26,8.68 1.86,27.17 1.86,55.37l0 172.45c0,28.02 -1.86,48.97 -5.62,62.63 -3.81,13.75 -12.59,25.64 -26.44,35.77 -13.93,10.13 -30.38,15.15 -49.43,15.15 -13.7,0 -26.48,-3.02 -38.37,-9.02 -11.8,-5.99 -22.72,-14.96 -32.52,-26.94l-7.48 28.89 -108.57 0 0 -466.62 116.23 0zm36.01 192.9c0,-19.75 -1.3,-32.62 -3.86,-38.75 -2.46,-5.99 -7.48,-9.01 -14.86,-9.01 -7.25,0 -11.9,2.65 -14.03,7.94 -2.19,5.21 -3.26,18.59 -3.26,39.82l0 164.87c0,20.59 1.17,33.73 3.63,39.45 2.46,5.8 7.29,8.64 14.54,8.64 7.39,0 12.22,-2.93 14.49,-8.92 2.23,-5.9 3.35,-20.26 3.35,-42.88l0 -161.16zm417.93 89.1l-150.99 0 0 82.88c0,17.28 1.26,28.48 3.72,33.5 2.56,5.02 7.39,7.48 14.54,7.48 8.97,0 14.96,-3.35 17.93,-9.94 3.02,-6.69 4.51,-19.56 4.51,-38.61l0 -50.55 110.29 0 0 28.3c0,23.69 -1.44,41.9 -4.41,54.58 -3.02,12.69 -10.04,26.25 -20.96,40.7 -10.87,14.45 -24.85,25.27 -41.67,32.57 -16.82,7.15 -37.86,10.78 -63.23,10.78 -24.57,0 -46.27,-3.53 -65.18,-10.69 -18.77,-7.11 -33.4,-16.82 -43.95,-29.22 -10.49,-12.4 -17.7,-26.06 -21.74,-40.98 -3.99,-14.86 -6.08,-36.51 -6.08,-64.99l0 -111.59c0,-33.45 4.55,-59.79 13.56,-79.17 9.06,-19.28 23.79,-34.1 44.37,-44.32 20.63,-10.36 44.23,-15.47 70.99,-15.47 32.61,0 59.56,6.23 80.79,18.59 21.27,12.4 36.19,28.8 44.73,49.29 8.55,20.35 12.78,49.15 12.78,86.22l0 50.64zm-116.19 -61.97l0 -27.92c0,-19.84 -1.07,-32.52 -3.25,-38.33 -2.14,-5.81 -6.6,-8.64 -13.29,-8.64 -8.22,0 -13.33,2.41 -15.33,7.34 -1.95,4.92 -2.93,18.12 -2.93,39.63l0 27.92 34.8 0zm269.69 -135.66l-4.14 50.32c17,-36.2 41.63,-55.24 73.78,-57.43l0 134.5c-21.37,0 -37.08,2.88 -47.11,8.69 -10.04,5.8 -16.12,13.75 -18.49,24.06 -2.28,10.22 -3.44,33.92 -3.44,71.08l0 151.03 -116.24 0 0 -382.25 115.64 0zm359.16 197.63l-150.99 0 0 82.88c0,17.28 1.26,28.48 3.72,33.5 2.55,5.02 7.39,7.48 14.54,7.48 8.97,0 14.96,-3.35 17.93,-9.94 3.02,-6.69 4.51,-19.56 4.51,-38.61l0 -50.55 110.29 0 0 28.3c0,23.69 -1.44,41.9 -4.41,54.58 -3.02,12.69 -10.04,26.25 -20.96,40.7 -10.87,14.45 -24.85,25.27 -41.67,32.57 -16.82,7.15 -37.86,10.78 -63.23,10.78 -24.57,0 -46.27,-3.53 -65.18,-10.69 -18.77,-7.11 -33.4,-16.82 -43.95,-29.22 -10.5,-12.4 -17.7,-26.06 -21.74,-40.98 -3.99,-14.86 -6.08,-36.51 -6.08,-64.99l0 -111.59c0,-33.45 4.55,-59.79 13.56,-79.17 9.06,-19.28 23.79,-34.1 44.37,-44.32 20.63,-10.36 44.23,-15.47 70.99,-15.47 32.61,0 59.55,6.23 80.78,18.59 21.28,12.4 36.2,28.8 44.74,49.29 8.55,20.35 12.78,49.15 12.78,86.22l0 50.64zm-116.19 -61.97l0 -27.92c0,-19.84 -1.07,-32.52 -3.25,-38.33 -2.14,-5.81 -6.6,-8.64 -13.29,-8.64 -8.22,0 -13.33,2.41 -15.33,7.34 -1.95,4.92 -2.93,18.12 -2.93,39.63l0 27.92 34.8 0zm391.82 -13.57l-102.67 0 0 -20.72c0,-17.7 -0.98,-28.8 -3.02,-33.54 -2,-4.74 -7.11,-7.06 -15.14,-7.06 -6.51,0 -11.43,2.14 -14.68,6.46 -3.21,4.32 -4.88,10.82 -4.88,19.46 0,11.71 0.79,20.35 2.46,25.79 1.53,5.48 6.46,11.47 14.63,17.97 8.04,6.6 24.77,16.13 50.04,28.62 33.73,16.49 55.75,32.06 66.25,46.69 10.54,14.54 15.84,35.82 15.84,63.6 0,31.18 -4.04,54.68 -12.08,70.53 -8.08,15.84 -21.56,28.1 -40.42,36.65 -18.95,8.55 -41.67,12.78 -68.43,12.78 -29.5,0 -54.87,-4.6 -75.82,-13.76 -21,-9.24 -35.49,-21.74 -43.34,-37.44 -7.86,-15.75 -11.8,-39.54 -11.8,-71.41l0 -18.35 103.22 0 0 24.07c0,20.44 1.31,33.73 3.86,39.91 2.65,6.08 7.76,9.15 15.33,9.15 8.27,0 13.99,-2.05 17.19,-6.18 3.25,-4.14 4.93,-12.87 4.93,-26.06 0,-18.31 -2.05,-29.69 -6.28,-34.34 -4.46,-4.59 -26.94,-18.25 -67.55,-40.97 -34.14,-19.19 -54.95,-36.56 -62.43,-52.31 -7.48,-15.66 -11.2,-34.24 -11.2,-55.75 0,-30.57 3.99,-53.1 12.08,-67.55 8.08,-14.54 21.74,-25.74 40.97,-33.64 19.28,-7.85 41.72,-11.8 67.18,-11.8 25.37,0 46.88,3.26 64.58,9.67 17.79,6.45 31.36,14.91 40.93,25.55 9.43,10.5 15.23,20.35 17.19,29.41 2.09,9.01 3.06,23.18 3.06,42.37l0 22.2z"/>
  <path class="fil0" d="M4622.4 2006.85c16.58,-86.6 -27.76,-54.31 65.39,-66.05 12.62,-1.59 86.31,4.17 104.97,4.91 -16.71,108.73 -88.36,97.35 -170.36,61.14zm-2434.81 37.32l-58.24 12.81 3.33 -88.75 164.66 -8.78c-16.81,108.36 2.1,82.32 -109.75,84.72zm18.34 -231.19l-224.32 0.07 -104.91 613.9 143.16 -7.43 74.68 -217.83 128.52 -5.8 -0.6 226.75 180.03 4.28c-4.82,-319.68 4.99,-153.12 46.94,-311.15 20.49,-77.19 39.07,-219.07 49.29,-309.24l-292.79 6.45zm1860.33 391.32l79.14 203.64 196.49 4.26 -136.94 -319.88c81.61,-94.64 159.83,-195.81 225.21,-291.55 -166.41,-28.41 -285.87,37.91 -315.86,193.52 -48.22,-66.81 -25.49,-27.99 -4.32,-197.55l-176.94 0.54 -106.46 618.14 170.77 -8.37c38.94,-87.77 8.4,-144.08 68.91,-202.75zm-478.35 210.72l157.39 1.79c18.42,-28.41 11.55,-5.39 29.78,-63.88l41.93 -233.89c18.64,-104.73 40.32,-215.39 54.5,-322.64l-179.36 5.15 -104.24 613.47zm-915.23 -219.14l32.08 -236.01 172.62 0.14 -49.84 308.58 -110.84 0.21c-71.16,-24.66 -28.66,7.59 -44.02,-72.92zm-95.74 -363.26l-41.97 138.87c-15.09,92.61 -102.86,387.32 -45.37,455.44 147.03,-10.17 359,27.72 481.35,-17.82l112.73 -598.85c-56.84,-10.21 -457.63,-25.21 -506.74,22.36zm800.53 558.76l75.63 -436.04c157.44,-1.51 186.88,22.67 188.86,-154.29l-71.56 0.33c-96.06,0.11 -192.18,1.38 -288.21,-0.33 -181.9,-3.27 -157.22,-23.47 -176.57,152.78l162.49 2.02 -68.74 459.38c95.75,0.56 122.83,17.9 178.1,-23.85zm-1449.33 -580.34l-519.3 6.62 -103.26 614.91 514.95 -7.8 26.5 -136.26c-98.08,-17.3 -260.41,16.54 -337.35,-25.76 39.3,-136.97 102.59,-20.71 356.74,-77.33l20.66 -141.97c-94.26,3.42 -268.42,33.62 -335.4,-15.6 24.1,-103.01 37.91,-62.93 353.39,-62.82l23.07 -153.99zm3043.19 226.08l14.89 -156.33 9.16 -88.83 -520.01 -0.3 -104.61 618.21 180.15 1.25 38.14 -233.39 162.77 -3.05 -36.89 225.75 178.79 3.04c14.66,-107.56 20.89,-295.87 77.61,-366.35z"/>
  <path class="fil0" d="M809.92 2247.12c-60.92,0.42 -44.53,-1.04 -24.48,-49.67 51.05,21.42 5.37,-16.62 31.01,23.39 0.95,1.48 -1.85,15.26 -1.33,12.34 0.64,-3.52 -3.59,9.25 -5.2,13.94zm-106.84 -313.08c-12.34,12.21 9.01,73.11 -81.16,7.44l81.16 -7.44zm32.34 64.93c0.47,-1.13 62.41,-84.44 -39.66,-113.03 -56.93,-15.96 -90.55,16.73 -119.87,35.63l26.68 84.86c17.41,2.95 27.31,5.53 37.33,7.16 -196.2,-9.67 -312.08,-181.7 -333.1,-437.19l725.92 5.54c-19.19,120.32 -54.11,196.99 -69.05,281.36 -49.31,37.13 -90.77,47.79 -94.36,99.87 -51.52,22.9 -99.83,37.72 -144.79,45.14 8.39,-3.56 6,-7.39 10.9,-9.34zm-517.33 -648.01c5.17,-68.71 -4.57,-15.12 27.5,-36.4l48.56 73.46c18.41,-34.28 18.69,-52.21 38.9,-84.45 55.89,-89.19 5.4,-23.68 64.35,-55.35l31.3 115.26c49.98,-29.97 37.73,-28.26 83.85,-68.76l68.62 105.76c-4.6,-3.6 -10.69,-8.63 -13.72,-10.89 -3,-2.24 -10.44,-8.05 -13.77,-10.49l-134.01 29.47c-11.01,-25.27 1.14,-12.15 -20.95,-43.36 -21.62,-30.56 -12.87,-13.65 -33.11,-26.95 -42.94,55.17 -41.92,44.46 -58.81,98.23 -51.33,-35.04 -39.34,-55.38 -88.71,-85.53zm273.37 -353.46c-96.98,27.51 -169.93,82.24 -218.94,139.47 -45.81,53.49 -120.17,139.46 -97.89,219.14 34.93,16.45 -1.16,21.55 43.46,-5.15l-24.28 85.75 -50.27 -79.67c-53.93,150.25 -87.54,351.33 -25.09,517.12l246.9 3.69c64.24,184.93 76.01,228.08 -11.39,338.92 40.46,58.33 38.39,22.15 48.81,105.61l3.4 86.51 505.23 -3.84c37.07,-112.8 -36.44,-107.45 68.98,-158.5 -62.98,-125.3 -108.05,-111.68 -10.59,-378.07l249.92 12.41c52,-192.62 40.99,-343.07 -23.65,-516.18 -39,31.28 -33.07,32.21 -65.26,47.91l-10.36 -45.66c170.14,13.79 -89.14,-329.64 -229.89,-338.79 -21.52,-22.91 -0.57,-16.11 -38.01,-31.24 -63.1,-25.47 -18.74,-11.64 -71.04,-10.9 -57.73,-44.92 -229.28,-43.47 -290.04,11.47zm359.18 326.36c63.85,19.97 17.54,3.21 37.62,36.42 54.45,-24.87 18.76,-0.61 65.11,-38.38l12.66 46.87c-60.37,3.62 -38.31,16.3 -41.51,57.41 -38.24,-29.62 -24.91,-11.77 -52.84,-52.82 -9.07,-13.33 -13.69,-34.33 -21.04,-49.5zm132.05 77.85l55.53 -42.76c2.95,-1.99 9.98,-5.79 12.43,-7.39 2.36,-1.53 8.03,-4.61 12.01,-6.98l-48.71 101.95 -31.26 -44.82zm-239.93 -24.23c20.35,-65.21 -11.53,-16.78 25.97,-55.33 4.73,7.03 31.71,38.96 32.68,40.42 29.79,44.91 13.5,-8.44 21,53.57l-79.65 -38.66zm-36.3 -68.37c11.03,61.88 -6.19,33.68 36.3,68.37l-20.3 39.87c-46.01,-54.2 -5.21,-41.09 -62.77,-61.35l-7.87 -88.1 54.64 41.21zm191.15 1055.31l-343.92 11.87c-101.2,-2.1 -83.93,-10.23 -114.65,-33.57l71.95 -20.94 337.39 6.82 49.23 35.82zm-379.53 -104.51c-15.22,-37.73 -9.39,-21.46 -9.66,-49.14l53.69 -18.85 -5.06 48.33 -38.97 19.66zm27.14 -148.59l-100.12 -0.8 4.11 -117.2c115.92,62.41 260.31,126.05 394.36,10.22l44.77 -15.64 -4.09 124.3 -339.03 -0.88zm93.23 76.94l61.35 34.02 -48.18 32.31 -13.17 -66.33z"/>
 </g>
</svg>
