<?xml version="1.0" encoding="UTF-8"?>
<!DOCTYPE svg PUBLIC "-//W3C//DTD SVG 1.1//EN" "http://www.w3.org/Graphics/SVG/1.1/DTD/svg11.dtd">
<!-- Creator: CorelDRAW 2017 -->
<svg xmlns="http://www.w3.org/2000/svg" xml:space="preserve" width="50.7998mm" height="33.8666mm" version="1.1" style="shape-rendering:geometricPrecision; text-rendering:geometricPrecision; image-rendering:optimizeQuality; fill-rule:evenodd; clip-rule:evenodd"
viewBox="0 0 5079.98 3386.66"
 xmlns:xlink="http://www.w3.org/1999/xlink">
 <defs>
  <style type="text/css">
   <![CDATA[
    .fil5 {fill:#00AEEF}
    .fil4 {fill:#231F20}
    .fil3 {fill:#307ABD;fill-rule:nonzero}
    .fil2 {fill:#EE423B;fill-rule:nonzero}
    .fil1 {fill:#EF4B43;fill-rule:nonzero}
    .fil0 {fill:#FFDD2F;fill-rule:nonzero}
   ]]>
  </style>
 </defs>
<symbol id="Fm1-16-0" viewBox="-3343.23 -2337.78 4259.18 1960.15">
 <path class="fil0" d="M915.95 -2337.78c-43.19,82.69 -86.38,165.38 -129.55,248.08 -2.05,3.93 -4.02,7.69 -9.25,8.07 -26.53,1.91 -53.05,3.89 -79.67,5.86 -0.68,-4.75 2.26,-7.87 3.96,-11.3 17.24,-34.66 34.63,-69.24 51.92,-103.86 1.59,-3.19 3.96,-6.13 3.93,-9.97 0.24,-0.11 0.53,-0.17 0.72,-0.34 0.12,-0.09 0.08,-0.36 0.12,-0.54 -0.26,0.31 -0.52,0.63 -0.78,0.94 -19.56,1.87 -37.79,9.13 -56.46,14.38 -168.17,47.24 -336.23,94.85 -504.31,142.42 -136.12,38.53 -272.21,77.21 -408.34,115.71 -150.72,42.63 -301.47,85.12 -452.2,127.68 -11.11,3.14 -22.19,6.41 -33.27,9.66 -5.61,1.64 -9.09,1.63 -10.44,-5.99 -4.45,-25.19 -9.52,-50.31 -15.07,-75.29 -1.71,-7.69 -0.03,-10.73 7.6,-12.8 61.63,-16.74 123.2,-33.77 184.74,-50.87 97.7,-27.13 195.38,-54.4 293.07,-81.58 102.56,-28.53 205.14,-57.01 307.7,-85.52 107.09,-29.76 214.18,-59.5 321.27,-89.26 109.18,-30.33 218.34,-60.69 327.53,-91 63.28,-17.57 126.59,-35.05 189.87,-52.62 0.95,-0.26 1.71,-1.22 2.56,-1.86l4.34 0 0.01 0z"/>
 <path class="fil0" d="M-1356.24 -573.97c0.45,0.03 0.9,0.05 1.34,0.08 2.37,-27.32 4.67,-54.67 7.13,-81.99 6.25,-69.51 12.64,-139.02 18.82,-208.54 5.42,-60.88 10.54,-121.78 15.97,-182.66 6.13,-68.8 12.45,-137.58 18.71,-206.36 0.44,-4.81 -0.04,-9 -3.14,-13.21 -19.09,-25.92 -38.05,-51.96 -56.69,-78.22 -4.13,-5.83 -6.1,-6.15 -10.46,-0.14 -19.75,27.24 -39.87,54.22 -60.11,81.1 -3.41,4.53 -3.67,8.81 -3.1,14.1 6.36,58.6 12.48,117.21 18.66,175.83 5.38,51.06 10.74,102.13 16.14,153.19 6.17,58.25 12.4,116.49 18.58,174.75 6.08,57.37 12.11,114.73 18.15,172.1l0 -0.01 0 -0.02zm-195.86 -1040.66c-5.83,-26.86 -15.08,-52.75 -23.01,-78.99 -48.96,-162.23 -98.22,-324.36 -147.36,-486.53 -0.82,-2.7 -1.44,-5.47 -2.52,-9.59 5.02,2.2 6.48,5.92 8.57,8.79 112.72,154.73 225.37,309.51 338.04,464.28 1.06,1.47 2.29,2.84 3.15,4.42 4.48,8.17 7.79,8.94 13.84,0.32 96.1,-136.8 192.59,-273.32 288.82,-410.02 27.68,-39.32 54.86,-79 82.27,-118.51 0.58,0.49 1.16,0.97 1.73,1.45 -17.36,54.76 -34.6,109.57 -52.13,164.29 -47.3,147.65 -94.7,295.26 -142.05,442.89 -0.85,2.63 -1.4,5.37 -2.62,10.12 47.51,-18.35 93.47,-36.09 141.49,-54.64 -5.75,23.37 -11.04,44.92 -16.35,66.47 -3.37,13.68 -6.28,27.52 -10.35,40.99 -2.72,8.99 -0.79,10.76 8.08,8.51 38.89,-9.84 77.86,-19.33 116.82,-28.91 57.16,-14.04 114.34,-28.04 172.29,-42.25 -2.72,5.11 -7.11,7.03 -10.68,9.71 -110.58,83.02 -221.14,166.08 -331.99,248.74 -8.23,6.14 -7.52,8.94 -0.85,15.64 68.49,68.74 136.81,137.69 203.79,207.91 4.16,4.36 8,9.01 10.88,15.7 -22.94,-3.9 -45.95,-7.4 -68.81,-11.76 -64.61,-12.34 -129.18,-24.93 -193.7,-37.7 -7.42,-1.48 -9.01,0.93 -10.08,7.84 -5.53,36.04 -11.7,72 -17.93,109.65 -29.06,-21.11 -57.26,-41.61 -85.48,-62.1 -0.92,-0.53 -1.84,-1.06 -2.76,-1.58 -0.35,-0.51 -0.71,-1.02 -1.07,-1.53 -0.13,0.32 -0.28,0.63 -0.41,0.94 0.56,0.14 1.12,0.29 1.68,0.43 -0.96,1.34 -0.16,2.35 0.64,3.36 31.52,50.69 63.05,101.38 94.59,152.07 4.58,7.35 9.2,14.67 14.24,22.71 4.35,-4.27 4.18,-9.54 5.4,-14.03 12.84,-47.07 25.65,-94.15 37.95,-141.36 2.21,-8.46 5.03,-10.82 14.05,-8.77 128.25,29.29 256.6,58.17 384.91,87.17 2.79,0.64 5.52,1.73 8.53,0.55 0.08,-4.29 -3.61,-6.05 -5.98,-8.5 -102.38,-106.04 -204.72,-212.1 -307.43,-317.8 -7.47,-7.7 -5.87,-10.22 2.1,-15.33 144.19,-92.24 288.2,-184.75 432.28,-277.17 2.67,-1.7 5.02,-4.24 9.59,-4.1 -4.36,20.99 -8.74,41.74 -12.97,62.53 -2.95,14.55 -2.85,14.56 10.87,10.09 104.48,-34 208.96,-67.98 313.45,-101.96 272.55,-88.67 545.1,-177.34 817.64,-265.99 3.37,-1.09 6.83,-1.94 11.51,-0.86 -334.73,245.15 -669.45,490.3 -1006.09,736.86 155.9,3.01 309.35,5.98 462.81,8.94 0.16,0.72 0.33,1.43 0.49,2.15 -236.91,100.07 -473.83,200.13 -712.84,301.08 42.48,27.2 83.47,53.45 124.42,79.67 0.09,3.61 -3,3.89 -4.9,4.99 -252.85,144.48 -505.77,288.86 -758.53,433.51 -7.18,4.11 -11.89,1.79 -17.72,-1.48 -122.44,-68.61 -244.96,-137.12 -367.41,-205.7 -130.04,-72.83 -260.04,-145.71 -390.06,-218.57 -1.26,-0.7 -2.48,-1.52 -3.81,-2.07 -8.38,-3.5 -6.23,-6.47 0.06,-10.23 29.19,-17.46 58.25,-35.13 87.36,-52.72 19.79,-11.96 39.57,-23.9 61.57,-37.18 -264.26,-97.42 -526.45,-194.06 -788.64,-290.72 0.14,-0.63 0.29,-1.25 0.43,-1.88 153.46,-5.5 306.91,-11 461.21,-16.53 -1.51,-4.55 -5.31,-6.13 -8.26,-8.31 -113.31,-84.22 -228.6,-165.71 -343.88,-247.17 -227.62,-160.84 -455.56,-321.2 -683.35,-481.79 -2.31,-1.63 -4.33,-3.66 -6.48,-5.52l-0.18 0.15c4.98,-1.44 9.25,1.27 13.59,2.67 396.82,128.21 793.59,256.52 1190.39,384.76 5.4,1.74 12.6,6.75 16.08,3.51 4.51,-4.2 -0.86,-11.4 -2.18,-17.2 -3.2,-14.01 -6.99,-27.88 -10.59,-41.99 4.78,-1.06 6.92,1.85 9.42,3.46 137.25,88.25 274.43,176.63 411.79,264.73 7.63,4.89 7.39,7.58 1.58,13.97 -90.83,99.94 -181.39,200.12 -271.99,300.26 -0.95,1.04 -1.79,2.17 -4.3,5.27 22,-4.36 41.85,-8.25 61.69,-12.23 106.3,-21.34 212.61,-42.6 318.85,-64.23 8.24,-1.69 10.99,0.44 13.08,8.25 12.65,47.11 25.82,94.08 38.82,141.1 0.76,2.78 1.64,5.52 2.46,8.28 3.59,0.07 3.93,-2.96 5.07,-4.84 31.99,-52.54 63.91,-105.11 95.8,-157.68 0.93,-1.53 1.53,-3.26 2.26,-4.9 0.61,-0.83 1.37,-1.74 -0.03,-2.44 -0.26,-0.13 -0.99,0.69 -1.49,1.06 -26.93,10.42 -53.98,20.55 -80.7,31.47 -7.36,3.01 -10.19,2.48 -12.74,-5.57 -6.96,-22.04 -15.12,-43.7 -22.38,-65.65 -1.96,-5.92 -4.27,-7.36 -10.81,-6.33 -75.68,11.91 -151.44,23.37 -227.17,34.9 -3.91,0.6 -7.86,0.8 -14.47,1.44 8.17,-8.93 14.71,-16.29 21.5,-23.43 59.81,-63.01 119.56,-126.07 179.64,-188.8 6.59,-6.88 7.86,-10.11 -0.82,-16.7 -114.97,-87.34 -229.6,-175.1 -344.32,-262.77 -3.06,-2.34 -5.96,-4.89 -10.86,-8.93 13.73,0.85 24.15,4.71 34.74,7.34 86.58,21.55 173.09,43.38 259.63,65.13 13.26,3.33 13.31,3.26 9.89,-9.55 -8.2,-30.71 -16.4,-61.43 -24.55,-92.15 -0.61,-2.32 -2.48,-4.58 -0.25,-8.17 7.69,3.28 15.54,6.54 23.33,9.96 37.4,16.37 74.79,32.82 112.21,49.16 2.6,1.14 5.44,1.72 8.17,2.56 0.39,0.39 1.06,1.16 1.13,1.12 1.14,-0.82 0.67,-1.43 -0.36,-1.89l0.03 0 -0.01 -0.02z"/>
</symbol>
<symbol id="Fm0-6-0" viewBox="2240.82 -2869.04 3388.53 3130.91">
 <path class="fil0" d="M5629.35 -2869.04c-32.52,62.26 -65.05,124.53 -97.55,186.79 -1.54,2.96 -3.03,5.79 -6.96,6.07 -19.98,1.43 -39.95,2.93 -59.99,4.41 -0.52,-3.58 1.7,-5.94 2.98,-8.51 12.98,-26.1 26.08,-52.13 39.1,-78.2 1.2,-2.4 2.98,-4.61 2.96,-7.51 0.18,-0.08 0.4,-0.13 0.55,-0.25 0.08,-0.07 0.06,-0.27 0.09,-0.41 -0.19,0.23 -0.39,0.47 -0.59,0.7 -14.73,1.41 -28.46,6.88 -42.52,10.83 -126.63,35.56 -253.17,71.42 -379.72,107.24 -102.5,29.01 -204.96,58.14 -307.46,87.13 -113.48,32.1 -227,64.08 -340.49,96.14 -8.37,2.37 -16.71,4.83 -25.05,7.28 -4.22,1.24 -6.85,1.23 -7.86,-4.52 -3.36,-18.97 -7.17,-37.88 -11.35,-56.69 -1.29,-5.79 -0.02,-8.08 5.72,-9.63 46.41,-12.61 92.76,-25.43 139.11,-38.3 73.57,-20.43 147.11,-40.95 220.67,-61.42 77.22,-21.48 154.46,-42.93 231.69,-64.39 80.63,-22.4 161.27,-44.81 241.91,-67.21 82.2,-22.83 164.4,-45.7 246.61,-68.52 47.65,-13.23 95.31,-26.39 142.96,-39.62 0.71,-0.19 1.29,-0.92 1.92,-1.41l3.27 0z"/>
 <path class="fil0" d="M2240.83 -2859.22c96.57,28.09 193.13,56.22 289.71,84.28 104.93,30.5 209.88,60.9 314.8,91.42 93.44,27.19 186.83,54.54 280.26,81.77 78.03,22.74 156.05,45.48 234.14,68 5.88,1.7 7.57,3.48 4.71,9.39 -3.89,8.07 -7.15,16.48 -10.16,24.93 -2.14,5.97 -5.31,7.86 -11.65,6.11 -52.42,-14.36 -104.89,-28.5 -157.36,-42.69 -66.63,-18.04 -133.24,-36.05 -199.87,-54.08 -84.46,-22.85 -168.92,-45.71 -253.39,-68.56 -135.61,-36.69 -271.21,-73.39 -406.82,-110.08 -0.77,-0.2 -1.59,-0.18 -3.84,-0.43 4.22,11.41 8.12,22.19 12.17,32.91 11.13,29.54 22.19,59.09 33.58,88.53 2.35,6.07 -0.23,6.79 -4.97,6 -15.52,-2.6 -30.99,-5.58 -46.56,-7.9 -5.01,-0.75 -4.95,-4.44 -6,-7.53 -20.13,-58.96 -40.13,-117.98 -60.33,-176.93 -2.52,-7.38 -4.25,-15.12 -8.42,-21.88l0 -3.27 -0.01 0.01 0.01 0z"/>
 <path class="fil0" d="M3918.49 -1540.97c0.34,0.02 0.67,0.04 1.01,0.06 1.78,-20.58 3.52,-41.16 5.37,-61.74 4.71,-52.34 9.51,-104.67 14.17,-157.02 4.08,-45.84 7.93,-91.7 12.03,-137.53 4.61,-51.81 9.37,-103.6 14.09,-155.38 0.33,-3.62 -0.03,-6.78 -2.37,-9.95 -14.38,-19.52 -28.65,-39.12 -42.67,-58.9 -3.12,-4.39 -4.59,-4.63 -7.89,-0.11 -14.87,20.5 -30.02,40.82 -45.26,61.06 -2.57,3.41 -2.76,6.64 -2.33,10.62 4.79,44.13 9.39,88.25 14.04,132.39 4.05,38.45 8.08,76.9 12.16,115.34 4.65,43.86 9.34,87.71 13.99,131.57 4.58,43.19 9.12,86.38 13.66,129.57l0 0.02zm-147.47 -783.57c-4.39,-20.23 -11.36,-39.72 -17.32,-59.48 -36.86,-122.15 -73.96,-244.23 -110.97,-366.34 -0.62,-2.03 -1.08,-4.11 -1.9,-7.22 3.78,1.65 4.87,4.46 6.44,6.62 84.88,116.5 169.7,233.04 254.53,349.58 0.8,1.1 1.72,2.14 2.38,3.33 3.37,6.15 5.86,6.73 10.42,0.24 72.36,-103.01 145,-205.8 217.47,-308.73 20.85,-29.6 41.31,-59.48 61.94,-89.23 0.43,0.36 0.87,0.73 1.3,1.09 -13.08,41.23 -26.06,82.5 -39.25,123.7 -35.61,111.17 -71.3,222.32 -106.95,333.48 -0.64,1.99 -1.05,4.04 -1.97,7.62 35.78,-13.82 70.37,-27.18 106.54,-41.14 -4.33,17.59 -8.31,33.83 -12.31,50.05 -2.54,10.31 -4.72,20.72 -7.79,30.86 -2.04,6.77 -0.59,8.1 6.09,6.41 29.28,-7.41 58.63,-14.56 87.95,-21.76 43.04,-10.57 86.09,-21.12 129.73,-31.81 -2.05,3.85 -5.35,5.3 -8.04,7.31 -83.26,62.51 -166.51,125.04 -249.98,187.29 -6.19,4.62 -5.67,6.73 -0.64,11.78 51.58,51.76 103.01,103.67 153.44,156.55 3.13,3.28 6.02,6.79 8.2,11.81 -17.28,-2.94 -34.6,-5.57 -51.81,-8.86 -48.66,-9.29 -97.26,-18.77 -145.85,-28.39 -5.59,-1.11 -6.79,0.7 -7.59,5.91 -4.17,27.14 -8.81,54.21 -13.51,82.57 -21.88,-15.9 -43.12,-31.33 -64.36,-46.76 -0.69,-0.4 -1.39,-0.8 -2.08,-1.19 -0.27,-0.38 -0.54,-0.77 -0.8,-1.16 -0.1,0.24 -0.21,0.47 -0.31,0.7 0.43,0.11 0.85,0.21 1.27,0.32 -0.72,1.01 -0.12,1.77 0.48,2.53 23.74,38.16 47.47,76.33 71.22,114.5 3.45,5.54 6.92,11.05 10.72,17.1 3.28,-3.21 3.15,-7.18 4.07,-10.56 9.66,-35.44 19.31,-70.89 28.58,-106.44 1.66,-6.37 3.79,-8.15 10.58,-6.6 96.57,22.06 193.21,43.8 289.82,65.64 2.11,0.48 4.16,1.3 6.42,0.42 0.06,-3.24 -2.72,-4.56 -4.5,-6.41 -77.08,-79.84 -154.15,-159.69 -231.48,-239.28 -5.62,-5.8 -4.42,-7.7 1.59,-11.54 108.57,-69.46 217,-139.11 325.49,-208.69 2.01,-1.29 3.78,-3.19 7.22,-3.09 -3.28,15.8 -6.58,31.42 -9.76,47.08 -2.22,10.96 -2.14,10.96 8.19,7.59 78.67,-25.6 157.34,-51.18 236.01,-76.78 205.22,-66.77 410.43,-133.53 615.65,-200.28 2.54,-0.82 5.14,-1.46 8.67,-0.65 -252.04,184.59 -504.07,369.18 -757.54,554.83 117.39,2.26 232.93,4.5 348.48,6.73l0.37 1.62c-178.39,75.34 -356.77,150.69 -536.73,226.7 31.99,20.48 62.86,40.24 93.69,59.99 0.07,2.72 -2.26,2.93 -3.69,3.75 -190.39,108.78 -380.82,217.49 -571.14,326.41 -5.41,3.1 -8.95,1.35 -13.34,-1.11 -92.2,-51.66 -184.44,-103.25 -276.64,-154.89 -97.91,-54.83 -195.8,-109.72 -293.7,-164.58 -0.95,-0.53 -1.87,-1.15 -2.87,-1.56 -6.3,-2.63 -4.69,-4.87 0.05,-7.7 21.97,-13.14 43.86,-26.45 65.78,-39.7 14.89,-9 29.8,-18 46.35,-27.99 -198.98,-73.35 -396.4,-146.12 -593.81,-218.9 0.11,-0.47 0.21,-0.94 0.32,-1.41 115.54,-4.14 231.09,-8.28 347.28,-12.44 -1.14,-3.43 -4,-4.61 -6.22,-6.26 -85.32,-63.41 -172.12,-124.77 -258.93,-186.11 -171.38,-121.1 -343.02,-241.85 -514.54,-362.76 -1.74,-1.23 -3.25,-2.76 -4.88,-4.15l-0.14 0.11c3.75,-1.09 6.96,0.96 10.23,2.02 298.78,96.53 597.54,193.15 896.31,289.71 4.07,1.31 9.49,5.08 12.1,2.64 3.39,-3.16 -0.65,-8.59 -1.64,-12.95 -2.41,-10.55 -5.26,-20.99 -7.98,-31.62 3.6,-0.8 5.21,1.4 7.09,2.61 103.35,66.45 206.63,133 310.06,199.33 5.74,3.68 5.57,5.71 1.19,10.51 -68.38,75.25 -136.57,150.69 -204.8,226.08 -0.71,0.79 -1.34,1.64 -3.24,3.97 16.57,-3.28 31.52,-6.21 46.45,-9.21 80.03,-16.07 160.08,-32.08 240.08,-48.37 6.2,-1.27 8.27,0.33 9.85,6.21 9.52,35.47 19.43,70.84 29.23,106.24 0.57,2.09 1.23,4.16 1.86,6.24 2.7,0.05 2.96,-2.23 3.82,-3.64 24.09,-39.56 48.12,-79.14 72.13,-118.73 0.7,-1.16 1.15,-2.46 1.71,-3.69 0.46,-0.63 1.03,-1.31 -0.02,-1.84 -0.19,-0.1 -0.74,0.52 -1.13,0.8 -20.27,7.85 -40.64,15.48 -60.77,23.7 -5.54,2.26 -7.67,1.87 -9.59,-4.19 -5.24,-16.59 -11.38,-32.9 -16.84,-49.43 -1.48,-4.46 -3.22,-5.55 -8.14,-4.77 -56.98,8.97 -114.03,17.59 -171.05,26.27 -2.94,0.45 -5.93,0.6 -10.89,1.09 6.16,-6.72 11.08,-12.27 16.19,-17.65 45.03,-47.44 90.03,-94.92 135.27,-142.16 4.96,-5.19 5.93,-7.61 -0.62,-12.58 -86.57,-65.76 -172.89,-131.84 -259.25,-197.86 -2.3,-1.76 -4.48,-3.68 -8.17,-6.72 10.34,0.64 18.18,3.54 26.15,5.53 65.19,16.22 130.33,32.66 195.49,49.03 9.98,2.51 10.02,2.45 7.44,-7.19 -6.18,-23.12 -12.35,-46.25 -18.48,-69.39 -0.46,-1.75 -1.87,-3.45 -0.18,-6.16 5.79,2.47 11.7,4.93 17.57,7.5 28.17,12.33 56.31,24.71 84.49,37.02 1.96,0.86 4.1,1.29 6.15,1.92 0.3,0.3 0.8,0.87 0.85,0.84 0.86,-0.62 0.51,-1.07 -0.28,-1.42l-0.04 0.01 0.01 0.03z"/>
 <path class="fil0" d="M5022.16 -1850.63c-71.58,136.29 -142.72,271.75 -213.87,407.21l1.16 1.89c36.23,-11.62 72.47,-23.24 110.1,-35.31 -4.48,12.28 -11.37,21.7 -17.08,31.64 -35.55,61.86 -71.42,123.53 -107.18,185.27 -51.33,88.59 -102.7,177.16 -153.97,265.79 -63.39,109.61 -126.65,219.3 -190.06,328.91 -57.13,98.76 -114.45,197.42 -171.58,296.18 -65.58,113.39 -130.99,226.86 -196.59,340.24 -52.64,90.98 -105.45,181.86 -158.17,272.79 -2.6,4.47 -5.44,8.85 -7.59,13.53 -3.12,6.74 -5.47,4.82 -8.34,-0.11 -19.7,-33.9 -39.46,-67.77 -59.22,-101.65 -27.46,-47.04 -54.94,-94.05 -82.4,-141.08 -37.34,-63.96 -74.63,-127.96 -111.99,-191.92 -30.76,-52.68 -61.59,-105.3 -92.36,-157.97 -37.49,-64.2 -74.91,-128.43 -112.42,-192.61 -34.61,-59.25 -69.32,-118.44 -103.93,-177.7 -37.36,-63.96 -74.61,-127.97 -111.97,-191.93 -34.6,-59.26 -69.31,-118.46 -103.92,-177.71 -37.36,-63.96 -74.63,-127.97 -111.98,-191.92 -30.76,-52.68 -61.59,-105.31 -92.37,-157.97 -7.02,-11.99 -14.01,-23.99 -20.92,-36.04 -0.78,-1.35 -1.86,-3.41 -1.36,-4.42 1.11,-2.25 3.25,-0.63 5.01,-0.29 34.07,6.67 68.13,13.33 103.5,20.25 -1.51,-3.34 -2.56,-5.93 -3.8,-8.41 -64.9,-129.94 -129.83,-259.87 -194.57,-389.89 -1.57,-3.15 -7.79,-7.28 0.11,-11.12 12.84,-6.23 15.72,-6.17 19.96,1.2 42.42,73.61 84.91,147.19 127.34,220.79 44.33,76.92 88.55,153.9 132.92,230.79 43.41,75.24 87.01,150.37 130.44,225.61 42.2,73.11 84.23,146.32 126.44,219.43 35.39,61.31 70.96,122.53 106.38,183.83 35.15,60.84 70.15,121.75 105.29,182.58 54.34,94.08 108.77,188.12 163.11,282.22 59.78,103.53 119.47,207.1 179.19,310.66 3.95,6.85 4.49,6.88 8.64,-0.23 59.67,-102.33 119.27,-204.7 178.98,-307 52.16,-89.37 104.48,-178.65 156.65,-268.02 61.24,-104.88 122.37,-209.82 183.57,-314.73 49.53,-84.91 99.1,-169.81 148.63,-254.72 61.2,-104.9 122.35,-209.83 183.55,-314.73 47.21,-80.9 94.49,-161.77 141.69,-242.68 27.85,-47.75 55.65,-95.53 83.29,-143.4 2.65,-4.6 5.65,-6.65 10.98,-6.51 6.47,0.18 12.85,-2.4 20.72,-0.72l0 -0.01 -0.01 -0.01z"/>
 <path class="fil0" d="M4466.12 -1154.14c-26.85,-2.46 -53.69,-4.87 -80.53,-7.39 -37.98,-3.55 -75.94,-7.17 -113.9,-10.77 -17.35,-1.64 -34.73,-3.07 -52.07,-4.96 -7.31,-0.8 -8.23,1.04 -5.46,7.71 29.98,72.43 59.72,144.97 89.51,217.48 1.3,3.18 2.41,6.44 4.4,11.79 -85.12,-52.59 -168.38,-104.04 -252.4,-155.96 -43.2,157.15 -86.16,313.41 -129.12,469.67 -0.54,-0.01 -1.07,-0.01 -1.61,-0.01 -6.69,-22.47 -13.42,-44.96 -20.1,-67.44 -38.19,-128.6 -76.37,-257.22 -114.56,-385.82 -2.87,-9.65 -2.88,-9.66 -11.81,-4.63 -79.75,44.9 -159.49,89.81 -239.26,134.67 -3.2,1.79 -6.13,4.36 -11.51,4.92 37.29,-79.82 74.2,-158.78 111.91,-239.49 -83.59,13.13 -165.44,25.98 -247.43,38.86 -0.11,-3.23 2.16,-3.56 3.61,-4.49 129.32,-83.55 258.69,-167 387.87,-250.72 6.27,-4.06 10.55,-3.81 16.77,-0.21 38.17,22.13 76.67,43.7 114.89,65.76 4.71,2.72 8.08,2.51 12.65,-0.01 40.8,-22.46 81.76,-44.63 122.56,-67.1 4.59,-2.53 7.98,-2.63 12.62,0.2 132.97,81.27 266.04,162.38 399.09,243.51 1.54,0.93 3.01,1.97 4.52,2.96 -0.21,0.5 -0.43,0.99 -0.64,1.48l0.02 0 -0.02 -0.01z"/>
 <path class="fil0" d="M4194.02 -2795.77c0.5,-0.72 0.99,-1.44 1.49,-2.16 1.05,1.16 0.44,2.21 -0.18,3.26 -0.43,-0.36 -0.86,-0.73 -1.29,-1.09l-0.01 -0.01 -0.01 0z"/>
 <path class="fil0" d="M2422.5 -2584.37c-0.41,-0.24 -0.82,-0.49 -1.23,-0.73 1,-0.54 1.38,-0.27 1.09,0.85 0,0 0.14,-0.11 0.14,-0.11l0 -0.01z"/>
 <path class="fil0" d="M3771.02 -2324.54c0.78,0.35 1.13,0.8 0.28,1.42 -0.06,0.04 -0.55,-0.55 -0.85,-0.84 0.18,-0.19 0.38,-0.39 0.57,-0.58z"/>
 <path class="fil0" d="M3975.28 -1959.4l-1.27 -0.32c0.1,-0.23 0.2,-0.47 0.31,-0.7 0.27,0.38 0.54,0.77 0.8,1.15l0.15 -0.12 0.01 -0.01z"/>
 <path class="fil0" d="M3845.69 -1957.94c0.39,-0.29 0.93,-0.9 1.13,-0.8 1.04,0.52 0.48,1.21 0.02,1.84 -0.42,-0.31 -0.8,-0.65 -1.15,-1.04z"/>
 <path class="fil0" d="M3975.13 -1959.28c0.68,0.4 1.39,0.8 2.07,1.19 -0.48,0.41 -0.95,0.81 -1.43,1.21 -0.6,-0.76 -1.21,-1.52 -0.49,-2.53 0,0 -0.15,0.12 -0.15,0.12l0 0.01z"/>
</symbol>
<symbol id="Fm0-14-0" viewBox="1939.62 -3006.45 3193.87 3130.84">
 <path class="fil1" d="M1939.64 -1301.93c11.32,11 18.92,24.79 27.81,37.55 32.87,47.26 63.64,95.98 98.9,141.58 19.02,24.58 38.97,48.35 61.48,69.87 1.46,1.4 2.53,3.49 5.91,3.42 -3.89,-14.94 -7.74,-29.68 -11.54,-44.41 -17.08,-66.16 -29.5,-133.21 -39.64,-200.74 -7.53,-50.12 -12.03,-100.41 -11.04,-151.13 0.18,-9.26 -2.74,-18.45 0.09,-27.83 1.56,-5.19 4.6,-8.34 9.37,-10.13 18.02,-6.77 40.03,6.66 41.7,25.68 2.47,28.16 3.39,56.4 6.94,84.52 10.29,81.48 21.98,162.61 45.07,241.76 26.78,91.77 63.02,179.63 107.35,264.16 33.56,63.99 74.54,123.2 118.92,180.12 27.43,35.18 55.89,69.53 85.46,102.9 22.02,24.84 46.81,47 71.91,68.74 27.1,23.46 52.85,48.61 82.12,69.4 67.35,47.86 136.3,93.3 208.22,134.07 10,5.67 13.72,13.01 10.7,26.06 -5.96,25.78 -12.58,51.41 -18.81,77.14 -1.9,7.82 -6.77,10.86 -14.52,10.34 -7.65,-0.52 -14.86,-2.9 -21.61,-6.15 -63.31,-30.47 -126.8,-60.98 -185.66,-99.38 -71.68,-46.78 -140.87,-97.33 -206.91,-151.86 -51,-42.11 -96.38,-90.05 -140.65,-139.2 -55.21,-61.28 -97.57,-130.72 -135.48,-203.35 -48.44,-92.85 -89.41,-188.99 -127.24,-286.55 -24.5,-63.19 -47.51,-126.91 -67.73,-191.63 -0.17,-0.53 -0.74,-0.92 -1.13,-1.37l0 -23.55 -0.01 -0.03 0.02 0z"/>
 <path class="fil2" d="M3584.28 -1623.13c0.02,-13.13 -4.1,-19.81 -15.23,-27.58 -6.14,-4.29 -12.98,-7.67 -17.76,-13.73 -8.79,-11.11 -19.27,-11.52 -28.55,-0.72 -4.76,5.54 -9.99,10.41 -15.95,14.58 -13.38,9.35 -18.07,21.55 -13.52,37.65 3.73,13.2 6.69,26.65 9.37,40.12 8.68,43.72 17.06,87.49 25.6,131.24 0.74,3.79 1.25,7.39 6.88,7.64 5.33,0.23 6.53,-2.55 7.77,-6.56 3.43,-11.12 7.53,-22.05 10.61,-33.26 9.72,-35.23 14.43,-71.51 21.78,-107.23 3.07,-14.92 6.36,-29.8 9,-42.13l-0.02 -0.01 0.02 -0.01zm981.67 125.63c-7.35,0.35 -14.11,-2.65 -21.2,-3.8 -35.63,-5.76 -68.21,2.74 -98.81,20.64 -22.2,12.99 -42.3,28.95 -62.24,45.05 -7.63,6.16 -13.2,13.98 -17.09,23.02 -15.78,36.71 -43.91,53.48 -83.58,52.37 -19.86,-0.56 -39.74,1.02 -59.39,-4.03 -8.86,-2.27 -17.45,0.97 -24.65,6.43 -5.75,4.35 -10.98,9.41 -16.22,14.39 -5.25,5 -10.53,9.89 -16.44,14.16 -3.27,2.37 -8.99,1.77 -9.89,6.72 -1.08,5.94 -0.74,12.05 1.62,17.79 4.05,9.83 13.18,13.97 24.62,11.27 8.5,-2 16.91,-4.66 25.53,-5.78 15.86,-2.06 31.9,-3.56 47.63,0.87 21.44,6.03 33.04,22.52 41.16,41.49 4.48,10.47 -2.64,20.65 -14.29,22.25 -8.03,1.1 -16.25,0.81 -24.36,1.45 -17.5,1.38 -24.71,9.66 -23.81,27.18 0.12,2.4 0.44,4.81 0.81,7.18 3.73,23.78 -9.17,42.79 -33.08,45.02 -31.23,2.9 -54.09,18.56 -72.8,42.23 -9.91,12.55 -19.53,25.33 -32.04,35.57 -20.83,17.08 -43.65,20.48 -68.55,10.45 -14.64,-5.9 -28.06,-13.9 -40.34,-23.81 -2.12,-1.71 -4.11,-3.56 -6.22,-5.27 -16.71,-13.54 -26.27,-10.87 -33.46,9.33 -4.84,13.65 -5.73,14.17 -20.4,11.85 -3.86,-0.61 -7.72,-1.33 -11.58,-1.94 -18.17,-2.83 -32.59,1.26 -45.69,16.28 -22.55,25.85 -50.21,28.51 -79.75,10.71 -13.41,-8.08 -26.47,-16.75 -41.07,-22.71 -23.81,-9.73 -47.45,-9.74 -71.15,0.47 -11.41,4.92 -21.77,11.58 -32.42,17.82 -72.41,42.37 -145.04,43.2 -217.41,0.07 -18.78,-11.2 -37.68,-21.55 -59.69,-24.58 -30.7,-4.23 -56.94,6.28 -80.61,24.84 -8.63,6.78 -17.76,12.56 -28.59,14.91 -24.86,5.4 -45.05,-3.4 -59.64,-23 -11.03,-14.83 -24.85,-17.68 -41.34,-15.5 -4.18,0.55 -8.26,1.7 -12.43,2.35 -13.98,2.15 -18.98,-1.64 -20.65,-15.49 -1.5,-12.4 -3.35,-13.7 -15.87,-11.37 -10.07,1.88 -18.53,6.93 -26.46,13.13 -12.4,9.69 -25.36,18.37 -40.46,23.46 -24.01,8.1 -45.7,3.79 -65.44,-11.74 -11.04,-8.68 -19.46,-19.7 -27.91,-30.74 -15.07,-19.67 -32.03,-37.09 -56.96,-43.88 -7.81,-2.14 -15.97,-2.98 -23.88,-4.82 -21.68,-5.03 -31.34,-19.16 -28.37,-41.04 0.36,-2.68 0.57,-5.41 0.66,-8.11 0.49,-17.88 -6.38,-26.26 -23.96,-28.92 -8.63,-1.3 -17.46,-1.56 -25.95,-3.43 -13.91,-3.07 -18.19,-11.55 -11.61,-24.07 17.2,-32.74 48.65,-54.54 91.9,-38.69 6.21,2.27 12.3,5.08 18.67,6.7 14.39,3.65 29.86,-7.75 31.11,-22.43 0.38,-4.47 -0.46,-8.39 -4.78,-10.84 -10.1,-5.74 -18.13,-13.98 -26.39,-21.92 -15,-14.39 -31.53,-19.65 -52.83,-14.85 -27.34,6.17 -55.29,3.73 -82.57,-2.42 -17.4,-3.92 -30.11,-13.92 -36.43,-31.7 -6.31,-17.82 -18.72,-31.64 -33.46,-43.04 -20.51,-15.86 -41.08,-31.73 -62.43,-46.42 -28.71,-19.76 -59.66,-24.9 -92.52,-10.39 -2.19,0.97 -4.54,2 -6.87,2.16 -4.87,0.34 -7.9,-2.66 -9.56,-6.88 -1.32,-3.37 0.23,-6.15 3.45,-7.32 30.27,-11.01 57.35,-29.48 88.75,-37.85 20.92,-5.57 41.2,-3.95 61.01,4.59 7.2,3.11 14.4,6.23 22.12,7.77 13.16,2.62 22.23,-2.33 27.52,-14.74 4.07,-9.54 6.34,-19.59 6.46,-29.88 0.22,-19.99 -9.66,-33.58 -27.77,-41.56 -27.58,-12.16 -56.44,-19.41 -86.42,-21.45 -38.16,-2.6 -75.97,0.41 -113.06,10.25 -17.75,4.71 -33.73,12.97 -47.16,25.66 -11.23,10.63 -24.09,12.89 -38.5,8.09 -10.92,-3.64 -20.8,-9.47 -31.01,-14.63 -7.25,-3.66 -14.49,-7.41 -21.97,-10.54 -12.87,-5.39 -25.04,-3.75 -35.15,6.06 -4.75,4.61 -6.76,2.83 -8.96,-1.79 -3.21,-6.76 -3.61,-13.9 -3.12,-21.22 1.69,-25.43 -7.26,-35.48 -32.67,-37.08 -4.8,-0.31 -9.64,-0.87 -14.34,-1.88 -18.29,-3.92 -28.4,-16.88 -25.79,-35.48 2.12,-15.17 -1.77,-25.81 -15.98,-32.61 -6.59,-3.15 -11.26,-9.04 -15.46,-15 -9.17,-13.04 -16.95,-27.08 -28.34,-38.57 -4.65,-4.71 -5.73,-10.7 -0.55,-16.18 4.97,-5.26 10.88,-4.22 15.48,-0.26 27.12,23.37 61.65,24.33 94.09,30.87 15.97,3.22 32.53,-0.58 48.23,-5.18 14.58,-4.27 21.45,-13.83 21.49,-27.68 0.06,-15.22 -6.7,-25.21 -21.34,-29.9 -16.82,-5.39 -34.5,-5.36 -51.87,-6.95 -48,-4.4 -95.88,-0.53 -143.78,2.52 -34.58,2.21 -68.79,1.04 -101.15,-13.55 -9.81,-4.43 -19.34,-9.35 -28.47,-17.33 15.61,-2.14 30.05,-4.09 44.47,-6.14 2.37,-0.33 4.71,-1.01 7,-1.73 19.4,-6.2 22.92,-20.2 8.5,-34.62 -13.91,-13.92 -29.71,-25.6 -45.63,-37.05 -13.02,-9.37 -24.93,-19.9 -36.3,-31.23 -11.46,-11.44 -15.45,-24.96 -14.62,-40.62 0.24,-4.46 2.78,-4.84 6.02,-4.59 5.21,0.41 10.03,2.27 14.36,5.08 13.05,8.51 27.96,10.85 42.89,12.89 10.32,1.41 19.17,-2.05 25.27,-10.77 2.74,-3.9 6.31,-6.15 10.35,-8.31 17.3,-9.27 35.3,-16.78 53.87,-23.1 9.98,-3.4 18.88,-8.64 18.8,-21.37 -0.05,-8.68 -4.19,-14.12 -12.47,-16.64 -7.97,-2.43 -16.14,-1.9 -24.27,-1.93 -11.22,-0.04 -22.23,-1.49 -33,-4.66 -14.99,-4.41 -24.1,-14.65 -24.79,-29.94 -1.29,-28.32 -14.92,-46.78 -39.81,-59.66 -25.6,-13.24 -31.04,-35.56 -15.89,-60.05 7.1,-11.49 16.33,-21.65 24.28,-32.64 12.27,-16.96 11.12,-23.34 -6.02,-35.57 -5.15,-3.67 -10.44,-7.17 -15.86,-10.44 -2.74,-1.65 -3.67,-3.77 -3.46,-6.72 0.32,-4.43 3.93,-2.94 6.21,-3.17 7.19,-0.73 14.43,-1.13 21.65,-1.58 15.39,-0.98 24.26,-7.44 26.83,-19.64 2.97,-14.08 -1,-23 -15.3,-30.19 -18.08,-9.11 -35.24,-19.65 -52.27,-30.51 -4.07,-2.6 -6.43,-5.81 -8.03,-10.29 -12.34,-34.69 -19.41,-69.89 -16.84,-107.2 2.8,-40.49 -1.02,-80.66 -11.27,-120.22 -4.51,-17.41 -2.58,-34.33 13.24,-46.69 4.84,-3.77 7.34,-4.72 9.2,3.02 6.26,26.13 15.22,51.37 27.5,75.32 2.87,5.59 6.53,10.84 10.3,15.89 3.6,4.81 8.2,8.3 14.76,5.51 6.24,-2.66 9.21,-7.65 9.01,-14.33 -0.43,-14.15 -1.02,-28.31 -1.56,-42.47 -0.09,-2.4 -0.55,-4.84 -0.4,-7.22 0.43,-6.76 5.41,-10.12 11.15,-6.67 8.37,5.03 15.79,10.25 19.02,21.31 12.92,44.42 36.75,83.65 61.4,122.31 15.25,23.92 31.61,47.1 50.64,68.23 4.36,4.84 8.71,9.87 15.9,13.15 -3.85,-18.61 -9.2,-35.8 -14.75,-52.93 -6.51,-20.07 -13.81,-39.83 -23.88,-58.44 -4.47,-8.27 -9.78,-15.86 -16.92,-22.17 -8.77,-7.75 -14.3,-17.88 -19.04,-28.33 -7.45,-16.45 -14.53,-33.06 -21.6,-49.68 -9.01,-21.22 -21.61,-39.3 -40.8,-52.97 -18.42,-13.12 -23.68,-36.58 -14.09,-57.23 12.15,-26.16 9.49,-50.37 -8.92,-72.59 -10.79,-13.02 -22.17,-25.45 -36.67,-34.66 -4.8,-3.04 -10.05,-6.66 -7.01,-13.8 3.01,-7.09 8.26,-11.16 16.33,-9.9 3.22,0.5 6.5,1.51 9.4,2.97 11.57,5.81 23.13,11.66 34.47,17.9 12.83,7.06 21.26,17.56 23.42,32.46 0.82,5.63 3.61,10.03 9.68,10.1 6.75,0.07 10.75,-4.72 11.51,-10.72 0.86,-6.8 0.2,-13.83 -0.14,-20.75 -2.14,-43.49 9.34,-81.53 43.91,-110.39 4.4,-3.67 8.64,-7.59 13.36,-10.79 4.71,-3.19 10.15,-4.84 14.9,-0.11 4.32,4.3 3.64,9.65 0.56,14.16 -10.98,16.09 -11.48,35.27 -15.91,53.23 -3.45,13.99 1.53,26.04 13.22,34.1 17.91,12.37 19.55,29.06 14.7,48.02 -0.75,2.91 -1.67,5.82 -2.88,8.56 -9.4,21.46 -5.19,40.46 9.87,57.8 11.84,13.63 26.12,25.16 35.32,41.08 2.25,3.88 5.54,3.18 8.31,0.42 4.21,-4.2 6.19,-9.36 6.85,-15.33 2.11,-19.22 3.01,-38.5 3.37,-57.81 0.22,-12.44 2.28,-24.56 6.83,-36.24 6.82,-17.48 19.27,-27.78 37.89,-31.04 25.94,-4.55 32.51,-11.73 35.47,-37.57 0.48,-4.2 0.94,-8.39 1.41,-12.59 3.95,-35.36 38.68,-65.24 74.35,-64.2 4.4,0.14 5.8,0.93 4.6,5.66 -7.14,28.28 -17.24,54.49 -36.98,77.34 -51.44,59.56 -69.36,129.97 -60.78,207.25 10.9,98.13 49.06,186.42 100.6,269.46 48.27,77.77 107.08,147.31 169.34,214.03 124.52,133.45 265.59,247.45 414.03,352.92 124.48,88.44 255.08,167.29 384.77,247.59 15.45,9.56 30.46,19.41 42.75,33.09 6.09,6.78 13.59,11.32 23.3,6.67 9.17,-4.39 13.85,-13.75 12.14,-24.97 -1.25,-8.12 -4.94,-15.44 -8.27,-22.86 -11.3,-25.16 -20.12,-50.98 -20.82,-78.96 -0.57,-22.88 6.17,-43.28 19.77,-61.61 15.45,-20.8 14.08,-36.79 -5.65,-53.59 -43.38,-36.98 -65.3,-85.6 -77.25,-139.81 -10.19,-46.22 -15.86,-93.26 -25.64,-139.57 -4.66,-22.11 5.31,-39.85 25.54,-49.67 2.7,-1.31 5.5,-2.44 8.3,-3.55 30.43,-12 45.12,-34.74 45.73,-67.05 0.21,-11.46 0.28,-22.91 2.96,-34.18 6.68,-28.2 26,-44.55 51.41,-55.29 31.19,-13.19 52.11,-36.25 64.11,-67.56 15.7,-40.96 13.56,-82.25 0.64,-123.27 -10.18,-32.29 -15.98,-64.88 -12.05,-98.84 3.86,-33.26 20.27,-50.85 56.51,-62.6 3.91,-1.27 4.7,0.59 5.78,3.35 3.16,8.02 -0.33,14.84 -4.04,21.4 -8.39,14.85 -12.62,30.59 -11.01,47.68 1.93,20.51 9.48,39.16 19.81,56.67 4.96,8.39 11.37,8.83 18.77,2.25 2.9,-2.58 5.28,-5.77 7.81,-8.75 4.09,-4.8 7.9,-11.22 15.26,-9.02 7.22,2.15 7.85,9.6 8.23,15.82 1.17,18.97 1.85,37.98 2.6,56.98 0.72,18.09 1.08,36.19 5.34,53.93 3.34,13.9 7.73,27.74 16.79,38.68 20.86,25.16 22.42,53.64 17.06,83.81 -3.38,19.05 -5.39,38.14 -4.6,57.6 1.29,31.83 -5.31,63.05 -8.48,94.54 -1.69,16.78 -1.92,33.2 8.44,47.81 2.81,3.96 5.7,7.85 10.13,10.14 8.71,4.51 16.18,1.09 18.65,-8.42 3.02,-11.65 5.78,-23.38 9.23,-34.91 4.1,-13.72 12.73,-23.5 27.43,-28.72 -7.82,45.76 5.87,88.2 17.02,130.58 8.81,33.48 3.35,62.81 -15.37,91.08 -18.3,27.66 -39.06,52.94 -66.03,72.55 -13.4,9.74 -27.77,17.08 -45.3,14 -4.27,-0.75 -8.13,-2.29 -11.61,-4.74 -13.73,-9.68 -13.94,-17.8 1.05,-24 23.69,-9.81 31.5,-27.52 24.69,-55.56 -6.55,-26.99 -16.84,-52.74 -25.65,-78.99 -1.9,-5.66 -3.7,-3.91 -6.52,-1.08 -12.85,12.89 -17.84,29 -19.27,46.59 -0.63,7.82 -1.31,15.64 -1.59,23.48 -0.15,3.99 -1.78,4.92 -5.54,5.01 -14.42,0.34 -25.07,-7.51 -29.29,-23.26 -7.85,-29.32 -9.41,-58.71 -0.88,-88.37 8.08,-28.09 20.01,-54.87 27.27,-83.21 8.43,-32.88 11.08,-65.93 4.62,-99.48 -0.55,-2.88 -0.69,-5.88 -2.94,-8.88 -7.51,15.09 -14.69,29.94 -22.25,44.61 -9.77,18.95 -14.91,21.36 -35.93,17.69 -16.56,-2.89 -27.96,2.23 -31.31,18.06 -11.55,54.41 -28.56,108.03 -25.64,164.73 2.17,42.01 19.6,78.55 40.9,113.56 21,34.53 50.42,59.61 87.79,75.29 32.75,13.73 58.82,34.65 70.31,69.58 11.14,33.85 5.57,66.76 -8.55,98.54 -5.02,11.29 -10.32,22.46 -13.85,34.3 -3.95,13.28 -0.54,23 9.4,29.34 6.38,4.07 12.98,4.5 18.34,-0.69 29.41,-28.47 66.17,-46.09 100.22,-67.53 118.37,-74.56 237.22,-148.34 350.72,-230.35 122.74,-88.68 241.42,-182.53 347.66,-290.51 82.66,-84.03 163.15,-170.59 224.21,-272.81 45.24,-75.76 78.08,-156.14 92.5,-243.47 14.02,-84.94 -2.79,-161.85 -61.13,-227.51 -14.54,-16.38 -22.15,-36.38 -29.03,-56.72 -2.51,-7.41 -5.22,-14.75 -7.86,-22.15 26.11,-3.17 61.01,17.15 73.92,42.74 6.18,12.25 9.35,25.42 12.08,38.68 3.56,17.24 12.69,27.94 30.44,32.86 28.52,7.91 44.1,28.5 45.85,58.17 1.04,17.71 3.99,35.32 2.39,53.24 -0.84,9.44 1.9,18.55 8.78,25.84 3.12,3.3 6.24,4.76 9.93,0.88 19.28,-20.31 34.86,-43.06 45.16,-69.21 1.93,-4.89 0.32,-10.15 -0.06,-15.25 -0.92,-12.32 -2.37,-24.59 -1.63,-37.03 1.18,-19.78 9.6,-35.78 24.02,-49 10.38,-9.52 11.72,-15.41 6.55,-28.96 -4.86,-12.72 -12.67,-23.94 -18.78,-36.04 -2.8,-5.55 -4.27,-10.96 -2.23,-17.29 2.82,-8.73 6.99,-10.63 14.63,-5.09 10.79,7.81 19.87,17.59 29.34,26.88 1.21,1.18 2.04,3.02 2.47,4.71 3.26,12.95 9.24,24.81 14.7,36.87 8.2,18.08 11.59,36.62 7.22,56.34 -1.84,8.31 -2.02,16.81 0.71,25.05 2.53,7.65 7.7,12.15 15.99,12.28 8.41,0.14 10.11,-6.25 11.66,-12.55 1.15,-4.68 1.97,-9.43 3.07,-14.12 4.59,-19.59 29.08,-31.53 47.6,-23.32 3.13,1.4 5.38,3.72 4.43,6.94 -2.12,7.11 -3.35,14.66 -9.2,20.22 -6.57,6.23 -12.55,13.03 -17.65,20.58 -11.79,17.45 -12.31,35.19 -2.23,53.67 10.2,18.69 8.62,36.76 -4.53,53.57 -60.45,77.31 -108.95,161.12 -139,254.98 -0.9,2.81 -4.34,6.54 -1.06,8.9 3.4,2.45 8.32,2.39 12.06,-0.14 4.22,-2.86 8.09,-6.29 11.86,-9.75 48.06,-44.13 77.51,-99.34 95.81,-161.17 2.64,-8.95 4.73,-18.07 7.65,-26.93 3.61,-10.97 10.81,-18.47 22.27,-21.81 5.52,-1.61 6.83,-0.14 6.47,5.28 -1.16,17.46 -1.96,34.95 -2.92,52.42 -0.43,7.7 -0.68,15.33 7.7,19.54 8.31,4.18 14.77,0.55 21.55,-4.3 19.03,-13.65 24.55,-33.39 26.17,-55.18 0.63,-8.42 1.56,-16.79 6.82,-23.98 4.17,-5.69 8.52,-6.15 13.45,-1.15 6.66,6.75 10.88,13.22 8.99,24.36 -9.96,58.45 -12.16,117.57 -13.12,176.74 -0.8,49.33 -21.2,79.31 -66.95,98.05 -3.06,1.26 -6.14,2.51 -9.1,3.98 -12.64,6.25 -16.72,14.02 -14.28,26.94 2.25,11.87 9.24,18.01 23.23,18.32 14.78,0.32 29.45,0.75 44.14,4.79 -2.02,5.93 -6.31,9.23 -11.69,11.69 -7.92,3.64 -15.94,7.21 -23.51,11.51 -13.78,7.82 -15.3,14.13 -6.08,26.81 6.55,9.01 14,17.38 21.12,25.97 5.43,6.55 10.01,13.55 12.75,21.69 5.92,17.59 1.9,32.63 -11.53,45.24 -5.78,5.44 -12.81,8.9 -19.76,12.59 -17.45,9.28 -28.61,23.18 -29.2,43.56 -0.75,25.91 -6.83,43.54 -48.21,44.97 -11.13,0.38 -22.29,1.27 -33.34,2.73 -12.7,1.69 -17.08,14.2 -8.84,24.22 3.76,4.57 8.82,7.34 14.31,9.12 24.06,7.82 45.89,19.6 65.6,35.5 10.81,8.73 23.13,9.17 35.95,4.9 15.31,-5.1 28.59,-14.07 42.43,-22.01 3.32,-1.9 6.64,-3.8 10.81,-6.19 1.06,13.5 -1.41,25.34 -6.44,36.67 -4.33,9.73 -10.08,18.81 -17.94,25.88 -23.49,21.12 -44.34,45.24 -70.96,62.83 -6.54,4.32 -11.82,9.56 -10.41,18.47 1.42,9 7.01,14.6 15.15,17.58 13.65,4.99 27.98,3.49 42.12,3.91 3.73,0.11 8.89,-2.43 10.28,4.1 1.47,6.95 -3.92,7.68 -8.32,9.49 -8.9,3.68 -18,7 -26.56,11.35 -32.68,16.59 -66.1,20.62 -102.51,13 -48.12,-10.08 -97.21,-8.89 -146.09,-4.6 -13.2,1.16 -26.46,2.55 -39.48,4.96 -19.33,3.58 -27.78,14.66 -26.95,33.46 0.64,14.4 8.8,23.77 25.16,27.79 26.43,6.51 52.71,4.61 78.67,-2.74 19.77,-5.59 38.69,-13.32 56.36,-23.96 1.8,-1.08 3.74,-1.92 5.65,-2.83 5.12,-2.45 9.39,-1.06 12.92,3.06 3.73,4.35 3.47,9.12 0.06,13.24 -7.88,9.54 -15.81,19.05 -24.29,28.04 -12.54,13.28 -23.16,27.62 -30.13,44.7 -3.86,9.44 -8.83,18.48 -13.91,27.35 -11.69,20.41 -29.4,31.63 -53.07,32.19 -8.04,0.19 -10.16,3.37 -8.51,10.62 0.6,2.63 0.72,5.38 0.92,8.09 1.17,15.83 -4.92,26 -20.52,26.04 -27.14,0.06 -50.21,10.69 -73.61,21.99 -13.92,6.72 -28.82,8.75 -43.99,3.98 -3.35,-1.05 -6.72,-2.02 -8.65,-5.82 -5.82,-11.48 -15.98,-17.76 -27.79,-21.63 -39.16,-12.87 -79.36,-17.54 -120.43,-14.84 -25.33,1.67 -50.29,5.89 -74.86,12.26 -36.25,9.39 -52.72,33.87 -46.06,67.96 4.74,24.26 22.35,33.14 44.26,21.84 10.46,-5.4 20.65,-11.21 32.24,-13.86 22.35,-5.12 42.72,0.61 61,13.05 13.62,9.27 28,16.17 43.45,21.62 12.08,4.27 23.85,9.81 31.3,21.26l-0.08 0.08 0.12 -0.04 -0.04 -0.01 0.13 -0.02z"/>
 <path class="fil2" d="M2987.12 -344.12c3.53,2.43 6.67,4.7 9.91,6.8 24.45,15.89 48.9,15.12 69.07,-5.83 15.81,-16.41 35.45,-24.56 55.23,-33.13 8.42,-3.65 13.07,-7.74 13.06,-17.76 -0.03,-25.95 12.26,-46.68 29.73,-64.89 13.59,-14.15 29.21,-26.07 44.51,-40.1 -11.81,-5.15 -23.73,-5.7 -35.3,-7.63 -10.71,-1.78 -21.44,-3.38 -31.35,-8.16 -2.66,-1.29 -6.03,-2.35 -6.13,-5.94 -0.1,-3.62 3.12,-4.71 5.85,-6.06 11.75,-5.8 11.67,-5.81 4.73,-17.16 -2.13,-3.48 -5.51,-7.01 -3,-11.54 2.44,-4.42 7.09,-3.98 11.28,-4.06 9.65,-0.16 19.44,0.85 28.93,-0.44 27.34,-3.73 45.42,-19.6 48.55,-48.2 3.58,-32.73 21.88,-51.85 48.61,-66.85 39.94,-22.42 81.28,-42.13 121.57,-63.85 16.71,-9 33.34,-18.21 49.03,-28.94 25.24,-17.25 29.95,-29.3 23.37,-59.22 -2.33,-10.59 -5.15,-21.08 -7.17,-31.73 -3.12,-16.46 2.14,-29.69 16.35,-39.03 2.51,-1.65 5.08,-3.24 7.6,-4.89 20.62,-13.61 19.53,-37.85 -2.33,-49.76 -10.93,-5.95 -23.15,-8.46 -34.81,-12.47 -4.43,-1.53 -8.9,-2.9 -13.65,-4.44 2.5,-5.17 6.67,-7.2 10.96,-8.21 13.28,-3.14 25.35,-9.32 37.86,-14.38 9.2,-3.72 18.66,-5.48 28.32,-3.53 31.52,6.35 63.57,6.4 95.43,8.75 24.37,1.79 48.75,3.61 73.09,5.67 8.42,0.71 15.78,4.1 20.79,11.28 2.14,3.08 5.04,5.1 8.01,7.19 84.17,59.38 130.22,140.72 141.23,242.86 2.95,27.36 -5.69,49.77 -22.96,69.77 -20.87,24.14 -45.97,43.52 -71.51,62.32 -18.21,13.41 -36.69,26.47 -55.17,39.49 -12.89,9.08 -24.33,8.69 -37.97,-1.28 32.03,-18.86 54.86,-46.91 77.57,-75.07 2.27,-2.81 4.45,-5.71 6.44,-8.73 4.14,-6.23 5.63,-12.78 0.88,-19.34 -4.77,-6.58 -11.14,-9.91 -19.54,-8.65 -5.53,0.83 -10.25,3.47 -14.83,6.36 -9.99,6.33 -19.51,13.56 -26.96,22.64 -27.27,33.23 -63.15,54.74 -100.41,74.14 -20.91,10.89 -33.15,25.76 -33.6,50.13 -0.39,21.56 -10.8,36.48 -32.46,42.42 -7.53,2.06 -11.39,7.8 -12.31,15.22 -1.93,15.55 1.17,30.63 5.3,45.49 1.84,6.65 7.12,8.61 13.5,7.7 5.37,-0.77 10.64,-2.27 16.02,-2.75 9.32,-0.84 11.62,2.13 9.07,11.07 -2.65,9.32 -7.14,17.85 -11.36,26.51 -7.78,15.95 -4.9,23.29 11.96,28.48 5.54,1.7 8.04,4.65 8.84,9.87 0.55,3.57 1.03,7.15 1.61,10.71 3.86,23.39 16.97,31.36 39.4,23.72 6.31,-2.15 12.51,-4.3 19.34,-3.78 6.8,0.52 12.43,2.93 15.12,9.56 2.63,6.45 -1.39,10.96 -5.43,15.12 -17.63,18.11 -39.5,27.73 -64.34,29.51 -49.33,3.52 -93.64,-10.06 -131.89,-41.8 -19.33,-16.03 -31.13,-37.34 -39.22,-60.64 -5.61,-16.16 -12.96,-19.57 -27.43,-10.55 -13.22,8.25 -20.81,20.77 -21.14,36 -0.73,33.93 -7.56,67.11 -10.74,100.72 -0.97,10.24 -1.3,20.51 -0.09,30.73 3.2,27.03 18.26,45.73 42.56,56.38 16.53,7.26 30.64,16.76 43.63,29.5 21.59,21.16 45.54,22.54 66.91,6.48 14.75,-11.09 19.44,-25.48 13.98,-43.12 -3.15,-10.18 -8.8,-19.06 -14.97,-27.71 33.93,-13.48 67.38,-0.75 82.5,31.43 3.97,8.43 6.94,17.33 10.88,25.78 5.08,10.91 11.04,13.76 22.56,10.43 6.44,-1.86 11.71,-0.38 17.12,2.76 9.12,5.28 18.13,10.7 28.4,13.68 12.32,3.57 23.19,1.31 32.97,-6.88 7.5,-6.28 13.41,-13.94 18.55,-22.11 8.8,-14.02 16.39,-28.73 25.99,-42.33 7.33,-10.39 4.98,-19.74 -5.2,-27.59 -5.24,-4.04 -11.16,-7.24 -16.21,-11.49 -7.25,-6.11 -8.53,-14.13 -3.95,-20.88 5.03,-7.4 11.79,-5.74 18.6,-3.25 1.41,0.52 2.78,1.15 4.16,1.75 15.8,6.91 18.45,6.32 25.12,-9.86 3.13,-7.6 10.8,-10.8 13.91,-18.53 4.73,-11.77 9.33,-23.81 17.13,-34.63 -0.81,8.75 5.68,14.63 7.81,22.29 4.19,14.96 -1.57,28.49 -3.71,42.59 -3.63,24.01 -2.14,48.19 -2.07,72.31 0.06,16.92 -0.39,33.76 -3.28,50.5 -4.61,26.64 -18.47,46.64 -41.8,60.3 -15.7,9.19 -32.84,14.97 -49.59,21.67 -10.09,4.04 -19.93,8.5 -29.18,14.26 -72.05,44.87 -149.95,54.99 -232.21,39.12 -21.59,-4.17 -43.05,-8.76 -62.9,-18.94 -6.31,-3.24 -13.33,-5 -19.36,0.84 -6.3,6.1 -8.14,14.39 -4.58,21.72 10.98,22.58 27.61,44.16 57.63,40.55 4.16,-0.5 8.55,-1.12 10.89,3.96 2.59,5.63 0.39,10.15 -3.55,13.82 -13.34,12.41 -29.2,17.27 -46.78,12.41 -16.27,-4.5 -31.16,-11.82 -44.29,-23.24 -36.67,-31.88 -74.58,-62.33 -115.32,-88.88 -15.94,-10.39 -32.29,-19.51 -43.69,-35.51 -5.54,-7.78 -14.8,-9.73 -24.11,-10.64 -17.93,-1.75 -31.75,-14.33 -32,-32.22 -0.47,-34.32 -11.4,-65.65 -24.18,-96.68 -6.99,-16.99 -13.9,-34 -18.58,-51.82 -3.37,-12.8 -12.33,-18.81 -24.87,-20.14 -13.79,-1.45 -27.61,-2.73 -41.45,-3.83 -15.91,-1.27 -33.45,-21.36 -32.1,-37.14 0.32,-3.74 2.38,-6.16 6.3,-6.46 3,-0.23 6.04,-0.1 9.04,-0.38 9.88,-0.91 14.79,-6.77 12.97,-16.52 -1.38,-7.37 -3.9,-14.52 -5.83,-21.79 -1.89,-7.07 -2.46,-14.1 1.12,-21.47l0.03 0.03 -0.02 0.04z"/>
 <path class="fil1" d="M4842.32 -1052.43c15.31,-13.9 29.1,-28.91 42.3,-44.5 44.34,-52.37 80.85,-110.36 119.62,-166.71 12.43,-18.08 25.26,-35.89 37.9,-53.81 0.71,0.29 1.43,0.57 2.14,0.85 -2.65,9.49 -5.08,19.05 -7.98,28.47 -20.8,67.4 -44.73,133.68 -70.14,199.45 -35.53,92 -74.15,182.65 -118.93,270.55 -30.81,60.51 -64.04,119.65 -105.62,173.63 -18.05,23.42 -37.73,45.48 -57.65,67.27 -25.04,27.37 -51.07,53.78 -78.11,79.26 -41.38,38.97 -86.34,73.38 -132.08,106.84 -35.28,25.81 -70.78,51.34 -106.78,76.11 -41.82,28.79 -87.56,50.87 -132.35,74.5 -22.66,11.95 -45.51,23.56 -69.06,33.69 -3.01,1.29 -6.26,2.14 -9.47,2.93 -15.12,3.75 -19.45,1.15 -23.11,-13.85 -5.64,-23.08 -11.31,-46.16 -16.85,-69.27 -4.1,-17.08 -0.8,-22.79 14.49,-31.28 37.97,-21.11 74.29,-44.93 110.65,-68.65 42.92,-28 86.46,-55.17 125.23,-88.95 40.91,-35.64 83.67,-69.54 119.73,-110.21 69.48,-78.35 134.82,-160.02 187.49,-250.96 36.19,-62.48 65.99,-128.04 91.83,-195.43 26.37,-68.75 46.58,-139.27 60.29,-211.62 6.67,-35.17 10.53,-70.74 15.67,-106.14 5.41,-37.28 8.13,-74.73 10.68,-112.25 1.27,-18.64 25.01,-31.89 42.38,-24.55 8.52,3.61 10.22,11.18 9.71,18.71 -2.45,36.06 -0.73,72.22 -4.48,108.32 -7.09,68.3 -19.05,135.72 -33.13,202.83 -6.92,32.99 -14.9,65.72 -24.43,98.07 -0.59,2 -1.5,3.93 0.06,6.73l0.02 -0.02 -0.02 -0.01z"/>
 <path class="fil1" d="M4546.07 -2446.09c-0.18,14.2 -12.15,30.45 -23.2,33.45 -10.8,2.93 -18.89,-2.4 -25.53,-9.89 -58.17,-65.53 -126.49,-119.28 -195.86,-172.24 -69.11,-52.77 -147.5,-87.54 -225.2,-124.12 -43.09,-20.29 -86.52,-39.78 -130.76,-57.47 -44.33,-17.72 -90.88,-27.85 -136.97,-39.38 -48.73,-12.2 -98.13,-21.45 -148.06,-27.17 -26.89,-3.08 -53.93,-4.93 -81.01,-6.25 -36.74,-1.78 -73.48,-3.96 -110.24,-2.88 -52.64,1.55 -105.14,4.88 -157.45,11.85 -96.11,12.81 -189.88,34.91 -281.23,67.27 -99,35.08 -192.69,81.07 -281.15,137.74 -67.17,43.04 -130.07,91.54 -188.7,145.7 -19.75,18.24 -38.51,37.41 -57.64,56.26 -19.44,19.14 -33.73,17.03 -46.8,-7.01 -5.89,-10.84 -4.97,-15.82 3.66,-26.05 32.6,-38.64 69.94,-72.38 108.67,-104.62 50.29,-41.86 101.63,-82.39 156.62,-118.01 84.84,-54.94 174.63,-99.98 269.66,-134.63 78.22,-28.52 158.08,-51.07 239.92,-66.32 41.37,-7.71 83.06,-13.45 125.05,-17.15 40.26,-3.54 80.54,-4.98 120.93,-5.57 40.39,-0.58 80.75,-0.04 120.99,2.67 58.22,3.91 116.02,11.37 173.46,22.17 93.39,17.56 183.07,47.37 270.65,83.08 103.69,42.28 200.27,97.89 290.93,163.82 71.71,52.15 136.85,111.61 198.5,175.12 6.04,6.22 10.66,13.06 10.78,19.67l-0.01 -0.02 -0.01 -0.02z"/>
 <path class="fil2" d="M3365.2 -826.26c7.31,-16.38 15.31,-31.88 20.68,-48.55 6.83,-21.2 8.29,-42.34 1.32,-63.89 -4.38,-13.58 -2.02,-15.83 12.04,-16.08 16.81,-0.3 28.75,6.51 36.79,21.32 5.95,10.96 11.19,22.08 12.28,34.6 2.22,25.43 -9.78,45.11 -34.13,57.27 -15.45,7.72 -32.96,8.63 -48.98,15.32l0.01 0 -0.01 0.01z"/>
 <path class="fil2" d="M4566.03 -1497.58c0.43,0.18 0.87,0.35 1.3,0.54 -0.29,0.24 -0.57,0.48 -0.86,0.73 -0.18,-0.4 -0.35,-0.79 -0.53,-1.18 0,0 0.08,-0.07 0.08,-0.07l0 -0.01 0.01 -0.01z"/>
</symbol>
<symbol id="Fm1-8-0" viewBox="11986.88 241.4 3130.83 3130.9">
 <path class="fil3" d="M15117.71 1811.6c-2.56,862.39 -702.41,1560.7 -1565.4,1560.7 -864.59,0 -1565.43,-700.87 -1565.43,-1565.47 0,-864.56 700.84,-1565.43 1565.43,-1565.43 862.99,0 1562.84,698.31 1565.4,1560.67l0 9.53z"/>
</symbol>
<symbol id="Fm0-38-0" viewBox="88219.81 -56347.85 3130.93 3130.9">
 <path class="fil3" d="M91350.74 -54782.43c0,864.6 -700.85,1565.48 -1565.45,1565.48 -864.6,0 -1565.48,-700.88 -1565.48,-1565.48 0,-863.79 699.58,-1564.12 1563.09,-1565.42l4.77 0c863.52,1.29 1563.06,701.63 1563.06,1565.42l0.01 0z"/>
</symbol>
<symbol id="Fm2-18-0" viewBox="56713.48 241.41 3130.9 3130.9">
 <path class="fil3" d="M59844.38 1806.84c0,864.59 -700.87,1565.47 -1565.43,1565.47 -864.59,0 -1565.47,-700.87 -1565.47,-1565.47 0,-864.56 700.87,-1565.43 1565.47,-1565.43 864.56,0 1565.43,700.87 1565.43,1565.43z"/>
</symbol>
<symbol id="Fm1-63-0" viewBox="56674.86 241.39 3130.86 3130.9">
 <path class="fil3" d="M59805.72 1806.83c0,864.59 -700.87,1565.46 -1565.43,1565.46 -863.81,0 -1564.13,-699.57 -1565.43,-1563.08l0 -4.77c1.29,-863.48 701.63,-1563.05 1565.43,-1563.05 864.56,0 1565.43,700.87 1565.43,1565.43l0 0.01z"/>
</symbol>
 <g id="Capa_x0020_1">
  <metadata id="CorelCorpID_0Corel-Layer"/>
  <g id="_1895906763728">
   <g>
    <path class="fil4" d="M1703.11 1999.81c0,61.07 26.1,116.05 96.91,88.53 98.3,-38.2 -25.51,-400.82 83.05,-486.36 46.93,-36.99 118.54,-19.66 148.11,18.27 33,42.34 27.97,106.88 27.82,163.87 -0.38,147.17 -28,308.83 66.84,309.18 74.15,0.27 67.34,-62.07 66.99,-127.91 -0.34,-63.29 0.02,-126.61 -0.15,-189.9 -0.15,-59.55 -2.63,-121.65 31.07,-160.99 30.83,-36 99.57,-45.67 144.01,-11.98 113.88,86.34 -20.97,457.11 90.36,487.92 70.39,19.49 90.49,-30 90.49,-90.63 0,-250.54 49.33,-539.21 -232.94,-539.21 -117.58,0 -128.28,34.3 -189.81,75.19 -51.75,-38.64 -79.04,-75.19 -181.18,-75.19 -290.17,0 -241.57,274.49 -241.57,539.21z"/>
    <path class="fil4" d="M2833.89 1591.65c107.05,-39.78 173.85,32.24 178.33,132.79 4.22,94.95 11.19,210.44 -72.41,243.92 -110.08,44.1 -182.54,-30.11 -186.21,-131.97 -3.79,-104.87 -10.52,-210.99 80.29,-244.74zm-77.1 454.54c66.12,55.24 165.29,77.08 264.46,29.56 189.39,-90.75 136.79,-448.37 69.04,-531.28 -49.02,-59.99 -158.47,-99.45 -272.91,-78.21 -234.13,43.45 -199.75,278.92 -199.75,507.67 0,96.59 -20.33,293.54 37.67,317.11 138.31,56.24 88.79,-163.72 101.49,-244.85z"/>
    <path class="fil4" d="M4658.08 1717.23c5.45,-83.06 38.64,-135.27 125.05,-134.61 82.61,0.63 117.25,56.94 120.8,134.61l-245.85 0zm3.22 112.17c75.13,0 150.26,-0.13 225.38,0.01 87.13,0.15 150.97,19.06 150.97,-79.8 0,-175.22 -73.63,-289.01 -254.51,-289.01 -255.6,0 -260.96,195.56 -260.96,366.66 0,324.14 338.91,313.56 446.28,211.25 25.9,-24.68 82.72,-87.51 29.22,-132.85 -52.94,-44.86 -98.19,13.04 -124.01,38.04 -85.65,82.87 -227.51,19.25 -212.37,-114.3z"/>
    <path class="fil4" d="M4184.65 1590.04c114.11,-39.48 162.39,43.85 188.17,53.67 86.9,33.12 121.92,-66.13 66.46,-119.59 -109.65,-105.69 -485.11,-97.83 -430.51,180.66 34.58,176.42 262.8,114.96 325.23,157.5 63.93,43.57 -0.41,117.31 -85.97,117.99 -107.3,0.86 -131.33,-67.59 -168.99,-79.03 -71.81,-21.83 -118.9,64.12 -54.88,124.44 84.75,79.85 251.48,103.08 369.13,41.73 117.67,-61.37 130.8,-249.69 17.06,-315.82 -57.17,-33.23 -130.92,-27.11 -202.87,-39.01 -97.74,-16.16 -86.17,-100.63 -22.83,-122.54z"/>
    <path class="fil4" d="M3215.59 1904.91c20.65,112.56 97.19,181.66 215.68,194.38 354.17,38.01 295.11,-329.84 295.38,-531.07 0.09,-66.03 -23.69,-127.25 -98.97,-94.5 -102.17,44.46 55.06,460.55 -122.07,500.68 -242.55,54.96 -135.33,-319.7 -163.66,-456.73 -13.59,-65.71 -101.77,-61.87 -123.06,-21.02 -19.15,36.75 -12.95,355.65 -3.3,408.26z"/>
    <path class="fil4" d="M3810.09 2051.58c14.78,53.8 124.98,74.64 129.99,-33.89l-3.2 -732.57c-15.14,-61.19 -127.11,-79.6 -131.16,32.45l4.37 734.01z"/>
    <path class="fil4" d="M1489.55 2017.07c0,97.05 135.92,115.91 135.92,-8.63l0 -457.26c0,-113.47 -135.92,-118.36 -135.92,8.63l0 457.26z"/>
    <path class="fil4" d="M1534.28 1222.25c-47.22,15.15 -65.23,44 -51.88,110.34 9.33,46.35 58.17,63.22 103.49,49.77 85.64,-25.43 59.41,-195.73 -51.61,-160.11z"/>
   </g>
   <g>
    <path class="fil5" d="M318.98 1711.37c29.35,-83.92 50.14,-176.81 74.21,-262.59 11.33,-40.38 17.2,-104.16 60.63,-109.02 54.97,-6.16 52.34,65.09 57.8,108.33 13,102.96 54.24,535.95 78.54,598.38 15.55,-25.34 95.57,-780.68 112.09,-918.34 7.56,-63.05 50.82,-144.72 -204.69,-66.4 -269.17,82.51 -442.27,319.44 -454.89,584.84 -4.04,84.86 28.41,66.93 107.42,66.48 54.68,-0.32 115.07,2.66 168.89,-1.68z"/>
    <path class="fil5" d="M656.47 2330.37c155.12,37.65 361.27,-66.86 452.22,-139.71 96.65,-77.43 242.07,-275.93 219.11,-375.83l-245.87 -9.12c-57.8,19.04 -78.33,351.95 -175.75,274.95 -27.7,-21.9 -97.96,-541.66 -114.89,-652.35 -4.93,-32.29 -5.8,-63.28 -22.14,-86.38 -21.87,121.76 -124.43,916.77 -112.68,988.44z"/>
    <path class="fil5" d="M948.22 1849.9c37.23,-36.32 35.25,-108.59 70.68,-129.9 71.19,-24.34 272.14,16.77 319.71,-15.11 52.14,-45 -32.07,-314.46 -135.19,-439.04 -59.58,-71.97 -215.75,-215.25 -369.54,-221.02 -15.45,60.88 100.21,685.87 114.34,805.07z"/>
    <path class="fil5" d="M67.61 1813.74c-35.26,136.47 260.9,507.25 460.01,485.36 11.17,-42.67 -68.35,-645.53 -85.71,-722.07 -27.52,53.92 -33.75,159.67 -56.14,218.39 -80.92,25.39 -258.1,-9.51 -318.16,18.32z"/>
    <path class="fil5" d="M3230.68 2351.43c24.71,-21.62 12.77,-56.02 16.81,-101.38 26.54,26.51 30.23,55.29 49.01,76.55 27.34,-8.27 20.48,-4.27 35.84,-34.54 13.72,-27.04 7.58,-24.09 26.74,-44.73 0.77,40.17 -5.16,76.37 10.16,104.1 31.5,-25.09 16.42,-153.49 7.62,-167.77 -28,8.41 -27.74,21.92 -42.63,49.72l-31.91 49.13c-0.79,-1.52 -3.42,3.54 -5.22,5.21 -10.76,-33.67 -36.65,-95.56 -66.91,-104.62 -19.86,32.65 -14.87,142.64 0.49,168.33z"/>
    <path class="fil5" d="M4149.04 2267.26c0,-88.82 79.79,-72.96 79.79,-17.25 0,35.98 1.35,50.02 -16.28,78.07l-46.82 -4.19c-10.46,-15.06 -16.69,-29.93 -16.69,-56.63zm100.83 51.77c52.96,-127.33 -83.11,-181.63 -118.85,-107.96 -58.85,121.31 82.62,195.07 118.85,107.96z"/>
    <path class="fil5" d="M3491.17 2209.02c32.71,-3.21 58.1,3.5 83.33,-10.78 -3.73,-6.17 13.6,-15.14 -25.09,-15.14 -63.53,0 -86.28,-7.99 -86.28,41.03 0,102.4 -12.09,127.3 43.14,127.3 95.69,0 61.48,-3.23 68.23,-15.15 -25.23,-14.27 -50.62,-7.56 -83.65,-10.78l1.93 -45.84c31.76,-2.55 47.51,4.97 70.95,-12.4 -22.21,-22.08 -29.57,-9.83 -72.56,-16.2l0 -42.04z"/>
    <path class="fil5" d="M3705.76 2241.91c-36.64,-27.39 -22.31,-39.16 -60.39,-59.34 -13.01,24.36 19.15,53.23 35.05,84.69 -19.51,35.77 -52,52.47 -36.15,84.7 31.24,-12.6 9.23,2.1 29.92,-28.67 0.27,-0.41 14.82,-20.57 15.02,-20.77 16.37,-16.33 -8.08,1.5 19.22,-13.11 10.04,27.11 22.71,52.88 48.07,62.55 14,-28.02 -18.38,-54.96 -35.86,-84.7 11.22,-26.93 12.42,-21.36 27.17,-44.21 11.06,-17.13 20.53,-50.6 -8.23,-32.94l-33.82 51.8z"/>
    <path class="fil5" d="M3959.24 2267.26c0,-25.42 6.34,-42.04 15.14,-57.68 72.18,-13.8 34.87,21.31 80.85,19.97 -4.16,-66.09 -121.88,-80.48 -121.88,29.09 0,155.97 148.41,92.11 115.97,36.61 -24.77,14.89 -11.07,10.45 -29.88,34.59l-44 -5.95c-10.17,-15.02 -16.2,-30.49 -16.2,-56.63z"/>
    <path class="fil5" d="M4444.56 2267.26c0,-115.9 64.29,-39.45 95.96,-35.56 -1.26,-65.65 -121.88,-95.7 -121.88,44.19 0,118.42 150.55,84.94 114.87,22.65 -11.5,2.78 -88.95,91.04 -88.95,-31.28z"/>
    <path class="fil5" d="M4939.5 2350.86c32.09,-34.85 -3.79,-44.69 30.54,-95.41 42.76,-63.17 43.29,-46.13 28.83,-72.88 -24.88,11.51 -13.02,3.99 -32.68,34.45l-30.96 34.57c-10.83,-23.53 -27.85,-58.77 -53.98,-67.4 -8.33,38.05 15.82,48.86 34.44,80.09 24.07,40.39 -1.48,53.97 23.81,86.58z"/>
    <path class="fil5" d="M4826.32 2200.99c-12.44,-19.32 14.9,-17.89 -86.31,-17.89 -26.2,0 -24.31,2.07 -38.85,11.38 21.54,18.29 10.54,12.07 49.58,12.39 0,63.12 -9.55,118.21 14.1,143.47 17.77,-21.38 12.24,-29.36 12,-65.75 -0.17,-25.2 -0.17,-50.37 -0.13,-75.27l49.61 -8.33z"/>
    <path class="fil5" d="M4627.85 2185.26c-23.91,20.05 -15.2,39.11 -15.2,82 0,42.9 -8.71,61.96 15.2,82 23.61,-26.33 23.61,-137.66 0,-164z"/>
    <path class="fil5" d="M3843.23 2183.1c-17.01,28.45 -17.01,139.88 0,168.33 26.23,-19.9 16.82,-40.53 16.82,-84.17 0,-43.64 9.41,-64.27 -16.82,-84.16z"/>
   </g>
  </g>
 </g>
</svg>
