<?xml version="1.0" encoding="UTF-8"?>
<!DOCTYPE svg PUBLIC "-//W3C//DTD SVG 1.1//EN" "http://www.w3.org/Graphics/SVG/1.1/DTD/svg11.dtd">
<!-- Creator: CorelDRAW 2017 -->
<svg xmlns="http://www.w3.org/2000/svg" xml:space="preserve" width="50.7998mm" height="33.8666mm" version="1.1" style="shape-rendering:geometricPrecision; text-rendering:geometricPrecision; image-rendering:optimizeQuality; fill-rule:evenodd; clip-rule:evenodd"
viewBox="0 0 5079.98 3386.66"
 xmlns:xlink="http://www.w3.org/1999/xlink">
 <defs>
  <style type="text/css">
   <![CDATA[
    .fil1 {fill:#373435}
    .fil0 {fill:#373435}
   ]]>
  </style>
 </defs>
 <g id="Capa_x0020_1">
  <metadata id="CorelCorpID_0Corel-Layer"/>
  <g id="_1895795585568">
   <path class="fil0" d="M155.85 1019.35l19.74 -1.2 64.65 -2.7c39.94,15.25 17.82,-6.32 35.69,32.9 -35.66,48.7 -3.03,1.39 -35.96,32.74 -55.33,52.72 1.55,53.78 -82.82,43.56l-1.3 -105.3zm0 0c-53.89,3.32 -26.12,1.19 -47.54,15.6 10.76,210.19 -2.63,431.48 19.56,628.97l24.8 50.89 592.88 3 9.87 -48.19c66.22,-131.69 23.72,-59.82 -35.96,-163.11 -62.74,1.52 -155.78,3.11 -211.18,13.31 -70.17,-50.25 -47.95,-127.95 -48.13,-230.13 -0.17,-97.59 9.23,-186.06 -17.52,-265.85 -1.28,-3.91 -9.87,-24.81 -11.06,-30.63l42.18 9.55 -41.39 -7.08 7.24 -44.81 -11.85 9.7c-31.12,28.15 -69.93,16.77 -111.38,12.17 -146.84,-16.28 -88.59,2.39 -160.52,46.61zm3542.32 111.79c23.06,-4.92 37.79,-10.51 64.11,-7.48 60.41,6.98 27.39,8.53 40.87,18.54 -15.75,78.84 1.46,5.13 -42.79,50.24 -40.96,41.81 23.31,34.65 -52.03,39.14 -22.24,-33.05 -15.04,-55.83 -10.16,-100.44zm0 0l-43.55 9.03c-1.4,99.91 23.05,484.39 -28.42,524.86 64.4,-19.28 38.2,10.16 64.73,50.25l513.42 -2.07 24.14 0.43 6.54 -43.67c3.73,-39.18 8.62,-59.46 17.7,-85.32l-15.22 -17.79c-2.1,-2.41 -5.07,-5.79 -7.31,-8.38 -48.82,-56.28 -44.8,-49.44 -105.42,-47.54 -28.41,0.87 -67.6,3.63 -95.81,1.84 -56.33,-3.56 -67.19,6.72 -70.63,-41.78l3.09 -14.68c35.26,-54.81 122.69,-5.55 216.84,-32.69l25.96 -13.28c-22.39,-49.02 1.37,-25.73 -51.64,-40.34l-179.6 0.11c6.75,-53.13 33.78,-32.63 96.43,-29.23 159.9,8.73 119,-4.34 135.04,-24.4 -57.99,-41.28 -197.12,-2.27 -262.01,-33.41 -1.46,-98.81 -4.13,-28.63 25.36,-48.62 52.17,-25.12 315.64,29.99 264.75,-102.54 -19.51,-50.8 -38.81,-35.54 -93.19,-39.62 -71.47,-5.35 -384.25,-29.4 -431.12,-7.22l-10.08 46.06zm-2740.37 59.74l-43.52 6.81c-4.42,100.14 22.38,368.24 4.13,413.46 44.75,26.16 -2.16,-0.18 25.65,27.24 65.36,64.45 34.68,-14.09 62.59,80.38l22.25 -5.71 373.27 6.32c116.16,-16.04 -34.38,15.17 93.05,-67.68l-4.26 -35.6 31.01 -76.28c3.73,-25.18 1.25,-74.88 1.07,-102.4 -1.74,-278.16 21.37,-200.75 -18.28,-235.42 -2,-1.74 -4.83,-4.8 -6.98,-6.61 -55.17,-45.51 23.08,-43.9 -84.81,-20.09l-4.98 60.65c13.31,66.54 -0.99,72.23 -1.83,134.24 -1.26,93.76 33.04,167.18 -94.27,154.52 -27.57,-2.74 -53.92,-7.6 -90.59,-12.84 -10.89,-66.66 0.26,-94.47 -1.52,-155.23 -1.63,-56.42 -29.54,-105.47 15.75,-134.06l-61.39 -91.64c-2.37,-3.18 -15.34,-12.81 -16.95,-19.22 -1.63,-6.52 -6.17,-6.79 -9.69,-9.66 -51.29,18.52 -35.85,-30.84 -51.03,58.87l-21.93 -32.09 -7.04 40.18c-41.72,22.82 -26.38,4.94 -54.18,40.23 -1.72,2.19 -5.39,12.55 -6.61,10.18 -1.28,-2.5 -4.19,7.42 -6.7,10.83 -37.29,-15.1 -25.1,-6.1 -42.21,-39.38zm1554.75 -9.84l-45.63 3.66 -10.68 47.17c-31.06,25.45 -24.43,1.05 -85.99,30.97l13.21 373.4c2.04,1.42 5.77,3.99 8.01,5.59 94.79,66.61 55.8,60.98 204.04,50.15 -7.56,18.92 11.65,15.06 -10.04,2.37 -8.12,-4.75 -24.11,16.44 -1.93,-7.95 17.24,-18.99 -18.18,-16.94 41.67,-14.5l49.46 -8.38c9.35,-100.32 14.58,-468.95 -3.37,-557.39l-45.39 -3.52c-2.45,0.73 -6.21,0.27 -7.6,0.11 -1.48,-0.11 -6.14,-0.02 -8.03,-0.26 -3.19,-0.37 -15.59,-2.35 -19.11,-3.03 -5.18,-0.99 -12.61,-5.99 -35.89,-9.25l-17.23 39.03c-1.81,4.57 -5.88,18.73 -7.51,22.62 -15.32,36.93 17.29,10.11 -17.99,29.21zm1986.97 29.84l-6.97 18.16c-93.84,95.55 -88.41,-123.84 -90.38,316.27 -0.85,185.02 187.5,168.8 234.82,132.94l21.22 13.73 0.2 -23.64 -0.32 -46.43c37.23,-17.26 24.4,-15.2 33.1,-31.41 1.37,-4.25 9.35,30.63 -1.92,-20.81 -19.79,-90.66 -29.08,-102.54 -29.08,-226.38l-36.8 -52.51c2.01,-66.74 12.26,-12.91 -16.83,-54.74 -0.15,0.21 -58.46,29.17 17.88,6.47 61.78,-18.4 25.38,-40.38 62.56,-74.82 30.49,-7.31 3.96,-5.51 20.56,8.35l126.98 24.95 40.06 -39.33c3,-1.45 7.22,-3.58 10.13,-5.01 9.87,-4.74 -4.02,-4.98 33.39,-15.4l0.65 -51.56 -333.02 -5.53c-31.77,85.24 52.54,56.04 -86.23,126.7zm-2681.71 -32.46l-49.08 3.72c-8.48,55.96 6.02,49.79 -53.97,47.51l-3.48 -107.82 -67.65 -6.38c0,65.73 -8.33,456.53 6.7,509.84l20.11 39.89c18.08,17.03 7.36,5.47 23.44,25.94 4.8,6.13 7.97,12.89 16.73,23.87l469.27 2.53c24.22,-34.85 8.09,-32.17 58.66,-61.31 1.92,-1.1 6.46,-2.62 9.37,-4.51 9.61,-155.31 -7.31,-104.45 -52.75,-134.1l-2.36 -46.6 -210.39 0.99 -6.38 -367.06 -55.46 -4.71c-5.99,86.09 -26.99,29.76 31.42,55.31 0,88.11 -11.27,232.26 2.99,308.92l6.52 26.35c0.03,-0.03 -3.75,35.83 111.42,39.85 45.97,1.6 60.73,-12.67 80.2,13.7 18.06,-2.96 14.97,-23.45 13.72,12.99 0,0.67 -1.03,3.99 -1.29,4.75l-24.83 31.76 -456.86 17.56c3.99,-76.54 13.39,-131.94 13.39,-227.86l48.04 -35.03c105.41,-93.42 85.33,-4.36 112.73,-71.53l-66.91 -14.18c1.49,-14.88 10.98,-53.65 12.32,-57.76l14.38 -26.63zm1206.68 437.09c17.63,31.59 19.94,20.55 34.84,68.33l200.73 -11.62c20.81,-132.66 32.81,52.4 32.7,-261.87l8.26 -255.46c-0.38,-3.84 -3.28,-5.76 -3.73,-13.04 -0.4,-7.39 -2.03,-9.17 -4.59,-12.98 -27.46,18.92 -37.04,35.02 -35.26,75.37 -30.36,-36.95 -38.25,-80.12 -139.24,-72.99l-53.36 11.02c-15.03,36.17 -2.6,60.66 -29.24,105.79l7.57 202.29c1.02,92.03 -18.57,94.27 -18.68,165.16zm-1378.85 22.82l24.8 26.85 -20.11 -39.89c-15.03,-53.31 -6.7,-444.11 -6.7,-509.84l67.65 6.38 108.31 7.48 -1.78 49.11 -14.38 26.63c-1.34,4.11 -10.83,42.88 -12.32,57.76l66.91 14.18c-27.4,67.17 -7.32,-21.89 -112.73,71.53l-48.04 35.03c0,95.92 -9.4,151.32 -13.39,227.86l456.86 -17.56 24.83 -31.76c0.26,-0.76 1.29,-4.08 1.29,-4.75 1.25,-36.44 4.34,-15.95 -13.72,-12.99 -19.47,-26.37 -34.23,-12.1 -80.2,-13.7 -115.17,-4.02 -111.39,-39.88 -111.42,-39.85l-6.52 -26.35c-14.26,-76.66 -2.99,-220.81 -2.99,-308.92 -58.41,-25.55 -37.41,30.78 -31.42,-55.31l-0.81 -47.24 -209.15 1.01c-85.38,107.81 -58.84,14.47 -71.7,100.55 -4.92,32.85 -6.58,441.76 6.73,483.79zm3045.55 -47.83l24.11 0 2.99 -135.87c36.66,-32.63 108.16,-37.06 153.95,-17.46l16.37 187.68c11.47,43.7 52.86,54.45 99.44,44.48l-5.94 -0.75c5.3,-15.92 9.64,-33.13 13.22,-51.36l0 -407.57c-56.97,-23.31 -35.52,-6.49 -80.26,53.28l-16.13 -53.62c19,81.97 31.73,51.73 -28.82,78.72l-8.83 1.95c-64.57,62.24 -94.96,-8.22 -160.35,39.94 17.09,31.3 3.56,18.84 33.58,39.33 32.1,21.94 66.08,28.35 86.69,0.96 -130.81,0 -62.62,8.01 -148.16,-28.33l40.76 -12.04c-1.69,-80.85 -27.27,-122.74 -26.81,-162.13 -37.18,34.44 -0.78,56.42 -62.56,74.82 -76.34,22.7 -18.03,-6.26 -17.88,-6.47 29.09,41.83 18.84,-12 16.83,54.74l36.8 52.51c0,123.84 9.29,135.72 29.08,226.38 11.27,51.44 3.29,16.56 1.92,20.81zm-1756.95 -586.03l63.58 -0.24c6.48,54.92 -9.93,57.68 -9.93,57.72 -21.63,40.05 -5.21,-26.1 -28.91,40.02 114.41,44.51 333.45,20.85 464.03,20.85 11.29,-64.64 -0.91,-51.04 54.34,-64.08 -1.8,-13.31 -6.22,-39.8 -4.25,-49.7 -35.13,-58.75 -175.84,-33.15 -247.46,-33.15 -76.73,0 -229.92,-14.59 -286.78,-0.35 -1.8,3.25 -6.29,4.42 -6.32,9.23l-2.32 14.49c0.09,0.73 3.12,3.21 4.02,5.21zm0 0l4.98 16.68 3.41 40.62c-32.15,16.18 -20.68,3.22 -49.32,27.06l-11.76 36.63 -7.46 14.79c-1.14,1.95 -3.93,6.9 -5.24,9.11 -1.51,2.57 -4.86,8.06 -6.29,10.45 -1.57,2.63 -4.72,7.54 -7.14,11.24l145.28 8.7c30.68,114.16 -11.5,370.96 23.79,435.76 0.11,-70.89 19.7,-73.13 18.68,-165.16l-7.57 -202.29c26.64,-45.13 14.21,-69.62 29.24,-105.79l53.36 -11.02c100.99,-7.13 108.88,36.04 139.24,72.99 -1.78,-40.35 7.8,-56.45 35.26,-75.37 2.56,3.81 4.19,5.59 4.59,12.98 0.45,7.28 3.35,9.2 3.73,13.04l-8.26 255.46c0.11,314.27 -11.89,129.21 -32.7,261.87l58.2 -9.63 4.83 -477.13 143.9 -4.25c2.01,-2.62 3.93,-10.71 4.72,-8.65l63.08 -57.17 -2.94 -114.7 -50.98 -4.2 -7.77 12.55c-1.97,9.9 2.45,36.39 4.25,49.7 -55.25,13.04 -43.05,-0.56 -54.34,64.08 -130.58,0 -349.62,23.66 -464.03,-20.85 23.7,-66.12 7.28,0.03 28.91,-40.02 0,-0.04 16.41,-2.8 9.93,-57.72l-63.58 0.24zm1997.97 50.13l0.88 39.69c73.88,29.08 13.94,-4.08 61.86,49.4l0.38 0.37 0 -103.08c-13.36,-0.06 -26.85,-4.22 -40.12,-19.39 -27.77,0 -4.77,-4.27 -23,33.01zm-2157.77 67.71c101.1,34.44 -18.34,40.06 89.08,58.99 26.44,4.65 77.44,-0.73 113.83,4.11 -2.76,97.06 -0.99,194.7 -1.19,291.99 -0.64,315.58 26.49,100.41 62.91,233.63l227.42 7.54 -6.43 -46.35 -200.73 11.62c-14.9,-47.78 -17.21,-36.74 -34.84,-68.33 -35.29,-64.8 6.89,-321.6 -23.79,-435.76l-145.28 -8.7c2.42,-3.7 5.57,-8.61 7.14,-11.24 1.43,-2.39 4.78,-7.88 6.29,-10.45 1.31,-2.21 4.1,-7.16 5.24,-9.11l7.46 -14.79 -42.1 -1.1 -3.73 -105.36 103.5 2.15 -4.98 -16.68c-0.9,-2 -3.93,-4.48 -4.02,-5.21l2.32 -14.49c0.03,-4.81 4.52,-5.98 6.32,-9.23 56.86,-14.24 210.05,0.35 286.78,0.35 71.62,0 212.33,-25.6 247.46,33.15l7.77 -12.55 -4.42 -49.48c-128.5,-13.37 -316.25,-2.24 -451.91,-2.66 -184.13,-0.54 -164.31,-28.03 -239.33,56.71 -18.54,20.94 -4.42,-31.32 -22.03,35.64 -8.71,33.16 8.32,82.21 11.26,85.61zm-1724.01 4.15l24.11 2.38 21.93 32.09c15.18,-89.71 -0.26,-40.35 51.03,-58.87 3.52,2.87 8.06,3.14 9.69,9.66 1.61,6.41 14.58,16.04 16.95,19.22l61.39 91.64c34.73,-7.1 86.41,-22.68 87.77,-22.59l84.69 35.96 4.98 -60.65c107.89,-23.81 29.64,-25.42 84.81,20.09 2.15,1.81 4.98,4.87 6.98,6.61 39.65,34.67 16.54,-42.74 18.28,235.42 0.18,27.52 2.66,77.22 -1.07,102.4l-31.01 76.28 59.46 -5.28 -0.53 -455.14 -40.38 1.98c-5.85,-12.43 -15.61,-33.48 -24.95,-43.14 -27.08,-27.95 -12.4,15.54 -39.48,-29.38l-392.35 -10.65 -2.3 51.97zm3373.16 584.97l6.44 4.95 229.14 0.41 -0.96 -24.81 -21.22 -13.73c-47.32,35.86 -235.67,52.08 -234.82,-132.94 1.97,-440.11 -3.46,-220.72 90.38,-316.27l-42.08 1.05 -4.17 -101.25c45.21,-10.63 77.47,-5.91 104.72,13.36 -12.96,73.25 -25.92,-0.44 -51.5,68.68 138.77,-70.66 54.46,-41.46 86.23,-126.7l333.02 5.53 14.32 4.58 -0.88 -39.69 -432.84 -5.06 -35.49 41.48c-2.09,1.93 -5.32,4.41 -7.45,6.32 -12.14,10.89 -7.92,4.95 -22.06,19.09 -2.01,2.02 -4.6,4.98 -6.56,7.08l-57.81 58.92 -1.73 469.27 51.79 13.13 3.53 46.6zm-2087.88 -582.56l0.77 495.66c17.99,69.23 -12.12,-13.62 71.32,91.8l215.6 -4.63 1.81 -39.8c-59.85,-2.44 -24.43,-4.49 -41.67,14.5 -22.18,24.39 -6.19,3.2 1.93,7.95 21.69,12.69 2.48,16.55 10.04,-2.37 -148.24,10.83 -109.25,16.46 -204.04,-50.15 -2.24,-1.6 -5.97,-4.17 -8.01,-5.59l-13.21 -373.4c61.56,-29.92 54.93,-5.52 85.99,-30.97l-46.35 -1.22 3.11 -94.39c3.67,-1.54 7.93,-3.92 10.9,-4.74l36.59 -8.18c25.3,-1.93 32.61,1.95 57.85,5.15l-5.79 52.55c35.28,-19.1 2.67,7.72 17.99,-29.21 1.63,-3.89 5.7,-18.05 7.51,-22.62l17.23 -39.03c23.28,3.26 30.71,8.26 35.89,9.25 3.52,0.68 15.92,2.66 19.11,3.03 1.89,0.24 6.55,0.15 8.03,0.26 1.39,0.16 5.15,0.62 7.6,-0.11l-8.47 -50.66 -209.64 0.47c-85.18,110.39 -34.47,12.89 -72.09,76.45zm1290.49 536.16c51.47,-40.47 27.02,-424.95 28.42,-524.86l43.55 -9.03 10.08 -46.06c46.87,-22.18 359.65,1.87 431.12,7.22 54.38,4.08 73.68,-11.18 93.19,39.62 50.89,132.53 -212.58,77.42 -264.75,102.54l250.01 1.75c44.49,-67.11 -16.13,-27.86 65.83,-64.05l0.99 -62.04c-75.46,-19.5 -35.05,2.82 -64.63,-58.84l-71.52 0.06 -471.86 2.68c-3.08,97.12 3.17,14.44 -57.27,74.76l6.84 536.25zm1060.8 -497.32c-0.46,39.39 25.12,81.28 26.81,162.13l-40.76 12.04c85.54,36.34 17.35,28.33 148.16,28.33 -20.61,27.39 -54.59,20.98 -86.69,-0.96 -30.02,-20.49 -16.49,-8.03 -33.58,-39.33 65.39,-48.16 95.78,22.3 160.35,-39.94 -67.85,16.62 -66.43,12.92 -136.53,1.19l-3.99 -27.25 -2.88 -27.13c43.46,-24.4 116.83,-15.93 160.67,-0.73 5.96,45.67 15.75,4.89 -8.44,51.97 60.55,-26.99 47.82,3.25 28.82,-78.72l16.13 53.62c44.74,-59.77 23.29,-76.59 80.26,-53.28l0 -65.59 -0.38 -0.37c-47.92,-53.48 12.02,-20.32 -61.86,-49.4l-14.32 -4.58 -0.65 51.56c-37.41,10.42 -23.52,10.66 -33.39,15.4 -2.91,1.43 -7.13,3.56 -10.13,5.01l-40.06 39.33 -126.98 -24.95c-16.6,-13.86 9.93,-15.66 -20.56,-8.35zm308.33 449.51c-3.58,18.23 -7.92,35.44 -13.22,51.36l13.22 -2.62 0 -48.74zm-1033.9 -160.9l256.36 -8.71c60.74,-81.6 71.48,-38.13 69.47,-90.88 -2.3,-61.22 -27.28,-2.24 -65.85,-92.54 -106.5,-4.93 -252.53,18.22 -253.6,-29.73 -29.49,19.99 -26.82,-50.19 -25.36,48.62 64.89,31.14 204.02,-7.87 262.01,33.41 -16.04,20.06 24.86,33.13 -135.04,24.4 -62.65,-3.4 -89.68,-23.9 -96.43,29.23l179.6 -0.11c53.01,14.61 29.25,-8.68 51.64,40.34l-25.96 13.28c-94.15,27.14 -181.58,-22.12 -216.84,32.69zm-3072.75 -255.87l3.85 404.26 25.88 6.44c18.25,-45.22 -8.55,-313.32 -4.13,-413.46l43.52 -6.81 3.7 -83.73 88.93 19.31 2.3 -51.97 392.35 10.65c-20.17,-57.76 -50.86,-33.68 -203.72,-33.12 -179.3,0.67 -187.2,-20.73 -261.75,30.99 -51.56,35.79 -22.27,27.14 -54.53,67.55 -38.26,47.95 -11.39,-41.95 -36.4,49.89zm-133.26 469.17l43.4 -5.32 4.66 0.67 0.93 -120.55c-25.33,-19.85 21.04,19.18 -22.56,-12.72 -58.41,-42.74 1.19,-44.11 -63.41,-55.17l-229.08 -1.98c-7.72,-112.64 21.54,-389.06 -15.61,-471.79l-42.18 -9.55c1.19,5.82 9.78,26.72 11.06,30.63 26.75,79.79 17.35,168.26 17.52,265.85 0.18,102.18 -22.04,179.88 48.13,230.13 55.4,-10.2 148.44,-11.79 211.18,-13.31 59.68,103.29 102.18,31.42 35.96,163.11zm-653.7 -670.88c-29.46,65.53 -11.4,369.35 -13.18,470.8l7.66 182.7 31.67 11.68c-22.19,-197.49 -8.8,-418.78 -19.56,-628.97 21.42,-14.41 -6.35,-12.28 47.54,-15.6 71.93,-44.22 13.68,-62.89 160.52,-46.61 41.45,4.6 80.26,15.98 111.38,-12.17 -45.13,-27.89 -50.86,-16.57 -138.31,-15.93 -44.51,0.35 -87.6,-0.55 -132,2.28 -45.58,66.08 26.61,39.76 -55.72,51.82zm1137.75 238.4l129.95 0.06 2.24 243.78 -133.57 -1.65 1.38 -242.19zm-3.94 -14.56c-45.29,28.59 -17.38,77.64 -15.75,134.06 1.78,60.76 -9.37,88.57 1.52,155.23 36.67,5.24 63.02,10.1 90.59,12.84 127.31,12.66 93.01,-60.76 94.27,-154.52 0.84,-62.01 15.14,-67.7 1.83,-134.24l-84.69 -35.96c-1.36,-0.09 -53.04,15.49 -87.77,22.59zm2999.5 447.39l49.9 -7.03 -1.4 -118.7 -7.51 -11.61 -39.89 -7.54 -18.28 -49.38 -259.51 -4.71c3.44,48.5 14.3,38.22 70.63,41.78 28.21,1.79 67.4,-0.97 95.81,-1.84 60.62,-1.9 56.6,-8.74 105.42,47.54 2.24,2.59 5.21,5.97 7.31,8.38l15.22 17.79c-9.08,25.86 -13.97,46.14 -17.7,85.32zm483.26 -215.34l131.82 -7.56 0.56 93.42 1.14 105.26c4.28,2.19 8.81,1.41 10.04,5.66 11.01,37.55 -12.6,-13.25 16.71,11.08l25.62 27.6c32.17,35.41 3.87,27.11 77.79,26.76l6.08 -47.52c-46.58,9.97 -87.97,-0.78 -99.44,-44.48l-16.37 -187.68c-45.79,-19.6 -117.29,-15.17 -153.95,17.46zm-2.99 135.87l-0.64 61.11c30.48,-26.2 11.06,5.21 23.22,-38.89 3.83,-13.81 3.38,-40.91 3.38,-56.05 0.03,-42.12 -12.65,-50.74 12.79,-68.99 51.21,-40 10.12,-8.32 26.81,3.12l0.03 67.09c58.11,4.02 57.61,-18.57 46.93,-74.78 -5.56,102.24 -0.61,29.78 22.85,57.38l-0.56 -93.42 -131.82 7.56 -2.99 135.87zm5.47 -326.58l3.99 27.25c70.1,11.73 68.68,15.43 136.53,-1.19l8.83 -1.95c24.19,-47.08 14.4,-6.3 8.44,-51.97 -43.84,-15.2 -117.21,-23.67 -160.67,0.73 23.2,-2.09 54.38,-6.46 77.09,-5.24l48.09 11.67c2.07,-3.2 6.58,4.17 9.88,6.23 -40.88,28.74 -74.62,20.44 -132.18,14.47zm-62.36 404.42l55.73 -8.91 0.52 -7.82 0.64 -61.11 -24.11 0c-8.7,16.21 4.13,14.15 -33.1,31.41l0.32 46.43zm-0.2 23.64l0.96 24.81c50.18,-18.57 43.12,-5.73 54.97,-57.36l-55.73 8.91 -0.2 23.64z"/>
   <g>
    <path class="fil1" d="M394.19 2020.8l21.16 1.22 48.35 -3.03 50.2 -2.39c10.86,0 21.95,0 33.24,0 11.3,0 19.85,1.22 25.67,3.62 5.86,2.39 9.97,4.64 12.41,6.64 2.4,2.01 5.04,4.65 7.88,7.87 2,4.01 2.98,7.63 2.98,10.86 0,7.67 -3.42,13.1 -10.27,16.32 -3.62,1.62 -7.43,2.94 -11.49,3.96 -4,0.98 -9.87,1.52 -17.5,1.52l-29.62 2.98 -5.48 0.64 -24.14 4.2 -4.84 0.64 -29.04 3.61c-4.45,0 -15.5,1.81 -33.24,5.43 -9.29,1.61 -16.13,2.64 -20.58,3.03 -4.4,0.39 -8.85,0.59 -13.3,0.59 -2.39,2.05 -4.4,4.25 -6.01,6.69l-1.22 39.26 -1.22 19.36 -1.18 18.77 0 3.61 1.18 34.47 -1.18 27.81c0,2.79 0.2,6.11 0.59,9.97 0.39,3.82 1.42,9.78 3.03,17.8 -11.68,6.89 -22.78,10.31 -33.24,10.31 -18.14,0 -30.36,-0.63 -36.62,-1.81 -6.2,-1.22 -10.16,-4.05 -11.78,-8.5l4.84 -27.77 2.45 -50.79 0 -10.31 0.58 -38.67 0 -15.74 1.23 -34.46c-11.69,-3.18 -20.1,-9.14 -25.13,-17.8 -5.04,-8.7 -7.53,-16.62 -7.53,-23.9 0,-10.85 5.04,-16.92 15.11,-18.14 6.06,-1.22 11.68,0.39 16.91,4.84l4.25 -27.81c4.84,-37.06 7.24,-61.65 7.24,-73.77 0,-7.62 -0.59,-12.95 -1.81,-15.98 -1.22,-3.03 -3.03,-5.38 -5.43,-6.99l-12.07 -4.21c-13.35,-4.06 -22.19,-9.68 -26.64,-16.91 -4.4,-7.29 -6.65,-13.74 -6.65,-19.36 0,-6.45 2.35,-10.61 6.99,-12.42 4.59,-1.8 10.56,-3.52 17.79,-5.13l18.14 -2.39 6.06 -0.64c30.21,-3.23 56.76,-5.62 79.49,-7.23 22.78,-1.62 46.68,-2.4 71.66,-2.4l21.17 -0.64 7.82 0 14.52 0 15.1 0 29.62 0.64 6.07 0.59 13.93 0.58c8.85,0 15.49,1.42 19.94,4.26 4.4,2.83 8.85,8.65 13.3,17.55 3.23,6.4 4.84,12.07 4.84,16.91 0,5.62 -3.13,9.14 -9.39,10.56 -6.25,1.42 -12.41,2.1 -18.43,2.1l-2.44 0 -26.01 2.44 -7.23 0.59 -21.75 2.45 -3.62 0 -31.43 2.39 -36.28 3.62 -6.06 1.22 -29.03 4.84c-16.09,2.44 -25.47,4.45 -28.11,6.06 -2.59,1.61 -3.91,7.87 -3.91,18.72 0,7.68 0,13.94 0,18.78l-2.45 33.82 -0.58 10.9 -1.81 24.15zm321.02 51.43l4.25 -4.84c10.46,-11.68 17.6,-19.07 21.46,-22.1 3.81,-3.03 8.16,-4.49 13,-4.49 2.01,-0.44 5.04,-0.64 9.05,-0.64 8.45,0 15.2,1.12 20.23,3.32 5.09,2.25 9,5.58 11.83,9.98 5.63,9.28 8.46,17.15 8.46,23.61 0,8.85 -4.64,15.69 -13.93,20.53 -3.62,2 -7.82,3.03 -12.66,3.03 -6.89,0 -12.71,-2.44 -17.55,-7.28l-13.3 21.8c-10.46,18.92 -18.13,37.35 -22.97,55.29 -4.84,17.94 -7.24,41.2 -7.24,69.85 0,2 -0.24,4.01 -0.63,6.01 -0.39,2.45 -1.08,5.48 -2.11,9.1 -1.02,3.61 -1.51,7.23 -1.51,10.85 0,4.45 0.2,8.06 0.59,10.9 0.83,4.45 -4.6,6.65 -16.33,6.65 -4.4,0 -10.66,-0.39 -18.72,-1.23 -8.07,-0.78 -14.42,-3.51 -19.02,-8.16 -4.64,-4.59 -6.99,-12.76 -6.99,-24.49l0 -22.34 0 -5.43 0.64 -18.13 0 -21.8 0 -8.46 0 -31.43 0 -9.68 1.17 -29.63 0 -8.45 1.22 -31.43c0,-20.54 1.81,-35.25 5.43,-44.15 3.66,-8.84 8.7,-13.29 15.15,-13.29 6.84,0 12.27,0 16.33,0 4.01,0 6.84,0 8.46,0 7.23,0 11.68,1.02 13.29,3.03 1.61,2 2.4,7.04 2.4,15.1 0,4.84 0,8.66 0,11.49l0 2.45 0 12.07 0 22.39zm110.67 -110.04c0.78,-4.84 2.98,-9.58 6.65,-14.22 3.62,-4.65 9.04,-9.39 16.33,-14.18 15.3,-10.51 27.17,-15.74 35.63,-15.74 12.91,0 22.19,11.88 27.82,35.68l4.25 19.31c0,8.51 -4.16,16.87 -12.42,25.13 -8.26,8.26 -18.62,12.37 -31.14,12.37 -22.97,0 -37.88,-8.66 -44.72,-26.01 -2.01,-6.01 -3.04,-11.24 -3.04,-15.69 0,-3.23 0.2,-5.43 0.64,-6.65zm-5.48 220.03l0 -17.5 0.64 -4.84 1.81 -21.76 0 -4.25 0.59 -18.14 3.03 -22.97c1.61,-12.91 4.25,-21.85 7.87,-26.89 3.61,-5.03 9.04,-8.16 16.32,-9.38 7.24,-1.22 13.3,-1.81 18.14,-1.81 8.07,0 14.18,1.03 18.43,3.03 4.2,2 6.94,4.4 8.16,7.23l-3.61 21.76 -1.86 22.39 -0.59 12.71 -3.03 30.79 -1.17 42.92 1.81 33.88c0,5.62 1.9,9.87 5.72,12.71 3.81,2.79 7.77,3.42 11.78,1.81l24.78 -11.49 1.81 -1.22 27.23 -11.49 16.32 -5.43c1.62,-0.39 3.04,-0.39 4.21,0 2.83,1.23 4.84,3.43 6.06,6.65 1.61,4.01 1.32,8.36 -0.88,13.01 -2.25,4.64 -7.58,10.75 -16.03,18.42l-19.36 18.14c-13.69,8.85 -31.04,13.3 -51.97,13.3 -22.19,0 -40.13,-6.06 -53.82,-18.14 -13.68,-12.07 -20.58,-28.4 -20.58,-48.98l-0.58 -3.03 0.58 -13.3 -1.81 -18.13zm147.54 83.44l0 -10.26 0 -7.29 3.61 -83.39 1.23 -26.01 3.61 -106.42 0.64 -6.01 0 -10.32 0.59 -2.39 -1.23 -34.47 0.64 -35.68 0.59 -7.82 1.22 -28.45c0,-6.46 0,-12.66 0,-18.72 0,-6.07 0.19,-11.69 0.58,-16.92 0,-21.36 0.64,-34.27 1.81,-38.71 2.84,-10.86 17.75,-16.33 44.78,-16.33 22.54,0 33.83,5.86 33.83,17.55 0,4.45 -0.2,7.48 -0.59,9.04 -0.44,1.61 -3.23,8.07 -8.46,19.36 -0.83,2.44 -1.61,5.67 -2.44,9.68 -0.78,4.06 -1.22,8.65 -1.22,13.93l0 9.63 -1.81 16.96 -0.59 6.02 -1.81 11.48 -3.03 90.1 -3.03 43.5c7.29,-7.23 13.49,-15.88 18.77,-25.95l2.99 -7.29c2.05,-4.4 7.38,-8.46 16.03,-12.07 8.65,-3.62 18.43,-5.43 29.33,-5.43 5.62,0 12.47,0.98 20.53,2.98 14.13,4.06 25.42,10.51 33.88,19.36 18.52,18.53 27.81,39.11 27.81,61.69 0,30.21 -16.52,56.41 -49.57,78.56l-14.51 7.87 1.8 12.71c3.62,12.46 7.78,21.26 12.37,26.3 4.65,5.03 11,7.53 19.07,7.53 7.67,0 18.13,-2.4 31.43,-7.24 3.62,-1.61 7.67,-3.81 12.07,-6.65 4.45,-2.83 9.49,-6.84 15.16,-12.07l10.85 -9.09c3.62,-2.84 7.19,-5.23 10.61,-7.24 3.42,-2.05 6.35,-3.22 8.75,-3.66 5.62,-0.79 9.29,1.41 10.9,6.69 2.39,6.02 -1.22,14.08 -10.9,24.15l-10.27 11.49 -1.81 1.81c-16.13,16.52 -30.35,27.52 -42.62,32.95 -12.32,5.47 -27.72,8.16 -46.25,8.16 -18.96,0 -34.56,-4.01 -46.88,-12.08 -12.27,-8.06 -23.85,-21.16 -34.75,-39.3l-6.02 -12.07 -21.8 1.17c-0.39,3.67 -0.78,8.51 -1.17,14.52 -0.44,6.06 -0.64,10.9 -0.64,14.52l1.81 27.81c0.83,6.06 -2.78,11.49 -10.85,16.33 -4.45,2.39 -9.48,3.62 -15.11,3.62 -9.28,0 -19.35,-3.42 -30.25,-10.27 -3.62,-1.61 -6.85,-4.25 -9.68,-7.87zm151.73 -169.87c0.83,-5.67 1.22,-9.87 1.22,-12.71 0,-6.84 -1.12,-13.3 -3.32,-19.36 -2.2,-6.01 -5.92,-7.82 -11.19,-5.42 -5.24,2 -9.05,4.64 -11.49,7.87l-13.89 14.52 -3.03 4.2 -10.26 16.33 -10.9 17.55 -1.81 3.03c-3.23,6.84 -6.06,14.47 -8.46,22.97 6.45,8.07 15.11,12.08 26.01,12.08 13.29,0 24.15,-6.07 32.65,-18.14 6.85,-10.07 11.69,-24.39 14.47,-42.92zm136.68 -133.6c0.78,-4.84 2.98,-9.58 6.65,-14.22 3.62,-4.65 9.04,-9.39 16.33,-14.18 15.3,-10.51 27.18,-15.74 35.63,-15.74 12.91,0 22.2,11.88 27.82,35.68l4.25 19.31c0,8.51 -4.16,16.87 -12.42,25.13 -8.26,8.26 -18.62,12.37 -31.14,12.37 -22.97,0 -37.88,-8.66 -44.72,-26.01 -2.01,-6.01 -3.03,-11.24 -3.03,-15.69 0,-3.23 0.19,-5.43 0.63,-6.65zm-5.47 220.03l0 -17.5 0.63 -4.84 1.81 -21.76 0 -4.25 0.59 -18.14 3.03 -22.97c1.61,-12.91 4.25,-21.85 7.87,-26.89 3.61,-5.03 9.04,-8.16 16.32,-9.38 7.24,-1.22 13.3,-1.81 18.14,-1.81 8.07,0 14.18,1.03 18.43,3.03 4.2,2 6.94,4.4 8.16,7.23l-3.61 21.76 -1.86 22.39 -0.59 12.71 -3.03 30.79 -1.17 42.92 1.81 33.88c0,5.62 1.9,9.87 5.72,12.71 3.81,2.79 7.77,3.42 11.78,1.81l24.78 -11.49 1.81 -1.22 27.23 -11.49 16.33 -5.43c1.61,-0.39 3.03,-0.39 4.2,0 2.83,1.23 4.84,3.43 6.06,6.65 1.61,4.01 1.32,8.36 -0.88,13.01 -2.25,4.64 -7.58,10.75 -16.03,18.42l-19.36 18.14c-13.69,8.85 -31.04,13.3 -51.96,13.3 -22.2,0 -40.14,-6.06 -53.83,-18.14 -13.68,-12.07 -20.58,-28.4 -20.58,-48.98l-0.58 -3.03 0.58 -13.3 -1.8 -18.13zm222.51 -129.35c6.02,-3.62 10.95,-7.04 14.82,-10.27 3.81,-3.22 8.55,-7.67 14.17,-13.29l7.29 -7.29c0.78,-0.78 2.59,-1.8 5.42,-3.03 6.06,-2.39 13.93,-3.61 23.56,-3.61 3.67,0 7.09,0.09 10.32,0.29 3.23,0.2 6.21,0.54 9.04,0.93 14.52,2 26.79,7.04 36.91,15.1 21.36,16.14 32.02,48.55 32.02,97.33l-5.43 32.07c-3.22,12.86 -6.25,22.53 -9.09,28.99 -2.84,6.45 -6.45,12.9 -10.85,19.35 -9.68,13.3 -18.97,22.34 -27.82,27.18 -8.89,4.84 -22.58,8.27 -41.11,10.32 -2.44,0.39 -6.26,0.59 -11.49,0.59 -12.12,0 -25.22,-2.4 -39.3,-7.24l-12.71 -4.84 -3.62 21.17 0 22.34 0 9.68 -1.22 41.69 0.64 48.99 0 15.1 0 33.88 -10.9 4.84c-12.08,4.01 -22.59,6.01 -31.44,6.01 -11.68,0 -19.16,-4.2 -22.38,-12.66l0.63 -22.39 -1.81 -19.94 0 -20.58 -0.63 -39.26 0 -79.83 1.22 -17.5 0.59 -6.64 -1.18 -13.94 1.81 -26.59 1.81 -21.75 0.59 -4.25 0 -2.4 -1.23 -24.2 0.64 -3.62 1.22 -24.78 1.81 -23.61 0.59 -10.27 0.58 -5.42 0.64 -27.82 0.59 -2.39 3.03 -30.85c1.61,-15.74 4.35,-26.69 8.16,-32.95 3.81,-6.25 10.56,-9.38 20.24,-9.38 2.83,0 5.86,0 9.09,0 0.39,0 4.4,0.83 12.07,2.44 7.68,1.62 12.62,4.94 14.82,9.98 2.2,5.03 3.32,15.59 3.32,31.72l-1.22 26.59 -4.21 26.01zm79.78 111.85c2.84,-8.9 4.26,-21.17 4.26,-36.91l0 -18.14 0 -6.65 -1.81 -25.37c0,-2.83 -0.74,-6.64 -2.15,-11.48 -1.37,-4.84 -4.31,-7.24 -8.75,-7.24 -3.23,0 -7.04,1.57 -11.49,4.79 -7.68,6.06 -13.69,12.42 -18.14,19.07 -4.45,6.65 -12.71,22.48 -24.78,47.46 -6.45,13.69 -11.68,28.8 -15.69,45.32 1.17,10.07 5.81,18.13 13.88,24.2 10.46,6.84 19.55,10.26 27.18,10.26 16.13,0 28.64,-15.1 37.49,-45.31zm209.81 84.03c3.62,0 7.43,-0.39 11.49,-1.22 4.01,-0.79 7.82,-1.81 11.49,-3.04l24.78 -14.51 15.69 -7.83 12.08 -4.83c4.45,-2.06 8.06,-0.44 10.9,4.83 1.22,3.23 1.81,6.02 1.81,8.46 0,8.85 -7.04,19.56 -21.17,32.02l-10.26 8.46c-15.31,10.51 -30.85,15.74 -46.54,15.74 -14.52,0 -30.26,-4.84 -47.18,-14.52 -14.07,-8.07 -23.75,-15.2 -28.98,-21.46 -5.28,-6.26 -8.9,-15.2 -10.9,-26.89l-1.23 -27.22 -3.03 -24.79 0 -24.2 -0.58 -2.39 -1.23 -21.76c0,-0.83 0.54,-8.79 1.52,-23.9 1.03,-15.1 1.51,-32.12 1.51,-51.08l2.45 -38.67 2.98 -37.49 2.45 -16.92 2.39 -19.94 1.81 -30.26c0,-3.23 0.24,-6.94 0.63,-11.15 0.4,-4.25 1.32,-9.87 2.69,-16.96 1.42,-7.04 2.35,-11.78 2.74,-14.18 0.39,-2.44 0.59,-5.47 0.59,-9.09 0,-5.23 -1.57,-12.46 -4.79,-21.75 -1.62,-5.67 1.37,-11 9.04,-16.04 7.68,-5.03 18.33,-7.52 32.07,-7.52 16.08,0 26.79,1.07 32.02,3.32 5.23,2.2 7.87,6.75 7.87,13.59 0,4.01 -1.03,10.46 -3.03,19.36 -3.23,9.63 -5.67,21.95 -7.24,36.86l-1.86 15.1 -2.98 22.39 -3.03 28.4 -0.63 9.05 -0.59 10.31 -1.81 26.59 0 2.4 -4.25 35.1c-0.39,2.78 -1.18,12.46 -2.4,28.98 -1.22,16.53 -1.81,31.44 -1.81,44.73l-0.63 20 -0.59 17.5c0,21.75 0.83,40.82 2.4,57.14 1.61,16.33 3.03,27.28 4.25,32.95 1.22,5.62 4.25,11.1 9.09,16.33zm248.48 -189.23l7.23 -1.81c15.3,0 24.2,3.42 26.6,10.27l-6.65 17.54c-0.78,3.62 -1.71,9.05 -2.69,16.33 -1.03,7.24 -2.35,17.5 -3.96,30.8l-1.22 8.46 0 3.66 -0.59 23.56 0 10.27 -1.22 25.42c0,10.07 1.81,17.6 5.47,22.63 3.62,5.04 7.83,6.75 12.66,5.13 2.84,-0.78 5.28,-1.8 7.29,-2.98 5.62,-2.83 12.07,-6.89 19.31,-12.12l6.69 -6.01 17.5 -16.33c3.62,-3.62 7.48,-2.64 11.49,3.03 2.45,3.23 3.62,7.04 3.62,11.49 0,7.23 -4.01,17.11 -12.07,29.62 -12.08,18.53 -28.41,27.77 -48.99,27.77 -6.01,0 -10.65,-0.2 -13.88,-0.59 -3.23,-0.39 -8.26,-1.81 -15.1,-4.25 -17.75,-5.62 -30.85,-16.92 -39.31,-33.83l-9.09 8.46 -1.17 1.22 -9.68 13.88 -4.25 5.48c-9.68,10.46 -18.92,17.2 -27.82,20.24 -8.85,3.03 -21.95,4.54 -39.3,4.54 -28.99,0 -50.45,-7.77 -64.38,-23.32 -13.88,-15.49 -20.83,-38.96 -20.83,-70.39l0 -9.68 0.59 -9.09 1.22 -15.69 1.81 -21.75 6.65 -21.81 6.06 -21.75 1.81 -6.06 10.27 -19.95 8.45 -14.47 1.81 -2.44 9.09 -9.68c15.3,-16.52 31.24,-24.78 47.76,-24.78 9.24,0 21.12,1.81 35.64,5.42 21.75,5.28 36.91,10.12 45.36,14.52 8.46,4.45 16.14,11.49 22.98,21.17l4.84 7.87zm-128.76 178.96c2,5.62 6.01,8.46 12.07,8.46 4.84,0 9.68,-1.81 14.52,-5.48l6.01 -6.64 9.1 -11.49 5.42 -7.82 9.68 -13.35 3.62 -5.42 9.68 -18.73c3.62,-9.29 6.26,-19.16 7.87,-29.62l1.22 -9.09 2.4 -17.5 1.22 -7.29 2.39 -16.32 1.23 -8.46 2.39 -12.08c0.83,-6.06 -2.2,-11.78 -9.04,-17.25 -6.85,-5.43 -14.72,-7.33 -23.57,-5.72 -9.28,1.61 -17.54,6.65 -24.78,15.1 -7.28,8.46 -13.93,21.37 -19.99,38.72l-2.4 6.01 -4.25 12.13 -4.2 13.29 -1.23 4.21c-0.78,3.22 -1.41,6.25 -1.81,9.09 -1.61,10.07 -2.39,21.75 -2.39,35.05l0 7.23 0 5.48c0,11.29 0.29,18.92 0.88,22.97 0.59,4.01 1.91,8.85 3.96,14.52zm310.12 -168.11l-18.77 -0.59 -24.15 2.45 -7.29 0.58c-17.3,0 -29.72,-1.22 -37.15,-3.61 -7.48,-2.45 -12.41,-6.85 -14.81,-13.3 -0.83,-1.61 -1.22,-4.25 -1.22,-7.87 0,-6.84 1.81,-11.58 5.42,-14.22 3.67,-2.6 7.58,-4.5 11.83,-5.72 4.21,-1.23 12.96,-3.03 26.3,-5.48l25.37 -4.2 3.62 -0.59 6.06 -0.64 24.2 -2.39 7.24 -1.22 15.1 -2.4 23.56 -0.63c7.29,0 12.13,0 14.52,0 8.9,0 14.72,1.41 17.55,4.25 12.91,10.85 19.36,20.14 19.36,27.81 0,4.84 -2.25,10.66 -6.65,17.5 -4.45,6.85 -10.9,15.35 -19.36,25.42 -4.06,4.01 -11.88,14.47 -23.61,31.44l-12.66 18.13 -9.68 14.52 -11.49 17.5 -9.68 15.74 -9.67 15.69 -9.68 17.55 28.45 -3.03 34.41 -4.2c9.29,-1.22 16.77,-1.86 22.39,-1.86 8.46,0 14.42,1.32 17.84,3.96 3.42,2.59 6.16,7.77 8.17,15.4 0.78,4.06 1.22,6.84 1.22,8.46 0,9.28 -3.67,14.71 -10.9,16.32l-34.47 3.62c-8.45,0 -21.36,2.05 -38.66,6.06l-38.72 9.09 -3.03 0.59 -18.72 4.25c-9.29,2.01 -15.94,2.99 -19.95,2.99 -6.06,0 -10.9,-1.18 -14.52,-3.62 -4.44,-4.01 -7.87,-7.04 -10.26,-9.05 -8.9,-7.67 -13.3,-15.54 -13.3,-23.61 0,-5.23 2.59,-14.07 7.82,-26.59 2.45,-5.62 4.06,-9.04 4.84,-10.26 1.62,-3.23 4.45,-7.87 8.46,-13.89l6.06 -10.31 3.03 -4.21 13.89 -17.55 1.22 -1.8 12.12 -18.73 1.17 -2.44 12.71 -16.91 5.43 -8.46 1.22 -1.22 13.89 -18.14 13.93 -20.58zm335.54 -10.85l7.23 -1.81c15.3,0 24.2,3.42 26.59,10.27l-6.64 17.54c-0.79,3.62 -1.72,9.05 -2.69,16.33 -1.03,7.24 -2.35,17.5 -3.96,30.8l-1.23 8.46 0 3.66 -0.58 23.56 0 10.27 -1.22 25.42c0,10.07 1.8,17.6 5.47,22.63 3.62,5.04 7.82,6.75 12.66,5.13 2.84,-0.78 5.28,-1.8 7.29,-2.98 5.62,-2.83 12.07,-6.89 19.3,-12.12l6.7 -6.01 17.5 -16.33c3.62,-3.62 7.48,-2.64 11.49,3.03 2.44,3.23 3.62,7.04 3.62,11.49 0,7.23 -4.01,17.11 -12.08,29.62 -12.07,18.53 -28.4,27.77 -48.98,27.77 -6.01,0 -10.66,-0.2 -13.88,-0.59 -3.23,-0.39 -8.26,-1.81 -15.11,-4.25 -17.74,-5.62 -30.84,-16.92 -39.3,-33.83l-9.09 8.46 -1.17 1.22 -9.68 13.88 -4.26 5.48c-9.68,10.46 -18.91,17.2 -27.81,20.24 -8.85,3.03 -21.95,4.54 -39.3,4.54 -28.99,0 -50.45,-7.77 -64.38,-23.32 -13.89,-15.49 -20.83,-38.96 -20.83,-70.39l0 -9.68 0.59 -9.09 1.22 -15.69 1.81 -21.75 6.65 -21.81 6.06 -21.75 1.81 -6.06 10.26 -19.95 8.46 -14.47 1.81 -2.44 9.09 -9.68c15.3,-16.52 31.24,-24.78 47.76,-24.78 9.24,0 21.12,1.81 35.64,5.42 21.75,5.28 36.9,10.12 45.36,14.52 8.46,4.45 16.13,11.49 22.98,21.17l4.84 7.87zm-128.76 178.96c2,5.62 6.01,8.46 12.07,8.46 4.84,0 9.68,-1.81 14.52,-5.48l6.01 -6.64 9.09 -11.49 5.43 -7.82 9.68 -13.35 3.62 -5.42 9.68 -18.73c3.61,-9.29 6.25,-19.16 7.87,-29.62l1.22 -9.09 2.39 -17.5 1.22 -7.29 2.4 -16.32 1.22 -8.46 2.4 -12.08c0.83,-6.06 -2.2,-11.78 -9.05,-17.25 -6.84,-5.43 -14.71,-7.33 -23.56,-5.72 -9.29,1.61 -17.55,6.65 -24.78,15.1 -7.29,8.46 -13.93,21.37 -20,38.72l-2.39 6.01 -4.25 12.13 -4.21 13.29 -1.22 4.21c-0.78,3.22 -1.42,6.25 -1.81,9.09 -1.61,10.07 -2.39,21.75 -2.39,35.05l0 7.23 0 5.48c0,11.29 0.29,18.92 0.88,22.97 0.58,4.01 1.9,8.85 3.96,14.52zm656.51 -79.24l-4.84 9.09 -4.26 7.24 -1.81 3.66 -6.64 13.89 -3.62 7.23 -4.84 9.09 -4.84 7.88 -4.84 7.82 -9.04 13.34c-12.91,16.08 -25.81,27.38 -38.72,33.83 -12.9,6.45 -29.23,9.68 -48.98,9.68 -6.84,0 -14.28,-1.03 -22.34,-3.03 -23.37,-6.06 -39.6,-12.08 -48.69,-18.14 -9.04,-6.06 -17.21,-16.52 -24.49,-31.43l-3.62 -6.65 -6.06 -26.59 -0.59 -2.45 -3.03 -12.07c-2.78,-9.29 -5.13,-20.34 -6.94,-33.24 -1.81,-12.91 -2.74,-29.04 -2.74,-48.4l0 -26.59 0.64 -15.69 0 -12.71 1.22 -13.3 1.18 -23.56c0,-15.35 0.63,-27.03 1.8,-35.1 2.84,-12.85 5.04,-24.78 6.65,-35.63l4.84 -27.82 4.84 -26.59c2.84,-15.35 6.06,-25.91 9.68,-31.78 3.62,-5.81 9.97,-9.72 19.06,-11.78 9.05,-2 16.43,-3.03 22.05,-3.03 10.07,0 17.45,1.96 22.05,5.77 4.64,3.81 6.99,9.19 6.99,16.03l-5.48 16.92 -2.98 15.69 -3.03 12.71 -3.62 16.33 -3.66 29.62 -1.18 10.9 -3.66 22.34c-1.62,10.51 -2.79,25.91 -3.62,46.25 -0.78,20.38 -1.22,38.81 -1.22,55.33l0 24.2 0 7.23 2.44 31.44 1.22 4.25 4.21 24.78 1.22 4.21 6.06 29.03 7.24 22.98c3.22,8.85 10.26,13.3 21.16,13.3 6.85,0 13.3,-2.2 19.36,-6.65 3.62,-2.84 6.75,-5.77 9.34,-8.75 2.64,-3.03 6.45,-8.07 11.49,-15.16 5.03,-7.03 9.19,-13.19 12.41,-18.42 4.84,-8.07 8.46,-14.52 10.85,-19.36l7.29 -13.3 7.23 -15.1 6.06 -12.08 6.07 -12.71 10.26 -24.2 1.81 -6.01 6.65 -19.36c7.23,-22.58 12.71,-42.23 16.33,-58.95 3.61,-16.72 6.45,-36.17 8.45,-58.32l0.59 -4.25 7.28 -56.8c2.01,-15.35 5.82,-26.01 11.49,-32.07 5.62,-6.02 15.11,-9.05 28.4,-9.05 13.69,0 22.88,1.13 27.52,3.33 4.6,2.2 6.95,7.53 6.95,16.03 0,5.23 -1.62,14.28 -4.84,27.18l0 3.03 -5.43 30.85 -4.25 33.83 -1.23 9.09 -1.17 25.37 -1.22 25.42 -0.59 9.63 0 10.31 0 21.12 0.59 21.8 0 12.08 2.39 33.87 0.64 6.02 3.62 26.59c0,2.83 0.19,5.47 0.58,7.87 0,0.83 1.03,4.64 3.04,11.49 2,6.84 4.35,12.41 6.94,16.62 2.64,4.25 6.16,6.94 10.6,8.16l26.6 -9.68c6.84,-2 11.88,-3.03 15.1,-3.03 4.84,0 9.29,1.32 13.3,3.96 4.06,2.59 6.06,6.55 6.06,11.78 0,2.84 -1.03,5.87 -3.03,9.09 -4.01,6.02 -8.26,10.66 -12.71,13.89 -17.7,14.12 -34.02,21.16 -48.93,21.16 -5.28,0 -12.32,-1.02 -21.17,-3.03 -24.98,-6.45 -42.72,-24.19 -53.23,-53.18 -1.62,-4.45 -2.89,-8.8 -3.91,-13.01 -1.03,-4.25 -1.52,-9.58 -1.52,-16.03 0,-4.01 -2.4,-9.87 -7.23,-17.55zm220.61 -87.01l4.25 -4.84c10.46,-11.68 17.6,-19.07 21.46,-22.1 3.81,-3.03 8.16,-4.49 13,-4.49 2.01,-0.44 5.04,-0.64 9.05,-0.64 8.45,0 15.2,1.12 20.23,3.32 5.09,2.25 9,5.58 11.83,9.98 5.63,9.28 8.46,17.15 8.46,23.61 0,8.85 -4.64,15.69 -13.93,20.53 -3.62,2 -7.82,3.03 -12.66,3.03 -6.89,0 -12.71,-2.44 -17.55,-7.28l-13.3 21.8c-10.46,18.92 -18.13,37.35 -22.97,55.29 -4.84,17.94 -7.24,41.2 -7.24,69.85 0,2 -0.24,4.01 -0.63,6.01 -0.39,2.45 -1.08,5.48 -2.1,9.1 -1.03,3.61 -1.52,7.23 -1.52,10.85 0,4.45 0.2,8.06 0.59,10.9 0.83,4.45 -4.6,6.65 -16.33,6.65 -4.4,0 -10.66,-0.39 -18.72,-1.23 -8.07,-0.78 -14.42,-3.51 -19.02,-8.16 -4.64,-4.59 -6.99,-12.76 -6.99,-24.49l0 -22.34 0 -5.43 0.64 -18.13 0 -21.8 0 -8.46 0 -31.43 0 -9.68 1.17 -29.63 0 -8.45 1.22 -31.43c0,-20.54 1.81,-35.25 5.43,-44.15 3.66,-8.84 8.7,-13.29 15.15,-13.29 6.85,0 12.27,0 16.33,0 4.01,0 6.84,0 8.46,0 7.23,0 11.68,1.02 13.29,3.03 1.62,2 2.4,7.04 2.4,15.1 0,4.84 0,8.66 0,11.49l0 2.45 0 12.07 0 22.39zm179.55 171.04c7.28,-6.4 13.54,-13.29 18.77,-20.53l3.62 -5.42 3.61 -5.48 13.3 -27.18 1.22 -2.44 9.68 -25.37 6.06 -15.11 5.43 -13.93c2,-4.01 3.62,-8.26 4.84,-12.66 1.22,-4.45 2.59,-11.49 4.2,-21.17 3.67,-22.58 7.97,-36.81 13.01,-42.63 5.03,-5.86 16.03,-8.75 32.94,-8.75 14.91,0 23.37,3.43 25.42,10.27 2.01,6.84 3.03,12.07 3.03,15.69 0,3.23 -1.22,8.9 -3.66,16.96 -0.39,0.79 -2.59,7.83 -6.65,21.17l-1.81 38.08 -0.59 35.05 0 3.03 3.62 23.56 4.84 15.74c3.23,7.24 8.07,10.86 14.52,10.86 3.62,0 7.23,-1.23 10.85,-3.62l13.93 -11.49 7.24 -6.65c7.67,-5.62 13,-9.28 16.03,-10.9 3.03,-1.61 6.16,-2.39 9.39,-2.39 6.45,-0.83 10.65,2.39 12.66,9.68 0.83,4 0,8.26 -2.4,12.71 -2.44,4.4 -7.28,9.63 -14.52,15.69l-16.32 13.29 -1.81 2.45c-17.75,14.08 -34.46,21.12 -50.16,21.12 -6.06,0 -13.19,-1.37 -21.46,-4.21 -8.26,-2.83 -14.95,-7.04 -19.99,-12.71 -5.03,-5.62 -11.58,-16.52 -19.6,-32.65l-5.48 -10.27 -4.84 12.71c-10.07,22.15 -18.52,36.86 -25.37,44.14 -6.84,7.24 -15.74,10.86 -26.59,10.86 -2.83,-0.39 -5.03,-0.59 -6.65,-0.59l-13.93 -1.22 -10.27 -1.22c-22.58,-2.79 -37.88,-10.47 -45.95,-22.98 -9.28,-14.08 -13.88,-41.11 -13.88,-81l0 -59.25 0.59 -7.23 4.25 -32.07 1.81 -25.37c0,-14.91 1.51,-24.98 4.5,-30.21 3.03,-5.28 9.97,-7.87 20.87,-7.87 2.44,0 5.43,0.19 9.09,0.59 3.62,0.39 6.45,0.63 8.46,0.63 14.52,1.61 22.78,5.82 24.78,12.66l-4.25 25.42 -2.39 26.59 -1.81 15.7 -0.64 9.67 -1.17 36.91 0 25.96 0 10.9 0.58 10.27 0.59 17.55c0,9.28 0.54,16.03 1.52,20.23 1.02,4.26 3.32,10.42 6.94,18.43zm371.17 -199.49c-0.78,-6.45 1.52,-11.78 6.99,-15.99 5.43,-4.25 12.37,-5.96 20.83,-5.18l10.9 2.45c11.29,3.61 17.65,7.96 19.01,13 1.42,5.03 2.16,21.26 2.16,48.64l-3.04 49.57c0,11.29 -0.19,20.67 -0.58,28.15 -0.44,7.43 -0.83,14.57 -1.22,21.46l0 4.21 0.58 14.52 0.64 4.25 -0.64 15.1 0 16.33 -0.58 19.95 0.58 33.24 0 31.43c0,6.84 -0.19,11.88 -0.58,15.1 0,39.89 -5.33,67.71 -16.04,83.45 -10.65,15.69 -28.11,23.56 -52.3,23.56 -2.79,0 -6.02,-0.2 -9.68,-0.59 -3.62,-0.39 -6.41,-0.63 -8.46,-0.63l-14.47 -1.81c-10.9,-2.01 -18.77,-3.91 -23.61,-5.72 -4.84,-1.81 -15.3,-6.75 -31.43,-14.81l-3.62 -1.81 -21.75 -11.49c-7.29,-3.62 -12.71,-6.84 -16.33,-9.68 -3.62,-2.83 -5.87,-5.42 -6.65,-7.87 -2.44,-7.67 -0.39,-12.9 6.01,-15.69 2.45,-1.22 5.48,-1.86 9.1,-1.86 3.61,0 9.48,1.23 17.55,3.67l24.78 12.07c3.62,2.01 8.85,4.35 15.69,6.95 6.85,2.63 11.29,4.15 13.3,4.54 10.51,2.4 18.13,3.62 22.97,3.62 6.46,0 11.1,-2.01 13.94,-6.01 2.78,-4.06 5.42,-11.93 7.82,-23.61l1.22 -7.24 0.63 -7.28 2.99 -33.83c2.44,-24.2 4.15,-42.43 5.13,-54.7 1.03,-12.32 1.51,-21.07 1.51,-26.3l0 -7.87 -0.58 -13.93c-2.4,6.06 -5.87,12.12 -10.27,18.13 -8.89,12.52 -18.96,21.8 -30.26,27.82 -11.24,6.06 -23.56,9.09 -36.86,9.09 -11.68,0 -24.19,-2.84 -37.49,-8.46 -19.31,-8.89 -33.14,-19.94 -41.4,-33.24 -8.27,-13.34 -12.37,-31.87 -12.37,-55.63 0,-4.45 0,-8.55 0,-12.41 0,-3.82 1.07,-13.11 3.32,-27.82 2.2,-14.71 4.01,-25.76 5.43,-33.24 1.42,-7.43 3.32,-14.18 5.72,-20.24 10.9,-31.43 20.58,-51.37 29.04,-59.83 8.45,-8.51 24.97,-14.52 49.56,-18.14 4.84,-0.83 8.46,-1.22 10.9,-1.22 14.08,0 29.24,5.62 45.32,16.91l4.84 3.03 9.68 6.65 12.07 7.24zm-103.34 166.25l2.4 14.52 3.61 9.68c1.62,3.23 4.45,4.84 8.46,4.84 4.06,0 8.31,-2.01 12.71,-6.06l9.68 -10.86 12.71 -15.74 1.81 -1.8 14.52 -24.2 12.66 -24.79 6.65 -10.26c4.05,-6.85 6.06,-14.52 6.06,-22.98 0,-13.29 -1.81,-22.97 -5.43,-29.03 -10.9,-19.75 -21.75,-29.63 -32.65,-29.63 -4.84,0 -10.81,2.25 -17.84,6.65 -7.04,4.45 -13.2,13.1 -18.43,26.01l-4.84 12.12 -4.26 11.49c-4,11.68 -6.55,20.53 -7.52,26.59 -1.03,6.01 -1.52,15.69 -1.52,28.99 0,6.45 0,12.41 0,17.84 0,5.43 0.2,10.36 0.59,14.81l0.63 1.81z"/>
    <path class="fil1" d="M4031.78 2243.27c7.28,-6.4 13.54,-13.29 18.77,-20.53l3.62 -5.42 3.61 -5.48 13.3 -27.18 1.22 -2.44 9.68 -25.37 6.06 -15.11 5.43 -13.93c2,-4.01 3.62,-8.26 4.84,-12.66 1.22,-4.45 2.59,-11.49 4.2,-21.17 3.67,-22.58 7.97,-36.81 13,-42.63 5.04,-5.86 16.04,-8.75 32.95,-8.75 14.91,0 23.37,3.43 25.42,10.27 2.01,6.84 3.03,12.07 3.03,15.69 0,3.23 -1.22,8.9 -3.66,16.96 -0.39,0.79 -2.59,7.83 -6.65,21.17l-1.81 38.08 -0.59 35.05 0 3.03 3.62 23.56 4.84 15.74c3.23,7.24 8.07,10.86 14.52,10.86 3.62,0 7.23,-1.23 10.85,-3.62l13.93 -11.49 7.24 -6.65c7.67,-5.62 13,-9.28 16.03,-10.9 3.03,-1.61 6.16,-2.39 9.39,-2.39 6.45,-0.83 10.65,2.39 12.66,9.68 0.83,4 0,8.26 -2.4,12.71 -2.44,4.4 -7.28,9.63 -14.52,15.69l-16.32 13.29 -1.81 2.45c-17.75,14.08 -34.47,21.12 -50.16,21.12 -6.06,0 -13.2,-1.37 -21.46,-4.21 -8.26,-2.83 -14.96,-7.04 -19.99,-12.71 -5.04,-5.62 -11.59,-16.52 -19.6,-32.65l-5.48 -10.27 -4.84 12.71c-10.07,22.15 -18.52,36.86 -25.37,44.14 -6.84,7.24 -15.74,10.86 -26.59,10.86 -2.84,-0.39 -5.04,-0.59 -6.65,-0.59l-13.93 -1.22 -10.27 -1.22c-22.58,-2.79 -37.88,-10.47 -45.95,-22.98 -9.29,-14.08 -13.88,-41.11 -13.88,-81l0 -59.25 0.59 -7.23 4.25 -32.07 1.81 -25.37c0,-14.91 1.51,-24.98 4.5,-30.21 3.03,-5.28 9.97,-7.87 20.87,-7.87 2.44,0 5.42,0.19 9.09,0.59 3.62,0.39 6.45,0.63 8.46,0.63 14.52,1.61 22.78,5.82 24.78,12.66l-4.25 25.42 -2.4 26.59 -1.8 15.7 -0.64 9.67 -1.17 36.91 0 25.96 0 10.9 0.58 10.27 0.59 17.55c0,9.28 0.54,16.03 1.52,20.23 1.02,4.26 3.32,10.42 6.94,18.43zm399.62 -183.75l7.24 -1.81c15.3,0 24.19,3.42 26.59,10.27l-6.65 17.54c-0.78,3.62 -1.71,9.05 -2.69,16.33 -1.02,7.24 -2.34,17.5 -3.96,30.8l-1.22 8.46 0 3.66 -0.59 23.56 0 10.27 -1.22 25.42c0,10.07 1.81,17.6 5.48,22.63 3.61,5.04 7.82,6.75 12.66,5.13 2.83,-0.78 5.28,-1.8 7.28,-2.98 5.62,-2.83 12.08,-6.89 19.31,-12.12l6.7 -6.01 17.5 -16.33c3.62,-3.62 7.48,-2.64 11.49,3.03 2.44,3.23 3.61,7.04 3.61,11.49 0,7.23 -4.01,17.11 -12.07,29.62 -12.08,18.53 -28.4,27.77 -48.98,27.77 -6.02,0 -10.66,-0.2 -13.89,-0.59 -3.22,-0.39 -8.26,-1.81 -15.1,-4.25 -17.75,-5.62 -30.85,-16.92 -39.3,-33.83l-9.1 8.46 -1.17 1.22 -9.68 13.88 -4.25 5.48c-9.68,10.46 -18.92,17.2 -27.82,20.24 -8.84,3.03 -21.94,4.54 -39.3,4.54 -28.99,0 -50.45,-7.77 -64.38,-23.32 -13.88,-15.49 -20.82,-38.96 -20.82,-70.39l0 -9.68 0.58 -9.09 1.23 -15.69 1.8 -21.75 6.65 -21.81 6.06 -21.75 1.81 -6.06 10.27 -19.95 8.46 -14.47 1.8 -2.44 9.1 -9.68c15.3,-16.52 31.23,-24.78 47.76,-24.78 9.24,0 21.11,1.81 35.63,5.42 21.76,5.28 36.91,10.12 45.37,14.52 8.45,4.45 16.13,11.49 22.97,21.17l4.84 7.87zm-128.76 178.96c2.01,5.62 6.01,8.46 12.08,8.46 4.84,0 9.68,-1.81 14.51,-5.48l6.02 -6.64 9.09 -11.49 5.43 -7.82 9.67 -13.35 3.62 -5.42 9.68 -18.73c3.62,-9.29 6.26,-19.16 7.87,-29.62l1.22 -9.09 2.4 -17.5 1.22 -7.29 2.4 -16.32 1.22 -8.46 2.39 -12.08c0.83,-6.06 -2.2,-11.78 -9.04,-17.25 -6.84,-5.43 -14.71,-7.33 -23.56,-5.72 -9.29,1.61 -17.55,6.65 -24.79,15.1 -7.28,8.46 -13.93,21.37 -19.99,38.72l-2.39 6.01 -4.26 12.13 -4.2 13.29 -1.22 4.21c-0.79,3.22 -1.42,6.25 -1.81,9.09 -1.62,10.07 -2.4,21.75 -2.4,35.05l0 7.23 0 5.48c0,11.29 0.3,18.92 0.88,22.97 0.59,4.01 1.91,8.85 3.96,14.52zm223.65 111.21c6.06,-2.39 12.31,-3.61 18.77,-3.61 8.06,0 19.94,3.42 35.63,10.26l12.13 6.06 15.69 9.05 9.09 5.47c8.46,4.79 15.89,7.24 22.34,7.24 10.51,0 16.52,-6.85 18.14,-20.58l3.66 -21.76 0.59 -4.2 3.62 -36.27 0 -3.67 2.44 -39.89 1.81 -19.94 2.39 -36.28 -7.87 11.49c-4.84,5.67 -10.07,11.49 -15.69,17.55 -8.45,8.46 -15.54,14.52 -21.16,18.14 -10.47,6.45 -21.95,9.68 -34.47,9.68 -14.08,0 -26.59,-3.67 -37.49,-10.9 -10.85,-7.24 -17.94,-17.11 -21.12,-29.63 -1.22,-3.22 -2.25,-8.26 -3.03,-15.1l-3.67 -24.2c-1.56,-14.91 -2.59,-26.5 -2.98,-34.76 -0.44,-8.26 -0.63,-17.01 -0.63,-26.3 0,-20.97 0.73,-35.98 2.15,-45.02 1.37,-9.09 4.01,-19.75 7.82,-32.07 3.86,-12.27 11.39,-18.43 22.68,-18.43 8.85,0 19.36,4.26 31.43,12.71 4.06,2.84 6.85,6.36 8.46,10.56 1.61,4.26 2.44,7.38 2.44,9.39 0,2 -1.8,9.04 -5.47,21.17l0 20.53 -1.17 18.77 -0.64 6.65 -0.59 12.66 0 10.9 0 14.52 0.59 7.23 0.64 17.55c0,8.07 0.58,14.52 1.8,19.36 1.23,4.84 3.82,7.23 7.87,7.23 2.01,0 3.62,-0.39 4.84,-1.22 6.02,-3.62 12.27,-12.27 18.73,-26l10.26 -21.12 3.03 -7.29c2.84,-5.23 5.23,-10.65 7.24,-16.32 2.05,-5.62 3.42,-9.88 4.25,-12.66l3.03 -12.13 10.85 -34.46c2.06,-7.24 3.67,-13.49 4.84,-18.72 1.23,-5.23 2.25,-10.9 3.03,-16.92 2.45,-19.35 4.84,-32.16 7.29,-38.42 2.39,-6.21 7.62,-9.34 15.69,-9.34 5.23,0 13,1.42 23.27,4.21 10.31,2.83 15.84,4.45 16.62,4.84 4.84,2 7.28,5.86 7.28,11.48 0,2.01 0,3.87 0,5.43 -0.83,3.23 -1.22,5.67 -1.22,7.28l-3.03 23.57 -1.81 12.12 -2.39 36.27 -1.23 22.98 0 12.07 -0.58 12.08 -0.64 19.35 0 5.43 -1.22 26.59 -1.17 32.07 -3.67 26.01 1.22 24.14 0 24.2 0 5.43 -3.03 18.77 -1.17 32.61c0,4.05 -1.13,8.5 -3.33,13.34 -2.24,4.79 -5.76,10.17 -10.6,15.99 -4.84,5.86 -11.78,10.8 -20.83,14.81 -9.09,4.05 -20.87,6.84 -35.39,8.45l-10.9 0.64c-7.63,0 -15.4,-0.93 -23.27,-2.74 -7.82,-1.81 -15.99,-4.74 -24.49,-8.75 -22.54,-10.9 -38.18,-19.94 -46.83,-27.23 -8.65,-7.23 -15.6,-16.71 -20.87,-28.4z"/>
   </g>
  </g>
 </g>
</svg>
