<?xml version="1.0" encoding="UTF-8"?>
<!DOCTYPE svg PUBLIC "-//W3C//DTD SVG 1.1//EN" "http://www.w3.org/Graphics/SVG/1.1/DTD/svg11.dtd">
<!-- Creator: CorelDRAW 2017 -->
<svg xmlns="http://www.w3.org/2000/svg" xml:space="preserve" width="50.7998mm" height="33.8666mm" version="1.1" style="shape-rendering:geometricPrecision; text-rendering:geometricPrecision; image-rendering:optimizeQuality; fill-rule:evenodd; clip-rule:evenodd"
viewBox="0 0 5079.98 3386.66"
 xmlns:xlink="http://www.w3.org/1999/xlink">
 <defs>
  <style type="text/css">
   <![CDATA[
    .fil0 {fill:black}
   ]]>
  </style>
 </defs>
 <g id="Capa_x0020_1">
  <metadata id="CorelCorpID_0Corel-Layer"/>
  <g id="_2921692163344">
   <path class="fil0" d="M315.38 2061.42c34.4,34.06 971.68,12.52 1104.29,13.37l3084.67 1.4c68.01,0 218.2,23.17 264.12,-13.86 -94.42,-5.61 -206.32,1.58 -306.82,1.58 -53.36,0 -106.76,-0.18 -160.12,0.08 -27.65,0.15 -130.27,11.68 -128.17,-21.12l-3258.17 0.32c-10.54,42.7 -245.83,20.59 -296.04,20.59 -99.22,0 -210.68,-8.23 -303.76,-2.36z"/>
   <path class="fil0" d="M1578.14 1230.92l-2.59 182.85 -1083.49 4.79 -4.62 21.72 1110.06 -0.27c-0.29,-142.25 -28.03,-179.43 61.86,-254.62 45.51,-38.08 97.3,-135.82 165.26,-147.04l1238.78 -0.91c150.64,-0.01 172.45,-24.35 253.19,60.67 168.63,177.56 141.07,107.59 139.62,342.2l1111.58 -0.79c3.14,-0.62 5.96,-1.35 8.79,-2.15 2.67,-0.75 5.67,-2.27 7.93,-3.1l14.13 -8.14c-50.4,-24.33 -976.83,-7.7 -1118.44,-7.7 -1.04,-262.06 15.32,-146.13 -155.65,-328.2 -22.34,-23.8 -52.7,-76.8 -90.37,-76.8l-1419.59 0c-28.18,5.28 -177.75,182.44 -236.45,217.49z"/>
   <path class="fil0" d="M2330.67 2472.15l422.66 0c46.83,-14.75 172.49,-24 239.1,-38.41 410.95,-88.88 513.07,-234.56 573.86,-258.42l48.72 36.89 1.72 -1.03c-15.34,-25.53 -32.35,-43.09 -49.84,-68.39 -75.47,51.53 -56.02,59.05 -197.17,133.53 -380.67,200.87 -1017.67,227.52 -1406.94,101.94 -89.55,-28.88 -150.31,-55.79 -234.15,-97.52 -130.18,-64.79 -151.31,-103.62 -202.23,-134.79 -36.29,19.15 -71.26,52.09 -94.67,85.88l-1.98 -103.83 -1249.07 -4.92c-14.15,0.3 -26.6,0.69 -39.85,4.59 -34.88,10.29 -1.1,-9.42 -23.16,13.59 85.77,40.51 1079.9,-20.51 1287.52,11.2l0.06 133.2 107.26 -104.92c79.85,21.83 165.01,161.9 588.85,248.83 57.89,11.87 184.39,20.94 229.31,42.58z"/>
   <path class="fil0" d="M1340.02 1521.23l2369.11 0.11 18.46 -7.67c50.33,-20.05 31.14,3.64 38.04,-23.91l-2550.54 1.2c-0.56,27.85 51.48,1.31 107.69,20.62 3.11,1.07 6.35,3.5 8.78,4.5 2.45,1.01 5.65,3.41 8.46,5.15z"/>
   <path class="fil0" d="M315.38 2061.42c93.08,-5.87 204.54,2.36 303.76,2.36 50.21,0 285.5,22.11 296.04,-20.59 -171.61,1.93 -349.01,2.58 -520.57,0.07 -152.07,-2.22 -274.01,-105.28 -277.12,-254.32 -3.11,-148.99 110.96,-260.33 255.68,-267.69 147.07,-7.47 389.85,-9.07 534.84,1.58 40.57,-25.95 81.46,1.12 81.81,-33.16 -220.67,18.23 -641.38,-56.79 -791.53,60.21 -74.12,57.75 -138.37,175.65 -104.22,304.14 25.31,95.2 117.09,208.73 221.31,207.4z"/>
   <path class="fil0" d="M1739.93 915.06c37.41,34.52 29.66,19.82 128.06,18.74 211.02,-2.31 1391.66,-11.87 1430.44,12.12 34.57,21.4 179.19,183.08 221.74,226.81 78.83,81 2.85,33.45 42.83,179.99l984.79 -23.28c-214.58,-9.43 -738.59,0.73 -961.57,0.73l-2.62 -147.4c-51.74,-29.58 -83.01,-73.71 -139.58,-126.85 -50.12,-47.08 -98.21,-68.19 -125.16,-140.93l-1578.93 0.07z"/>
   <path class="fil0" d="M4175.09 1522.24c156.19,-9.27 363.23,-5.63 521.82,-1.43 148.48,3.93 269.75,106.34 271.38,257.47 1.65,152.3 -113.31,257.88 -260.79,264.53 -167.12,7.53 -365.39,3.12 -534.15,0.06 -2.1,32.8 100.52,21.27 128.17,21.12 53.36,-0.26 106.76,-0.08 160.12,-0.08 100.5,0 212.4,-7.19 306.82,-1.58 59.77,0.49 108.33,-37.3 142.2,-69.84 38.54,-37.03 54.33,-83.04 84.67,-132.26l0 -149.8c-45.33,-79.2 -31.18,-101 -105.66,-157.49 -63.74,-48.35 -108.01,-62.65 -203.54,-63.67 -172.45,-1.84 -356.56,7.63 -527.03,-1.07 6.23,24.3 3.43,19.59 15.99,34.04z"/>
   <path class="fil0" d="M2658.68 2182.04c10.12,19.08 -29.12,11.18 41.5,22.1l369.37 50.69c1.61,-2.57 5.81,2.32 8.52,3.84 -105.45,47.79 -297.74,52.82 -424.42,60.13 -13.29,51.11 8.76,37.92 -27.87,58.84l-170.77 0c-36.22,-20.95 -14.77,-8.06 -27.59,-58.89 -134.01,-9.34 -323.19,-25.01 -440.97,-56.37 21.87,-25.93 -13.88,-12.63 46.43,-22.5l390.11 -43.48 21.34 -51.22 192.13 2.19c0.63,1.45 6.01,15.39 7.16,17.31 12.13,20.29 9.33,12.24 15.06,17.36zm0 0l5.8 -56.88 -230.82 0c-2.04,2.72 -4.1,6.46 -5.32,8.7l-18.75 43.68c-137.64,15.45 -222.29,18.67 -357.61,52.36 -22.51,5.61 -28.75,6.57 -53.5,11.91 -18.74,4.04 -8.77,0.66 -25.19,5.94 -33.84,10.89 -12.9,4.98 -22.69,10.92 113.71,59.01 325.08,55.12 459.75,77.7 11.1,22.04 4.96,17.54 9.58,30.38l13.4 29.63 228.31 0c0.58,-39.04 -7.91,-33.9 6.84,-61.45 123.39,-13.8 372.76,-23.25 456.22,-76.26 -85.19,-46.1 -362.11,-84.56 -466.02,-76.63z"/>
   <path class="fil0" d="M3616.73 2211.18l-1.72 1.03c16.85,38.68 35.67,45.52 64.88,74.34l0.12 -138.3c145.92,0 1250.08,11.25 1289.73,-6.99 -16.57,-29.53 -108.18,-14.38 -145.19,-14.37l-1162.16 -0.09 -3.59 107.84 -42.07 -23.46z"/>
   <path class="fil0" d="M2880.94 1372.28l-83.24 28.91 1.27 -271.48c51.73,13.03 95.29,41.25 112.42,82.87 31.73,77.09 -16.27,114.42 -30.45,159.7zm-120.38 -77.85l-2.23 46.98 2.34 52.23 0.46 52.87 24.78 0.66c15.25,-5.41 5.68,-14.92 33.59,-28.74 12.29,-6.09 23.19,-7.44 41.38,-17.71 23.03,31.4 15.56,36.41 54.7,48.37 -10.02,-44.95 -18.18,-32.61 -34.64,-76.81 97.93,-27.75 82.41,-232.49 -50.92,-258.65l-97.48 -3.69c-32.69,6.22 -13.07,-5.98 -29.85,17.27l61.97 -4.82 -4.1 172.04z"/>
   <path class="fil0" d="M758.11 1681.96c5.21,29.43 95.42,189.17 -96.27,230.62l0.43 -264.05c47.68,4.3 28.49,7.01 64.04,23.7 34.6,16.25 -17.96,4.28 31.8,9.73zm-137.3 224.12l5.34 55.38c79.3,-3.37 -26.8,13.47 86.26,-34.14 65.36,-27.53 122.86,-124.68 83.34,-217.14 -23.24,-54.37 2.2,-30.38 -37.64,-28.22 1.23,-54.55 -81.2,-63.32 -131.65,-54.38l-5.65 278.5z"/>
   <path class="fil0" d="M2387.44 1347.6c27.03,28.82 20.7,20.55 27.26,64.26 -6.24,-7.69 -10.22,-6.11 -17.6,-23.02 -10.36,-23.7 -6.27,-15.45 -9.66,-41.24zm40.24 63.44l6.5 -13.72 30.76 7.41 -94.27 -287.88c-19.97,27.72 -28.51,56.59 -24.12,95.81l-7.09 3.01c-23.3,20.03 -46.76,111.45 -57.17,162.08l9.44 -15.83c1.13,-2.27 6.47,-12.91 7.83,-16.04 14.38,-33.04 16.37,-59.43 38.4,-90.84l47.38 142.86c-93.47,4.19 -92.85,-8.73 -109.15,-8.16 -1.87,0.07 -27.63,8.89 -36.2,9.73l22.89 45.36c51.82,-57.83 105.77,-31.93 155.06,2.61 -12.06,-69.45 -4.79,-13.48 9.74,-36.4z"/>
   <path class="fil0" d="M2262.84 1906.08l32.12 0 0 55.8c22.28,-10.31 25.85,7.06 22.59,-76.4l0.54 -256c-96.42,-13.84 -26.05,21.77 -82.35,6.26 -3.87,-1.07 -27.39,-9.13 -40.96,-10.87l1.09 340.34c27.37,-39.35 12.87,-107.83 13.53,-154.83 0.79,-55.85 -1.23,-112.11 3.11,-167.75 77.49,25.88 51.43,181.56 50.33,263.45z"/>
   <path class="fil0" d="M913.75 1921.23l-3.92 -251.03c108.87,-73.42 251.89,-15.37 257.49,118.64 5.17,123.76 -142.1,217.66 -253.57,132.39zm-18.9 6.56c65.32,62.39 172.6,57.49 233.89,-2.71 147.04,-144.43 -27.24,-381.26 -202.93,-288.83 -47.44,24.96 -33.04,77.62 -32.31,131.43 0.7,52.38 -0.73,108.86 1.35,160.11z"/>
   <path class="fil0" d="M2503.32 1919.24l-1.61 -248.08 37.23 -22.12c16.1,-7.26 26.01,-10.49 43.93,-12.3 33.52,-3.38 64.3,5.28 90.9,19.04 41.72,21.58 81.63,66.56 84.18,133.01 4.44,116.03 -104.32,190.26 -213.7,155.48l-40.93 -25.03zm-16.39 -247.48l4.46 250.39c29.26,62.15 131.2,58.38 188.73,28.73 52.83,-27.22 96.2,-78.49 94.86,-161.78 -2.79,-173.53 -243.47,-219.55 -288.05,-117.34z"/>
   <path class="fil0" d="M3639.52 1883.28c-52.88,24.65 -38.51,50.02 -96.95,63.84 -56.67,13.39 -101.35,4.97 -140.52,-27.23l-3.83 -247.35c59.5,-46.88 136.63,-52.78 197.36,1.01 73.52,65.12 59.57,105.59 43.94,209.73zm-256.73 -212.17c7.69,86.85 5.38,168.6 5.97,251.12 13.48,28.47 -17.07,-0.74 17.76,26.06 54.13,41.66 212.22,31.98 233,-65.01l27.6 -45.16c51.54,-195.46 -222.25,-284.54 -284.33,-167.01z"/>
   <path class="fil0" d="M1227.49 1961.33l0.01 -54.94 35.16 0 2.52 -281.29 -75.68 -0.01c32.76,44.55 22.77,176.97 20.75,249.56 -2.67,95.44 -3.82,68.41 17.24,86.68z"/>
   <path class="fil0" d="M3895.89 1961.33l0.01 -54.94 33.9 0 2.3 -281.29 -76.22 2.47c30.82,29.77 21.78,5.6 23.2,64.59l-2.19 225.57c6.33,70.1 -8,20.16 19,43.6z"/>
   <path class="fil0" d="M4194.75 1960.39l0.02 -54.31 35.26 0 2.67 -281.21 -76.05 3.86c38.16,31.41 21.43,42.89 22.05,160.3l-1.5 128.67c5.54,64.44 -6.61,20.84 17.55,42.69z"/>
   <path class="fil0" d="M2551.02 1445.11l0.01 -44.66 35.51 0 2.08 -283.82 -55.08 8.74 0.84 183.35c0.47,71.97 -12.17,115.74 16.64,136.39z"/>
   <path class="fil0" d="M3714.44 1961.33l0.01 -54.94 32.64 0 2.07 -281.3 -74.07 2.96c37.87,35.3 21.22,38.46 22.01,160.98 0.19,28.49 1.16,57.04 0.37,85.5 -0.19,7.15 -2.37,39.48 -2.03,43.2 6.33,70.1 -8.01,20.16 19,43.6z"/>
   <path class="fil0" d="M4406.31 1925.83c0.5,44.57 -19.6,8.81 24.79,34.65 9.77,5.68 39.77,12.98 51.89,13.98 44.55,3.7 67.94,-4.39 94.72,-32.35l8.53 -117.72 3.74 -77.18c-33.44,-33.04 -71.43,-53.37 -119.51,-57.12 8.77,37.59 -19.94,9.92 37.12,34.65 54.52,23.63 42.35,-13.19 41.6,213.75 -58.06,16.92 -96,0.41 -142.88,-12.66z"/>
   <path class="fil0" d="M3709.13 1521.34l465.96 0.9c-12.56,-14.45 -9.76,-9.74 -15.99,-34.04l-393.47 1.56c-6.9,27.55 12.29,3.86 -38.04,23.91l-18.46 7.67z"/>
   <path class="fil0" d="M3952.86 1945.59l-1.73 -303.62c225.79,-3.91 237.63,311.89 1.73,303.62zm-16.99 19.38c112.09,-0.54 198.09,-47.31 202.05,-165.97 3.83,-114.75 -87.75,-173.34 -203.12,-173.91l1.07 339.88z"/>
   <path class="fil0" d="M2060.03 1446.17l-0.11 -45.72 34.99 0 1 -191.34 -35.83 0c0,-1.95 1.06,-49.56 0.96,-50.06 -7.89,-38.45 2.52,-21.94 -24.54,-42.4l3.9 298.89c7.38,34.39 -7.72,12.24 19.63,30.63z"/>
   <path class="fil0" d="M597.74 1960.39l0.02 -54.31 23.05 0 5.65 -278.5 -63.97 -3.18c1.99,3.42 5.06,3.9 5.87,9.4l9.1 18.52c0.94,3.16 2.05,5.95 2.84,9.54l-0.11 255.84c5.55,64.44 -6.6,20.84 17.55,42.69z"/>
   <path class="fil0" d="M1462.55 1833.42l-10.22 1.78c-17.03,75.87 -73.21,114.2 -168.03,110.55l-1.72 -303.93c96.54,-2.41 148.85,41.47 168.4,116.39l12.32 -0.18c-16.23,-94.41 -87.59,-132.41 -198.17,-132.77l1.15 339.53c112.68,-0.35 180.46,-34.44 196.27,-131.37z"/>
   <path class="fil0" d="M1842.59 1637.05c0,16.43 -3.96,11.75 12.99,12.96 62.98,-15.08 114.61,-23 165.96,17.44 171.14,134.77 -5.51,343.95 -156.51,272.89 -21.09,-9.93 -21.07,-16.17 -28.15,-24.59 -14.33,9.28 -11.93,-16.68 -10.83,23.7 124.73,81.99 269.76,0.95 278.25,-128.75 9.68,-147.89 -117.97,-222.12 -261.71,-173.65z"/>
   <polygon class="fil0" points="513.07,1820.81 512.62,1898 515.71,1964.72 549.01,1968.62 547.79,1621.3 515.82,1624.96 "/>
   <path class="fil0" d="M308.92 1962.77c6.11,-11.67 5.72,-2.17 9.62,-24.82l3.29 -220.23 89.35 0.84 2.02 247.39c30.09,-40.47 16.04,-292.32 16.2,-341.75 -13.59,16.67 -11.42,6 -17.2,36.37 -0.31,1.64 -0.36,32.65 -0.6,38.43l-90.55 2.33c-2.89,-49.37 4.17,-46.87 -13.06,-74.24l0.93 335.68z"/>
   <path class="fil0" d="M3043.79 1405.33c-19.95,0 -14.92,-4.93 -14.66,15.2 112.93,67.85 244.15,16.55 276.39,-93.53 46.5,-158.78 -136.78,-267.47 -207.35,-213.23 65.11,17.8 106.75,8.29 150.96,51.84 29.51,29.06 55.72,87.85 43.92,148.5 -19.67,101.06 -160.62,168.95 -249.26,91.22z"/>
   <path class="fil0" d="M2996.44 1164.52c15.53,17.77 6.88,-1.79 14.27,26.8 7.76,30.05 -10.04,153.13 -5.56,205.49 9.27,13.62 11.83,15.16 23.98,23.72 -0.26,-20.13 -5.29,-15.2 14.66,-15.2l-1.65 -246.05 50.01 -37.72c1.62,-1.74 4.15,-5.09 6.02,-7.79 -31.85,-5.25 5.28,-9.32 -33.97,-0.85l-24.92 10.21c-33.38,22.5 1.01,15.05 -42.84,41.39z"/>
   <path class="fil0" d="M2323.57 1963.72c32.07,-41.92 10.46,-260.45 16.44,-320.24 83.89,30.62 46.21,234.36 45.75,322.34 14.88,-17.43 14.55,-4.47 19.14,-37.36l-1.7 -160.79c1,-84.14 4.25,-130.94 -82.42,-143.25l2.79 339.3z"/>
   <path class="fil0" d="M2135.45 1811.52c46.43,14.28 8.39,13.75 54.08,-1.09l0.57 -183.07 -79.24 -2.14c37.03,45.68 26.63,82.49 24.59,186.3z"/>
   <path class="fil0" d="M245.55 1821.51l54.08 -11.08 0.53 -183.07 -75.04 -1.11c28.75,33.66 20.91,29.87 20.64,87.78 -0.17,35.87 0.27,71.62 -0.21,107.48z"/>
   <path class="fil0" d="M4234.21 1963.51l125.68 2.48c-46.38,-42.91 -28.56,-9.56 -106.24,-23.91l-2.16 -221.11c16.48,-2.14 31.77,-1.15 39.94,-2.34l-38.45 -19.23 -0.62 -53.91c26.59,-4.74 26.17,-2.02 49.44,-3.53 50.99,-3.33 38.37,-2.08 57.51,-17.43l-126.22 0.83 1.12 338.15z"/>
   <path class="fil0" d="M3754.89 1966.01c31.65,-41.72 7.6,-207.45 17.36,-321.18 103.11,22.41 17.62,252.48 62.67,317.78l-0.07 -323c-14.21,-6.1 -5.98,-0.69 -12.1,-0.99 -13.15,-0.64 4.56,3.17 -13.68,-0.66 -20.31,-4.26 -23.4,-9.22 -55.23,-13.83l1.05 341.88z"/>
   <path class="fil0" d="M1697.69 1691.92c10.27,48.27 75.71,191.92 -107.66,223.33l0.32 -271.74c84.11,6.56 52.93,36.56 107.34,48.41zm-118.67 271.49c36.38,-46.93 10.88,-18.05 75.47,-47.3 27.08,28.75 18.77,34.85 50.46,44.84l-33.85 -66.9c83.67,-53.66 72.07,-183.87 26.59,-202.13 -25.66,-49.53 -54.35,-62.46 -122.95,-66.89 10.81,59.46 6.59,114.54 9.36,174.68 3.03,65.84 -7.92,108.61 -5.08,163.7z"/>
   <path class="fil0" d="M908.01 1522.83l432.01 -1.6c-2.81,-1.74 -6.01,-4.14 -8.46,-5.15 -2.43,-1 -5.67,-3.43 -8.78,-4.5 -56.21,-19.31 -108.25,7.23 -107.69,-20.62l-225.27 -1.29c-0.35,34.28 -41.24,7.21 -81.81,33.16z"/>
   <path class="fil0" d="M1512.41 1820.81l47.78 0 2.34 -196.52 -71.46 1.59c1.85,2.06 5.15,2.22 5.88,6.47 2.76,16.19 15.97,-15.12 15.56,81.61 -0.16,35.68 0.45,71.18 -0.1,106.85z"/>
   <path class="fil0" d="M467.73 1820.81l45.34 0 2.75 -195.85 -70.05 0.78c1.88,2.14 5.23,2.21 5.97,6.41 2.69,15.35 16.61,-13.49 16.12,81.84 -0.17,35.66 0.37,71.17 -0.13,106.82z"/>
   <polygon class="fil0" points="2615.09,2238.2 2615.46,2172.91 2465.73,2173.32 2480.9,2238.15 "/>
   <polygon class="fil0" points="2614.47,2296.66 2467.58,2290.75 2464.59,2351.77 2618.62,2354.81 "/>
   <path class="fil0" d="M4726.15 1774.64l33.1 69.25c9.53,26.74 15.83,42.68 22.09,72.93l-101.01 -6.37 45.82 -135.81zm92.78 178.26c-68.2,-41.74 11.72,65.11 -32.7,-36.08l-8.11 -22.67c-14.25,-36.54 0.09,-15.65 -18.87,-30.6l7.14 -48.1c-1.45,-3.25 -9.45,-26.77 -13.67,-38.81l-27.48 -46.65c-8.45,36.65 -41.37,153.33 -72.04,186.93l-11.37 10.87c18.32,22.21 7.72,-4.34 8.02,38.21l100.78 -34.51c44.02,3.23 31.33,2.68 52.57,29.39l15.73 -7.98z"/>
   <path class="fil0" d="M1793.96 1689.92c31.07,5.45 13.06,194.12 -3.15,218.02 15.66,12.12 21.36,16.32 35.24,31.51 -1.1,-40.38 -3.5,-14.42 10.83,-23.7 -2.62,-82.93 -15.65,-198.66 18.7,-265.74 -16.95,-1.21 -12.99,3.47 -12.99,-12.96 -37.4,17.89 -23.19,11.15 -48.63,52.87z"/>
   <path class="fil0" d="M1790.81 1907.94c16.21,-23.9 34.22,-212.57 3.15,-218.02 -73.19,43.83 -26.69,164.62 -3.15,218.02z"/>
   <path class="fil0" d="M4766.39 1815.45l60.56 7.85c-10.43,-42.13 -44.07,-155.25 -69.18,-186.94 -41.73,135.05 13.36,95.47 8.62,179.09z"/>
   <path class="fil0" d="M3126.12 1949.01c-4.09,-6.06 -3.01,-6.26 -12.74,-17.02 -7.88,-8.71 -6.04,-5.87 -15.21,-14.87l-0.21 -250.63c105.16,-68.31 133.5,-14.35 209.56,5.02 -36.63,-62.45 -162.65,-69.36 -223.41,-10.56l-2.31 277.92 44.32 10.14z"/>
   <path class="fil0" d="M3005.15 1396.81c-4.48,-52.36 13.32,-175.44 5.56,-205.49 -7.39,-28.59 1.26,-9.03 -14.27,-26.8 -55.43,110.16 -49.03,132.54 8.71,232.29z"/>
   <polygon class="fil0" points="1856.8,1338.21 1914.45,1338.21 1914.82,1205.77 1856.51,1205.77 "/>
   <polygon class="fil0" points="2718.03,1294.43 2760.56,1294.43 2764.66,1122.39 2702.69,1127.21 2717.24,1129.02 "/>
   <path class="fil0" d="M3319.84 1819.15c4.05,29.62 3.9,41.65 20.02,65.82 20.05,30.07 23.82,29.3 48.9,37.26 -0.59,-82.52 1.72,-164.27 -5.97,-251.12l-20.79 18.41c19.53,19.11 6.07,111.65 -0.16,141.05l-42 -11.42z"/>
   <path class="fil0" d="M2422.25 1823.87c2.04,21.61 10.11,43.03 20.75,61.12 20.36,34.61 18.79,30.4 48.39,37.16l-4.46 -250.39 -22.68 13.64c17.75,24.49 7.35,109.9 1.31,144.52l-43.31 -6.05z"/>
   <path class="fil0" d="M4818.93 1952.9c4.37,-45.06 10.44,-11.84 -8.62,-59.91l45.95 5.42 -29.31 -75.11 -60.56 -7.85 -7.14 48.1c18.96,14.95 4.62,-5.94 18.87,30.6l8.11 22.67c44.42,101.19 -35.5,-5.66 32.7,36.08z"/>
   <path class="fil0" d="M1560.19 1820.81l-0.45 77.19 2.62 67.45 16.66 -2.04c-2.84,-55.09 8.11,-97.86 5.08,-163.7 -2.77,-60.14 1.45,-115.22 -9.36,-174.68l-12.21 -0.74 -2.34 196.52z"/>
   <path class="fil0" d="M2604.44 1445.44l6.14 -320.11 -23.59 -14.33c0.38,58.41 0.72,117.48 1.59,176.37l-1.57 128.7c5.09,33.44 -0.46,14.09 17.43,29.37z"/>
   <path class="fil0" d="M3021.06 1810.43l56.46 12.38 -0.34 -149.78c-39.01,24.04 -62.18,77.36 -56.12,137.4z"/>
   <path class="fil0" d="M832.94 1810.54l55.82 12.27 -1.26 -146.41c-43.21,26.13 -58.69,76.88 -54.56,134.14z"/>
   <path class="fil0" d="M2422.25 1823.87l43.31 6.05c6.04,-34.62 16.44,-120.03 -1.31,-144.52 -38.16,29.29 -40.11,79.67 -42,138.47z"/>
   <path class="fil0" d="M3319.84 1819.15l42 11.42c6.23,-29.4 19.69,-121.94 0.16,-141.05 -19.22,10.11 -22.82,19.35 -31.93,45.9 -8.65,25.24 -10.12,53.67 -10.23,83.73z"/>
   <path class="fil0" d="M2135.63 1904.61l37.85 -8.3 10.93 67.69c1.24,-3.15 5.22,-1.13 7.36,-25.46 1.28,-14.53 -0.37,-27.79 -0.98,-42.17 -1.26,-29.45 -1.2,-56.39 -1.26,-85.94 -45.69,14.84 -7.65,15.37 -54.08,1.09l0.18 93.09z"/>
   <path class="fil0" d="M245.74 1897.53l38.74 0 10.71 66.47c12.67,-36 4.55,-105.03 4.44,-153.57l-54.08 11.08 0.19 76.02z"/>
   <path class="fil0" d="M1856.51 1205.77l58.31 0 -2.26 -85.76c-10,0 -23.75,-0.69 -33.53,0.78 -22.12,3.3 -13.53,-0.61 -23.79,9.77l1.27 75.21z"/>
   <path class="fil0" d="M4586.24 1824.39l-8.53 117.72c24.04,-13.8 5.38,7.31 26.77,-21.88 6.67,-9.1 13.68,-26.75 16.9,-35.77 10.79,-30.19 19,-59.41 -4.08,-81.33l-6.22 21.26 -24.84 0z"/>
   <path class="fil0" d="M2308.46 2258.67c15.85,28.9 30.79,18 71.81,18.04 42.35,0.05 56.62,11.01 72.45,-18.04 -8.79,-7.26 16.97,-14.35 -72.44,-14.31 -41.18,0.02 -47.34,-6.48 -71.82,14.31z"/>
   <path class="fil0" d="M2117.92 1131.39c3.1,-18.59 5.49,-11.7 -16.8,-11.7l-1.5 328.27 15 -245.8c34.69,-1.99 58.84,3.6 80.51,-10.85l-79.48 -7.41 2.27 -52.51z"/>
   <path class="fil0" d="M3077.52 1822.81l-56.46 -12.38c10.51,59.48 17.49,79.41 57.92,109.88l-1.46 -97.5z"/>
   <path class="fil0" d="M888.76 1822.81l-55.82 -12.27c4.83,27.12 7.25,42.45 19.24,65.61 13.92,26.88 16.85,26.14 36.03,40.81l0.55 -94.15z"/>
   <polygon class="fil0" points="1512.64,1898 1559.74,1898 1560.19,1820.81 1512.41,1820.81 "/>
   <path class="fil0" d="M2095.91 1209.11l-0.18 -96.94 -59.23 4.48c27.06,20.46 16.65,3.95 24.54,42.4 0.1,0.5 -0.96,48.11 -0.96,50.06l35.83 0z"/>
   <path class="fil0" d="M2630.11 2258.67c25.18,18.76 69.65,23.27 103.05,17.34 53.42,-9.48 17.82,-2.38 38.46,-17.34 -38.5,-21.69 -107.19,-19.86 -141.51,0z"/>
   <polygon class="fil0" points="467.94,1898 512.62,1898 513.07,1820.81 467.73,1820.81 "/>
   <path class="fil0" d="M3126.12 1949.01c46.87,43.6 159.38,18.72 179.97,-29.09 -101.76,34.43 -55.79,27.93 -179.97,29.09z"/>
   <polygon class="fil0" points="1562.36,1965.45 1559.74,1898 1512.64,1898 1511.75,1963.6 "/>
   <polygon class="fil0" points="1856.53,1393.64 1914.78,1393.64 1914.45,1338.21 1856.8,1338.21 "/>
   <polygon class="fil0" points="515.71,1964.72 512.62,1898 467.94,1898 467.14,1963.6 "/>
   <polygon class="fil0" points="1914.78,1393.64 1856.53,1393.64 1856.92,1446.97 1914.07,1446.97 "/>
   <path class="fil0" d="M4818.93 1952.9c9.39,5.79 6.06,13.04 56.68,8l-19.35 -62.49 -45.95 -5.42c19.06,48.07 12.99,14.85 8.62,59.91z"/>
   <polygon class="fil0" points="295.19,1964 284.48,1897.53 245.74,1897.53 245.11,1963.61 "/>
   <polygon class="fil0" points="2184.41,1964 2173.48,1896.31 2135.63,1904.61 2135.03,1962.69 "/>
   <path class="fil0" d="M4470.47 1690.09l2.18 -49.15 67.6 15.98c-43.97,-94.14 -128.94,14.64 -69.78,33.17z"/>
   <polygon class="fil0" points="2761.13,1446.51 2760.67,1393.64 2717.72,1393.64 2718.22,1446.97 "/>
   <polygon class="fil0" points="2717.72,1393.64 2760.67,1393.64 2758.33,1341.41 2717.8,1341.41 "/>
   <path class="fil0" d="M2117.92 1131.39l105.46 -3.72 -5.33 -18.09c-20.6,0.07 -42.28,-0.88 -62.31,-0.57 -39.5,0.59 -27.87,-3.66 -54.62,10.68 22.29,0 19.9,-6.89 16.8,11.7z"/>
   <polygon class="fil0" points="1227.49,1961.33 1264.04,1963.89 1262.66,1906.39 1227.5,1906.39 "/>
   <polygon class="fil0" points="4194.75,1960.39 4231.29,1964.01 4230.03,1906.08 4194.77,1906.08 "/>
   <polygon class="fil0" points="2717.8,1341.41 2758.33,1341.41 2760.56,1294.43 2718.03,1294.43 "/>
   <polygon class="fil0" points="2427.68,1411.04 2424.46,1441.92 2482.37,1445.09 2464.94,1404.73 2434.18,1397.32 "/>
   <polygon class="fil0" points="3895.89,1961.33 3931.06,1963.89 3929.8,1906.39 3895.9,1906.39 "/>
   <path class="fil0" d="M1484.17 1338.29l20.89 13.27c-7.34,-28.87 -7.82,-56.9 -7.69,-85.79 0.21,-51.56 4.45,-50.63 -11.59,-75.35l-1.61 147.87z"/>
   <polygon class="fil0" points="3714.44,1961.33 3748.22,1963.89 3747.09,1906.39 3714.45,1906.39 "/>
   <polygon class="fil0" points="2294.96,1961.88 2294.96,1906.08 2262.84,1906.08 2261.64,1963.6 "/>
   <path class="fil0" d="M2890.13 1814.24c49.99,14.9 65.24,-36.87 5.19,-42.74 -8,11.7 -8.8,1.65 -9.95,20.04 -2.75,43.74 -2.64,4.86 4.76,22.7z"/>
   <path class="fil0" d="M4586.24 1824.39l24.84 0 6.22 -21.26c-2.63,-42.12 -1.17,-26.91 -27.32,-55.92l-3.74 77.18z"/>
   <polygon class="fil0" points="2551.02,1445.11 2586.41,1447.2 2586.54,1400.45 2551.03,1400.45 "/>
   <polygon class="fil0" points="2060.03,1446.17 2094.79,1447.06 2094.91,1400.45 2059.92,1400.45 "/>
   <path class="fil0" d="M1452.33 1835.2l10.22 -1.78c15.36,-29.12 19.39,-47.32 0.75,-75.39l-12.32 0.18 1.35 76.99z"/>
   <polygon class="fil0" points="597.74,1960.39 626.15,1961.46 620.81,1906.08 597.76,1906.08 "/>
   <path class="fil0" d="M1855.24 1130.56c10.26,-10.38 1.67,-6.47 23.79,-9.77 9.78,-1.47 23.53,-0.78 33.53,-0.78 -31.55,-18.02 -71.67,-10.75 -117.85,-10.75l60.53 21.3z"/>
   <path class="fil0" d="M2547.47 1126.66c10.25,-10.37 1.66,-6.47 23.78,-9.77 9.78,-1.46 23.54,-0.77 33.53,-0.77 -31.55,-18.03 -71.66,-10.75 -117.85,-10.75l60.54 21.29z"/>
   <path class="fil0" d="M4406.31 1925.83l-37.11 -91.15c-3.86,30.29 1.26,86.37 37.11,91.15z"/>
   <path class="fil0" d="M2414.7 1411.86c-6.56,-43.71 -0.23,-35.44 -27.26,-64.26 3.39,25.79 -0.7,17.54 9.66,41.24 7.38,16.91 11.36,15.33 17.6,23.02z"/>
   <path class="fil0" d="M972.04 1607.06l68.42 -47.52c-36.97,10.78 -55.77,19.56 -68.42,47.52z"/>
   <path class="fil0" d="M1629.77 1058.66l32.56 -26.26c-25.78,5.24 -28.51,-1.95 -32.56,26.26z"/>
   <path class="fil0" d="M1695.09 992.73l32.61 -25.62c-22.06,5.03 -27.04,-5.9 -32.61,25.62z"/>
   <path class="fil0" d="M1502.24 1185.91l32.32 -25.77c-26.96,6.27 -27.88,-2.98 -32.32,25.77z"/>
   <path class="fil0" d="M1566.72 1121.38l31.33 -25c-25.25,6.1 -27.16,-2.23 -31.33,25z"/>
   <path class="fil0" d="M3317.21 914.58c-37.42,34.52 -29.67,19.82 -128.07,18.75 -211.01,-2.32 -1391.66,-11.88 -1430.43,12.11 -34.58,21.4 -179.2,183.09 -221.75,226.81 -78.83,81 -2.85,33.45 -42.83,179.99l-984.79 -23.28c214.59,-9.43 738.59,0.73 961.58,0.73l2.62 -147.39c51.73,-29.59 83,-73.71 139.57,-126.86 50.12,-47.08 98.21,-68.19 125.17,-140.92l1578.93 0.06z"/>
   <path class="fil0" d="M1918.59 1130.56c-10.26,-10.38 -1.67,-6.47 -23.78,-9.77 -9.79,-1.47 -23.54,-0.78 -33.54,-0.78 31.56,-18.02 71.67,-10.75 117.86,-10.75l-60.54 21.3z"/>
   <path class="fil0" d="M2610.81 1126.66c-10.26,-10.37 -1.67,-6.47 -23.78,-9.77 -9.78,-1.46 -23.54,-0.77 -33.54,-0.77 31.56,-18.03 71.67,-10.75 117.86,-10.75l-60.54 21.29z"/>
   <path class="fil0" d="M2118.21 1446.36l105.46 -3.72 -5.33 -18.1c-20.6,0.08 -42.28,-0.87 -62.31,-0.57 -39.5,0.6 -27.86,-3.65 -54.62,10.69 22.29,0 19.9,-6.89 16.8,11.7z"/>
  </g>
 </g>
</svg>
