<?xml version="1.0" encoding="UTF-8"?>
<!DOCTYPE svg PUBLIC "-//W3C//DTD SVG 1.1//EN" "http://www.w3.org/Graphics/SVG/1.1/DTD/svg11.dtd">
<!-- Creator: CorelDRAW 2017 -->
<svg xmlns="http://www.w3.org/2000/svg" xml:space="preserve" width="347.472mm" height="228.549mm" version="1.1" style="shape-rendering:geometricPrecision; text-rendering:geometricPrecision; image-rendering:optimizeQuality; fill-rule:evenodd; clip-rule:evenodd"
viewBox="0 0 34747.2 22854.92"
 xmlns:xlink="http://www.w3.org/1999/xlink">
 <defs>
  <style type="text/css">
   <![CDATA[
    .str0 {stroke:#BD1455;stroke-width:605.26;stroke-linecap:round;stroke-linejoin:round;stroke-miterlimit:22.9256}
    .str2 {stroke:#BD1455;stroke-width:605.28;stroke-linecap:round;stroke-linejoin:round;stroke-miterlimit:22.9256}
    .str1 {stroke:#BD1455;stroke-width:605.28;stroke-linecap:round;stroke-linejoin:round;stroke-miterlimit:22.9256}
    .fil1 {fill:none}
    .fil2 {fill:#FEFEFE}
    .fil4 {fill:#D2D3D5}
    .fil0 {fill:#6B0A46}
    .fil3 {fill:#373435;fill-rule:nonzero}
   ]]>
  </style>
 </defs>
 <g id="Capa_x0020_1">
  <metadata id="CorelCorpID_0Corel-Layer"/>
  <path class="fil0" d="M29928.14 11716.69l42.33 32.04c-2.77,-2.07 -53.02,-17.92 -42.33,-32.04zm-5056.82 191.23l0 0zm-5736.01 793.53l0 0zm-5371.28 -1163.15l42.36 32c-2.81,-2.06 -53.05,-17.87 -42.36,-32zm197.62 -408.57l-31.49 277.56 31.49 -277.56zm9494.15 -1186.37l31.49 -277.56 -31.49 277.56zm-1264.21 47.84l42.36 32c-2.81,-2.06 -53.06,-17.91 -42.36,-32zm-7090.43 1107.94l31.52 -277.56 -31.52 277.56zm7288.05 -1516.55l-31.49 277.59 31.49 -277.59zm7646.35 1992.18c-117.77,-1017.97 778.52,-5833.49 1667.34,-5204.29 125.36,88.79 161.88,-80.03 41.19,558.65 -55.95,296.07 -98.23,520.33 -170.23,786.27 -176.15,650.74 -1158.36,3491.14 -1538.3,3859.37zm-10900.25 1126.68c-71.84,-620.83 80.41,-1130.05 167.33,-1659.51l840.56 -4834 1246.97 -172.51c-330.25,1031.29 -409.92,2452.08 -695.02,3604.5 -161.13,651.29 -1177.5,2690.93 -1559.84,3061.52zm-5173.66 -1571.72c-55.33,-1015.51 625.13,-2553.86 691,-3272.67 -1075.41,-522.91 -850.2,-239.12 -1457.89,-433.73 -653.75,1344.45 -1323.92,5502.75 -1083.25,6886.25 90.99,523.08 701.72,1353.15 1581.04,1305.21 -28.02,-514.28 407.39,-1914.95 561.83,-2365.67l659.43 -1845.24c71.58,-135.4 129.19,-215.53 187.35,-304.74 93.5,1715.65 -1088.08,2643.56 648.66,3569.73 1241.6,662.1 1255.48,-504.95 1743.25,-977.73 1918.85,2664.35 2001.49,198.44 2889.2,-1162.2 85.17,736.17 -163.68,745.27 353.2,1299.31 317.26,340.08 638.53,677.92 1186.99,648.01 -41.24,-756.91 850.66,-3099.72 1232.46,-3979.17l300.88 -553.73c90.3,1657.08 -954,2513.37 510.16,3455.45 435.37,280.16 575.38,333.92 1271.53,237.61 218.44,-449.2 522.4,-769.32 575.68,-1350.47l290.88 500.65c141.86,226.06 194.8,281.16 339.73,436.11 1262.69,1350.22 1589.17,-362.68 2129.95,-1191.56 302.86,789.41 711.82,1404.05 1703.34,1289.33 524.64,-467.14 878.66,-1473.47 953.7,-2292.33 20.84,24.61 36.6,38.03 48.04,83.99 146.5,589.21 825.34,1498.62 1707.06,1579.46 780.74,-695.19 1735.92,-3414.09 1757.18,-4496.76 12.03,-613.23 25.68,-478.41 -310.09,-659.62 -45.69,498.29 -388.65,1199.7 -607.3,1661.43l-849.14 1590c-207.53,-1793.6 965.03,-5178.75 1003.97,-5603.41 -1019.17,-371.11 -1164.26,-282.49 -1582.59,-416.48 -142.88,293.84 -234.53,406.33 -270.6,799.94 -1840.38,-894.86 -2332.01,-594.75 -3102.1,1782.47 -266.4,822.31 -472.6,3390.29 -1518.03,4321.2 -98.16,-1800.88 1060.98,-5195.48 1111.39,-5745.36 -225.9,-109.85 -415.52,-217.91 -674.38,-288.95 -300.94,-82.57 -493.19,-51.8 -783.51,-144.78 -927.01,1906.46 -932.71,5101.69 -2289.35,6416.64 -122.88,-1061.89 673.11,-3987.59 982.77,-4837.96 -508.52,-247.27 -827.79,-622.2 -1492.41,-683.1 -1025.23,912.91 -1506.49,2744.09 -1972.47,3195.73 -28.48,-522.47 179.22,-1292.56 298.87,-1783.25 97.94,-401.6 359.7,-1508.92 340.38,-1863.46l997.59 -138.01c-162.62,-725.52 -299.41,-655.01 -654.07,-1053.25l544.24 -1598.82c-524.2,-190.81 -963.63,-360.5 -1585.65,-417.5l-704.3 2257.82 -1122.26 155.26c113.27,-311.14 321.76,-752.34 360.78,-1066.56 -549.93,-267.41 -700.28,-518.58 -1582.63,-416.48 -117.88,323.81 -211.27,610.39 -328.05,979.65 -139.8,441.97 -103.51,643.11 -503.24,847.15 -39.47,20.15 -2541.43,543.51 -2650.81,561.13 356.35,846.6 1616.52,538.87 2722.1,385.93 -536.02,1472.03 -618.84,5325.34 -2112.9,6773.46 -90.37,-1658.11 1083.63,-4676.09 965.52,-4962.67 -464.02,-521.12 -713.47,-490.86 -1367.71,-700.35 -1114.74,992.62 -1655.01,3208.66 -2045.42,3587.09z"/>
  <path class="fil0" d="M9439.58 15186.5l31.53 -277.56 -31.53 277.56zm-1083.81 -485.48l42.37 32.03c-2.81,-2.06 -53.06,-17.91 -42.37,-32.03zm1083.81 485.48c216.59,1871.56 -1269.4,4566.99 1227.25,4278.09 -325.29,-2351.34 1016.19,-9286.68 1651.13,-11030.36 -467.2,-227.16 -911.17,-453.06 -1582.63,-416.48l-970.44 3396.02c-231.86,685.5 -928.47,2783.58 -1301.66,3145.33 -195.69,-1691.31 1103.88,-5499.65 1076.92,-5994.77 -1075.44,-522.91 -850.23,-239.12 -1457.92,-433.73 -1134.31,2332.8 -473.01,3682.07 -1498.38,5005.92 -517.53,668.25 -949.87,1220.39 -1545.55,1844.29 -3698.43,3873.74 -3720.08,-2958.54 -1348.24,-6714.03 412.49,-653.14 1036.61,-1428.46 2030.85,-1588.63 201.74,1458.27 -19.54,2353.33 -465.69,3666.47 -132.05,388.66 -350.36,815.58 -392.38,1154.25 667.07,-441.67 637.63,-299.31 1219.46,-1086.39 1005.43,-1360.14 2061.24,-3525.85 98.52,-4489.45 -2645.9,-1299.04 -4059.91,1259.42 -4987.71,3467.93 -1060.59,2524.62 -1683.84,7083.78 1800.73,7822.05 840.83,178.13 1307,-23.43 1876.97,-461.1 1069.82,-821.57 1687.23,-2193.01 2134.5,-2626.54 -164.27,1791.76 1378.42,2966.36 2090.76,1694.21 57.46,-102.59 91.14,-194.82 160.71,-324.94 93.75,-175.36 97.36,-177.16 182.8,-308.14z"/>
  <path class="fil0" d="M27813.23 2859.39c93.65,676.99 559.39,830.83 1028.14,1001.5 148.38,-463.47 176.34,-887.87 352.76,-1407.53 164.56,-484.8 481.91,-980.72 531.91,-1383.57 -469.1,-228.11 -1062.82,-748 -1509.23,-148.13 -268.52,360.86 -487.62,1330.26 -403.58,1937.73z"/>
  <path class="fil0" d="M26085.46 18089.22l15.24 12.49c-1,-0.81 -19.41,-7.41 -15.24,-12.49zm-948.73 -94.35l0 0zm4071.39 -1105.97l15.26 12.5c-1.02,-0.82 -19.43,-7.42 -15.26,-12.5zm-6047.46 596.22l15.25 12.51c-1.01,-0.82 -19.41,-7.42 -15.25,-12.51zm6126.75 -744.95l-15.74 102.54 15.74 -102.54zm-6047.47 596.23l-15.72 102.54 15.72 -102.54zm6470.73 -590.99l15.72 -102.54 -15.72 102.54zm-6047.47 596.23l15.72 -102.54 -15.72 102.54zm-1999.67 -272.56c16.98,172.16 52.63,212.76 255.53,209.66 -43.12,328.29 -192.26,1277.96 -564.77,1417.84 -46.42,-470.85 -16.08,-639.41 55.81,-1023.1 36.42,-194.39 50.75,-248.8 102.7,-428.8 52.05,-180.27 53.17,-304.24 174.32,-412.79 -14.01,106.73 -35.97,111.55 -23.59,237.19zm9619.6 -572.64c53.28,-405.55 255.72,-667.57 289.6,-874.04l93.04 -9.17c42.05,426.54 -115.24,706.12 -382.64,883.21zm-5155.74 1541.67c-28.89,-379.42 373.74,-2153.17 694.38,-1906.77 45.22,34.76 61.23,-27.34 7.15,207.88 -78.72,342.42 -528.56,1543.91 -701.53,1698.89zm-2887.45 -701.71c-5.76,-377.61 269.1,-938.49 304.01,-1204.26 -82.23,-44.05 -151,-86.9 -246.02,-117.03 -110.47,-35.02 -182.26,-26.39 -288.62,-65.1 -386.58,721.67 -35.74,755.05 -670.92,817.67 -25.76,-212.7 -97.7,-248.73 -209.64,-369.79 -65.66,-70.99 -69.15,-87.41 -137.31,-145.43 -17.47,-14.88 -163.28,-100.58 -175.44,-104.4 -629.4,-197.94 -1173.57,1422.31 -1111.04,2189.04 69.78,855.63 856.2,1078.65 1210.86,520.93 238.23,-374.66 517.34,-1129.1 459.26,-1718.2l272.28 -80.93 -129.87 1139.03c-13.83,268.77 -52.25,345.47 116.02,554.83 116.8,145.32 205.25,247.5 441.33,243.9 -3.7,-241.52 381,-1362.88 588.36,-1655.02 4.64,304.78 -277.13,948.57 -35.11,1187.78 579.79,573.06 807.64,-122 884.89,-191.23 635.36,959.36 699.9,203.93 1051.6,-291.57 38.62,391.81 243.98,671.92 627.01,642.76 201.47,-165.71 347.47,-533.96 387.23,-836.69l89.46 203.62c41.51,94.36 70.81,142.5 129.68,206.72 114.31,124.69 220.69,207.81 407.89,232.4 225.6,-185.56 213.46,-363.7 372.8,-506.45 34.96,190.7 430.97,865.49 777.82,253.39 60.27,-106.38 130.19,-208.78 152.56,-345.12 7.44,8.73 15.4,12.63 19.42,28.42 5.45,21.4 31.93,46.98 38.59,57.19 15.14,23.22 34.46,56.43 55.91,88.19 146.79,217.23 243.94,333.28 499.34,329.39 -3.68,-241.53 381.02,-1362.88 588.38,-1655.03 9.19,602.79 -449.48,990.22 217.48,1351.86 397.62,215.6 589.42,-242.97 623.13,-448.34l99.62 139.13c123.18,167.56 269.67,299.19 472.03,363.4 418.67,132.83 545.49,-116.51 725.45,-336.12 236.88,-289.05 682.76,-1047.45 635.07,-1531.18 -129.03,48.44 -63.18,17.76 -132.44,105.1 -11.7,14.76 -1079.53,1745.26 -1241.3,1205.97 -71.46,-238.21 75.73,-603.83 56.8,-852.44 276.6,113.19 363.71,154.58 607.89,-56.78 127.34,-110.21 292.8,-384.51 347.15,-570.64 94.49,-323.57 39.12,-514.36 -177.54,-684.93 -119.89,-94.39 -445.65,-314.13 -590.65,-280.3 -660.36,154.08 -620.36,1887.33 -1187.99,2395.93 -5.71,-374.2 191,-996.13 307.25,-1372.63 150.85,-488.51 296.09,-490.54 -374.08,-734.49 -203.76,167.59 -318.83,375.81 -446.53,617l-364.6 684.22c-5.77,-377.61 269.1,-938.49 304.01,-1204.26 -391.43,-209.67 -312,-101.09 -534.65,-182.13 -323.89,604.63 -361.68,1953.53 -891.71,2389.5 -5.71,-374.17 218.68,-1213.66 338.39,-1603.6 56.73,-184.8 136.27,-349.79 157.58,-512.04 -82.23,-44.05 -151,-86.9 -246.02,-117.03 -110.46,-35.02 -182.25,-26.39 -288.61,-65.11 -201.87,376.85 -94.72,110.48 -231.48,579.67 -240.69,825.62 -84.38,775.94 -501.49,1512.54 -31.13,54.98 -29.83,53.35 -69.3,114.16 -35.86,55.25 -63.76,93.95 -94.04,136.61 -50.91,-668.52 433.42,-1907.52 454.05,-2064.53 -372.76,-152.51 -427.89,-121.76 -581.15,-177.55 -57.3,106.94 -92.93,147.36 -112.05,292.87 -120.58,-64.59 -224.16,-122.7 -379.76,-166.78 -468.27,-132.64 -629.61,327.41 -797.2,783.04 -99.73,271.13 -120.16,609.46 -230.71,836.83l-446.54 702.51c-16.96,-222.8 148.35,-954.67 204.45,-1200.43l264.02 -1194.32c248.5,-24.5 496.89,-49.05 745.29,-74.57 308.16,-31.66 405.06,8.13 701.39,-21.08 -101.5,-553.66 -501.54,-373.29 -1297.29,-294.84 46.56,-113.8 130.34,-274.47 149.38,-390.49 -200.16,-107.23 -252.29,-202.61 -581.15,-177.56 -285.65,698.03 4.6,674.09 -1326.79,835.36 119.91,319.32 591.98,223.47 1004.43,182.81 -220.31,538.39 -307.12,1966.96 -882.56,2482.54 -9.4,-616.56 470.13,-1719.29 430.47,-1827.35 -164.59,-200.09 -257.6,-192.51 -497.3,-279.76 -203.76,167.59 -318.82,375.8 -446.53,616.99 -63.07,119.12 -115.88,206.93 -174.58,327.06 -77.18,157.95 -69.95,249.6 -190.02,357.17z"/>
  <path class="fil0" d="M28406.82 14478.43c24.9,252.56 195.46,316.42 366.91,386.57 61.81,-169.8 78.36,-326.88 151.38,-517.13 68.12,-177.49 193.08,-356.88 217.5,-505.63 -170.74,-91.47 -383.49,-293.01 -557.84,-76.93 -104.89,129.99 -200.29,486.5 -177.95,713.12z"/>
  <g>
   <path class="fil1 str0" d="M29568.3 11074.05l42.33 32.04c-2.77,-2.06 -53.02,-17.91 -42.33,-32.04zm-5056.83 191.24l0 0zm-5736.01 793.52l0 0zm-5371.28 -1163.14l42.36 32c-2.8,-2.06 -53.05,-17.87 -42.36,-32zm197.62 -408.57l-31.48 277.56 31.48 -277.56zm9494.16 -1186.37l31.48 -277.56 -31.48 277.56zm-1264.22 47.84l42.36 32c-2.8,-2.07 -53.05,-17.92 -42.36,-32zm-7090.43 1107.94l31.53 -277.56 -31.53 277.56zm7288.05 -1516.55l-31.48 277.59 31.48 -277.59zm7646.36 1992.18c-117.77,-1017.97 778.52,-5833.49 1667.34,-5204.29 125.35,88.78 161.87,-80.03 41.18,558.65 -55.94,296.06 -98.22,520.32 -170.22,786.27 -176.16,650.74 -1158.37,3491.14 -1538.3,3859.37zm-10900.26 1126.67c-71.83,-620.82 80.42,-1130.04 167.33,-1659.5l840.57 -4834 1246.96 -172.51c-330.24,1031.29 -409.92,2452.08 -695.02,3604.49 -161.13,651.3 -1177.49,2690.94 -1559.84,3061.52zm-5173.66 -1571.71c-55.32,-1015.52 625.13,-2553.86 691,-3272.67 -1075.41,-522.91 -850.19,-239.12 -1457.88,-433.73 -653.75,1344.45 -1323.92,5502.75 -1083.25,6886.25 90.99,523.08 701.72,1353.15 1581.04,1305.21 -28.03,-514.29 407.39,-1914.95 561.82,-2365.67l659.44 -1845.24c71.57,-135.41 129.19,-215.53 187.34,-304.74 93.5,1715.64 -1088.08,2643.56 648.67,3569.73 1241.6,662.1 1255.47,-504.96 1743.24,-977.73 1918.85,2664.35 2001.5,198.44 2889.21,-1162.2 85.16,736.17 -163.69,745.27 353.2,1299.31 317.26,340.08 638.52,677.92 1186.98,648.01 -41.23,-756.91 850.66,-3099.73 1232.46,-3979.17l300.89 -553.73c90.29,1657.08 -954.01,2513.37 510.16,3455.45 435.37,280.16 575.37,333.92 1271.53,237.61 218.44,-449.21 522.39,-769.32 575.68,-1350.47l290.87 500.65c141.87,226.05 194.81,281.16 339.73,436.11 1262.7,1350.22 1589.18,-362.68 2129.95,-1191.57 302.87,789.41 711.82,1404.06 1703.34,1289.34 524.65,-467.15 878.66,-1473.47 953.71,-2292.33 20.84,24.61 36.6,38.02 48.04,83.99 146.5,589.21 825.33,1498.62 1707.06,1579.46 780.74,-695.19 1735.92,-3414.09 1757.18,-4496.76 12.03,-613.23 25.67,-478.41 -310.1,-659.63 -45.69,498.29 -388.64,1199.71 -607.3,1661.44l-849.14 1590c-207.53,-1793.6 965.03,-5178.75 1003.98,-5603.41 -1019.18,-371.11 -1164.27,-282.49 -1582.59,-416.48 -142.89,293.83 -234.53,406.33 -270.61,799.94 -1840.37,-894.87 -2332,-594.76 -3102.1,1782.47 -266.39,822.3 -472.59,3390.29 -1518.03,4321.2 -98.16,-1800.88 1060.99,-5195.48 1111.4,-5745.36 -225.9,-109.85 -415.53,-217.91 -674.38,-288.95 -300.95,-82.57 -493.2,-51.8 -783.51,-144.78 -927.01,1906.46 -932.71,5101.69 -2289.36,6416.64 -122.87,-1061.9 673.11,-3987.59 982.78,-4837.97 -508.53,-247.26 -827.79,-622.19 -1492.42,-683.09 -1025.23,912.91 -1506.49,2744.08 -1972.47,3195.73 -28.47,-522.47 179.22,-1292.56 298.88,-1783.26 97.94,-401.59 359.7,-1508.92 340.37,-1863.45l997.6 -138.01c-162.62,-725.52 -299.41,-655.02 -654.07,-1053.25l544.24 -1598.83c-524.2,-190.81 -963.64,-360.49 -1585.65,-417.49l-704.3 2257.82 -1122.26 155.25c113.26,-311.13 321.75,-752.33 360.77,-1066.55 -549.92,-267.41 -700.27,-518.59 -1582.62,-416.48 -117.89,323.8 -211.27,610.39 -328.06,979.65 -139.8,441.96 -103.5,643.1 -503.23,847.14 -39.47,20.16 -2541.44,543.52 -2650.82,561.14 356.35,846.6 1616.53,538.87 2722.11,385.92 -536.03,1472.04 -618.85,5325.35 -2112.91,6773.47 -90.37,-1658.12 1083.63,-4676.09 965.53,-4962.67 -464.03,-521.12 -713.48,-490.86 -1367.72,-700.35 -1114.74,992.62 -1655.01,3208.65 -2045.42,3587.09z"/>
   <path id="1" class="fil2" d="M29568.3 11074.05l42.33 32.04c-2.77,-2.06 -53.02,-17.91 -42.33,-32.04zm-5056.83 191.24l0 0zm-5736.01 793.52l0 0zm-5371.28 -1163.14l42.36 32c-2.8,-2.06 -53.05,-17.87 -42.36,-32zm197.62 -408.57l-31.48 277.56 31.48 -277.56zm9494.16 -1186.37l31.48 -277.56 -31.48 277.56zm-1264.22 47.84l42.36 32c-2.8,-2.07 -53.05,-17.92 -42.36,-32zm-7090.43 1107.94l31.53 -277.56 -31.53 277.56zm7288.05 -1516.55l-31.48 277.59 31.48 -277.59zm7646.36 1992.18c-117.77,-1017.97 778.52,-5833.49 1667.34,-5204.29 125.35,88.78 161.87,-80.03 41.18,558.65 -55.94,296.06 -98.22,520.32 -170.22,786.27 -176.16,650.74 -1158.37,3491.14 -1538.3,3859.37zm-10900.26 1126.67c-71.83,-620.82 80.42,-1130.04 167.33,-1659.5l840.57 -4834 1246.96 -172.51c-330.24,1031.29 -409.92,2452.08 -695.02,3604.49 -161.13,651.3 -1177.49,2690.94 -1559.84,3061.52zm-5173.66 -1571.71c-55.32,-1015.52 625.13,-2553.86 691,-3272.67 -1075.41,-522.91 -850.19,-239.12 -1457.88,-433.73 -653.75,1344.45 -1323.92,5502.75 -1083.25,6886.25 90.99,523.08 701.72,1353.15 1581.04,1305.21 -28.03,-514.29 407.39,-1914.95 561.82,-2365.67l659.44 -1845.24c71.57,-135.41 129.19,-215.53 187.34,-304.74 93.5,1715.64 -1088.08,2643.56 648.67,3569.73 1241.6,662.1 1255.47,-504.96 1743.24,-977.73 1918.85,2664.35 2001.5,198.44 2889.21,-1162.2 85.16,736.17 -163.69,745.27 353.2,1299.31 317.26,340.08 638.52,677.92 1186.98,648.01 -41.23,-756.91 850.66,-3099.73 1232.46,-3979.17l300.89 -553.73c90.29,1657.08 -954.01,2513.37 510.16,3455.45 435.37,280.16 575.37,333.92 1271.53,237.61 218.44,-449.21 522.39,-769.32 575.68,-1350.47l290.87 500.65c141.87,226.05 194.81,281.16 339.73,436.11 1262.7,1350.22 1589.18,-362.68 2129.95,-1191.57 302.87,789.41 711.82,1404.06 1703.34,1289.34 524.65,-467.15 878.66,-1473.47 953.71,-2292.33 20.84,24.61 36.6,38.02 48.04,83.99 146.5,589.21 825.33,1498.62 1707.06,1579.46 780.74,-695.19 1735.92,-3414.09 1757.18,-4496.76 12.03,-613.23 25.67,-478.41 -310.1,-659.63 -45.69,498.29 -388.64,1199.71 -607.3,1661.44l-849.14 1590c-207.53,-1793.6 965.03,-5178.75 1003.98,-5603.41 -1019.18,-371.11 -1164.27,-282.49 -1582.59,-416.48 -142.89,293.83 -234.53,406.33 -270.61,799.94 -1840.37,-894.87 -2332,-594.76 -3102.1,1782.47 -266.39,822.3 -472.59,3390.29 -1518.03,4321.2 -98.16,-1800.88 1060.99,-5195.48 1111.4,-5745.36 -225.9,-109.85 -415.53,-217.91 -674.38,-288.95 -300.95,-82.57 -493.2,-51.8 -783.51,-144.78 -927.01,1906.46 -932.71,5101.69 -2289.36,6416.64 -122.87,-1061.9 673.11,-3987.59 982.78,-4837.97 -508.53,-247.26 -827.79,-622.19 -1492.42,-683.09 -1025.23,912.91 -1506.49,2744.08 -1972.47,3195.73 -28.47,-522.47 179.22,-1292.56 298.88,-1783.26 97.94,-401.59 359.7,-1508.92 340.37,-1863.45l997.6 -138.01c-162.62,-725.52 -299.41,-655.02 -654.07,-1053.25l544.24 -1598.83c-524.2,-190.81 -963.64,-360.49 -1585.65,-417.49l-704.3 2257.82 -1122.26 155.25c113.26,-311.13 321.75,-752.33 360.77,-1066.55 -549.92,-267.41 -700.27,-518.59 -1582.62,-416.48 -117.89,323.8 -211.27,610.39 -328.06,979.65 -139.8,441.96 -103.5,643.1 -503.23,847.14 -39.47,20.16 -2541.44,543.52 -2650.82,561.14 356.35,846.6 1616.53,538.87 2722.11,385.92 -536.03,1472.04 -618.85,5325.35 -2112.91,6773.47 -90.37,-1658.12 1083.63,-4676.09 965.53,-4962.67 -464.03,-521.12 -713.48,-490.86 -1367.72,-700.35 -1114.74,992.62 -1655.01,3208.65 -2045.42,3587.09z"/>
  </g>
  <g>
   <path class="fil1 str0" d="M9079.74 14543.86l31.52 -277.56 -31.52 277.56zm-1083.81 -485.47l42.36 32.03c-2.8,-2.06 -53.05,-17.91 -42.36,-32.03zm1083.81 485.47c216.58,1871.57 -1269.4,4567 1227.25,4278.09 -325.29,-2351.34 1016.19,-9286.67 1651.12,-11030.36 -467.19,-227.15 -911.16,-453.05 -1582.62,-416.47l-970.44 3396.02c-231.86,685.5 -928.47,2783.57 -1301.67,3145.33 -195.68,-1691.32 1103.89,-5499.65 1076.93,-5994.77 -1075.44,-522.92 -850.23,-239.12 -1457.92,-433.73 -1134.31,2332.8 -473.01,3682.07 -1498.38,5005.91 -517.54,668.25 -949.88,1220.39 -1545.56,1844.3 -3698.42,3873.73 -3720.07,-2958.55 -1348.24,-6714.03 412.5,-653.14 1036.62,-1428.46 2030.86,-1588.63 201.73,1458.27 -19.54,2353.33 -465.7,3666.46 -132.04,388.66 -350.36,815.59 -392.38,1154.26 667.08,-441.68 637.64,-299.31 1219.46,-1086.4 1005.43,-1360.13 2061.24,-3525.84 98.53,-4489.45 -2645.9,-1299.03 -4059.91,1259.42 -4987.71,3467.94 -1060.59,2524.62 -1683.84,7083.78 1800.73,7822.05 840.82,178.13 1307,-23.43 1876.96,-461.11 1069.82,-821.56 1687.23,-2193 2134.5,-2626.53 -164.27,1791.76 1378.42,2966.35 2090.77,1694.2 57.46,-102.58 91.13,-194.81 160.7,-324.93 93.76,-175.36 97.36,-177.16 182.81,-308.15z"/>
   <path id="1" class="fil2" d="M9079.74 14543.86l31.52 -277.56 -31.52 277.56zm-1083.81 -485.47l42.36 32.03c-2.8,-2.06 -53.05,-17.91 -42.36,-32.03zm1083.81 485.47c216.58,1871.57 -1269.4,4567 1227.25,4278.09 -325.29,-2351.34 1016.19,-9286.67 1651.12,-11030.36 -467.19,-227.15 -911.16,-453.05 -1582.62,-416.47l-970.44 3396.02c-231.86,685.5 -928.47,2783.57 -1301.67,3145.33 -195.68,-1691.32 1103.89,-5499.65 1076.93,-5994.77 -1075.44,-522.92 -850.23,-239.12 -1457.92,-433.73 -1134.31,2332.8 -473.01,3682.07 -1498.38,5005.91 -517.54,668.25 -949.88,1220.39 -1545.56,1844.3 -3698.42,3873.73 -3720.07,-2958.55 -1348.24,-6714.03 412.5,-653.14 1036.62,-1428.46 2030.86,-1588.63 201.73,1458.27 -19.54,2353.33 -465.7,3666.46 -132.04,388.66 -350.36,815.59 -392.38,1154.26 667.08,-441.68 637.64,-299.31 1219.46,-1086.4 1005.43,-1360.13 2061.24,-3525.84 98.53,-4489.45 -2645.9,-1299.03 -4059.91,1259.42 -4987.71,3467.94 -1060.59,2524.62 -1683.84,7083.78 1800.73,7822.05 840.82,178.13 1307,-23.43 1876.96,-461.11 1069.82,-821.56 1687.23,-2193 2134.5,-2626.53 -164.27,1791.76 1378.42,2966.35 2090.77,1694.2 57.46,-102.58 91.13,-194.81 160.7,-324.93 93.76,-175.36 97.36,-177.16 182.81,-308.15z"/>
  </g>
  <g>
   <path class="fil1 str0" d="M27453.38 2216.75c93.66,677 559.39,830.84 1028.14,1001.51 148.39,-463.47 176.35,-887.87 352.77,-1407.53 164.56,-484.8 481.91,-980.72 531.91,-1383.57 -469.1,-228.12 -1062.82,-748 -1509.23,-148.13 -268.53,360.85 -487.63,1330.25 -403.59,1937.72z"/>
   <path id="1" class="fil2" d="M27453.38 2216.75c93.66,677 559.39,830.84 1028.14,1001.51 148.39,-463.47 176.35,-887.87 352.77,-1407.53 164.56,-484.8 481.91,-980.72 531.91,-1383.57 -469.1,-228.12 -1062.82,-748 -1509.23,-148.13 -268.53,360.85 -487.63,1330.25 -403.59,1937.72z"/>
  </g>
  <g>
   <path class="fil1 str1" d="M25725.62 17446.59l15.24 12.49c-1,-0.81 -19.41,-7.41 -15.24,-12.49zm-948.73 -94.35l0 0zm4071.39 -1105.98l15.25 12.51c-1.01,-0.82 -19.42,-7.42 -15.25,-12.51zm-6047.47 596.23l15.26 12.5c-1.02,-0.82 -19.42,-7.42 -15.26,-12.5zm6126.75 -744.95l-15.73 102.54 15.73 -102.54zm-6047.46 596.22l-15.72 102.55 15.72 -102.55zm6470.72 -590.98l15.72 -102.54 -15.72 102.54zm-6047.46 596.23l15.72 -102.54 -15.72 102.54zm-1999.67 -272.57c16.97,172.17 52.63,212.76 255.53,209.67 -43.13,328.29 -192.27,1277.96 -564.77,1417.84 -46.43,-470.85 -16.08,-639.41 55.8,-1023.1 36.42,-194.4 50.75,-248.8 102.71,-428.8 52.05,-180.27 53.17,-304.25 174.32,-412.79 -14.02,106.73 -35.98,111.54 -23.59,237.18zm9619.6 -572.64c53.27,-405.54 255.72,-667.56 289.59,-874.03l93.05 -9.17c42.05,426.54 -115.25,706.12 -382.64,883.2zm-5155.75 1541.68c-28.88,-379.42 373.75,-2153.17 694.39,-1906.78 45.22,34.77 61.22,-27.34 7.15,207.89 -78.72,342.42 -528.56,1543.91 -701.54,1698.89zm-2887.44 -701.72c-5.77,-377.6 269.1,-938.49 304.01,-1204.25 -82.23,-44.05 -151.01,-86.91 -246.02,-117.03 -110.48,-35.02 -182.26,-26.4 -288.63,-65.11 -386.58,721.68 -35.73,755.06 -670.91,817.68 -25.77,-212.7 -97.7,-248.74 -209.65,-369.79 -65.66,-71 -69.14,-87.42 -137.31,-145.43 -17.47,-14.88 -163.27,-100.58 -175.43,-104.4 -629.41,-197.94 -1173.57,1422.31 -1111.04,2189.03 69.78,855.64 856.2,1078.65 1210.85,520.94 238.24,-374.66 517.35,-1129.11 459.27,-1718.2l272.28 -80.93 -129.87 1139.03c-13.83,268.77 -52.26,345.47 116.02,554.83 116.79,145.32 205.25,247.5 441.32,243.9 -3.69,-241.52 381.01,-1362.88 588.37,-1655.02 4.64,304.78 -277.14,948.56 -35.11,1187.77 579.79,573.06 807.63,-121.99 884.89,-191.23 635.36,959.37 699.9,203.94 1051.59,-291.56 38.63,391.81 243.98,671.92 627.02,642.76 201.46,-165.72 347.46,-533.96 387.23,-836.69l89.45 203.62c41.51,94.35 70.81,142.5 129.68,206.72 114.31,124.68 220.69,207.81 407.9,232.4 225.6,-185.56 213.46,-363.7 372.79,-506.45 34.97,190.7 430.98,865.48 777.82,253.39 60.28,-106.39 130.19,-208.78 152.57,-345.12 7.44,8.73 15.4,12.63 19.42,28.41 5.45,21.41 31.92,46.99 38.59,57.19 15.14,23.22 34.45,56.44 55.91,88.2 146.78,217.23 243.93,333.28 499.34,329.38 -3.68,-241.52 381.01,-1362.87 588.37,-1655.02 9.19,602.78 -449.47,990.22 217.49,1351.86 397.62,215.6 589.42,-242.97 623.12,-448.34l99.63 139.13c123.18,167.56 269.66,299.19 472.03,363.4 418.67,132.83 545.49,-116.52 725.45,-336.12 236.87,-289.05 682.76,-1047.45 635.07,-1531.18 -129.04,48.44 -63.19,17.76 -132.44,105.1 -11.7,14.76 -1079.54,1745.25 -1241.3,1205.97 -71.46,-238.21 75.73,-603.83 56.8,-852.44 276.6,113.18 363.71,154.58 607.89,-56.78 127.34,-110.22 292.8,-384.51 347.14,-570.64 94.5,-323.57 39.13,-514.36 -177.53,-684.93 -119.9,-94.39 -445.66,-314.13 -590.66,-280.3 -660.35,154.08 -620.35,1887.33 -1187.98,2395.92 -5.71,-374.19 190.99,-996.12 307.25,-1372.62 150.85,-488.51 296.08,-490.54 -374.09,-734.49 -203.75,167.59 -318.82,375.8 -446.52,616.99l-364.61 684.23c-5.76,-377.61 269.1,-938.49 304.02,-1204.26 -391.44,-209.67 -312,-101.1 -534.65,-182.13 -323.89,604.63 -361.69,1953.53 -891.71,2389.5 -5.71,-374.17 218.68,-1213.66 338.38,-1603.6 56.73,-184.8 136.28,-349.79 157.59,-512.04 -82.23,-44.05 -151.01,-86.91 -246.02,-117.03 -110.46,-35.02 -182.26,-26.39 -288.61,-65.11 -201.87,376.84 -94.72,110.48 -231.49,579.67 -240.68,825.62 -84.38,775.94 -501.48,1512.54 -31.13,54.98 -29.84,53.35 -69.3,114.16 -35.87,55.25 -63.77,93.95 -94.05,136.61 -50.9,-668.53 433.43,-1907.53 454.06,-2064.53 -372.77,-152.52 -427.89,-121.76 -581.16,-177.55 -57.29,106.94 -92.92,147.36 -112.05,292.87 -120.58,-64.59 -224.16,-122.7 -379.76,-166.78 -468.26,-132.64 -629.6,327.41 -797.2,783.03 -99.73,271.14 -120.15,609.47 -230.71,836.83l-446.53 702.52c-16.96,-222.8 148.35,-954.67 204.45,-1200.44l264.02 -1194.31c248.5,-24.5 496.89,-49.05 745.29,-74.57 308.16,-31.66 405.06,8.13 701.38,-21.08 -101.49,-553.66 -501.53,-373.3 -1297.29,-294.84 46.57,-113.8 130.35,-274.47 149.39,-390.5 -200.16,-107.22 -252.29,-202.6 -581.16,-177.56 -285.64,698.04 4.6,674.1 -1326.78,835.37 119.9,319.32 591.98,223.47 1004.42,182.8 -220.3,538.4 -307.11,1966.97 -882.55,2482.55 -9.41,-616.57 470.13,-1719.3 430.46,-1827.35 -164.59,-200.1 -257.59,-192.51 -497.29,-279.76 -203.76,167.59 -318.83,375.8 -446.53,616.99 -63.07,119.11 -115.89,206.93 -174.58,327.06 -77.18,157.94 -69.96,249.6 -190.02,357.16z"/>
   <path id="1" class="fil2" d="M25725.62 17446.59l15.24 12.49c-1,-0.81 -19.41,-7.41 -15.24,-12.49zm-948.73 -94.35l0 0zm4071.39 -1105.98l15.25 12.51c-1.01,-0.82 -19.42,-7.42 -15.25,-12.51zm-6047.47 596.23l15.26 12.5c-1.02,-0.82 -19.42,-7.42 -15.26,-12.5zm6126.75 -744.95l-15.73 102.54 15.73 -102.54zm-6047.46 596.22l-15.72 102.55 15.72 -102.55zm6470.72 -590.98l15.72 -102.54 -15.72 102.54zm-6047.46 596.23l15.72 -102.54 -15.72 102.54zm-1999.67 -272.57c16.97,172.17 52.63,212.76 255.53,209.67 -43.13,328.29 -192.27,1277.96 -564.77,1417.84 -46.43,-470.85 -16.08,-639.41 55.8,-1023.1 36.42,-194.4 50.75,-248.8 102.71,-428.8 52.05,-180.27 53.17,-304.25 174.32,-412.79 -14.02,106.73 -35.98,111.54 -23.59,237.18zm9619.6 -572.64c53.27,-405.54 255.72,-667.56 289.59,-874.03l93.05 -9.17c42.05,426.54 -115.25,706.12 -382.64,883.2zm-5155.75 1541.68c-28.88,-379.42 373.75,-2153.17 694.39,-1906.78 45.22,34.77 61.22,-27.34 7.15,207.89 -78.72,342.42 -528.56,1543.91 -701.54,1698.89zm-2887.44 -701.72c-5.77,-377.6 269.1,-938.49 304.01,-1204.25 -82.23,-44.05 -151.01,-86.91 -246.02,-117.03 -110.48,-35.02 -182.26,-26.4 -288.63,-65.11 -386.58,721.68 -35.73,755.06 -670.91,817.68 -25.77,-212.7 -97.7,-248.74 -209.65,-369.79 -65.66,-71 -69.14,-87.42 -137.31,-145.43 -17.47,-14.88 -163.27,-100.58 -175.43,-104.4 -629.41,-197.94 -1173.57,1422.31 -1111.04,2189.03 69.78,855.64 856.2,1078.65 1210.85,520.94 238.24,-374.66 517.35,-1129.11 459.27,-1718.2l272.28 -80.93 -129.87 1139.03c-13.83,268.77 -52.26,345.47 116.02,554.83 116.79,145.32 205.25,247.5 441.32,243.9 -3.69,-241.52 381.01,-1362.88 588.37,-1655.02 4.64,304.78 -277.14,948.56 -35.11,1187.77 579.79,573.06 807.63,-121.99 884.89,-191.23 635.36,959.37 699.9,203.94 1051.59,-291.56 38.63,391.81 243.98,671.92 627.02,642.76 201.46,-165.72 347.46,-533.96 387.23,-836.69l89.45 203.62c41.51,94.35 70.81,142.5 129.68,206.72 114.31,124.68 220.69,207.81 407.9,232.4 225.6,-185.56 213.46,-363.7 372.79,-506.45 34.97,190.7 430.98,865.48 777.82,253.39 60.28,-106.39 130.19,-208.78 152.57,-345.12 7.44,8.73 15.4,12.63 19.42,28.41 5.45,21.41 31.92,46.99 38.59,57.19 15.14,23.22 34.45,56.44 55.91,88.2 146.78,217.23 243.93,333.28 499.34,329.38 -3.68,-241.52 381.01,-1362.87 588.37,-1655.02 9.19,602.78 -449.47,990.22 217.49,1351.86 397.62,215.6 589.42,-242.97 623.12,-448.34l99.63 139.13c123.18,167.56 269.66,299.19 472.03,363.4 418.67,132.83 545.49,-116.52 725.45,-336.12 236.87,-289.05 682.76,-1047.45 635.07,-1531.18 -129.04,48.44 -63.19,17.76 -132.44,105.1 -11.7,14.76 -1079.54,1745.25 -1241.3,1205.97 -71.46,-238.21 75.73,-603.83 56.8,-852.44 276.6,113.18 363.71,154.58 607.89,-56.78 127.34,-110.22 292.8,-384.51 347.14,-570.64 94.5,-323.57 39.13,-514.36 -177.53,-684.93 -119.9,-94.39 -445.66,-314.13 -590.66,-280.3 -660.35,154.08 -620.35,1887.33 -1187.98,2395.92 -5.71,-374.19 190.99,-996.12 307.25,-1372.62 150.85,-488.51 296.08,-490.54 -374.09,-734.49 -203.75,167.59 -318.82,375.8 -446.52,616.99l-364.61 684.23c-5.76,-377.61 269.1,-938.49 304.02,-1204.26 -391.44,-209.67 -312,-101.1 -534.65,-182.13 -323.89,604.63 -361.69,1953.53 -891.71,2389.5 -5.71,-374.17 218.68,-1213.66 338.38,-1603.6 56.73,-184.8 136.28,-349.79 157.59,-512.04 -82.23,-44.05 -151.01,-86.91 -246.02,-117.03 -110.46,-35.02 -182.26,-26.39 -288.61,-65.11 -201.87,376.84 -94.72,110.48 -231.49,579.67 -240.68,825.62 -84.38,775.94 -501.48,1512.54 -31.13,54.98 -29.84,53.35 -69.3,114.16 -35.87,55.25 -63.77,93.95 -94.05,136.61 -50.9,-668.53 433.43,-1907.53 454.06,-2064.53 -372.77,-152.52 -427.89,-121.76 -581.16,-177.55 -57.29,106.94 -92.92,147.36 -112.05,292.87 -120.58,-64.59 -224.16,-122.7 -379.76,-166.78 -468.26,-132.64 -629.6,327.41 -797.2,783.03 -99.73,271.14 -120.15,609.47 -230.71,836.83l-446.53 702.52c-16.96,-222.8 148.35,-954.67 204.45,-1200.44l264.02 -1194.31c248.5,-24.5 496.89,-49.05 745.29,-74.57 308.16,-31.66 405.06,8.13 701.38,-21.08 -101.49,-553.66 -501.53,-373.3 -1297.29,-294.84 46.57,-113.8 130.35,-274.47 149.39,-390.5 -200.16,-107.22 -252.29,-202.6 -581.16,-177.56 -285.64,698.04 4.6,674.1 -1326.78,835.37 119.9,319.32 591.98,223.47 1004.42,182.8 -220.3,538.4 -307.11,1966.97 -882.55,2482.55 -9.41,-616.57 470.13,-1719.3 430.46,-1827.35 -164.59,-200.1 -257.59,-192.51 -497.29,-279.76 -203.76,167.59 -318.83,375.8 -446.53,616.99 -63.07,119.11 -115.89,206.93 -174.58,327.06 -77.18,157.94 -69.96,249.6 -190.02,357.16z"/>
  </g>
  <g>
   <path class="fil1 str1" d="M28046.98 13835.8c24.9,252.56 195.46,316.42 366.9,386.56 61.82,-169.79 78.37,-326.87 151.39,-517.12 68.11,-177.49 193.08,-356.89 217.49,-505.63 -170.73,-91.47 -383.48,-293.01 -557.84,-76.93 -104.88,129.99 -200.28,486.49 -177.94,713.12z"/>
   <path id="1" class="fil2" d="M28046.98 13835.8c24.9,252.56 195.46,316.42 366.9,386.56 61.82,-169.79 78.37,-326.87 151.39,-517.12 68.11,-177.49 193.08,-356.89 217.49,-505.63 -170.73,-91.47 -383.48,-293.01 -557.84,-76.93 -104.88,129.99 -200.28,486.49 -177.94,713.12z"/>
  </g>
  <path class="fil3" d="M5441.01 21217.09l640.43 -54.74c247.67,-21.16 448.96,29.9 604.6,153.12 155.26,122.91 242.27,292.03 260.62,506.7 19.25,225.3 -38.74,408.25 -173.56,549.51 -134.85,140.9 -337.64,222.93 -608.01,246.04l-599.99 51.28 -124.09 -1451.91zm384.65 235.19l78.61 919.68 235.95 -20.17c153.28,-13.1 266.76,-65.33 340.47,-156.34 74.07,-91.03 105.02,-205.55 93.22,-343.57 -12.19,-142.64 -62.95,-251.59 -151.93,-326.55 -89.31,-74.93 -210.63,-106.01 -364.62,-92.85l-231.7 19.8zm1748.75 34.96c153.99,-13.17 288.42,20.73 402.95,102.08 114.88,81.32 179.22,202.71 193.02,364.15 13.86,162.15 -29.69,292.39 -131.01,390.75 -101.31,98.38 -227,154.15 -377.44,167.01 -162.85,13.92 -299.97,-22.25 -411.71,-108.49 -111.7,-85.88 -174.06,-204.93 -187.03,-356.79 -13.2,-154.35 29.09,-282.69 126.85,-385.05 97.76,-102.35 225.77,-160.11 384.37,-173.66zm72.58 840.84c147.6,-12.62 211.85,-130.69 192.75,-354.22 -18.26,-213.59 -101.19,-314.09 -248.79,-301.47 -70.6,6.03 -123.56,38.79 -158.84,98.63 -34.91,59.82 -47.86,142.41 -38.89,247.44 18.74,219.28 103.33,322.48 253.77,309.62zm2147.72 -1009.17l-533.02 1508.07 -326.78 27.93 233.13 -655.4 -453.02 -788.32 329.27 -28.15 248.67 484.13 178.52 -520.64 323.23 -27.62zm496.54 -63.88c153.99,-13.16 288.41,20.74 402.95,102.09 114.88,81.32 179.22,202.7 193.02,364.14 13.86,162.15 -29.69,292.39 -131.01,390.76 -101.31,98.37 -227,154.15 -377.44,167.01 -162.86,13.92 -299.98,-22.26 -411.72,-108.5 -111.7,-85.88 -174.05,-204.93 -187.03,-356.78 -13.19,-154.35 29.09,-282.7 126.85,-385.06 97.76,-102.34 225.78,-160.1 384.38,-173.66zm72.58 840.84c147.6,-12.61 211.85,-130.68 192.74,-354.22 -18.25,-213.59 -101.18,-314.08 -248.78,-301.47 -70.61,6.04 -123.57,38.8 -158.84,98.64 -34.92,59.81 -47.87,142.4 -38.89,247.43 18.74,219.28 103.33,322.48 253.77,309.62zm1363.02 46.49l-12.01 -140.51c-81.61,115.63 -182.74,178.6 -303.38,188.91 -106.8,9.13 -196.19,-16.47 -268.53,-76.77 -72,-60.31 -113.17,-149.01 -123.15,-265.75l-53.8 -629.44 308.69 -26.38 52.01 608.51c10.7,125.25 67.85,183.27 171.8,174.38 58.91,-5.03 106.99,-32.02 144.62,-80.98 37.61,-49.32 55.33,-84.43 53.48,-106.08l-53.61 -627.31 308.69 -26.39 83.88 981.43 -308.69 26.38zm2322.73 -717.84l-200.9 555.79 -145.47 12.43 -529.04 -962.67 315.08 -26.93 253.78 523 173.07 -559.48 186.98 -15.98 263.72 522.14 160.64 -558.41 315.79 -26.99 -356.23 1038.33 -149.02 12.74 -288.4 -513.97zm1896.05 114.94l14.71 172.09c-97.42,68.72 -191.38,106.78 -281.51,114.49 -96.86,8.27 -157.5,-23.72 -181.87,-95.61 -101.23,82.63 -205.94,128.75 -313.8,137.97 -76.29,6.52 -143.28,-12.06 -200.63,-55.77 -57.73,-44.03 -89.13,-97.81 -94.62,-162.04 -7.31,-85.51 14.46,-157.06 64.96,-214.27 50.51,-57.22 211.84,-139.27 483.3,-245.75 -2.37,-111.3 -64.22,-161.78 -184.5,-151.5 -131.28,11.22 -246.9,76.15 -347.9,194.86l-21.47 -251.21c122,-90.48 260.53,-142.35 414.88,-155.54 277.11,-23.69 424.36,64.15 441.44,263.92l38.39 449.2c3.91,45.76 22.91,67.37 56.97,64.46 25.55,-2.18 62.64,-23.94 111.65,-65.3zm-475.77 45.32l-20.41 -238.79c-100.16,45.01 -168.33,83.71 -204.16,116.08 -36.22,32.05 -52.22,70.59 -48.4,115.29 2.45,28.75 14.12,52.41 35.4,71.32 21.27,18.92 45.57,27.2 73.24,24.83 58.2,-4.97 113.2,-34.68 164.33,-88.73zm763.19 -816.15l11.83 138.38c81.74,-114.21 183.63,-176.53 305.69,-186.96 101.83,-8.7 189.78,16.66 263.48,76.12 74.06,59.44 116.1,149.84 126.47,271.19l53.4 624.83 -308.69 26.38 -51.22 -599.28c-11.22,-131.28 -67.93,-192.56 -169.75,-183.85 -72.74,6.21 -140.16,66.3 -201.52,180.55l54.19 634.06 -308.68 26.38 -83.88 -981.42 308.68 -26.38zm1551.09 -132.57l18.01 210.76 -357.66 30.57 34.73 406.27c4.18,48.96 20.95,86.13 49.98,112.24 29.01,25.75 67.12,36.79 114.31,32.75 63.87,-5.46 131.06,-30.49 201.95,-75.15l19.1 223.53c-94.76,49.56 -188.46,78.3 -280.7,86.19 -120.64,10.31 -216.63,-12.94 -288.69,-70.04 -71.7,-56.79 -112.9,-145.83 -123.24,-266.82l-36.12 -422.59 -140.51 12.01 -5.15 -60.32 371.63 -494.24 38.32 -3.28 26.38 308.69 357.66 -30.57zm1960.88 -167.6l18.01 210.77 -357.66 30.56 34.73 406.27c4.18,48.96 20.95,86.13 49.98,112.24 29.01,25.76 67.12,36.79 114.31,32.76 63.87,-5.46 131.06,-30.49 201.95,-75.15l19.1 223.52c-94.76,49.56 -188.46,78.31 -280.7,86.19 -120.64,10.31 -216.63,-12.94 -288.69,-70.04 -71.7,-56.78 -112.9,-145.82 -123.24,-266.81l-36.12 -422.59 -140.51 12.01 -5.15 -60.32 371.63 -494.25 38.32 -3.27 26.38 308.68 357.66 -30.57zm577.42 -70.79c153.98,-13.16 288.41,20.74 402.94,102.09 114.89,81.32 179.23,202.71 193.02,364.15 13.86,162.15 -29.68,292.39 -131.01,390.75 -101.31,98.38 -226.99,154.15 -377.43,167.01 -162.86,13.92 -299.98,-22.25 -411.72,-108.49 -111.7,-85.88 -174.05,-204.93 -187.03,-356.79 -13.19,-154.35 29.09,-282.69 126.85,-385.05 97.76,-102.35 225.77,-160.11 384.38,-173.67zm72.57 840.85c147.61,-12.62 211.86,-130.69 192.75,-354.22 -18.26,-213.59 -101.18,-314.09 -248.79,-301.47 -70.6,6.03 -123.56,38.79 -158.83,98.63 -34.92,59.81 -47.87,142.41 -38.89,247.43 18.74,219.28 103.32,322.49 253.76,309.63zm1872.89 -933.86l18.71 218.93c-123.86,-60.9 -235.83,-87.07 -336.59,-78.46 -74.16,6.34 -108.87,35.04 -104.5,86.14 1.15,13.48 10.07,25.93 26.42,37.4 16.38,11.83 78.29,33.7 186.1,65.59 107.83,32.25 185.34,73.51 232.91,124.13 47.58,50.61 74.28,108.02 79.83,172.95 8.74,102.19 -19.27,184.28 -83.7,245.9 -64.43,61.62 -161.06,97.76 -289.14,108.71 -131.64,11.25 -250.79,-2.88 -357.43,-42.01l-18.59 -217.5c130.69,44.59 238.79,63.22 323.95,55.94 99.7,-8.52 147.32,-36.89 143.16,-85.5 -1.61,-18.8 -12.32,-35.4 -32.2,-50.5 -19.88,-15.1 -84.1,-38.92 -192.99,-71.07 -108.58,-32.54 -184.48,-71.79 -227.73,-117.78 -42.89,-46.01 -67.1,-99.35 -72.29,-160.01 -7.67,-89.78 23.34,-166.05 93.02,-228.84 69.69,-62.78 165.58,-99.21 287.64,-109.64 117.09,-10.01 224.88,5.08 323.42,45.62zm1159.43 533.17l16.62 194.43c-110.44,96.29 -252.94,151.72 -426.81,166.58 -172.79,14.77 -314.79,-19.92 -425.98,-104.05 -111.2,-84.14 -173.49,-202.49 -186.59,-355.77 -12.83,-150.08 25.22,-277.71 113.81,-382.85 88.93,-105.18 208.29,-163.98 358.73,-176.84 151.15,-12.92 279.35,27.59 384.92,121.14 105.21,93.58 162.27,225.95 170.5,397.51l-704.66 60.23c14.03,88.87 51.14,155.04 112.38,198.41 60.9,43.4 139.25,61 235.04,52.82 115.68,-9.89 233.02,-67.09 352.04,-171.61zm-706.9 -241.95l425.77 -36.4c-29.04,-143.33 -106.2,-209.65 -231.44,-198.95 -126.67,10.83 -191.44,89.28 -194.33,235.35zm1795.65 148.89l16.62 194.43c-110.44,96.3 -252.94,151.72 -426.81,166.58 -172.79,14.77 -314.79,-19.91 -425.98,-104.05 -111.2,-84.14 -173.49,-202.48 -186.59,-355.76 -12.83,-150.08 25.22,-277.72 113.81,-382.85 88.94,-105.18 208.29,-163.99 358.73,-176.85 151.15,-12.91 279.35,27.6 384.92,121.15 105.21,93.58 162.27,225.95 170.5,397.51l-704.66 60.23c14.03,88.87 51.14,155.04 112.38,198.41 60.9,43.4 139.25,61 235.04,52.81 115.68,-9.88 233.02,-67.08 352.04,-171.61zm-706.9 -241.95l425.77 -36.39c-29.04,-143.34 -106.2,-209.66 -231.44,-198.95 -126.67,10.82 -191.44,89.27 -194.33,235.34zm2277.63 -576.38l10.73 125.61c96.31,-106.88 205.66,-165.55 328.42,-176.04 168.54,-14.4 292.28,45.08 371.27,178.79 106.59,-149.58 229.43,-230.13 368.89,-242.05 112.82,-9.64 208.02,16.89 285.21,79.63 77.17,62.38 120.69,149.09 130.12,259.43l53.92 630.86 -308.7 26.39 -49.25 -576.22c-5.94,-69.55 -26.51,-122.12 -61.75,-158.06 -34.88,-35.98 -80.88,-51.35 -137.65,-46.49 -90.12,7.7 -166.26,70.32 -228.79,187.53l53.8 629.45 -308.69 26.38 -49.79 -582.61c-5.89,-68.83 -27.44,-120.25 -64.98,-153.84 -37.22,-34 -84.56,-48.54 -141.33,-43.68 -80.9,6.91 -155.43,59.03 -223.93,156.73l56.38 659.61 -308.69 26.38 -83.88 -981.42 308.69 -26.38zm2517.59 -215.18l-533.02 1508.07 -326.78 27.93 233.12 -655.39 -453.02 -788.33 329.27 -28.14 248.67 484.12 178.53 -520.63 323.23 -27.63zm1555.8 587.57l18.96 221.76c-116.91,53.95 -225.73,85.41 -326.14,93.99 -172.44,14.74 -314.44,-19.94 -425.63,-104.08 -111.2,-84.14 -173.49,-202.48 -186.6,-355.76 -12.76,-149.38 28.83,-277.3 124.84,-383.45 96.05,-105.78 224.59,-165.72 386.03,-179.52 103.96,-8.89 216.13,2.96 336.17,35.95l19.62 229.57c-88.91,-36.72 -174.53,-51.56 -256.84,-44.53 -92.26,7.89 -163.84,40.1 -214.76,96.63 -50.93,56.54 -72.69,128.09 -65.29,214.66 7.46,87.29 40.46,155.59 98.97,204.56 58.86,48.93 132.11,69.48 220.09,61.96 64.94,-5.55 155.25,-36.14 270.58,-91.74zm820.19 197.95l-12.01 -140.51c-81.61,115.63 -182.73,178.6 -303.37,188.91 -106.8,9.13 -196.2,-16.47 -268.54,-76.77 -71.99,-60.32 -113.17,-149.01 -123.14,-265.75l-53.8 -629.44 308.68 -26.39 52.01 608.52c10.71,125.25 67.86,183.26 171.81,174.38 58.9,-5.04 106.99,-32.02 144.62,-80.98 37.6,-49.32 55.33,-84.43 53.48,-106.08l-53.62 -627.31 308.69 -26.39 83.89 981.42 -308.7 26.39zm1313.33 -380.3l18.95 221.76c-116.91,53.95 -225.73,85.41 -326.14,93.99 -172.44,14.74 -314.44,-19.94 -425.63,-104.08 -111.2,-84.14 -173.49,-202.48 -186.59,-355.76 -12.77,-149.38 28.83,-277.3 124.84,-383.45 96.04,-105.78 224.58,-165.72 386.02,-179.52 103.96,-8.89 216.13,2.96 336.17,35.95l19.62 229.57c-88.91,-36.72 -174.53,-51.56 -256.84,-44.52 -92.25,7.88 -163.84,40.09 -214.76,96.63 -50.93,56.53 -72.69,128.08 -65.29,214.65 7.46,87.29 40.46,155.59 98.97,204.56 58.86,48.93 132.11,69.48 220.1,61.96 64.93,-5.55 155.24,-36.14 270.58,-91.74zm820.18 197.95l-12.01 -140.51c-81.61,115.63 -182.73,178.6 -303.37,188.91 -106.8,9.13 -196.2,-16.47 -268.53,-76.77 -72,-60.32 -113.17,-149.01 -123.15,-265.75l-53.8 -629.44 308.68 -26.38 52.01 608.51c10.71,125.25 67.86,183.26 171.81,174.38 58.9,-5.03 106.99,-32.02 144.62,-80.98 37.6,-49.32 55.33,-84.43 53.48,-106.08l-53.62 -627.31 308.7 -26.39 83.88 981.43 -308.7 26.38zm303.73 -1203.26l30.49 -266.37c79.53,-35.39 160.63,-56.62 243.66,-63.71 108.22,-9.25 196.03,10.4 263.83,59.3 67.44,48.91 105.21,118.6 113,209.79 4.46,52.16 -0.51,106.9 -15.24,164.63 -14.75,57.38 -52.36,131.71 -112.84,222.66 -60.89,90.62 -97,157.33 -109.16,199.11 -12.12,42.14 -16.62,81.48 -13.46,118.39l2.12 24.82c1.3,15.27 -2.14,25.21 -10.68,29.87 -8.18,4.64 -25.76,7.93 -53.09,10.26 -25.54,2.18 -44.12,-1.95 -56.06,-12.01 -11.59,-10.09 -26.62,-39.55 -45.38,-87.61 -18.76,-48.08 -29.94,-91.08 -33.22,-129.4 -6.64,-77.71 17.87,-175.59 73.26,-292.91 39.13,-81.61 56.83,-142.1 53.53,-180.77 -6.19,-72.39 -51.15,-105 -134.89,-97.84 -62.8,5.37 -121.7,35.41 -176,90.1l-19.87 1.69zm183.8 996.47c-4.33,-50.74 10.06,-95.57 43.48,-135.24 33.08,-39.64 75.17,-61.47 126.62,-65.86 50.38,-4.31 95.22,10.08 134.53,43.54 39.67,33.42 61.47,75.16 65.8,125.9 4.4,51.44 -9.96,96.63 -43.42,135.95 -33.12,38.92 -74.87,60.73 -125.25,65.03 -51.45,4.4 -96.63,-9.97 -135.89,-42.71 -39.65,-33.07 -61.47,-75.17 -65.87,-126.61z"/>
  <path class="fil0" d="M16164.47 17987c53.28,-405.54 255.72,-667.56 289.6,-874.03l93.04 -9.17c42.05,426.54 -115.24,706.12 -382.64,883.2zm-1581.64 155.94c53.28,-405.55 255.71,-667.57 289.6,-874.04l93.03 -9.17c42.05,426.55 -115.23,706.12 -382.63,883.21zm-2825.21 1358.88c7.6,77.02 131.27,250.87 171.66,311.86 -122.59,81.19 -199.75,122.42 -358.39,176.26 308.57,821.76 1573.8,-483.97 2340.37,-559.54 68.45,-6.75 297.49,440.38 790.16,391.81 226.6,-22.34 449.21,-338.72 565.75,-519.18 64.25,-99.5 69.99,-135.31 160.86,-210.06 560.91,923.86 1072.94,682.35 1576.94,-202.55 144.24,-253.26 398.02,-728.26 359.82,-1115.69 -162.83,61.13 -346.74,502.11 -610.83,824.23 -441.38,538.34 -875.91,981.22 -755.12,64.49 22.77,-172.9 64.36,-228.56 49.01,-430.09 220.04,90.04 416.96,201.89 701.43,-151.32 51.41,-63.86 169.09,-261.58 205.85,-344.16 375.02,-842.59 -621.15,-1150.65 -781.53,-1072.86 -402.69,195.34 -606.16,1093.43 -691.36,1531.8 -82.99,426.96 -1030.51,1474.89 -1073.04,1043.57 -45.54,-461.91 79.49,-555.71 57,-851.1 220.05,90.05 416.97,201.9 701.42,-151.32 483.46,-600.31 385.27,-1098.17 -322.91,-1409.94 -664.8,-292.68 -1021.47,1665.6 -1012.08,2281.33 -71.37,-38.24 -261.29,-162.13 -343.98,-153.97 -412.66,40.68 -833.65,509.32 -1205.57,635.53 23.97,-182.41 62.31,-259.53 104.73,-427.14l362.13 -1370.35c289.24,-1001.27 261,-922.06 649.6,-1647.53 -262.73,-140.73 -256.84,-262.01 -641.44,-312.53 -142.25,265.59 -226.14,527.38 -326.58,843.67 -161.61,508.97 -707.02,2488.81 -673.9,2824.78z"/>
  <path class="fil0" d="M17958.4 15696.43c26.1,264.8 266.71,567.77 440.96,661.1 75.13,-457.84 1411.59,-702.82 1852.23,-746.26l-492.69 1263.22c-44.19,149.08 -116.06,278.82 -137.61,442.91 -492.81,48.58 -559.32,155.91 -1204.91,165.75 21.93,222.44 113.16,449.31 199.18,590.99 314.67,-38.11 501.92,-190.4 823.58,-222.11 -187.72,515.73 -421.07,1186.64 24.87,1428.74 135.75,73.7 233.8,128.07 410.19,125.38 -128.2,-377.73 144.78,-1412.17 290.91,-1813.58 193.61,-19.08 335.63,16.7 346.31,-126.72 8.19,-109.78 -160.09,-214.53 -243.45,-259.18l503.14 -1553.93c156.12,-292.33 327.32,-27.63 276.54,-542.7 -15.81,-160.38 -52.16,-176.73 -78.61,-321.05 -431.18,42.51 -223.33,237.05 -625.21,299.38 -282.99,43.9 -2424.9,207.76 -2385.43,608.06z"/>
  <g>
   <path class="fil1 str1" d="M15804.63 17344.37c53.27,-405.54 255.72,-667.56 289.59,-874.03l93.05 -9.18c42.05,426.55 -115.25,706.12 -382.64,883.21zm-1581.64 155.93c53.27,-405.54 255.71,-667.56 289.59,-874.03l93.03 -9.17c42.06,426.54 -115.23,706.12 -382.62,883.2zm-2825.21 1358.88c7.59,77.03 131.26,250.88 171.66,311.87 -122.59,81.19 -199.76,122.42 -358.39,176.26 308.56,821.75 1573.79,-483.97 2340.36,-559.55 68.46,-6.75 297.49,440.39 790.17,391.81 226.59,-22.34 449.2,-338.71 565.74,-519.18 64.25,-99.49 70,-135.3 160.87,-210.05 560.9,923.86 1072.94,682.35 1576.93,-202.55 144.25,-253.26 398.02,-728.26 359.83,-1115.7 -162.83,61.14 -346.74,502.12 -610.84,824.23 -441.37,538.35 -875.91,981.23 -755.12,64.49 22.78,-172.9 64.36,-228.55 49.02,-430.09 220.03,90.05 416.96,201.9 701.42,-151.31 51.41,-63.86 169.1,-261.59 205.85,-344.17 375.02,-842.59 -621.14,-1150.64 -781.53,-1072.85 -402.68,195.34 -606.16,1093.43 -691.36,1531.8 -82.98,426.96 -1030.51,1474.89 -1073.03,1043.57 -45.54,-461.91 79.49,-555.71 57,-851.1 220.04,90.04 416.97,201.9 701.42,-151.32 483.45,-600.31 385.26,-1098.17 -322.91,-1409.94 -664.81,-292.69 -1021.47,1665.59 -1012.08,2281.32 -71.37,-38.23 -261.29,-162.12 -343.99,-153.97 -412.65,40.69 -833.65,509.33 -1205.56,635.54 23.97,-182.41 62.3,-259.54 104.72,-427.14l362.13 -1370.35c289.25,-1001.28 261,-922.07 649.61,-1647.54 -262.73,-140.73 -256.85,-262 -641.44,-312.52 -142.26,265.59 -226.15,527.37 -326.58,843.67 -161.62,508.96 -707.02,2488.81 -673.9,2824.77z"/>
   <path id="1" class="fil2" d="M15804.63 17344.37c53.27,-405.54 255.72,-667.56 289.59,-874.03l93.05 -9.18c42.05,426.55 -115.25,706.12 -382.64,883.21zm-1581.64 155.93c53.27,-405.54 255.71,-667.56 289.59,-874.03l93.03 -9.17c42.06,426.54 -115.23,706.12 -382.62,883.2zm-2825.21 1358.88c7.59,77.03 131.26,250.88 171.66,311.87 -122.59,81.19 -199.76,122.42 -358.39,176.26 308.56,821.75 1573.79,-483.97 2340.36,-559.55 68.46,-6.75 297.49,440.39 790.17,391.81 226.59,-22.34 449.2,-338.71 565.74,-519.18 64.25,-99.49 70,-135.3 160.87,-210.05 560.9,923.86 1072.94,682.35 1576.93,-202.55 144.25,-253.26 398.02,-728.26 359.83,-1115.7 -162.83,61.14 -346.74,502.12 -610.84,824.23 -441.37,538.35 -875.91,981.23 -755.12,64.49 22.78,-172.9 64.36,-228.55 49.02,-430.09 220.03,90.05 416.96,201.9 701.42,-151.31 51.41,-63.86 169.1,-261.59 205.85,-344.17 375.02,-842.59 -621.14,-1150.64 -781.53,-1072.85 -402.68,195.34 -606.16,1093.43 -691.36,1531.8 -82.98,426.96 -1030.51,1474.89 -1073.03,1043.57 -45.54,-461.91 79.49,-555.71 57,-851.1 220.04,90.04 416.97,201.9 701.42,-151.32 483.45,-600.31 385.26,-1098.17 -322.91,-1409.94 -664.81,-292.69 -1021.47,1665.59 -1012.08,2281.32 -71.37,-38.23 -261.29,-162.12 -343.99,-153.97 -412.65,40.69 -833.65,509.33 -1205.56,635.54 23.97,-182.41 62.3,-259.54 104.72,-427.14l362.13 -1370.35c289.25,-1001.28 261,-922.07 649.61,-1647.54 -262.73,-140.73 -256.85,-262 -641.44,-312.52 -142.26,265.59 -226.15,527.37 -326.58,843.67 -161.62,508.96 -707.02,2488.81 -673.9,2824.77z"/>
  </g>
  <path class="fil4" d="M4338.46 1908.24c4.73,392.05 -128.93,724.4 -400.9,997.59 -272.05,272.59 -605.55,410.37 -1000.57,412.74l-879.96 7.09 0 -2817.13 872.86 0c390.29,0 721.42,136.02 993.47,407.39 271.98,272.05 410.37,602.64 415.1,992.32zm-478.99 3.51c-2.36,-259.6 -92.82,-478.37 -271.44,-656.99 -178.54,-177.94 -397.92,-267.24 -658.14,-267.24l-393.87 0 0 1852.06 397.39 0c260.21,-2.37 480.2,-92.83 659.96,-270.83 179.77,-178.55 268.47,-397.39 266.1,-657zm1467.12 39.62c-130.08,0 -241.22,45.57 -333.5,136.63 -92.22,91.07 -138.39,201.06 -138.39,331.14l0 895.91 -478.99 0 0 -895.91c0,-264.34 92.28,-487.85 276.78,-671.19 184.49,-182.67 409.22,-274.35 674.1,-274.35l0 477.77zm2173.25 1363.68l-509.2 0 -100.47 -276.78c-189.29,222.36 -430.51,333.57 -724.46,333.57 -264.88,0 -488.99,-92.28 -672.34,-276.78 -183.28,-184.5 -274.95,-408 -274.95,-670.58 0,-201.06 56.72,-382.58 170.3,-544.63 113.51,-162.06 264.94,-277.32 454.17,-345.94 111.15,-40.23 219.92,-60.31 326.4,-60.31 201.06,0 382.58,57.33 544.64,172.06 162.05,114.73 277.31,266.7 345.93,455.93l439.98 1213.46zm-862.17 -892.33c0,-166.18 -67.47,-295.71 -202.28,-387.92 -78.09,-55.03 -167.93,-82.21 -269.68,-82.21 -165.57,0 -293.27,66.25 -383.19,199.3 -56.72,83.36 -85.12,173.27 -85.12,270.83 0,163.81 67.41,292.12 202.21,384.34 82.82,57.4 171.52,85.79 266.1,85.79 130.14,0 241.29,-45.57 333.57,-137.24 92.21,-91.06 138.39,-202.21 138.39,-332.89zm2662.86 1364.22c0,340.6 -139.61,603.18 -418.69,787.67 -160.83,106.48 -337.08,159.69 -528.68,159.69 -335.86,0 -598.44,-140.76 -787.67,-422.27 -108.85,-163.2 -163.2,-338.23 -163.2,-525.09 0,-122.98 23.66,-241.29 70.92,-354.8l443.56 177.4c-23.66,56.79 -35.49,115.88 -35.49,177.4 0,130.07 46.1,240.68 138.39,331.74 92.21,91.07 203.42,136.63 333.49,136.63 127.71,0 237.71,-46.17 329.99,-139 92.21,-92.82 138.39,-202.81 138.39,-331.13 0,-208.77 -98.17,-354.79 -293.95,-438.22 -59.09,14.2 -117.64,21.3 -176.79,21.3 -266.71,0 -491.43,-91.68 -674.17,-274.96 -182.67,-183.34 -274.34,-408.61 -274.34,-675.92 0,-264.95 91.67,-489.06 275.56,-672.34 183.89,-183.35 408,-275.02 671.73,-275.02l276.78 -656.39 379.07 160.84 -251.9 587.83c166.71,80.38 299.76,197.48 398.53,351.28 98.78,153.74 148.47,321.67 148.47,503.8 0,269.68 -98.17,496.77 -294.5,681.26 196.33,186.87 294.5,416.25 294.5,688.3zm-478.99 -1369.56c0,-127.71 -46.18,-237.7 -138.39,-329.99 -92.28,-92.21 -202.28,-138.38 -329.99,-138.38 -130.07,0 -241.28,45.56 -333.49,136.63 -92.29,91.06 -138.39,201.67 -138.39,331.74 0,130.07 46.1,241.28 138.39,333.5 92.21,92.28 203.42,138.39 333.49,138.39 130.08,0 240.68,-46.11 331.75,-138.39 91.06,-92.22 136.63,-203.43 136.63,-333.5zm2006.47 -943.78l-876.37 1841.45 -887.06 -1841.45 567.76 0 322.81 755.77 322.89 -755.77 549.97 0zm1665.88 944.39c0,46.71 -3.52,94.04 -10.62,141.29l-1387.34 0c30.76,99.38 87.55,179.23 170.3,239.53 82.82,60.31 176.25,90.46 280.3,90.46 144.34,0 263.8,-55.57 358.38,-166.72l290.97 386.71c-182.13,172.66 -398.6,259 -649.35,259 -267.25,0 -492.58,-91.68 -675.86,-274.35 -183.35,-183.35 -275.02,-408.07 -275.02,-674.77 0,-264.34 92.28,-487.85 276.78,-671.19 184.5,-182.67 409.22,-274.35 674.1,-274.35 264.94,0 489.06,91.07 672.41,273.81 183.27,182.73 274.95,406.24 274.95,670.58zm-535.78 -217.02c-87.48,-165.63 -224.72,-248.38 -411.58,-248.38 -189.23,0 -327.55,82.75 -415.1,248.38l826.68 0zm1875.25 570.06c0,113.51 -37.86,216.4 -113.51,309.22 -151.43,185.11 -366.69,273.81 -645.77,266.71 -111.21,-2.37 -232.43,-27.18 -363.72,-74.5 -131.22,-47.33 -238.31,-106.41 -321.06,-177.4l266.1 -344.18c127.71,120.68 263.73,180.98 408,180.98l10.68 0c59.16,0 112.36,-10.68 159.62,-31.91 61.52,-28.39 92.28,-68.62 92.28,-120.68l0 -14.19c-7.1,-54.36 -43.74,-93.44 -109.99,-117.1 -26.03,-4.73 -81.6,-15.34 -166.79,-31.91 -106.41,-21.29 -196.32,-47.32 -269.61,-78.08 -215.26,-92.22 -322.89,-254.27 -322.89,-486.09 0,-222.29 110,-389.07 329.99,-500.28 96.95,-49.62 202.21,-75.65 315.79,-78.02 118.24,-2.36 241.21,17.71 368.99,60.31 146.64,49.69 250.75,114.72 312.2,195.17l-319.3 287.4c-82.82,-85.19 -172.67,-127.78 -269.68,-127.78 -151.37,0 -227.09,49.69 -227.09,149.61l0 7.1c0,47.33 61.52,87.55 184.5,120.68 9.46,2.36 87.55,17.71 234.19,46.11 298.07,57.33 447.07,239.46 447.07,548.14l0 10.69zm849.74 544.02c-264.88,0 -489.6,-91.67 -674.1,-274.41 -184.49,-183.28 -276.78,-407.4 -276.78,-671.73l0 -1860.38 478.99 0 0 965.07 471.89 0 0 408 -471.89 0 0 486.09c0,130.14 46.18,240.68 138.39,331.74 92.28,91.07 203.43,136.63 333.5,136.63l0 478.99zm413.41 -2249.52c0,80.45 -27.18,148.46 -81.6,204.04 -54.42,55.57 -121.83,83.36 -202.21,83.36 -80.45,0 -148.46,-27.79 -204.03,-83.36 -55.58,-55.58 -83.36,-123.59 -83.36,-204.04 0,-80.38 27.78,-147.78 83.36,-202.21 55.57,-54.42 123.58,-81.6 204.03,-81.6 78.02,0 144.88,27.79 200.45,83.36 55.57,55.57 83.36,122.44 83.36,200.45zm-42.59 2249.52l-478.99 0 0 -1841.45 478.99 0 0 1841.45z"/>
  <g>
   <path class="fil1 str2" d="M17573.15 15130c26.11,264.8 266.71,567.77 440.96,661.1 75.13,-457.84 1411.59,-702.82 1852.23,-746.26l-492.68 1263.21c-44.2,149.09 -116.06,278.83 -137.62,442.92 -492.8,48.58 -559.31,155.9 -1204.9,165.75 21.93,222.44 113.16,449.3 199.17,590.99 314.68,-38.11 501.93,-190.4 823.59,-222.11 -187.73,515.73 -421.07,1186.64 24.86,1428.74 135.75,73.69 233.81,128.07 410.19,125.38 -128.19,-377.73 144.79,-1412.17 290.91,-1813.58 193.62,-19.09 335.63,16.7 346.31,-126.72 8.19,-109.79 -160.09,-214.53 -243.45,-259.19l503.15 -1553.92c156.12,-292.33 327.32,-27.63 276.54,-542.7 -15.82,-160.39 -52.17,-176.73 -78.62,-321.05 -431.17,42.51 -223.32,237.05 -625.2,299.38 -282.99,43.89 -2424.9,207.76 -2385.44,608.06z"/>
   <path id="1" class="fil2" d="M17573.15 15130c26.11,264.8 266.71,567.77 440.96,661.1 75.13,-457.84 1411.59,-702.82 1852.23,-746.26l-492.68 1263.21c-44.2,149.09 -116.06,278.83 -137.62,442.92 -492.8,48.58 -559.31,155.9 -1204.9,165.75 21.93,222.44 113.16,449.3 199.17,590.99 314.68,-38.11 501.93,-190.4 823.59,-222.11 -187.73,515.73 -421.07,1186.64 24.86,1428.74 135.75,73.69 233.81,128.07 410.19,125.38 -128.19,-377.73 144.79,-1412.17 290.91,-1813.58 193.62,-19.09 335.63,16.7 346.31,-126.72 8.19,-109.79 -160.09,-214.53 -243.45,-259.19l503.15 -1553.92c156.12,-292.33 327.32,-27.63 276.54,-542.7 -15.82,-160.39 -52.17,-176.73 -78.62,-321.05 -431.17,42.51 -223.32,237.05 -625.2,299.38 -282.99,43.89 -2424.9,207.76 -2385.44,608.06z"/>
  </g>
 </g>
</svg>
