<?xml version="1.0" encoding="UTF-8"?>
<!DOCTYPE svg PUBLIC "-//W3C//DTD SVG 1.1//EN" "http://www.w3.org/Graphics/SVG/1.1/DTD/svg11.dtd">
<!-- Creator: CorelDRAW 2017 -->
<svg xmlns="http://www.w3.org/2000/svg" xml:space="preserve" width="2.5398mm" height="2.5398mm" version="1.1" style="shape-rendering:geometricPrecision; text-rendering:geometricPrecision; image-rendering:optimizeQuality; fill-rule:evenodd; clip-rule:evenodd"
viewBox="0 0 253.98 253.98"
 xmlns:xlink="http://www.w3.org/1999/xlink">
 <defs>
  <style type="text/css">
   <![CDATA[
    .fil0 {fill:#D2D3D5}
   ]]>
  </style>
 </defs>
 <g id="Capa_x0020_1">
  <metadata id="CorelCorpID_0Corel-Layer"/>
  <path class="fil0" d="M-0.01 123.74l0 6.5c7.99,13.62 6.59,12.72 31.33,12.42 2.31,12.69 0.49,47.75 0.49,62.79 0,37.35 -4.25,38.62 12.83,48.54l50.45 0c0,-21.45 0,-42.9 0,-64.35 -0.01,-30.51 2.55,-31.07 32.46,-31.07 30.03,0 31.35,2.15 31.34,32.2 0,21.07 0,42.15 0,63.22l50.45 0c8.19,-4.75 12.69,-5.37 12.87,-18 0.29,-20.65 -1.67,-81.66 0.45,-93.33 24.73,0.3 23.32,1.24 31.33,-12.43l0 -6.49c-5.32,-8.91 -1.21,-5.31 -11.28,-15.39 -20.51,-20.56 -20.63,-15.84 -20.54,-32.72 0.04,-8.65 0,-17.32 0,-25.97 0,-18.56 2.12,-33.67 -18.91,-33.91 -8.7,-0.09 -17.72,-0.77 -23.3,3.92 -5.87,4.94 -4.35,11.27 -5.53,20.43l-31.66 -31.61c-7.62,-7.41 -6.42,-4.83 -12.53,-8.5l-6.49 0c-11.73,7 -6.04,2.01 -17.62,13.57l-93.17 93.1c-11.48,11.46 -6.4,6.07 -12.97,17.08z"/>
 </g>
</svg>
